<svg class="bob" font-family="arial" font-size="14" height="432" width="528" xmlns="http://www.w3.org/2000/svg">
<defs>
<marker id="triangle" markerHeight="8" markerWidth="8" orient="auto" refX="4" refY="2" viewBox="0 0 8 4">
<polygon fill="black" points="0,0 0,4 8,2 0,0"/>
</marker>
<marker id="clear_triangle" markerHeight="10" markerWidth="10" orient="auto" refX="1" refY="7" viewBox="0 0 20 14">
<polygon fill="none" points="2,2 2,12 18,7 2,2" stroke="black" stroke-width="2"/>
</marker>
<marker id="circle" markerHeight="5" markerWidth="5" orient="auto" refX="10" refY="10" viewBox="0 0 20 20">
<circle cx="10" cy="10" fill="black" r="8"/>
</marker>
<marker id="square" markerHeight="5" markerWidth="5" orient="auto" refX="10" refY="10" viewBox="0 0 20 20">
<rect fill="black" height="20" width="20" x="0" y="0"/>
</marker>
<marker id="open_circle" markerHeight="10" markerWidth="10" orient="auto" refX="10" refY="10" viewBox="0 0 20 20">
<circle cx="10" cy="10" fill="white" r="4" stroke="black" stroke-width="2"/>
</marker>
<marker id="big_open_circle" markerHeight="20" markerWidth="20" orient="auto" refX="20" refY="20" viewBox="0 0 40 40">
<circle cx="20" cy="20" fill="white" r="6" stroke="black" stroke-width="2"/>
</marker>
</defs>
<style type="text/css">

    line,path {
      stroke: black;
      stroke-width: 2;
      stroke-opacity: 1;
      fill-opacity: 1;
      stroke-linecap: round;
      stroke-linejoin: miter;
    }
    line.dashed {
        stroke-dasharray: 5;
    }
    circle.solid {
      fill:black;
      stroke: black;
      stroke-width: 2;
      stroke-opacity: 1;
      fill-opacity: 1;
      stroke-linecap: round;
      stroke-linejoin: miter;
    }
    circle.open {
      fill:none;
      stroke: black;
      stroke-width: 2;
      stroke-opacity: 1;
      fill-opacity: 1;
      stroke-linecap: round;
      stroke-linejoin: miter;
    }
    tspan.head{
        fill: none;
        stroke: none;
    }
    
</style>
<rect fill="white" height="432" width="528" x="0" y="0"/>
<g>
<line x1="12" x2="12" y1="60" y2="116"/>
<path d="M 12 116 A 4 4 0 0 0 16 120" fill="none"/>
<path d="M 16 56 A 4 4 0 0 0 12 60" fill="none"/>
</g>
<g>
<line x1="16" x2="80" y1="56" y2="56"/>
<path d="M 84 60 A 4 4 0 0 0 80 56" fill="none"/>
</g>
<g>
<line x1="16" x2="52" y1="120" y2="120"/>
<line x1="52" x2="52" y1="120" y2="324"/>
<line x1="52" x2="80" y1="120" y2="120"/>
<path d="M 52 324 A 4 4 0 0 0 56 328" fill="none"/>
<path d="M 80 120 A 4 4 0 0 0 84 116" fill="none"/>
</g>
<g>
<line marker-end="url(#triangle)" x1="56" x2="124" y1="328" y2="328"/>
</g>
<g>
<line x1="84" x2="84" y1="60" y2="116"/>
</g>
<g>
<line marker-end="url(#triangle)" x1="84" x2="124" y1="72" y2="72"/>
</g>
<g>
<line marker-end="url(#triangle)" x1="96" x2="92" y1="104" y2="104"/>
<line x1="96" x2="132" y1="104" y2="104"/>
</g>
<g>
<line x1="108" x2="108" y1="12" y2="64"/>
<path d="M 112 8 A 4 4 0 0 0 108 12" fill="none"/>
</g>
<g>
<line x1="108" x2="108" y1="80" y2="96"/>
</g>
<g>
<line x1="108" x2="108" y1="112" y2="320"/>
</g>
<g>
<line x1="108" x2="108" y1="336" y2="388"/>
<path d="M 108 388 A 4 4 0 0 0 112 392" fill="none"/>
</g>
<g>
<line x1="112" x2="328" y1="8" y2="8"/>
<path d="M 332 12 A 4 4 0 0 0 328 8" fill="none"/>
</g>
<g>
<line x1="112" x2="328" y1="392" y2="392"/>
<path d="M 328 392 A 4 4 0 0 0 332 388" fill="none"/>
</g>
<g>
<line x1="132" x2="132" y1="60" y2="116"/>
<path d="M 132 116 A 4 4 0 0 0 136 120" fill="none"/>
<path d="M 136 56 A 4 4 0 0 0 132 60" fill="none"/>
</g>
<g>
<line x1="132" x2="132" y1="236" y2="260"/>
<path d="M 132 260 A 4 4 0 0 0 136 264" fill="none"/>
<path d="M 136 232 A 4 4 0 0 0 132 236" fill="none"/>
</g>
<g>
<line x1="132" x2="132" y1="316" y2="340"/>
<path d="M 132 340 A 4 4 0 0 0 136 344" fill="none"/>
<path d="M 136 312 A 4 4 0 0 0 132 316" fill="none"/>
</g>
<g>
<line x1="136" x2="280" y1="56" y2="56"/>
<path d="M 284 60 A 4 4 0 0 0 280 56" fill="none"/>
</g>
<g>
<line x1="136" x2="280" y1="120" y2="120"/>
<path d="M 280 120 A 4 4 0 0 0 284 116" fill="none"/>
</g>
<g>
<line x1="136" x2="156" y1="232" y2="232"/>
<line x1="156" x2="156" y1="144" y2="232"/>
<line x1="156" x2="184" y1="232" y2="232"/>
<path d="M 188 236 A 4 4 0 0 0 184 232" fill="none"/>
</g>
<g>
<line x1="136" x2="184" y1="264" y2="264"/>
<path d="M 184 264 A 4 4 0 0 0 188 260" fill="none"/>
</g>
<g>
<line x1="136" x2="156" y1="312" y2="312"/>
<line x1="156" x2="156" y1="288" y2="312"/>
<line x1="156" x2="176" y1="312" y2="312"/>
<path d="M 180 316 A 4 4 0 0 0 176 312" fill="none"/>
</g>
<g>
<line x1="136" x2="176" y1="344" y2="344"/>
<path d="M 176 344 A 4 4 0 0 0 180 340" fill="none"/>
</g>
<g>
<line marker-end="url(#triangle)" x1="156" x2="156" y1="144" y2="132"/>
</g>
<g>
<line marker-end="url(#triangle)" x1="156" x2="156" y1="288" y2="276"/>
</g>
<g>
<line x1="180" x2="180" y1="316" y2="328"/>
<line x1="180" x2="180" y1="328" y2="340"/>
<line marker-end="url(#triangle)" x1="180" x2="204" y1="328" y2="328"/>
</g>
<g>
<line x1="188" x2="188" y1="236" y2="260"/>
</g>
<g>
<line marker-end="url(#triangle)" x1="200" x2="196" y1="248" y2="248"/>
<line x1="200" x2="220" y1="248" y2="248"/>
</g>
<g>
<line x1="212" x2="212" y1="316" y2="356"/>
<path d="M 212 356 A 4 4 0 0 0 216 360" fill="none"/>
<path d="M 216 312 A 4 4 0 0 0 212 316" fill="none"/>
</g>
<g>
<line x1="216" x2="304" y1="312" y2="312"/>
<path d="M 308 316 A 4 4 0 0 0 304 312" fill="none"/>
</g>
<g>
<line x1="216" x2="304" y1="360" y2="360"/>
<path d="M 304 360 A 4 4 0 0 0 308 356" fill="none"/>
</g>
<g>
<line x1="220" x2="220" y1="156" y2="180"/>
<path d="M 220 180 A 4 4 0 0 0 224 184" fill="none"/>
<path d="M 224 152 A 4 4 0 0 0 220 156" fill="none"/>
</g>
<g>
<line x1="220" x2="220" y1="236" y2="260"/>
<path d="M 220 260 A 4 4 0 0 0 224 264" fill="none"/>
<path d="M 224 232 A 4 4 0 0 0 220 236" fill="none"/>
</g>
<g>
<line x1="224" x2="264" y1="152" y2="152"/>
<path d="M 268 156 A 4 4 0 0 0 264 152" fill="none"/>
</g>
<g>
<line x1="224" x2="252" y1="184" y2="184"/>
<line marker-end="url(#triangle)" x1="252" x2="252" y1="184" y2="220"/>
<line x1="252" x2="264" y1="184" y2="184"/>
<path d="M 264 184 A 4 4 0 0 0 268 180" fill="none"/>
</g>
<g>
<line x1="224" x2="236" y1="232" y2="232"/>
<line x1="236" x2="236" y1="208" y2="232"/>
<line x1="236" x2="264" y1="232" y2="232"/>
<path d="M 268 236 A 4 4 0 0 0 264 232" fill="none"/>
</g>
<g>
<line x1="224" x2="264" y1="264" y2="264"/>
<path d="M 264 264 A 4 4 0 0 0 268 260" fill="none"/>
</g>
<g>
<line marker-end="url(#triangle)" x1="236" x2="236" y1="208" y2="196"/>
</g>
<g>
<line x1="268" x2="268" y1="156" y2="180"/>
</g>
<g>
<line x1="268" x2="268" y1="236" y2="260"/>
</g>
<g>
<line marker-end="url(#triangle)" x1="280" x2="276" y1="168" y2="168"/>
<line marker-end="url(#triangle)" x1="280" x2="364" y1="168" y2="168"/>
</g>
<g>
<line marker-end="url(#triangle)" x1="280" x2="276" y1="248" y2="248"/>
<line x1="280" x2="396" y1="248" y2="248"/>
<line x1="396" x2="396" y1="188" y2="248"/>
<line x1="396" x2="396" y1="248" y2="260"/>
<path d="M 396 260 A 4 4 0 0 0 400 264" fill="none"/>
<path d="M 400 184 A 4 4 0 0 0 396 188" fill="none"/>
</g>
<g>
<line x1="284" x2="284" y1="60" y2="116"/>
</g>
<g>
<line x1="308" x2="308" y1="316" y2="328"/>
<line x1="308" x2="308" y1="328" y2="356"/>
<line marker-end="url(#triangle)" x1="308" x2="388" y1="328" y2="328"/>
</g>
<g>
<line x1="332" x2="332" y1="12" y2="160"/>
</g>
<g>
<line x1="332" x2="332" y1="176" y2="240"/>
</g>
<g>
<line x1="332" x2="332" y1="256" y2="320"/>
</g>
<g>
<line x1="332" x2="332" y1="336" y2="388"/>
</g>
<g>
<line x1="372" x2="372" y1="140" y2="240"/>
<path d="M 376 136 A 4 4 0 0 0 372 140" fill="none"/>
</g>
<g>
<line x1="372" x2="372" y1="256" y2="320"/>
</g>
<g>
<line x1="372" x2="372" y1="336" y2="404"/>
<path d="M 372 404 A 4 4 0 0 0 376 408" fill="none"/>
</g>
<g>
<line x1="376" x2="520" y1="136" y2="136"/>
<path d="M 524 140 A 4 4 0 0 0 520 136" fill="none"/>
</g>
<g>
<line x1="376" x2="520" y1="408" y2="408"/>
<path d="M 520 408 A 4 4 0 0 0 524 404" fill="none"/>
</g>
<g>
<line x1="396" x2="396" y1="300" y2="372"/>
<path d="M 396 372 A 4 4 0 0 0 400 376" fill="none"/>
<path d="M 400 296 A 4 4 0 0 0 396 300" fill="none"/>
</g>
<g>
<line x1="400" x2="496" y1="184" y2="184"/>
<path d="M 500 188 A 4 4 0 0 0 496 184" fill="none"/>
</g>
<g>
<line x1="400" x2="496" y1="264" y2="264"/>
<path d="M 496 264 A 4 4 0 0 0 500 260" fill="none"/>
</g>
<g>
<line x1="400" x2="496" y1="296" y2="296"/>
<path d="M 500 300 A 4 4 0 0 0 496 296" fill="none"/>
</g>
<g>
<line x1="400" x2="496" y1="376" y2="376"/>
<path d="M 496 376 A 4 4 0 0 0 500 372" fill="none"/>
</g>
<g>
<line x1="500" x2="500" y1="188" y2="260"/>
</g>
<g>
<line x1="500" x2="500" y1="300" y2="372"/>
</g>
<g>
<line x1="524" x2="524" y1="140" y2="404"/>
</g>
<g>
<text x="25" y="92">
Client
</text>
</g>
<g>
<text x="129" y="28">
Fullnode
</text>
</g>
<g>
<text x="145" y="92">
JSON
</text>
</g>
<g>
<text x="145" y="252">
Bank
</text>
</g>
<g>
<text x="145" y="332">
TPU
</text>
</g>
<g>
<text x="185" y="92">
RPC
</text>
</g>
<g>
<text x="217" y="92">
Service
</text>
</g>
<g>
<text x="225" y="332">
Broadcast
</text>
</g>
<g>
<text x="225" y="348">
Stage
</text>
</g>
<g>
<text x="233" y="172">
NCP
</text>
</g>
<g>
<text x="233" y="252">
TVU
</text>
</g>
<g>
<text x="385" y="156">
Validators
</text>
</g>
<g>
<text x="409" y="220">
Upstream
</text>
</g>
<g>
<text x="409" y="236">
Validators
</text>
</g>
<g>
<text x="409" y="332">
Downstream
</text>
</g>
<g>
<text x="409" y="348">
Validators
</text>
</g>
</svg>
