<svg class="bob" font-family="arial" font-size="14" height="208" width="768" xmlns="http://www.w3.org/2000/svg">
<defs>
<marker id="triangle" markerHeight="8" markerWidth="8" orient="auto" refX="4" refY="2" viewBox="0 0 8 4">
<polygon fill="black" points="0,0 0,4 8,2 0,0"/>
</marker>
<marker id="clear_triangle" markerHeight="10" markerWidth="10" orient="auto" refX="1" refY="7" viewBox="0 0 20 14">
<polygon fill="none" points="2,2 2,12 18,7 2,2" stroke="black" stroke-width="2"/>
</marker>
<marker id="circle" markerHeight="5" markerWidth="5" orient="auto" refX="10" refY="10" viewBox="0 0 20 20">
<circle cx="10" cy="10" fill="black" r="8"/>
</marker>
<marker id="square" markerHeight="5" markerWidth="5" orient="auto" refX="10" refY="10" viewBox="0 0 20 20">
<rect fill="black" height="20" width="20" x="0" y="0"/>
</marker>
<marker id="open_circle" markerHeight="10" markerWidth="10" orient="auto" refX="10" refY="10" viewBox="0 0 20 20">
<circle cx="10" cy="10" fill="white" r="4" stroke="black" stroke-width="2"/>
</marker>
<marker id="big_open_circle" markerHeight="20" markerWidth="20" orient="auto" refX="20" refY="20" viewBox="0 0 40 40">
<circle cx="20" cy="20" fill="white" r="6" stroke="black" stroke-width="2"/>
</marker>
</defs>
<style type="text/css">

    line,path {
      stroke: black;
      stroke-width: 2;
      stroke-opacity: 1;
      fill-opacity: 1;
      stroke-linecap: round;
      stroke-linejoin: miter;
    }
    line.dashed {
        stroke-dasharray: 5;
    }
    circle.solid {
      fill:black;
      stroke: black;
      stroke-width: 2;
      stroke-opacity: 1;
      fill-opacity: 1;
      stroke-linecap: round;
      stroke-linejoin: miter;
    }
    circle.open {
      fill:none;
      stroke: black;
      stroke-width: 2;
      stroke-opacity: 1;
      fill-opacity: 1;
      stroke-linecap: round;
      stroke-linejoin: miter;
    }
    tspan.head{
        fill: none;
        stroke: none;
    }
    
</style>
<rect fill="white" height="208" width="768" x="0" y="0"/>
<g>
<line marker-end="url(#triangle)" x1="76" x2="76" y1="32" y2="172"/>
</g>
<g>
<line x1="124" x2="124" y1="24" y2="56"/>
<line x1="124" x2="164" y1="24" y2="24"/>
<line x1="124" x2="124" y1="56" y2="88"/>
<line x1="124" x2="164" y1="56" y2="56"/>
<line x1="124" x2="124" y1="88" y2="120"/>
<line x1="124" x2="164" y1="88" y2="88"/>
<line x1="124" x2="124" y1="120" y2="152"/>
<line x1="124" x2="164" y1="120" y2="120"/>
<line x1="124" x2="124" y1="152" y2="184"/>
<line x1="124" x2="164" y1="152" y2="152"/>
<line x1="124" x2="164" y1="184" y2="184"/>
<line x1="164" x2="164" y1="24" y2="56"/>
<line x1="164" x2="164" y1="56" y2="88"/>
<line x1="164" x2="164" y1="88" y2="120"/>
<line x1="164" x2="164" y1="120" y2="152"/>
<line x1="164" x2="164" y1="152" y2="184"/>
</g>
<g>
<line x1="188" x2="188" y1="144" y2="160"/>
</g>
<g>
<line x1="200" x2="208" y1="128" y2="112"/>
</g>
<g>
<line x1="224" x2="236" y1="112" y2="136"/>
</g>
<g>
<line x1="232" x2="240" y1="96" y2="80"/>
</g>
<g>
<line x1="236" x2="236" y1="144" y2="160"/>
</g>
<g>
<line x1="260" x2="260" y1="144" y2="160"/>
</g>
<g>
<line x1="264" x2="272" y1="64" y2="48"/>
</g>
<g>
<line x1="272" x2="280" y1="80" y2="96"/>
</g>
<g>
<line x1="272" x2="280" y1="128" y2="112"/>
</g>
<g>
<line x1="304" x2="316" y1="112" y2="136"/>
</g>
<g>
<line x1="316" x2="316" y1="144" y2="160"/>
</g>
<g>
<line x1="348" x2="360" y1="136" y2="112"/>
</g>
<g>
<line x1="348" x2="348" y1="144" y2="160"/>
</g>
<g>
<line x1="368" x2="376" y1="96" y2="80"/>
</g>
<g>
<line x1="376" x2="384" y1="48" y2="64"/>
</g>
<g>
<line x1="376" x2="388" y1="112" y2="136"/>
</g>
<g>
<line x1="388" x2="388" y1="144" y2="160"/>
</g>
<g>
<line x1="416" x2="424" y1="80" y2="96"/>
</g>
<g>
<line x1="420" x2="420" y1="144" y2="160"/>
</g>
<g>
<line x1="436" x2="420" y1="104" y2="136"/>
</g>
<g>
<line x1="448" x2="460" y1="112" y2="136"/>
</g>
<g>
<line x1="460" x2="460" y1="144" y2="160"/>
</g>
<g>
<line x1="512" x2="640" y1="24" y2="24"/>
</g>
<g>
<text x="17" y="108">
time
</text>
</g>
<g>
<text x="137" y="44">
L1
</text>
</g>
<g>
<text x="137" y="76">
L2
</text>
</g>
<g>
<text x="137" y="108">
L3
</text>
</g>
<g>
<text x="137" y="140">
L4
</text>
</g>
<g>
<text x="137" y="172">
L5
</text>
</g>
<g>
<text x="185" y="140">
x
</text>
</g>
<g>
<text x="185" y="172">
xx
</text>
</g>
<g>
<text x="209" y="108">
E3
</text>
</g>
<g>
<text x="225" y="172">
xx
</text>
</g>
<g>
<text x="249" y="76">
E2
</text>
</g>
<g>
<text x="257" y="140">
E4
</text>
</g>
<g>
<text x="257" y="172">
xx
</text>
</g>
<g>
<text x="289" y="108">
x
</text>
</g>
<g>
<text x="305" y="172">
E5
</text>
</g>
<g>
<text x="313" y="44">
E1
</text>
</g>
<g>
<text x="337" y="172">
xx
</text>
</g>
<g>
<text x="361" y="108">
E3&#39;
</text>
</g>
<g>
<text x="377" y="172">
xx
</text>
</g>
<g>
<text x="393" y="76">
x
</text>
</g>
<g>
<text x="409" y="172">
xx
</text>
</g>
<g>
<text x="449" y="172">
xx
</text>
</g>
<g>
<text x="513" y="12">
validator
</text>
</g>
<g>
<text x="513" y="60">
vote(E1)
</text>
</g>
<g>
<text x="513" y="92">
vote(E2)
</text>
</g>
<g>
<text x="513" y="124">
slash(E3)
</text>
</g>
<g>
<text x="513" y="156">
vote(E4)
</text>
</g>
<g>
<text x="513" y="188">
hang
</text>
</g>
<g>
<text x="553" y="188">
on
</text>
</g>
<g>
<text x="577" y="188">
to
</text>
</g>
<g>
<text x="593" y="12">
action
</text>
</g>
<g>
<text x="601" y="188">
E4
</text>
</g>
<g>
<text x="625" y="188">
and
</text>
</g>
<g>
<text x="657" y="188">
E5
</text>
</g>
<g>
<text x="681" y="188">
for
</text>
</g>
<g>
<text x="713" y="188">
more...
</text>
</g>
</svg>
