<svg class="bob" font-family="arial" font-size="14" height="384" width="440" xmlns="http://www.w3.org/2000/svg">
<defs>
<marker id="triangle" markerHeight="8" markerWidth="8" orient="auto" refX="4" refY="2" viewBox="0 0 8 4">
<polygon fill="black" points="0,0 0,4 8,2 0,0"/>
</marker>
<marker id="clear_triangle" markerHeight="10" markerWidth="10" orient="auto" refX="1" refY="7" viewBox="0 0 20 14">
<polygon fill="none" points="2,2 2,12 18,7 2,2" stroke="black" stroke-width="2"/>
</marker>
<marker id="circle" markerHeight="5" markerWidth="5" orient="auto" refX="10" refY="10" viewBox="0 0 20 20">
<circle cx="10" cy="10" fill="black" r="8"/>
</marker>
<marker id="square" markerHeight="5" markerWidth="5" orient="auto" refX="10" refY="10" viewBox="0 0 20 20">
<rect fill="black" height="20" width="20" x="0" y="0"/>
</marker>
<marker id="open_circle" markerHeight="10" markerWidth="10" orient="auto" refX="10" refY="10" viewBox="0 0 20 20">
<circle cx="10" cy="10" fill="white" r="4" stroke="black" stroke-width="2"/>
</marker>
<marker id="big_open_circle" markerHeight="20" markerWidth="20" orient="auto" refX="20" refY="20" viewBox="0 0 40 40">
<circle cx="20" cy="20" fill="white" r="6" stroke="black" stroke-width="2"/>
</marker>
</defs>
<style type="text/css">

    line,path {
      stroke: black;
      stroke-width: 2;
      stroke-opacity: 1;
      fill-opacity: 1;
      stroke-linecap: round;
      stroke-linejoin: miter;
    }
    line.dashed {
        stroke-dasharray: 5;
    }
    circle.solid {
      fill:black;
      stroke: black;
      stroke-width: 2;
      stroke-opacity: 1;
      fill-opacity: 1;
      stroke-linecap: round;
      stroke-linejoin: miter;
    }
    circle.open {
      fill:none;
      stroke: black;
      stroke-width: 2;
      stroke-opacity: 1;
      fill-opacity: 1;
      stroke-linecap: round;
      stroke-linejoin: miter;
    }
    tspan.head{
        fill: none;
        stroke: none;
    }
    
</style>
<rect fill="white" height="384" width="440" x="0" y="0"/>
<g>
<line x1="20" x2="20" y1="8" y2="376"/>
<line x1="20" x2="196" y1="8" y2="8"/>
<line x1="20" x2="196" y1="376" y2="376"/>
<line x1="196" x2="196" y1="8" y2="200"/>
<line x1="196" x2="196" y1="200" y2="376"/>
<line marker-end="url(#triangle)" x1="196" x2="252" y1="200" y2="200"/>
</g>
<g>
<line x1="52" x2="52" y1="40" y2="104"/>
<line x1="52" x2="156" y1="40" y2="40"/>
<line x1="52" x2="100" y1="104" y2="104"/>
<line x1="100" x2="100" y1="104" y2="152"/>
<line x1="100" x2="156" y1="104" y2="104"/>
<line x1="100" x2="156" y1="152" y2="152"/>
<line x1="156" x2="156" y1="40" y2="104"/>
<line x1="156" x2="156" y1="152" y2="216"/>
</g>
<g>
<line x1="52" x2="52" y1="152" y2="216"/>
<line x1="52" x2="100" y1="152" y2="152"/>
<line x1="52" x2="100" y1="216" y2="216"/>
<line x1="100" x2="100" y1="216" y2="264"/>
<line x1="100" x2="156" y1="216" y2="216"/>
<line x1="100" x2="156" y1="264" y2="264"/>
<line x1="156" x2="156" y1="264" y2="328"/>
</g>
<g>
<line x1="52" x2="52" y1="264" y2="328"/>
<line x1="52" x2="100" y1="264" y2="264"/>
<line x1="52" x2="156" y1="328" y2="328"/>
</g>
<g>
<line x1="260" x2="260" y1="8" y2="200"/>
<line x1="260" x2="436" y1="8" y2="8"/>
<line x1="260" x2="256" y1="200" y2="200"/>
<line x1="260" x2="260" y1="200" y2="376"/>
<line x1="260" x2="436" y1="376" y2="376"/>
<line x1="436" x2="436" y1="8" y2="376"/>
</g>
<g>
<line x1="292" x2="292" y1="40" y2="104"/>
<line x1="292" x2="396" y1="40" y2="40"/>
<line x1="292" x2="340" y1="104" y2="104"/>
<line x1="340" x2="340" y1="104" y2="152"/>
<line x1="340" x2="396" y1="104" y2="104"/>
<line x1="340" x2="396" y1="152" y2="152"/>
<line x1="396" x2="396" y1="40" y2="104"/>
<line x1="396" x2="396" y1="152" y2="216"/>
</g>
<g>
<line x1="292" x2="292" y1="152" y2="216"/>
<line x1="292" x2="340" y1="152" y2="152"/>
<line x1="292" x2="340" y1="216" y2="216"/>
<line x1="340" x2="340" y1="216" y2="264"/>
<line x1="340" x2="396" y1="216" y2="216"/>
<line x1="340" x2="396" y1="264" y2="264"/>
<line x1="396" x2="396" y1="264" y2="328"/>
</g>
<g>
<line x1="292" x2="292" y1="264" y2="328"/>
<line x1="292" x2="340" y1="264" y2="264"/>
<line x1="292" x2="396" y1="328" y2="328"/>
</g>
<g>
<text x="73" y="76">
frontend
</text>
</g>
<g>
<text x="89" y="188">
llvm
</text>
</g>
<g>
<text x="89" y="300">
ELF
</text>
</g>
<g>
<text x="89" y="364">
client
</text>
</g>
<g>
<text x="313" y="76">
verifier
</text>
</g>
<g>
<text x="321" y="188">
loader
</text>
</g>
<g>
<text x="321" y="300">
runtime
</text>
</g>
<g>
<text x="321" y="364">
solana
</text>
</g>
</svg>
