<!DOCTYPE svg PUBLIC "-//W3C//DTD SVG 1.1//EN"
 "http://www.w3.org/Graphics/SVG/1.1/DTD/svg11.dtd">
<svg version="1.1"
 width="600px" height="330px"
 viewBox="0 0 600 330"
 xmlns="http://www.w3.org/2000/svg" shape-rendering="crispEdges"
 stroke-width="1" text-rendering="geometricPrecision">
<polygon fill="white" points="44,7 74,7 74,16 44,16"/>
<text x="60" y="16" textLength="28" font-family="Helvetica" font-size="12" fill="black" text-anchor="middle">

client
</text>
<polygon fill="white" points="162,7 196,7 196,16 162,16"/>
<text x="180" y="16" textLength="33" font-family="Helvetica" font-size="12" fill="black" text-anchor="middle">

leader
</text>
<polygon fill="white" points="274,7 324,7 324,16 274,16"/>
<text x="300" y="16" textLength="49" font-family="Helvetica" font-size="12" fill="black" text-anchor="middle">

verifier_a
</text>
<polygon fill="white" points="394,7 444,7 444,16 394,16"/>
<text x="420" y="16" textLength="49" font-family="Helvetica" font-size="12" fill="black" text-anchor="middle">

verifier_b
</text>
<polygon fill="white" points="514,7 564,7 564,16 514,16"/>
<text x="540" y="16" textLength="49" font-family="Helvetica" font-size="12" fill="black" text-anchor="middle">

verifier_c
</text>
<line x1="60" y1="22" x2="60" y2="50" stroke="black"/>
<line x1="180" y1="22" x2="180" y2="50" stroke="black"/>
<line x1="300" y1="22" x2="300" y2="50" stroke="black"/>
<line x1="420" y1="22" x2="420" y2="50" stroke="black"/>
<line x1="540" y1="22" x2="540" y2="50" stroke="black"/>
<line x1="60" y1="33" x2="180" y2="33" stroke="black"/>
<polygon fill="black" points="180,33 170,39 170,27"/>
<polygon fill="white" points="96,23 143,23 143,32 96,32"/>
<text x="97" y="32" textLength="45" font-family="Helvetica" font-size="12" fill="black">
SUBMIT
</text>
<line x1="60" y1="50" x2="60" y2="78" stroke="black"/>
<line x1="180" y1="50" x2="180" y2="78" stroke="black"/>
<line x1="300" y1="50" x2="300" y2="78" stroke="black"/>
<line x1="420" y1="50" x2="420" y2="78" stroke="black"/>
<line x1="540" y1="50" x2="540" y2="78" stroke="black"/>
<line x1="180" y1="61" x2="60" y2="61" stroke="black"/>
<polygon fill="black" points="60,61 70,67 70,55"/>
<polygon fill="white" points="82,51 157,51 157,60 82,60"/>
<text x="83" y="60" textLength="73" font-family="Helvetica" font-size="12" fill="black">
CONFIRMED
</text>
<line x1="60" y1="78" x2="60" y2="106" stroke="black"/>
<line x1="180" y1="78" x2="180" y2="106" stroke="black"/>
<line x1="300" y1="78" x2="300" y2="106" stroke="black"/>
<line x1="420" y1="78" x2="420" y2="106" stroke="black"/>
<line x1="540" y1="78" x2="540" y2="106" stroke="black"/>
<line x1="180" y1="89" x2="300" y2="89" stroke="black"/>
<polygon fill="black" points="300,89 290,95 290,83"/>
<polygon fill="white" points="202,79 277,79 277,88 202,88"/>
<text x="203" y="88" textLength="73" font-family="Helvetica" font-size="12" fill="black">
CONFIRMED
</text>
<line x1="60" y1="106" x2="60" y2="134" stroke="black"/>
<line x1="180" y1="106" x2="180" y2="134" stroke="black"/>
<line x1="300" y1="106" x2="300" y2="134" stroke="black"/>
<line x1="420" y1="106" x2="420" y2="134" stroke="black"/>
<line x1="540" y1="106" x2="540" y2="134" stroke="black"/>
<line x1="180" y1="117" x2="420" y2="117" stroke="black"/>
<polygon fill="black" points="420,117 410,123 410,111"/>
<polygon fill="white" points="262,107 337,107 337,116 262,116"/>
<text x="263" y="116" textLength="73" font-family="Helvetica" font-size="12" fill="black">
CONFIRMED
</text>
<line x1="60" y1="134" x2="60" y2="162" stroke="black"/>
<line x1="180" y1="134" x2="180" y2="162" stroke="black"/>
<line x1="300" y1="134" x2="300" y2="162" stroke="black"/>
<line x1="420" y1="134" x2="420" y2="162" stroke="black"/>
<line x1="540" y1="134" x2="540" y2="162" stroke="black"/>
<line x1="180" y1="145" x2="540" y2="145" stroke="black"/>
<polygon fill="black" points="540,145 530,151 530,139"/>
<polygon fill="white" points="322,135 397,135 397,144 322,144"/>
<text x="323" y="144" textLength="73" font-family="Helvetica" font-size="12" fill="black">
CONFIRMED
</text>
<line x1="60" y1="162" x2="60" y2="190" stroke="black"/>
<line x1="180" y1="162" x2="180" y2="190" stroke="black"/>
<line x1="300" y1="162" x2="300" y2="190" stroke="black"/>
<line x1="420" y1="162" x2="420" y2="190" stroke="black"/>
<line x1="540" y1="162" x2="540" y2="190" stroke="black"/>
<line x1="300" y1="173" x2="180" y2="173" stroke="black"/>
<polygon fill="black" points="180,173 190,179 190,167"/>
<polygon fill="white" points="211,163 268,163 268,172 211,172"/>
<text x="212" y="172" textLength="55" font-family="Helvetica" font-size="12" fill="black">
VERIFIED
</text>
<line x1="60" y1="190" x2="60" y2="218" stroke="black"/>
<line x1="180" y1="190" x2="180" y2="218" stroke="black"/>
<line x1="300" y1="190" x2="300" y2="218" stroke="black"/>
<line x1="420" y1="190" x2="420" y2="218" stroke="black"/>
<line x1="540" y1="190" x2="540" y2="218" stroke="black"/>
<line x1="420" y1="201" x2="180" y2="201" stroke="black"/>
<polygon fill="black" points="180,201 190,207 190,195"/>
<polygon fill="white" points="271,191 328,191 328,200 271,200"/>
<text x="272" y="200" textLength="55" font-family="Helvetica" font-size="12" fill="black">
VERIFIED
</text>
<line x1="60" y1="218" x2="60" y2="246" stroke="black"/>
<line x1="180" y1="218" x2="180" y2="246" stroke="black"/>
<line x1="300" y1="218" x2="300" y2="246" stroke="black"/>
<line x1="420" y1="218" x2="420" y2="246" stroke="black"/>
<line x1="540" y1="218" x2="540" y2="246" stroke="black"/>
<line x1="180" y1="229" x2="60" y2="229" stroke="black"/>
<polygon fill="black" points="60,229 70,235 70,223"/>
<polygon fill="white" points="88,219 151,219 151,228 88,228"/>
<text x="89" y="228" textLength="61" font-family="Helvetica" font-size="12" fill="black">
FINALIZED
</text>
<line x1="60" y1="246" x2="60" y2="274" stroke="black"/>
<line x1="180" y1="246" x2="180" y2="274" stroke="black"/>
<line x1="300" y1="246" x2="300" y2="274" stroke="black"/>
<line x1="420" y1="246" x2="420" y2="274" stroke="black"/>
<line x1="540" y1="246" x2="540" y2="274" stroke="black"/>
<line x1="180" y1="257" x2="300" y2="257" stroke="black"/>
<polygon fill="black" points="300,257 290,263 290,251"/>
<polygon fill="white" points="208,247 271,247 271,256 208,256"/>
<text x="209" y="256" textLength="61" font-family="Helvetica" font-size="12" fill="black">
FINALIZED
</text>
<line x1="60" y1="274" x2="60" y2="302" stroke="black"/>
<line x1="180" y1="274" x2="180" y2="302" stroke="black"/>
<line x1="300" y1="274" x2="300" y2="302" stroke="black"/>
<line x1="420" y1="274" x2="420" y2="302" stroke="black"/>
<line x1="540" y1="274" x2="540" y2="302" stroke="black"/>
<line x1="180" y1="285" x2="420" y2="285" stroke="black"/>
<polygon fill="black" points="420,285 410,291 410,279"/>
<polygon fill="white" points="268,275 331,275 331,284 268,284"/>
<text x="269" y="284" textLength="61" font-family="Helvetica" font-size="12" fill="black">
FINALIZED
</text>
<line x1="60" y1="302" x2="60" y2="330" stroke="black"/>
<line x1="180" y1="302" x2="180" y2="330" stroke="black"/>
<line x1="300" y1="302" x2="300" y2="330" stroke="black"/>
<line x1="420" y1="302" x2="420" y2="330" stroke="black"/>
<line x1="540" y1="302" x2="540" y2="330" stroke="black"/>
<line x1="180" y1="313" x2="540" y2="313" stroke="black"/>
<polygon fill="black" points="540,313 530,319 530,307"/>
<polygon fill="white" points="328,303 391,303 391,312 328,312"/>
<text x="329" y="312" textLength="61" font-family="Helvetica" font-size="12" fill="black">
FINALIZED
</text>
<line x1="60" y1="324" x2="60" y2="330" stroke="black"/>
<line x1="180" y1="324" x2="180" y2="330" stroke="black"/>
<line x1="300" y1="324" x2="300" y2="330" stroke="black"/>
<line x1="420" y1="324" x2="420" y2="330" stroke="black"/>
<line x1="540" y1="324" x2="540" y2="330" stroke="black"/>
</svg>
