<svg class="bob" font-family="arial" font-size="14" height="304" width="544" xmlns="http://www.w3.org/2000/svg">
<defs>
<marker id="triangle" markerHeight="8" markerWidth="8" orient="auto" refX="4" refY="2" viewBox="0 0 8 4">
<polygon fill="black" points="0,0 0,4 8,2 0,0"/>
</marker>
<marker id="clear_triangle" markerHeight="10" markerWidth="10" orient="auto" refX="1" refY="7" viewBox="0 0 20 14">
<polygon fill="none" points="2,2 2,12 18,7 2,2" stroke="black" stroke-width="2"/>
</marker>
<marker id="circle" markerHeight="5" markerWidth="5" orient="auto" refX="10" refY="10" viewBox="0 0 20 20">
<circle cx="10" cy="10" fill="black" r="8"/>
</marker>
<marker id="square" markerHeight="5" markerWidth="5" orient="auto" refX="10" refY="10" viewBox="0 0 20 20">
<rect fill="black" height="20" width="20" x="0" y="0"/>
</marker>
<marker id="open_circle" markerHeight="10" markerWidth="10" orient="auto" refX="10" refY="10" viewBox="0 0 20 20">
<circle cx="10" cy="10" fill="white" r="4" stroke="black" stroke-width="2"/>
</marker>
<marker id="big_open_circle" markerHeight="20" markerWidth="20" orient="auto" refX="20" refY="20" viewBox="0 0 40 40">
<circle cx="20" cy="20" fill="white" r="6" stroke="black" stroke-width="2"/>
</marker>
</defs>
<style type="text/css">

    line,path {
      stroke: black;
      stroke-width: 2;
      stroke-opacity: 1;
      fill-opacity: 1;
      stroke-linecap: round;
      stroke-linejoin: miter;
    }
    line.dashed {
        stroke-dasharray: 5;
    }
    circle.solid {
      fill:black;
      stroke: black;
      stroke-width: 2;
      stroke-opacity: 1;
      fill-opacity: 1;
      stroke-linecap: round;
      stroke-linejoin: miter;
    }
    circle.open {
      fill:none;
      stroke: black;
      stroke-width: 2;
      stroke-opacity: 1;
      fill-opacity: 1;
      stroke-linecap: round;
      stroke-linejoin: miter;
    }
    tspan.head{
        fill: none;
        stroke: none;
    }
    
</style>
<rect fill="white" height="304" width="544" x="0" y="0"/>
<g>
<line x1="4" x2="4" y1="8" y2="184"/>
<line x1="4" x2="540" y1="8" y2="8"/>
<line x1="4" x2="540" y1="184" y2="184"/>
<line x1="540" x2="540" y1="8" y2="184"/>
</g>
<g>
<line x1="28" x2="28" y1="232" y2="296"/>
<line x1="28" x2="108" y1="232" y2="232"/>
<line x1="28" x2="196" y1="296" y2="296"/>
<line x1="108" x2="164" y1="232" y2="232"/>
<line x1="164" x2="196" y1="232" y2="232"/>
<line x1="196" x2="196" y1="232" y2="296"/>
</g>
<g>
<line x1="36" x2="36" y1="40" y2="104"/>
<line x1="36" x2="180" y1="40" y2="40"/>
<line x1="36" x2="108" y1="104" y2="104"/>
<line x1="108" x2="108" y1="104" y2="176"/>
<line x1="108" x2="124" y1="104" y2="104"/>
<line x1="124" x2="124" y1="104" y2="136"/>
<line x1="124" x2="180" y1="104" y2="104"/>
<line x1="124" x2="364" y1="136" y2="136"/>
<line x1="180" x2="180" y1="40" y2="56"/>
<line x1="180" x2="180" y1="56" y2="88"/>
<line marker-end="url(#triangle)" x1="180" x2="356" y1="56" y2="56"/>
<line x1="180" x2="180" y1="88" y2="104"/>
<line x1="180" x2="184" y1="88" y2="88"/>
<line x1="364" x2="364" y1="136" y2="152"/>
<line x1="364" x2="364" y1="152" y2="176"/>
<line x1="364" x2="420" y1="152" y2="152"/>
<line x1="420" x2="420" y1="104" y2="152"/>
<line x1="420" x2="436" y1="104" y2="104"/>
<line x1="436" x2="436" y1="104" y2="176"/>
<line x1="436" x2="508" y1="104" y2="104"/>
<line x1="508" x2="508" y1="40" y2="104"/>
</g>
<g>
<line marker-end="url(#triangle)" x1="108" x2="108" y1="192" y2="220"/>
</g>
<g>
<line x1="164" x2="164" y1="152" y2="176"/>
<line x1="164" x2="364" y1="152" y2="152"/>
</g>
<g>
<line marker-end="url(#triangle)" x1="164" x2="164" y1="192" y2="220"/>
</g>
<g>
<line marker-end="url(#triangle)" x1="192" x2="188" y1="88" y2="88"/>
<line x1="192" x2="364" y1="88" y2="88"/>
<line x1="364" x2="364" y1="56" y2="88"/>
<line x1="364" x2="364" y1="88" y2="104"/>
<line x1="364" x2="420" y1="104" y2="104"/>
</g>
<g>
<line x1="348" x2="348" y1="232" y2="296"/>
<line x1="348" x2="364" y1="232" y2="232"/>
<line x1="348" x2="516" y1="296" y2="296"/>
<line x1="364" x2="436" y1="232" y2="232"/>
<line x1="436" x2="516" y1="232" y2="232"/>
<line x1="516" x2="516" y1="232" y2="296"/>
</g>
<g>
<line x1="364" x2="364" y1="40" y2="56"/>
<line x1="364" x2="508" y1="40" y2="40"/>
<line x1="364" x2="360" y1="56" y2="56"/>
</g>
<g>
<line marker-end="url(#triangle)" x1="364" x2="364" y1="192" y2="220"/>
</g>
<g>
<line marker-end="url(#triangle)" x1="436" x2="436" y1="192" y2="220"/>
</g>
<g>
<text x="57" y="268">
Neighborhood
</text>
</g>
<g>
<text x="65" y="76">
Validator
</text>
</g>
<g>
<text x="145" y="76">
1
</text>
</g>
<g>
<text x="161" y="268">
1
</text>
</g>
<g>
<text x="217" y="44">
Neighborhood
</text>
</g>
<g>
<text x="321" y="44">
0
</text>
</g>
<g>
<text x="377" y="268">
Neighborhood
</text>
</g>
<g>
<text x="393" y="76">
Validator
</text>
</g>
<g>
<text x="473" y="76">
2
</text>
</g>
<g>
<text x="481" y="268">
2
</text>
</g>
</svg>
