<svg class="bob" font-family="arial" font-size="14" height="288" width="736" xmlns="http://www.w3.org/2000/svg">
<defs>
<marker id="triangle" markerHeight="8" markerWidth="8" orient="auto" refX="4" refY="2" viewBox="0 0 8 4">
<polygon fill="black" points="0,0 0,4 8,2 0,0"/>
</marker>
<marker id="clear_triangle" markerHeight="10" markerWidth="10" orient="auto" refX="1" refY="7" viewBox="0 0 20 14">
<polygon fill="none" points="2,2 2,12 18,7 2,2" stroke="black" stroke-width="2"/>
</marker>
<marker id="circle" markerHeight="5" markerWidth="5" orient="auto" refX="10" refY="10" viewBox="0 0 20 20">
<circle cx="10" cy="10" fill="black" r="8"/>
</marker>
<marker id="square" markerHeight="5" markerWidth="5" orient="auto" refX="10" refY="10" viewBox="0 0 20 20">
<rect fill="black" height="20" width="20" x="0" y="0"/>
</marker>
<marker id="open_circle" markerHeight="10" markerWidth="10" orient="auto" refX="10" refY="10" viewBox="0 0 20 20">
<circle cx="10" cy="10" fill="white" r="4" stroke="black" stroke-width="2"/>
</marker>
<marker id="big_open_circle" markerHeight="20" markerWidth="20" orient="auto" refX="20" refY="20" viewBox="0 0 40 40">
<circle cx="20" cy="20" fill="white" r="6" stroke="black" stroke-width="2"/>
</marker>
</defs>
<style type="text/css">

    line,path {
      stroke: black;
      stroke-width: 2;
      stroke-opacity: 1;
      fill-opacity: 1;
      stroke-linecap: round;
      stroke-linejoin: miter;
    }
    line.dashed {
        stroke-dasharray: 5;
    }
    circle.solid {
      fill:black;
      stroke: black;
      stroke-width: 2;
      stroke-opacity: 1;
      fill-opacity: 1;
      stroke-linecap: round;
      stroke-linejoin: miter;
    }
    circle.open {
      fill:none;
      stroke: black;
      stroke-width: 2;
      stroke-opacity: 1;
      fill-opacity: 1;
      stroke-linecap: round;
      stroke-linejoin: miter;
    }
    tspan.head{
        fill: none;
        stroke: none;
    }
    
</style>
<rect fill="white" height="288" width="736" x="0" y="0"/>
<g>
<line x1="4" x2="4" y1="216" y2="280"/>
<line x1="4" x2="156" y1="216" y2="216"/>
<line x1="4" x2="172" y1="280" y2="280"/>
<line x1="156" x2="172" y1="216" y2="216"/>
<line x1="172" x2="172" y1="216" y2="280"/>
</g>
<g>
<line x1="124" x2="124" y1="104" y2="168"/>
<line x1="124" x2="204" y1="104" y2="104"/>
<line x1="124" x2="156" y1="168" y2="168"/>
<line marker-end="url(#triangle)" x1="156" x2="156" y1="168" y2="204"/>
<line x1="156" x2="204" y1="168" y2="168"/>
<line x1="204" x2="292" y1="104" y2="104"/>
<line marker-end="url(#triangle)" x1="204" x2="204" y1="168" y2="204"/>
<line x1="204" x2="292" y1="168" y2="168"/>
<line x1="292" x2="292" y1="104" y2="168"/>
</g>
<g>
<line x1="188" x2="188" y1="216" y2="280"/>
<line x1="188" x2="204" y1="216" y2="216"/>
<line x1="188" x2="356" y1="280" y2="280"/>
<line x1="204" x2="356" y1="216" y2="216"/>
<line x1="356" x2="356" y1="216" y2="280"/>
</g>
<g>
<line marker-end="url(#triangle)" x1="204" x2="204" y1="40" y2="92"/>
<line x1="204" x2="276" y1="40" y2="40"/>
<line x1="276" x2="276" y1="8" y2="40"/>
<line x1="276" x2="444" y1="8" y2="8"/>
<line x1="276" x2="276" y1="40" y2="72"/>
<line x1="276" x2="444" y1="72" y2="72"/>
<line x1="444" x2="444" y1="8" y2="40"/>
<line x1="444" x2="444" y1="40" y2="72"/>
<line x1="444" x2="532" y1="40" y2="40"/>
<line marker-end="url(#triangle)" x1="532" x2="532" y1="40" y2="92"/>
</g>
<g>
<line x1="380" x2="380" y1="216" y2="280"/>
<line x1="380" x2="532" y1="216" y2="216"/>
<line x1="380" x2="548" y1="280" y2="280"/>
<line x1="532" x2="548" y1="216" y2="216"/>
<line x1="548" x2="548" y1="216" y2="280"/>
</g>
<g>
<line x1="444" x2="444" y1="104" y2="168"/>
<line x1="444" x2="532" y1="104" y2="104"/>
<line x1="444" x2="532" y1="168" y2="168"/>
<line x1="532" x2="612" y1="104" y2="104"/>
<line marker-end="url(#triangle)" x1="532" x2="532" y1="168" y2="204"/>
<line x1="532" x2="580" y1="168" y2="168"/>
<line marker-end="url(#triangle)" x1="580" x2="580" y1="168" y2="204"/>
<line x1="580" x2="612" y1="168" y2="168"/>
<line x1="612" x2="612" y1="104" y2="168"/>
</g>
<g>
<line x1="564" x2="564" y1="216" y2="280"/>
<line x1="564" x2="580" y1="216" y2="216"/>
<line x1="564" x2="732" y1="280" y2="280"/>
<line x1="580" x2="732" y1="216" y2="216"/>
<line x1="732" x2="732" y1="216" y2="280"/>
</g>
<g>
<text x="33" y="252">
Neighborhood
</text>
</g>
<g>
<text x="137" y="252">
3
</text>
</g>
<g>
<text x="153" y="140">
Neighborhood
</text>
</g>
<g>
<text x="217" y="252">
Neighborhood
</text>
</g>
<g>
<text x="257" y="140">
1
</text>
</g>
<g>
<text x="305" y="44">
Neighborhood
</text>
</g>
<g>
<text x="321" y="252">
4
</text>
</g>
<g>
<text x="409" y="44">
0
</text>
</g>
<g>
<text x="409" y="252">
Neighborhood
</text>
</g>
<g>
<text x="473" y="140">
Neighborhood
</text>
</g>
<g>
<text x="513" y="252">
5
</text>
</g>
<g>
<text x="577" y="140">
2
</text>
</g>
<g>
<text x="593" y="252">
Neighborhood
</text>
</g>
<g>
<text x="697" y="252">
6
</text>
</g>
</svg>
