<svg class="bob" font-family="arial" font-size="14" height="400" width="856" xmlns="http://www.w3.org/2000/svg">
<defs>
<marker id="triangle" markerHeight="8" markerWidth="8" orient="auto" refX="4" refY="2" viewBox="0 0 8 4">
<polygon class="fg_fill" points="0,0 0,4 8,2 0,0"/>
</marker>
<marker id="clear_triangle" markerHeight="10" markerWidth="10" orient="auto" refX="1" refY="7" viewBox="0 0 20 14">
<polygon class="bg_fill" points="2,2 2,12 18,7 2,2"/>
</marker>
<marker id="circle" markerHeight="5" markerWidth="5" orient="auto" refX="10" refY="10" viewBox="0 0 20 20">
<circle class="fg_fill" cx="10" cy="10" r="8"/>
</marker>
<marker id="square" markerHeight="5" markerWidth="5" orient="auto" refX="10" refY="10" viewBox="0 0 20 20">
<rect class="fg_fill" height="20" width="20" x="0" y="0"/>
</marker>
<marker id="open_circle" markerHeight="10" markerWidth="10" orient="auto" refX="10" refY="10" viewBox="0 0 20 20">
<circle class="bg_fill" cx="10" cy="10" r="4"/>
</marker>
<marker id="big_open_circle" markerHeight="20" markerWidth="20" orient="auto" refX="20" refY="20" viewBox="0 0 40 40">
<circle class="bg_fill" cx="20" cy="20" r="6"/>
</marker>
</defs>
<style type="text/css">

rect.backdrop {
    fill: white;
}
text{
    fill: black;
}

circle {
    fill: none;
    stroke: black;
    stroke-width: 2;
}

line {
    stroke: black;
    stroke-width: 2;
    stroke-opacity: 1;
    fill-opacity: 1;
    stroke-linecap: round;
    stroke-linejoin: miter;
}

path {
    fill: none;
    stroke: black;
    stroke-width: 2;
    stroke-opacity: 1;
    fill-opacity: 1;
    stroke-linecap: round;
    stroke-linejoin: miter;
}

line.dashed {
    stroke-dasharray: 5;
}

.fg_fill {
    fill: black;
}


.bg_fill {
    fill: white;
    stroke: black;
    stroke-width: 2;
}

tspan.head{
    fill: none;
    stroke: none;
}
    
</style>
<rect class="backdrop" height="400" width="856" x="0" y="0"/>
<g>
<line x1="4" x2="4" y1="8" y2="152"/>
<line x1="4" x2="852" y1="8" y2="8"/>
<line x1="4" x2="852" y1="152" y2="152"/>
<line x1="852" x2="852" y1="8" y2="152"/>
</g>
<g>
<line x1="4" x2="4" y1="248" y2="392"/>
<line x1="4" x2="852" y1="248" y2="248"/>
<line x1="4" x2="852" y1="392" y2="392"/>
<line x1="852" x2="852" y1="248" y2="392"/>
</g>
<g>
<line x1="60" x2="60" y1="56" y2="120"/>
<line x1="60" x2="196" y1="56" y2="56"/>
<line x1="60" x2="84" y1="120" y2="120"/>
<line x1="84" x2="84" y1="120" y2="144"/>
<line x1="84" x2="196" y1="120" y2="120"/>
<line x1="196" x2="196" y1="56" y2="72"/>
<line x1="196" x2="196" y1="72" y2="104"/>
<line marker-end="url(#triangle)" x1="196" x2="252" y1="72" y2="72"/>
<line x1="196" x2="196" y1="104" y2="120"/>
<line x1="196" x2="200" y1="104" y2="104"/>
</g>
<g>
<line x1="60" x2="60" y1="296" y2="360"/>
<line x1="60" x2="84" y1="296" y2="296"/>
<line x1="60" x2="196" y1="360" y2="360"/>
<line x1="84" x2="196" y1="296" y2="296"/>
<line x1="196" x2="196" y1="296" y2="312"/>
<line x1="196" x2="196" y1="312" y2="344"/>
<line marker-end="url(#triangle)" x1="196" x2="252" y1="312" y2="312"/>
<line x1="196" x2="196" y1="344" y2="360"/>
<line x1="196" x2="200" y1="344" y2="344"/>
</g>
<g>
<line x1="84" x2="84" y1="160" y2="240"/>
</g>
<g>
<line marker-end="url(#triangle)" x1="84" x2="84" y1="256" y2="284"/>
</g>
<g>
<line marker-end="url(#triangle)" x1="208" x2="204" y1="104" y2="104"/>
<line x1="208" x2="260" y1="104" y2="104"/>
<line x1="260" x2="260" y1="72" y2="104"/>
<line x1="260" x2="260" y1="104" y2="120"/>
<line x1="260" x2="284" y1="120" y2="120"/>
<line x1="284" x2="284" y1="120" y2="144"/>
<line x1="284" x2="396" y1="120" y2="120"/>
<line x1="396" x2="396" y1="104" y2="120"/>
<line x1="396" x2="400" y1="104" y2="104"/>
</g>
<g>
<line marker-end="url(#triangle)" x1="208" x2="204" y1="344" y2="344"/>
<line x1="208" x2="260" y1="344" y2="344"/>
<line x1="260" x2="260" y1="312" y2="344"/>
<line x1="260" x2="260" y1="344" y2="360"/>
<line x1="260" x2="396" y1="360" y2="360"/>
<line x1="396" x2="396" y1="344" y2="360"/>
<line x1="396" x2="400" y1="344" y2="344"/>
</g>
<g>
<line x1="260" x2="260" y1="56" y2="72"/>
<line x1="260" x2="396" y1="56" y2="56"/>
<line x1="260" x2="256" y1="72" y2="72"/>
<line x1="396" x2="396" y1="56" y2="72"/>
<line x1="396" x2="396" y1="72" y2="104"/>
<line marker-end="url(#triangle)" x1="396" x2="452" y1="72" y2="72"/>
</g>
<g>
<line x1="260" x2="260" y1="296" y2="312"/>
<line x1="260" x2="284" y1="296" y2="296"/>
<line x1="260" x2="256" y1="312" y2="312"/>
<line x1="284" x2="396" y1="296" y2="296"/>
<line x1="396" x2="396" y1="296" y2="312"/>
<line x1="396" x2="396" y1="312" y2="344"/>
<line marker-end="url(#triangle)" x1="396" x2="452" y1="312" y2="312"/>
</g>
<g>
<line x1="284" x2="284" y1="160" y2="240"/>
</g>
<g>
<line marker-end="url(#triangle)" x1="284" x2="284" y1="256" y2="284"/>
</g>
<g>
<line marker-end="url(#triangle)" x1="408" x2="404" y1="104" y2="104"/>
<line x1="408" x2="460" y1="104" y2="104"/>
<line x1="460" x2="460" y1="72" y2="104"/>
<line x1="460" x2="460" y1="104" y2="120"/>
<line x1="460" x2="508" y1="120" y2="120"/>
<line x1="508" x2="508" y1="120" y2="144"/>
<line x1="508" x2="596" y1="120" y2="120"/>
<line x1="596" x2="596" y1="104" y2="120"/>
<line x1="596" x2="600" y1="104" y2="104"/>
</g>
<g>
<line marker-end="url(#triangle)" x1="408" x2="404" y1="344" y2="344"/>
<line x1="408" x2="460" y1="344" y2="344"/>
<line x1="460" x2="460" y1="312" y2="344"/>
<line x1="460" x2="460" y1="344" y2="360"/>
<line x1="460" x2="596" y1="360" y2="360"/>
<line x1="596" x2="596" y1="344" y2="360"/>
<line x1="596" x2="600" y1="344" y2="344"/>
</g>
<g>
<line x1="460" x2="460" y1="56" y2="72"/>
<line x1="460" x2="596" y1="56" y2="56"/>
<line x1="460" x2="456" y1="72" y2="72"/>
<line x1="596" x2="596" y1="56" y2="72"/>
<line x1="596" x2="596" y1="72" y2="104"/>
<line marker-end="url(#triangle)" x1="596" x2="652" y1="72" y2="72"/>
</g>
<g>
<line x1="460" x2="460" y1="296" y2="312"/>
<line x1="460" x2="508" y1="296" y2="296"/>
<line x1="460" x2="456" y1="312" y2="312"/>
<line x1="508" x2="596" y1="296" y2="296"/>
<line x1="596" x2="596" y1="296" y2="312"/>
<line x1="596" x2="596" y1="312" y2="344"/>
<line marker-end="url(#triangle)" x1="596" x2="652" y1="312" y2="312"/>
</g>
<g>
<line x1="508" x2="508" y1="160" y2="240"/>
</g>
<g>
<line marker-end="url(#triangle)" x1="508" x2="508" y1="256" y2="284"/>
</g>
<g>
<line marker-end="url(#triangle)" x1="608" x2="604" y1="104" y2="104"/>
<line x1="608" x2="660" y1="104" y2="104"/>
<line x1="660" x2="660" y1="72" y2="104"/>
<line x1="660" x2="660" y1="104" y2="120"/>
<line x1="660" x2="684" y1="120" y2="120"/>
<line x1="684" x2="684" y1="120" y2="144"/>
<line x1="684" x2="796" y1="120" y2="120"/>
<line x1="796" x2="796" y1="56" y2="120"/>
</g>
<g>
<line marker-end="url(#triangle)" x1="608" x2="604" y1="344" y2="344"/>
<line x1="608" x2="660" y1="344" y2="344"/>
<line x1="660" x2="660" y1="312" y2="344"/>
<line x1="660" x2="660" y1="344" y2="360"/>
<line x1="660" x2="796" y1="360" y2="360"/>
<line x1="796" x2="796" y1="296" y2="360"/>
</g>
<g>
<line x1="660" x2="660" y1="56" y2="72"/>
<line x1="660" x2="796" y1="56" y2="56"/>
<line x1="660" x2="656" y1="72" y2="72"/>
</g>
<g>
<line x1="660" x2="660" y1="296" y2="312"/>
<line x1="660" x2="684" y1="296" y2="296"/>
<line x1="660" x2="656" y1="312" y2="312"/>
<line x1="684" x2="796" y1="296" y2="296"/>
</g>
<g>
<line x1="684" x2="684" y1="160" y2="240"/>
</g>
<g>
<line marker-end="url(#triangle)" x1="684" x2="684" y1="256" y2="284"/>
</g>
<g>
<text x="89" y="92">
Neighbor
</text>
</g>
<g>
<text x="89" y="332">
Neighbor
</text>
</g>
<g>
<text x="161" y="92">
1
</text>
</g>
<g>
<text x="161" y="332">
1
</text>
</g>
<g>
<text x="289" y="92">
Neighbor
</text>
</g>
<g>
<text x="289" y="332">
Neighbor
</text>
</g>
<g>
<text x="353" y="28">
Neighborhood
</text>
</g>
<g>
<text x="353" y="268">
Neighborhood
</text>
</g>
<g>
<text x="361" y="92">
2
</text>
</g>
<g>
<text x="361" y="332">
2
</text>
</g>
<g>
<text x="457" y="28">
Above
</text>
</g>
<g>
<text x="457" y="268">
Below
</text>
</g>
<g>
<text x="489" y="92">
Neighbor
</text>
</g>
<g>
<text x="489" y="332">
Neighbor
</text>
</g>
<g>
<text x="561" y="92">
3
</text>
</g>
<g>
<text x="561" y="332">
3
</text>
</g>
<g>
<text x="689" y="92">
Neighbor
</text>
</g>
<g>
<text x="689" y="332">
Neighbor
</text>
</g>
<g>
<text x="761" y="92">
4
</text>
</g>
<g>
<text x="761" y="332">
4
</text>
</g>
</svg>
