<svg class="bob" font-family="arial" font-size="14" height="160" width="848" xmlns="http://www.w3.org/2000/svg">
<defs>
<marker id="triangle" markerHeight="8" markerWidth="8" orient="auto" refX="4" refY="2" viewBox="0 0 8 4">
<polygon class="fg_fill" points="0,0 0,4 8,2 0,0"/>
</marker>
<marker id="clear_triangle" markerHeight="10" markerWidth="10" orient="auto" refX="1" refY="7" viewBox="0 0 20 14">
<polygon class="bg_fill" points="2,2 2,12 18,7 2,2"/>
</marker>
<marker id="circle" markerHeight="5" markerWidth="5" orient="auto" refX="10" refY="10" viewBox="0 0 20 20">
<circle class="fg_fill" cx="10" cy="10" r="8"/>
</marker>
<marker id="square" markerHeight="5" markerWidth="5" orient="auto" refX="10" refY="10" viewBox="0 0 20 20">
<rect class="fg_fill" height="20" width="20" x="0" y="0"/>
</marker>
<marker id="open_circle" markerHeight="10" markerWidth="10" orient="auto" refX="10" refY="10" viewBox="0 0 20 20">
<circle class="bg_fill" cx="10" cy="10" r="4"/>
</marker>
<marker id="big_open_circle" markerHeight="20" markerWidth="20" orient="auto" refX="20" refY="20" viewBox="0 0 40 40">
<circle class="bg_fill" cx="20" cy="20" r="6"/>
</marker>
</defs>
<style type="text/css">

rect.backdrop {
    fill: white;
}
text{
    fill: black;
}

circle {
    fill: none;
    stroke: black;
    stroke-width: 2;
}

line {
    stroke: black;
    stroke-width: 2;
    stroke-opacity: 1;
    fill-opacity: 1;
    stroke-linecap: round;
    stroke-linejoin: miter;
}

path {
    fill: none;
    stroke: black;
    stroke-width: 2;
    stroke-opacity: 1;
    fill-opacity: 1;
    stroke-linecap: round;
    stroke-linejoin: miter;
}

line.dashed {
    stroke-dasharray: 5;
}

.fg_fill {
    fill: black;
}


.bg_fill {
    fill: white;
    stroke: black;
    stroke-width: 2;
}

tspan.head{
    fill: none;
    stroke: none;
}
    
</style>
<rect class="backdrop" height="160" width="848" x="0" y="0"/>
<g>
<line marker-end="url(#triangle)" x1="0" x2="28" y1="104" y2="104"/>
</g>
<g>
<line x1="4" x2="4" y1="12" y2="52"/>
<path d="M 4 52 A 4 4 0 0 0 8 56"/>
<path d="M 8 8 A 4 4 0 0 0 4 12"/>
</g>
<g>
<line x1="8" x2="104" y1="8" y2="8"/>
<path d="M 108 12 A 4 4 0 0 0 104 8"/>
</g>
<g>
<line x1="8" x2="104" y1="56" y2="56"/>
<path d="M 104 56 A 4 4 0 0 0 108 52"/>
</g>
<g>
<line x1="36" x2="36" y1="92" y2="116"/>
<path d="M 36 116 A 4 4 0 0 0 40 120"/>
<path d="M 40 88 A 4 4 0 0 0 36 92"/>
</g>
<g>
<line x1="40" x2="160" y1="88" y2="88"/>
<path d="M 164 92 A 4 4 0 0 0 160 88"/>
</g>
<g>
<line x1="40" x2="160" y1="120" y2="120"/>
<path d="M 160 120 A 4 4 0 0 0 164 116"/>
</g>
<g>
<line x1="108" x2="108" y1="12" y2="24"/>
<line x1="108" x2="108" y1="24" y2="52"/>
<line marker-end="url(#triangle)" x1="108" x2="140" y1="24" y2="24"/>
</g>
<g>
<line x1="156" x2="156" y1="12" y2="36"/>
<path d="M 156 36 A 4 4 0 0 0 160 40"/>
<path d="M 160 8 A 4 4 0 0 0 156 12"/>
</g>
<g>
<line x1="160" x2="248" y1="8" y2="8"/>
<path d="M 252 12 A 4 4 0 0 0 248 8"/>
</g>
<g>
<line x1="160" x2="248" y1="40" y2="40"/>
<path d="M 248 40 A 4 4 0 0 0 252 36"/>
</g>
<g>
<line x1="164" x2="164" y1="92" y2="104"/>
<line x1="164" x2="164" y1="104" y2="116"/>
<line marker-end="url(#triangle)" x1="164" x2="196" y1="104" y2="104"/>
</g>
<g>
<line x1="204" x2="204" y1="92" y2="116"/>
<path d="M 204 116 A 4 4 0 0 0 208 120"/>
<path d="M 208 88 A 4 4 0 0 0 204 92"/>
</g>
<g>
<line x1="208" x2="280" y1="88" y2="88"/>
<path d="M 284 92 A 4 4 0 0 0 280 88"/>
</g>
<g>
<line x1="208" x2="280" y1="120" y2="120"/>
<path d="M 280 120 A 4 4 0 0 0 284 116"/>
</g>
<g>
<line x1="252" x2="252" y1="12" y2="24"/>
<line x1="252" x2="252" y1="24" y2="36"/>
<line marker-end="url(#triangle)" x1="252" x2="284" y1="24" y2="24"/>
</g>
<g>
<line x1="284" x2="284" y1="92" y2="104"/>
<line x1="284" x2="284" y1="104" y2="116"/>
<line marker-end="url(#triangle)" x1="284" x2="316" y1="104" y2="104"/>
</g>
<g>
<line x1="292" x2="292" y1="12" y2="36"/>
<path d="M 292 36 A 4 4 0 0 0 296 40"/>
<path d="M 296 8 A 4 4 0 0 0 292 12"/>
</g>
<g>
<line x1="296" x2="416" y1="8" y2="8"/>
<path d="M 420 12 A 4 4 0 0 0 416 8"/>
</g>
<g>
<line x1="296" x2="416" y1="40" y2="40"/>
<path d="M 416 40 A 4 4 0 0 0 420 36"/>
</g>
<g>
<line x1="324" x2="324" y1="92" y2="132"/>
<path d="M 324 132 A 4 4 0 0 0 328 136"/>
<path d="M 328 88 A 4 4 0 0 0 324 92"/>
</g>
<g>
<line x1="328" x2="424" y1="88" y2="88"/>
<path d="M 428 92 A 4 4 0 0 0 424 88"/>
</g>
<g>
<line x1="328" x2="424" y1="136" y2="136"/>
<path d="M 424 136 A 4 4 0 0 0 428 132"/>
</g>
<g>
<line x1="420" x2="420" y1="12" y2="24"/>
<line x1="420" x2="420" y1="24" y2="36"/>
<line marker-end="url(#triangle)" x1="420" x2="452" y1="24" y2="24"/>
</g>
<g>
<line x1="428" x2="428" y1="92" y2="104"/>
<line x1="428" x2="428" y1="104" y2="132"/>
<line marker-end="url(#triangle)" x1="428" x2="460" y1="104" y2="104"/>
</g>
<g>
<line x1="460" x2="460" y1="12" y2="36"/>
<path d="M 460 36 A 4 4 0 0 0 464 40"/>
<path d="M 464 8 A 4 4 0 0 0 460 12"/>
</g>
<g>
<line x1="464" x2="576" y1="8" y2="8"/>
<path d="M 580 12 A 4 4 0 0 0 576 8"/>
</g>
<g>
<line x1="464" x2="576" y1="40" y2="40"/>
<path d="M 576 40 A 4 4 0 0 0 580 36"/>
</g>
<g>
<line x1="468" x2="468" y1="92" y2="116"/>
<path d="M 468 116 A 4 4 0 0 0 472 120"/>
<path d="M 472 88 A 4 4 0 0 0 468 92"/>
</g>
<g>
<line x1="472" x2="608" y1="88" y2="88"/>
<path d="M 612 92 A 4 4 0 0 0 608 88"/>
</g>
<g>
<line x1="472" x2="608" y1="120" y2="120"/>
<path d="M 608 120 A 4 4 0 0 0 612 116"/>
</g>
<g>
<line x1="580" x2="580" y1="12" y2="24"/>
<line x1="580" x2="580" y1="24" y2="36"/>
<line marker-end="url(#triangle)" x1="580" x2="612" y1="24" y2="24"/>
</g>
<g>
<line x1="612" x2="612" y1="92" y2="104"/>
<line x1="612" x2="612" y1="104" y2="116"/>
<line marker-end="url(#triangle)" x1="612" x2="636" y1="104" y2="104"/>
</g>
<g>
<line x1="620" x2="620" y1="12" y2="36"/>
<path d="M 620 36 A 4 4 0 0 0 624 40"/>
<path d="M 624 8 A 4 4 0 0 0 620 12"/>
</g>
<g>
<line x1="624" x2="808" y1="8" y2="8"/>
<path d="M 812 12 A 4 4 0 0 0 808 8"/>
</g>
<g>
<line x1="624" x2="808" y1="40" y2="40"/>
<path d="M 808 40 A 4 4 0 0 0 812 36"/>
</g>
<g>
<line x1="644" x2="644" y1="92" y2="116"/>
<path d="M 644 116 A 4 4 0 0 0 648 120"/>
<path d="M 648 88 A 4 4 0 0 0 644 92"/>
</g>
<g>
<line x1="648" x2="784" y1="88" y2="88"/>
<path d="M 788 92 A 4 4 0 0 0 784 88"/>
</g>
<g>
<line x1="648" x2="784" y1="120" y2="120"/>
<path d="M 784 120 A 4 4 0 0 0 788 116"/>
</g>
<g>
<line x1="788" x2="788" y1="92" y2="116"/>
</g>
<g>
<line x1="812" x2="812" y1="12" y2="24"/>
<line x1="812" x2="812" y1="24" y2="36"/>
<line marker-end="url(#triangle)" x1="812" x2="844" y1="24" y2="24"/>
</g>
<g>
<text x="17" y="28">
PoH
</text>
</g>
<g>
<text x="49" y="28">
verify
</text>
</g>
<g>
<text x="49" y="44">
TVU
</text>
</g>
<g>
<text x="49" y="108">
load
</text>
</g>
<g>
<text x="89" y="108">
accounts
</text>
</g>
<g>
<text x="169" y="28">
sigverify
</text>
</g>
<g>
<text x="217" y="108">
execute
</text>
</g>
<g>
<text x="305" y="28">
lock
</text>
</g>
<g>
<text x="337" y="108">
PoH
</text>
</g>
<g>
<text x="345" y="28">
accounts
</text>
</g>
<g>
<text x="361" y="124">
TPU
</text>
</g>
<g>
<text x="369" y="108">
record
</text>
</g>
<g>
<text x="473" y="28">
validate
</text>
</g>
<g>
<text x="481" y="108">
commit
</text>
</g>
<g>
<text x="537" y="108">
accounts
</text>
</g>
<g>
<text x="545" y="28">
fee
</text>
</g>
<g>
<text x="633" y="28">
allocate
</text>
</g>
<g>
<text x="657" y="108">
unlock
</text>
</g>
<g>
<text x="705" y="28">
new
</text>
</g>
<g>
<text x="713" y="108">
accounts
</text>
</g>
<g>
<text x="737" y="28">
accounts
</text>
</g>
</svg>
