<svg class="bob" font-family="arial" font-size="14" height="320" width="560" xmlns="http://www.w3.org/2000/svg">
<defs>
<marker id="triangle" markerHeight="8" markerWidth="8" orient="auto" refX="4" refY="2" viewBox="0 0 8 4">
<polygon class="fg_fill" points="0,0 0,4 8,2 0,0"/>
</marker>
<marker id="clear_triangle" markerHeight="10" markerWidth="10" orient="auto" refX="1" refY="7" viewBox="0 0 20 14">
<polygon class="bg_fill" points="2,2 2,12 18,7 2,2"/>
</marker>
<marker id="circle" markerHeight="5" markerWidth="5" orient="auto" refX="10" refY="10" viewBox="0 0 20 20">
<circle class="fg_fill" cx="10" cy="10" r="8"/>
</marker>
<marker id="square" markerHeight="5" markerWidth="5" orient="auto" refX="10" refY="10" viewBox="0 0 20 20">
<rect class="fg_fill" height="20" width="20" x="0" y="0"/>
</marker>
<marker id="open_circle" markerHeight="10" markerWidth="10" orient="auto" refX="10" refY="10" viewBox="0 0 20 20">
<circle class="bg_fill" cx="10" cy="10" r="4"/>
</marker>
<marker id="big_open_circle" markerHeight="20" markerWidth="20" orient="auto" refX="20" refY="20" viewBox="0 0 40 40">
<circle class="bg_fill" cx="20" cy="20" r="6"/>
</marker>
</defs>
<style type="text/css">

rect.backdrop {
    fill: white;
}
text{
    fill: black;
}

circle {
    fill: none;
    stroke: black;
    stroke-width: 2;
}

line {
    stroke: black;
    stroke-width: 2;
    stroke-opacity: 1;
    fill-opacity: 1;
    stroke-linecap: round;
    stroke-linejoin: miter;
}

path {
    fill: none;
    stroke: black;
    stroke-width: 2;
    stroke-opacity: 1;
    fill-opacity: 1;
    stroke-linecap: round;
    stroke-linejoin: miter;
}

line.dashed {
    stroke-dasharray: 5;
}

.fg_fill {
    fill: black;
}


.bg_fill {
    fill: white;
    stroke: black;
    stroke-width: 2;
}

tspan.head{
    fill: none;
    stroke: none;
}
    
</style>
<rect class="backdrop" height="320" width="560" x="0" y="0"/>
<g>
<line x1="20" x2="20" y1="140" y2="196"/>
<path d="M 20 196 A 4 4 0 0 0 24 200"/>
<path d="M 24 136 A 4 4 0 0 0 20 140"/>
</g>
<g>
<line x1="24" x2="104" y1="136" y2="136"/>
<path d="M 108 140 A 4 4 0 0 0 104 136"/>
</g>
<g>
<line x1="24" x2="104" y1="200" y2="200"/>
<path d="M 104 200 A 4 4 0 0 0 108 196"/>
</g>
<g>
<line x1="108" x2="108" y1="140" y2="152"/>
<line x1="108" x2="108" y1="152" y2="184"/>
<line x1="108" x2="176" y1="152" y2="152"/>
<line x1="108" x2="108" y1="184" y2="196"/>
<line x1="108" x2="176" y1="184" y2="184"/>
<path d="M 176 152 A 4 4 0 0 0 180 148"/>
<path d="M 180 188 A 4 4 0 0 0 176 184"/>
</g>
<g>
<line x1="180" x2="180" y1="108" y2="148"/>
<path d="M 184 104 A 4 4 0 0 0 180 108"/>
</g>
<g>
<line x1="180" x2="180" y1="188" y2="244"/>
<path d="M 180 244 A 4 4 0 0 0 184 248"/>
</g>
<g>
<line marker-end="url(#triangle)" x1="184" x2="252" y1="104" y2="104"/>
</g>
<g>
<line marker-end="url(#triangle)" x1="184" x2="252" y1="248" y2="248"/>
</g>
<g>
<line x1="228" x2="228" y1="28" y2="96"/>
<path d="M 232 24 A 4 4 0 0 0 228 28"/>
</g>
<g>
<line x1="228" x2="228" y1="112" y2="240"/>
</g>
<g>
<line x1="228" x2="228" y1="256" y2="308"/>
<path d="M 228 308 A 4 4 0 0 0 232 312"/>
</g>
<g>
<line x1="232" x2="552" y1="24" y2="24"/>
<path d="M 556 28 A 4 4 0 0 0 552 24"/>
</g>
<g>
<line x1="232" x2="552" y1="312" y2="312"/>
<path d="M 552 312 A 4 4 0 0 0 556 308"/>
</g>
<g>
<line x1="260" x2="260" y1="76" y2="132"/>
<path d="M 260 132 A 4 4 0 0 0 264 136"/>
<path d="M 264 72 A 4 4 0 0 0 260 76"/>
</g>
<g>
<line x1="260" x2="260" y1="220" y2="276"/>
<path d="M 260 276 A 4 4 0 0 0 264 280"/>
<path d="M 264 216 A 4 4 0 0 0 260 220"/>
</g>
<g>
<line x1="264" x2="360" y1="72" y2="72"/>
<path d="M 364 76 A 4 4 0 0 0 360 72"/>
</g>
<g>
<line x1="264" x2="360" y1="136" y2="136"/>
<path d="M 360 136 A 4 4 0 0 0 364 132"/>
</g>
<g>
<line x1="264" x2="316" y1="216" y2="216"/>
<line x1="316" x2="316" y1="188" y2="216"/>
<line x1="316" x2="360" y1="216" y2="216"/>
<path d="M 320 184 A 4 4 0 0 0 316 188"/>
<path d="M 364 220 A 4 4 0 0 0 360 216"/>
</g>
<g>
<line x1="264" x2="360" y1="280" y2="280"/>
<path d="M 360 280 A 4 4 0 0 0 364 276"/>
</g>
<g>
<line x1="320" x2="448" y1="184" y2="184"/>
<path d="M 448 184 A 4 4 0 0 0 452 180"/>
</g>
<g>
<line x1="364" x2="364" y1="76" y2="104"/>
<line x1="364" x2="364" y1="104" y2="132"/>
<line marker-end="url(#triangle)" x1="364" x2="388" y1="104" y2="104"/>
</g>
<g>
<line x1="364" x2="364" y1="220" y2="248"/>
<line x1="364" x2="364" y1="248" y2="276"/>
<line marker-end="url(#triangle)" x1="364" x2="388" y1="248" y2="248"/>
</g>
<g>
<line x1="396" x2="396" y1="76" y2="132"/>
<path d="M 396 132 A 4 4 0 0 0 400 136"/>
<path d="M 400 72 A 4 4 0 0 0 396 76"/>
</g>
<g>
<line x1="396" x2="396" y1="220" y2="276"/>
<path d="M 396 276 A 4 4 0 0 0 400 280"/>
<path d="M 400 216 A 4 4 0 0 0 396 220"/>
</g>
<g>
<line x1="400" x2="496" y1="72" y2="72"/>
<path d="M 500 76 A 4 4 0 0 0 496 72"/>
</g>
<g>
<line x1="400" x2="496" y1="136" y2="136"/>
<path d="M 496 136 A 4 4 0 0 0 500 132"/>
</g>
<g>
<line x1="400" x2="504" y1="216" y2="216"/>
<path d="M 508 220 A 4 4 0 0 0 504 216"/>
</g>
<g>
<line x1="400" x2="504" y1="280" y2="280"/>
<path d="M 504 280 A 4 4 0 0 0 508 276"/>
</g>
<g>
<line marker-end="url(#triangle)" x1="452" x2="452" y1="160" y2="148"/>
<line x1="452" x2="452" y1="160" y2="180"/>
</g>
<g>
<line x1="500" x2="500" y1="76" y2="132"/>
</g>
<g>
<line x1="508" x2="508" y1="220" y2="276"/>
</g>
<g>
<line x1="556" x2="556" y1="28" y2="308"/>
</g>
<g>
<text x="41" y="172">
Client
</text>
</g>
<g>
<text x="281" y="108">
Verifier
</text>
</g>
<g>
<text x="281" y="252">
Loader
</text>
</g>
<g>
<text x="329" y="44">
Solana
</text>
</g>
<g>
<text x="337" y="172">
LoadAccounts
</text>
</g>
<g>
<text x="385" y="44">
Runtime
</text>
</g>
<g>
<text x="409" y="252">
Interpreter
</text>
</g>
<g>
<text x="417" y="108">
Accounts
</text>
</g>
</svg>
