<svg class="bob" font-family="arial" font-size="14" height="304" width="584" xmlns="http://www.w3.org/2000/svg">
<defs>
<marker id="triangle" markerHeight="8" markerWidth="8" orient="auto" refX="4" refY="2" viewBox="0 0 8 4">
<polygon class="fg_fill" points="0,0 0,4 8,2 0,0"/>
</marker>
<marker id="clear_triangle" markerHeight="10" markerWidth="10" orient="auto" refX="1" refY="7" viewBox="0 0 20 14">
<polygon class="bg_fill" points="2,2 2,12 18,7 2,2"/>
</marker>
<marker id="circle" markerHeight="5" markerWidth="5" orient="auto" refX="10" refY="10" viewBox="0 0 20 20">
<circle class="fg_fill" cx="10" cy="10" r="8"/>
</marker>
<marker id="square" markerHeight="5" markerWidth="5" orient="auto" refX="10" refY="10" viewBox="0 0 20 20">
<rect class="fg_fill" height="20" width="20" x="0" y="0"/>
</marker>
<marker id="open_circle" markerHeight="10" markerWidth="10" orient="auto" refX="10" refY="10" viewBox="0 0 20 20">
<circle class="bg_fill" cx="10" cy="10" r="4"/>
</marker>
<marker id="big_open_circle" markerHeight="20" markerWidth="20" orient="auto" refX="20" refY="20" viewBox="0 0 40 40">
<circle class="bg_fill" cx="20" cy="20" r="6"/>
</marker>
</defs>
<style type="text/css">

rect.backdrop {
    fill: white;
}
text{
    fill: black;
}

circle {
    fill: none;
    stroke: black;
    stroke-width: 2;
}

line {
    stroke: black;
    stroke-width: 2;
    stroke-opacity: 1;
    fill-opacity: 1;
    stroke-linecap: round;
    stroke-linejoin: miter;
}

path {
    fill: none;
    stroke: black;
    stroke-width: 2;
    stroke-opacity: 1;
    fill-opacity: 1;
    stroke-linecap: round;
    stroke-linejoin: miter;
}

line.dashed {
    stroke-dasharray: 5;
}

.fg_fill {
    fill: black;
}


.bg_fill {
    fill: white;
    stroke: black;
    stroke-width: 2;
}

tspan.head{
    fill: none;
    stroke: none;
}
    
</style>
<rect class="backdrop" height="304" width="584" x="0" y="0"/>
<g>
<line x1="12" x2="12" y1="248" y2="280"/>
<line x1="12" x2="156" y1="248" y2="248"/>
<line x1="12" x2="156" y1="280" y2="280"/>
<line x1="156" x2="156" y1="248" y2="280"/>
</g>
<g>
<line marker-end="url(#triangle)" x1="128" x2="142" y1="240" y2="212"/>
</g>
<g>
<line x1="148" x2="148" y1="168" y2="200"/>
<line x1="148" x2="212" y1="168" y2="168"/>
<line x1="148" x2="212" y1="200" y2="200"/>
<line x1="212" x2="212" y1="168" y2="200"/>
</g>
<g>
<line x1="180" x2="180" y1="88" y2="120"/>
<line x1="180" x2="292" y1="88" y2="88"/>
<line x1="180" x2="292" y1="120" y2="120"/>
<line x1="292" x2="292" y1="88" y2="120"/>
</g>
<g>
<line x1="188" x2="188" y1="248" y2="280"/>
<line x1="188" x2="332" y1="248" y2="248"/>
<line x1="188" x2="332" y1="280" y2="280"/>
<line x1="332" x2="332" y1="248" y2="280"/>
</g>
<g>
<line marker-end="url(#triangle)" x1="192" x2="206" y1="160" y2="132"/>
</g>
<g>
<line marker-end="url(#triangle)" x1="212" x2="212" y1="224" y2="212"/>
<line x1="212" x2="212" y1="224" y2="240"/>
</g>
<g>
<line marker-end="url(#triangle)" x1="264" x2="278" y1="80" y2="52"/>
</g>
<g>
<line x1="284" x2="284" y1="8" y2="40"/>
<line x1="284" x2="412" y1="8" y2="8"/>
<line x1="284" x2="412" y1="40" y2="40"/>
<line x1="412" x2="412" y1="8" y2="40"/>
</g>
<g>
<line x1="364" x2="364" y1="248" y2="280"/>
<line x1="364" x2="508" y1="248" y2="248"/>
<line x1="364" x2="508" y1="280" y2="280"/>
<line x1="508" x2="508" y1="248" y2="280"/>
</g>
<g>
<line x1="396" x2="396" y1="88" y2="120"/>
<line x1="396" x2="508" y1="88" y2="88"/>
<line x1="396" x2="508" y1="120" y2="120"/>
<line x1="508" x2="508" y1="88" y2="120"/>
</g>
<g>
<line marker-end="url(#triangle)" x1="416" x2="410" y1="64" y2="52"/>
<line x1="416" x2="424" y1="64" y2="80"/>
</g>
<g>
<line x1="468" x2="468" y1="168" y2="200"/>
<line x1="468" x2="532" y1="168" y2="168"/>
<line x1="468" x2="532" y1="200" y2="200"/>
<line x1="532" x2="532" y1="168" y2="200"/>
</g>
<g>
<line marker-end="url(#triangle)" x1="476" x2="476" y1="224" y2="212"/>
<line x1="476" x2="476" y1="224" y2="240"/>
</g>
<g>
<line marker-end="url(#triangle)" x1="480" x2="474" y1="144" y2="132"/>
<line x1="480" x2="488" y1="144" y2="160"/>
</g>
<g>
<line marker-end="url(#triangle)" x1="536" x2="530" y1="224" y2="212"/>
<line x1="536" x2="544" y1="224" y2="240"/>
</g>
<g>
<line x1="540" x2="540" y1="248" y2="280"/>
<line x1="540" x2="572" y1="248" y2="248"/>
<line x1="540" x2="572" y1="280" y2="280"/>
<line x1="572" x2="572" y1="248" y2="280"/>
</g>
<g>
<text x="25" y="268">
Hash(T1,
</text>
</g>
<g>
<text x="97" y="268">
status)
</text>
</g>
<g>
<text x="169" y="188">
Hash
</text>
</g>
<g>
<text x="193" y="108">
Entry-Merkle
</text>
</g>
<g>
<text x="201" y="268">
Hash(T2,
</text>
</g>
<g>
<text x="273" y="268">
status)
</text>
</g>
<g>
<text x="305" y="28">
Block-Merkle
</text>
</g>
<g>
<text x="377" y="268">
Hash(T3,
</text>
</g>
<g>
<text x="409" y="108">
Entry-Merkle
</text>
</g>
<g>
<text x="449" y="268">
status)
</text>
</g>
<g>
<text x="489" y="188">
Hash
</text>
</g>
<g>
<text x="553" y="268">
0
</text>
</g>
</svg>
