<svg class="bob" font-family="arial" font-size="14" height="288" width="432" xmlns="http://www.w3.org/2000/svg">
<defs>
<marker id="triangle" markerHeight="8" markerWidth="8" orient="auto" refX="4" refY="2" viewBox="0 0 8 4">
<polygon fill="black" points="0,0 0,4 8,2 0,0"/>
</marker>
<marker id="clear_triangle" markerHeight="10" markerWidth="10" orient="auto" refX="1" refY="7" viewBox="0 0 20 14">
<polygon fill="none" points="2,2 2,12 18,7 2,2" stroke="black" stroke-width="2"/>
</marker>
<marker id="circle" markerHeight="5" markerWidth="5" orient="auto" refX="10" refY="10" viewBox="0 0 20 20">
<circle cx="10" cy="10" fill="black" r="8"/>
</marker>
<marker id="square" markerHeight="5" markerWidth="5" orient="auto" refX="10" refY="10" viewBox="0 0 20 20">
<rect fill="black" height="20" width="20" x="0" y="0"/>
</marker>
<marker id="open_circle" markerHeight="10" markerWidth="10" orient="auto" refX="10" refY="10" viewBox="0 0 20 20">
<circle cx="10" cy="10" fill="white" r="4" stroke="black" stroke-width="2"/>
</marker>
<marker id="big_open_circle" markerHeight="20" markerWidth="20" orient="auto" refX="20" refY="20" viewBox="0 0 40 40">
<circle cx="20" cy="20" fill="white" r="6" stroke="black" stroke-width="2"/>
</marker>
</defs>
<style type="text/css">

    line,path {
      stroke: black;
      stroke-width: 2;
      stroke-opacity: 1;
      fill-opacity: 1;
      stroke-linecap: round;
      stroke-linejoin: miter;
    }
    line.dashed {
        stroke-dasharray: 5;
    }
    circle.solid {
      fill:black;
      stroke: black;
      stroke-width: 2;
      stroke-opacity: 1;
      fill-opacity: 1;
      stroke-linecap: round;
      stroke-linejoin: miter;
    }
    circle.open {
      fill:none;
      stroke: black;
      stroke-width: 2;
      stroke-opacity: 1;
      fill-opacity: 1;
      stroke-linecap: round;
      stroke-linejoin: miter;
    }
    tspan.head{
        fill: none;
        stroke: none;
    }
    
</style>
<rect fill="white" height="288" width="432" x="0" y="0"/>
<g>
<line x1="12" x2="12" y1="248" y2="280"/>
<line x1="12" x2="140" y1="248" y2="248"/>
<line x1="12" x2="140" y1="280" y2="280"/>
<line x1="140" x2="140" y1="248" y2="280"/>
</g>
<g>
<line marker-end="url(#triangle)" x1="112" x2="126" y1="240" y2="212"/>
</g>
<g>
<line x1="124" x2="124" y1="88" y2="120"/>
<line x1="124" x2="268" y1="88" y2="88"/>
<line x1="124" x2="268" y1="120" y2="120"/>
<line x1="268" x2="268" y1="88" y2="120"/>
</g>
<g>
<line x1="124" x2="124" y1="168" y2="200"/>
<line x1="124" x2="180" y1="168" y2="168"/>
<line x1="124" x2="180" y1="200" y2="200"/>
<line x1="180" x2="180" y1="168" y2="200"/>
</g>
<g>
<line marker-end="url(#triangle)" x1="160" x2="174" y1="160" y2="132"/>
</g>
<g>
<line x1="172" x2="172" y1="248" y2="280"/>
<line x1="172" x2="300" y1="248" y2="248"/>
<line x1="172" x2="300" y1="280" y2="280"/>
<line x1="300" x2="300" y1="248" y2="280"/>
</g>
<g>
<line marker-end="url(#triangle)" x1="184" x2="178" y1="224" y2="212"/>
<line x1="184" x2="192" y1="224" y2="240"/>
</g>
<g>
<line x1="212" x2="212" y1="168" y2="200"/>
<line x1="212" x2="428" y1="168" y2="168"/>
<line x1="212" x2="428" y1="200" y2="200"/>
<line x1="428" x2="428" y1="168" y2="200"/>
</g>
<g>
<line marker-end="url(#triangle)" x1="224" x2="218" y1="144" y2="132"/>
<line x1="224" x2="232" y1="144" y2="160"/>
</g>
<g>
<line x1="236" x2="236" y1="8" y2="40"/>
<line x1="236" x2="340" y1="8" y2="8"/>
<line x1="236" x2="340" y1="40" y2="40"/>
<line x1="340" x2="340" y1="8" y2="40"/>
</g>
<g>
<line marker-end="url(#triangle)" x1="248" x2="262" y1="80" y2="52"/>
</g>
<g>
<line x1="308" x2="308" y1="88" y2="120"/>
<line x1="308" x2="420" y1="88" y2="88"/>
<line x1="308" x2="420" y1="120" y2="120"/>
<line x1="420" x2="420" y1="88" y2="120"/>
</g>
<g>
<line marker-end="url(#triangle)" x1="320" x2="314" y1="64" y2="52"/>
<line x1="320" x2="328" y1="64" y2="80"/>
</g>
<g>
<text x="25" y="268">
Hash(Account1)
</text>
</g>
<g>
<text x="137" y="108">
Bank-Diff-Merkle
</text>
</g>
<g>
<text x="137" y="188">
Hash
</text>
</g>
<g>
<text x="185" y="268">
Hash(Account2)
</text>
</g>
<g>
<text x="225" y="188">
Previous
</text>
</g>
<g>
<text x="249" y="28">
Bank-Merkle
</text>
</g>
<g>
<text x="297" y="188">
Bank-Diff-Merkle
</text>
</g>
<g>
<text x="321" y="108">
Block-Merkle
</text>
</g>
</svg>
