<svg class="bob" font-family="arial" font-size="14" height="480" width="592" xmlns="http://www.w3.org/2000/svg">
<defs>
<marker id="triangle" markerHeight="8" markerWidth="8" orient="auto" refX="4" refY="2" viewBox="0 0 8 4">
<polygon class="fg_fill" points="0,0 0,4 8,2 0,0"/>
</marker>
<marker id="clear_triangle" markerHeight="10" markerWidth="10" orient="auto" refX="1" refY="7" viewBox="0 0 20 14">
<polygon class="bg_fill" points="2,2 2,12 18,7 2,2"/>
</marker>
<marker id="circle" markerHeight="5" markerWidth="5" orient="auto" refX="10" refY="10" viewBox="0 0 20 20">
<circle class="fg_fill" cx="10" cy="10" r="8"/>
</marker>
<marker id="square" markerHeight="5" markerWidth="5" orient="auto" refX="10" refY="10" viewBox="0 0 20 20">
<rect class="fg_fill" height="20" width="20" x="0" y="0"/>
</marker>
<marker id="open_circle" markerHeight="10" markerWidth="10" orient="auto" refX="10" refY="10" viewBox="0 0 20 20">
<circle class="bg_fill" cx="10" cy="10" r="4"/>
</marker>
<marker id="big_open_circle" markerHeight="20" markerWidth="20" orient="auto" refX="20" refY="20" viewBox="0 0 40 40">
<circle class="bg_fill" cx="20" cy="20" r="6"/>
</marker>
</defs>
<style type="text/css">

rect.backdrop {
    fill: white;
}
text{
    fill: black;
}

circle {
    fill: none;
    stroke: black;
    stroke-width: 2;
}

line {
    stroke: black;
    stroke-width: 2;
    stroke-opacity: 1;
    fill-opacity: 1;
    stroke-linecap: round;
    stroke-linejoin: miter;
}

path {
    fill: none;
    stroke: black;
    stroke-width: 2;
    stroke-opacity: 1;
    fill-opacity: 1;
    stroke-linecap: round;
    stroke-linejoin: miter;
}

line.dashed {
    stroke-dasharray: 5;
}

.fg_fill {
    fill: black;
}


.bg_fill {
    fill: white;
    stroke: black;
    stroke-width: 2;
}

tspan.head{
    fill: none;
    stroke: none;
}
    
</style>
<rect class="backdrop" height="480" width="592" x="0" y="0"/>
<g>
<line x1="12" x2="12" y1="60" y2="116"/>
<path d="M 12 116 A 4 4 0 0 0 16 120"/>
<path d="M 16 56 A 4 4 0 0 0 12 60"/>
</g>
<g>
<line x1="16" x2="80" y1="56" y2="56"/>
<path d="M 84 60 A 4 4 0 0 0 80 56"/>
</g>
<g>
<line x1="16" x2="52" y1="120" y2="120"/>
<line x1="52" x2="52" y1="120" y2="420"/>
<line x1="52" x2="80" y1="120" y2="120"/>
<path d="M 52 420 A 4 4 0 0 0 56 424"/>
<path d="M 80 120 A 4 4 0 0 0 84 116"/>
</g>
<g>
<line marker-end="url(#triangle)" x1="56" x2="124" y1="424" y2="424"/>
</g>
<g>
<line x1="84" x2="84" y1="60" y2="116"/>
</g>
<g>
<line marker-end="url(#triangle)" x1="84" x2="124" y1="72" y2="72"/>
</g>
<g>
<line marker-end="url(#triangle)" x1="96" x2="92" y1="104" y2="104"/>
<line x1="96" x2="132" y1="104" y2="104"/>
</g>
<g>
<line x1="108" x2="108" y1="12" y2="64"/>
<path d="M 112 8 A 4 4 0 0 0 108 12"/>
</g>
<g>
<line x1="108" x2="108" y1="80" y2="96"/>
</g>
<g>
<line x1="108" x2="108" y1="112" y2="416"/>
</g>
<g>
<line x1="108" x2="108" y1="432" y2="468"/>
<path d="M 108 468 A 4 4 0 0 0 112 472"/>
</g>
<g>
<line x1="112" x2="416" y1="8" y2="8"/>
<path d="M 420 12 A 4 4 0 0 0 416 8"/>
</g>
<g>
<line x1="112" x2="416" y1="472" y2="472"/>
<path d="M 416 472 A 4 4 0 0 0 420 468"/>
</g>
<g>
<line x1="124" x2="124" y1="236" y2="276"/>
<path d="M 124 276 A 4 4 0 0 0 128 280"/>
<path d="M 128 232 A 4 4 0 0 0 124 236"/>
</g>
<g>
<line x1="128" x2="156" y1="232" y2="232"/>
<line x1="156" x2="156" y1="144" y2="232"/>
<line x1="156" x2="184" y1="232" y2="232"/>
<path d="M 188 236 A 4 4 0 0 0 184 232"/>
</g>
<g>
<line x1="128" x2="184" y1="280" y2="280"/>
<path d="M 184 280 A 4 4 0 0 0 188 276"/>
</g>
<g>
<line x1="132" x2="132" y1="60" y2="116"/>
<path d="M 132 116 A 4 4 0 0 0 136 120"/>
<path d="M 136 56 A 4 4 0 0 0 132 60"/>
</g>
<g>
<line x1="132" x2="132" y1="412" y2="436"/>
<path d="M 132 436 A 4 4 0 0 0 136 440"/>
<path d="M 136 408 A 4 4 0 0 0 132 412"/>
</g>
<g>
<line x1="136" x2="288" y1="56" y2="56"/>
<path d="M 292 60 A 4 4 0 0 0 288 56"/>
</g>
<g>
<line x1="136" x2="288" y1="120" y2="120"/>
<path d="M 288 120 A 4 4 0 0 0 292 116"/>
</g>
<g>
<line x1="136" x2="156" y1="408" y2="408"/>
<line x1="156" x2="156" y1="304" y2="408"/>
<line x1="156" x2="176" y1="408" y2="408"/>
<path d="M 180 412 A 4 4 0 0 0 176 408"/>
</g>
<g>
<line x1="136" x2="176" y1="440" y2="440"/>
<path d="M 176 440 A 4 4 0 0 0 180 436"/>
</g>
<g>
<line marker-end="url(#triangle)" x1="156" x2="156" y1="144" y2="132"/>
</g>
<g>
<line marker-end="url(#triangle)" x1="156" x2="156" y1="304" y2="292"/>
</g>
<g>
<line x1="180" x2="180" y1="412" y2="424"/>
<line x1="180" x2="180" y1="424" y2="436"/>
<line marker-end="url(#triangle)" x1="180" x2="220" y1="424" y2="424"/>
</g>
<g>
<line x1="188" x2="188" y1="236" y2="276"/>
</g>
<g>
<line marker-end="url(#triangle)" x1="200" x2="196" y1="248" y2="248"/>
<line x1="200" x2="212" y1="248" y2="248"/>
<line x1="212" x2="212" y1="236" y2="248"/>
<line x1="212" x2="212" y1="248" y2="276"/>
<path d="M 212 276 A 4 4 0 0 0 216 280"/>
<path d="M 216 232 A 4 4 0 0 0 212 236"/>
</g>
<g>
<line x1="204" x2="204" y1="156" y2="180"/>
<path d="M 204 180 A 4 4 0 0 0 208 184"/>
<path d="M 208 152 A 4 4 0 0 0 204 156"/>
</g>
<g>
<line x1="208" x2="336" y1="152" y2="152"/>
<path d="M 340 156 A 4 4 0 0 0 336 152"/>
</g>
<g>
<line x1="208" x2="336" y1="184" y2="184"/>
<path d="M 336 184 A 4 4 0 0 0 340 180"/>
</g>
<g>
<line x1="216" x2="252" y1="232" y2="232"/>
<line x1="252" x2="252" y1="208" y2="232"/>
<line x1="252" x2="280" y1="232" y2="232"/>
<path d="M 284 236 A 4 4 0 0 0 280 232"/>
</g>
<g>
<line x1="216" x2="280" y1="280" y2="280"/>
<path d="M 280 280 A 4 4 0 0 0 284 276"/>
</g>
<g>
<line x1="228" x2="228" y1="412" y2="452"/>
<path d="M 228 452 A 4 4 0 0 0 232 456"/>
<path d="M 232 408 A 4 4 0 0 0 228 412"/>
</g>
<g>
<line x1="232" x2="292" y1="408" y2="408"/>
<line x1="292" x2="292" y1="384" y2="408"/>
<line x1="292" x2="320" y1="408" y2="408"/>
<path d="M 324 412 A 4 4 0 0 0 320 408"/>
</g>
<g>
<line x1="232" x2="320" y1="456" y2="456"/>
<path d="M 320 456 A 4 4 0 0 0 324 452"/>
</g>
<g>
<line marker-end="url(#triangle)" x1="252" x2="252" y1="208" y2="196"/>
</g>
<g>
<line x1="252" x2="252" y1="332" y2="356"/>
<path d="M 252 356 A 4 4 0 0 0 256 360"/>
<path d="M 256 328 A 4 4 0 0 0 252 332"/>
</g>
<g>
<line x1="256" x2="276" y1="328" y2="328"/>
<line x1="276" x2="276" y1="304" y2="328"/>
<line x1="276" x2="344" y1="328" y2="328"/>
<path d="M 348 332 A 4 4 0 0 0 344 328"/>
</g>
<g>
<line x1="256" x2="344" y1="360" y2="360"/>
<path d="M 344 360 A 4 4 0 0 0 348 356"/>
</g>
<g>
<line marker-end="url(#triangle)" x1="276" x2="276" y1="304" y2="292"/>
</g>
<g>
<line x1="284" x2="284" y1="236" y2="276"/>
</g>
<g>
<line x1="292" x2="292" y1="60" y2="116"/>
</g>
<g>
<line marker-end="url(#triangle)" x1="292" x2="292" y1="384" y2="372"/>
</g>
<g>
<line x1="300" x2="300" y1="236" y2="276"/>
<path d="M 300 276 A 4 4 0 0 0 304 280"/>
<path d="M 304 232 A 4 4 0 0 0 300 236"/>
</g>
<g>
<line x1="304" x2="392" y1="232" y2="232"/>
<path d="M 396 236 A 4 4 0 0 0 392 232"/>
</g>
<g>
<line x1="304" x2="324" y1="280" y2="280"/>
<line marker-end="url(#triangle)" x1="324" x2="324" y1="280" y2="316"/>
<line x1="324" x2="392" y1="280" y2="280"/>
<path d="M 392 280 A 4 4 0 0 0 396 276"/>
</g>
<g>
<line x1="324" x2="324" y1="412" y2="424"/>
<line x1="324" x2="324" y1="424" y2="452"/>
<line marker-end="url(#triangle)" x1="324" x2="452" y1="424" y2="424"/>
</g>
<g>
<line x1="340" x2="340" y1="156" y2="180"/>
</g>
<g>
<line x1="348" x2="348" y1="332" y2="356"/>
</g>
<g>
<line marker-end="url(#triangle)" x1="352" x2="348" y1="168" y2="168"/>
<line x1="352" x2="436" y1="168" y2="168"/>
</g>
<g>
<line x1="396" x2="396" y1="236" y2="276"/>
</g>
<g>
<line marker-end="url(#triangle)" x1="408" x2="404" y1="248" y2="248"/>
<line x1="408" x2="460" y1="248" y2="248"/>
<line x1="460" x2="460" y1="220" y2="248"/>
<line x1="460" x2="460" y1="248" y2="292"/>
<path d="M 460 292 A 4 4 0 0 0 464 296"/>
<path d="M 464 216 A 4 4 0 0 0 460 220"/>
</g>
<g>
<line x1="420" x2="420" y1="12" y2="160"/>
</g>
<g>
<line x1="420" x2="420" y1="176" y2="240"/>
</g>
<g>
<line x1="420" x2="420" y1="256" y2="416"/>
</g>
<g>
<line x1="420" x2="420" y1="432" y2="468"/>
</g>
<g>
<line x1="436" x2="436" y1="156" y2="240"/>
<path d="M 440 152 A 4 4 0 0 0 436 156"/>
</g>
<g>
<line x1="436" x2="436" y1="256" y2="416"/>
</g>
<g>
<line x1="436" x2="436" y1="432" y2="452"/>
<path d="M 436 452 A 4 4 0 0 0 440 456"/>
</g>
<g>
<line x1="440" x2="584" y1="152" y2="152"/>
<path d="M 588 156 A 4 4 0 0 0 584 152"/>
</g>
<g>
<line x1="440" x2="584" y1="456" y2="456"/>
<path d="M 584 456 A 4 4 0 0 0 588 452"/>
</g>
<g>
<line x1="460" x2="460" y1="364" y2="436"/>
<path d="M 460 436 A 4 4 0 0 0 464 440"/>
<path d="M 464 360 A 4 4 0 0 0 460 364"/>
</g>
<g>
<line x1="464" x2="560" y1="216" y2="216"/>
<path d="M 564 220 A 4 4 0 0 0 560 216"/>
</g>
<g>
<line x1="464" x2="560" y1="296" y2="296"/>
<path d="M 560 296 A 4 4 0 0 0 564 292"/>
</g>
<g>
<line x1="464" x2="560" y1="360" y2="360"/>
<path d="M 564 364 A 4 4 0 0 0 560 360"/>
</g>
<g>
<line x1="464" x2="560" y1="440" y2="440"/>
<path d="M 560 440 A 4 4 0 0 0 564 436"/>
</g>
<g>
<line x1="564" x2="564" y1="220" y2="292"/>
</g>
<g>
<line x1="564" x2="564" y1="364" y2="436"/>
</g>
<g>
<line x1="588" x2="588" y1="156" y2="452"/>
</g>
<g>
<text x="25" y="92">
Client
</text>
</g>
<g>
<text x="129" y="28">
Validator
</text>
</g>
<g>
<text x="137" y="252">
Bank
</text>
</g>
<g>
<text x="137" y="268">
Forks
</text>
</g>
<g>
<text x="145" y="92">
JSON
</text>
</g>
<g>
<text x="145" y="428">
TPU
</text>
</g>
<g>
<text x="185" y="92">
RPC
</text>
</g>
<g>
<text x="217" y="92">
Service
</text>
</g>
<g>
<text x="217" y="172">
Gossip
</text>
</g>
<g>
<text x="225" y="252">
Replay
</text>
</g>
<g>
<text x="225" y="268">
Stage
</text>
</g>
<g>
<text x="241" y="428">
Broadcast
</text>
</g>
<g>
<text x="241" y="444">
Stage
</text>
</g>
<g>
<text x="265" y="348">
Blocktree
</text>
</g>
<g>
<text x="273" y="172">
Service
</text>
</g>
<g>
<text x="313" y="252">
BlobFetch
</text>
</g>
<g>
<text x="321" y="268">
Stage
</text>
</g>
<g>
<text x="449" y="172">
Validators
</text>
</g>
<g>
<text x="473" y="252">
Upstream
</text>
</g>
<g>
<text x="473" y="268">
Validators
</text>
</g>
<g>
<text x="473" y="396">
Downstream
</text>
</g>
<g>
<text x="473" y="412">
Validators
</text>
</g>
</svg>
