<svg width="4476" height="513" viewBox="0 0 4476 513" fill="none" xmlns="http://www.w3.org/2000/svg">
<path d="M2457 305V208.68H2519.72V219.88H2469.04V250.82H2513V262.02H2469.04V293.8H2519.72V305H2457ZM2634.29 305L2605.59 267.06H2604.47L2575.77 305H2562.05L2598.03 256.7L2562.61 208.68H2576.89L2604.89 245.78H2606.01L2634.15 208.68H2648.01L2612.59 256.28L2648.43 305H2634.29ZM2696.96 208.68H2739.24C2746.99 208.68 2752.87 209.94 2756.88 212.46C2760.9 214.98 2763.56 218.387 2764.86 222.68C2766.17 226.973 2766.82 232.527 2766.82 239.34C2766.82 245.873 2766.17 251.333 2764.86 255.72C2763.56 260.013 2760.85 263.467 2756.74 266.08C2752.73 268.693 2746.8 270 2738.96 270H2709V305H2696.96V208.68ZM2734.9 258.8C2740.97 258.8 2745.4 258.193 2748.2 256.98C2751 255.673 2752.82 253.713 2753.66 251.1C2754.5 248.487 2754.92 244.567 2754.92 239.34C2754.92 234.113 2754.5 230.193 2753.66 227.58C2752.92 224.967 2751.14 223.053 2748.34 221.84C2745.64 220.533 2741.25 219.88 2735.18 219.88H2709V258.8H2734.9ZM2818.79 305V208.68H2830.83V293.38H2875.77V305H2818.79ZM2960.89 306.12C2948.1 306.12 2939.05 304.86 2933.73 302.34C2928.41 299.82 2925 295.433 2923.51 289.18C2922.11 282.833 2921.41 272.053 2921.41 256.84C2921.41 241.627 2922.11 230.893 2923.51 224.64C2925 218.293 2928.41 213.86 2933.73 211.34C2939.05 208.82 2948.1 207.56 2960.89 207.56C2973.58 207.56 2982.59 208.82 2987.91 211.34C2993.32 213.86 2996.73 218.293 2998.12 224.64C2999.62 230.893 3000.37 241.627 3000.37 256.84C3000.37 272.053 2999.62 282.833 2998.12 289.18C2996.73 295.433 2993.32 299.82 2987.91 302.34C2982.59 304.86 2973.58 306.12 2960.89 306.12ZM2960.89 294.92C2970.41 294.92 2976.85 294.313 2980.21 293.1C2983.57 291.887 2985.76 288.853 2986.79 284C2987.81 279.147 2988.33 270.093 2988.33 256.84C2988.33 243.587 2987.81 234.533 2986.79 229.68C2985.76 224.827 2983.57 221.793 2980.21 220.58C2976.85 219.367 2970.41 218.76 2960.89 218.76C2951.37 218.76 2944.88 219.367 2941.43 220.58C2938.07 221.793 2935.87 224.827 2934.85 229.68C2933.82 234.533 2933.31 243.587 2933.31 256.84C2933.31 270.093 2933.82 279.147 2934.85 284C2935.87 288.853 2938.07 291.887 2941.43 293.1C2944.88 294.313 2951.37 294.92 2960.89 294.92ZM3115.25 305L3100.27 267.2H3097.89H3067.65V305H3055.61V208.68H3099.85C3107.51 208.68 3113.29 209.893 3117.21 212.32C3121.13 214.747 3123.7 218.013 3124.91 222.12C3126.13 226.227 3126.73 231.5 3126.73 237.94C3126.73 244.567 3125.75 250.353 3123.79 255.3C3121.83 260.153 3117.82 263.467 3111.75 265.24L3128.13 305H3115.25ZM3094.81 256C3100.79 256 3105.17 255.393 3107.97 254.18C3110.87 252.873 3112.69 251.007 3113.43 248.58C3114.27 246.153 3114.69 242.607 3114.69 237.94C3114.69 233.18 3114.32 229.587 3113.57 227.16C3112.83 224.733 3111.1 222.913 3108.39 221.7C3105.78 220.487 3101.58 219.88 3095.79 219.88H3067.65V256H3094.81ZM3181.54 305V208.68H3244.26V219.88H3193.58V250.82H3237.54V262.02H3193.58V293.8H3244.26V305H3181.54ZM3356.18 305L3341.2 267.2H3338.82H3308.58V305H3296.54V208.68H3340.78C3348.43 208.68 3354.22 209.893 3358.14 212.32C3362.06 214.747 3364.62 218.013 3365.84 222.12C3367.05 226.227 3367.66 231.5 3367.66 237.94C3367.66 244.567 3366.68 250.353 3364.72 255.3C3362.76 260.153 3358.74 263.467 3352.68 265.24L3369.06 305H3356.18ZM3335.74 256C3341.71 256 3346.1 255.393 3348.9 254.18C3351.79 252.873 3353.61 251.007 3354.36 248.58C3355.2 246.153 3355.62 242.607 3355.62 237.94C3355.62 233.18 3355.24 229.587 3354.5 227.16C3353.75 224.733 3352.02 222.913 3349.32 221.7C3346.7 220.487 3342.5 219.88 3336.72 219.88H3308.58V256H3335.74ZM3503.69 326C3497.81 319 3493.52 313.213 3490.81 308.64C3488.2 304.16 3486.24 298.513 3484.93 291.7C3483.72 284.887 3483.11 275.46 3483.11 263.42C3483.11 251.38 3483.72 241.953 3484.93 235.14C3486.24 228.233 3488.25 222.493 3490.95 217.92C3493.66 213.347 3497.91 207.7 3503.69 200.98H3512.23C3507.29 207.42 3503.69 212.693 3501.45 216.8C3499.21 220.813 3497.44 226.413 3496.13 233.6C3494.83 240.693 3494.17 250.633 3494.17 263.42C3494.17 276.3 3494.83 286.333 3496.13 293.52C3497.44 300.707 3499.17 306.307 3501.31 310.32C3503.55 314.333 3507.19 319.56 3512.23 326H3503.69ZM3559.48 208.68H3604.28C3613.43 208.68 3619.96 210.733 3623.88 214.84C3627.89 218.947 3629.9 224.967 3629.9 232.9C3629.9 239.34 3628.59 244.473 3625.98 248.3C3623.37 252.033 3619.17 254.46 3613.38 255.58V256.14C3620.01 257.353 3624.58 259.92 3627.1 263.84C3629.62 267.76 3630.88 273.033 3630.88 279.66C3630.88 287.5 3628.92 293.707 3625 298.28C3621.17 302.76 3614.13 305 3603.86 305H3559.48V208.68ZM3600.36 250.68C3606.33 250.68 3610.72 249.42 3613.52 246.9C3616.41 244.38 3617.86 240.507 3617.86 235.28C3617.86 231.36 3617.35 228.327 3616.32 226.18C3615.29 224.033 3613.52 222.447 3611 221.42C3608.57 220.393 3605.03 219.88 3600.36 219.88H3571.52V250.68H3600.36ZM3600.92 293.8C3605.59 293.8 3609.18 293.287 3611.7 292.26C3614.31 291.233 3616.13 289.6 3617.16 287.36C3618.28 285.027 3618.84 281.853 3618.84 277.84C3618.84 272.053 3617.49 267.947 3614.78 265.52C3612.07 263.093 3607.45 261.88 3600.92 261.88H3571.52V293.8H3600.92ZM3685.41 305V208.68H3748.13V219.88H3697.45V250.82H3741.41V262.02H3697.45V293.8H3748.13V305H3685.41ZM3821.12 305V220.3H3790.6V208.68H3863.54V220.3H3833.16V305H3821.12ZM3967.92 305L3957.98 279.38H3914.58L3904.64 305H3892.46L3928.86 208.68H3943.98L3980.38 305H3967.92ZM3936.56 221.7H3935.86L3918.22 268.04H3954.2L3936.56 221.7ZM4017.55 326C4022.59 319.56 4026.18 314.333 4028.33 310.32C4030.57 306.307 4032.34 300.707 4033.65 293.52C4034.95 286.333 4035.61 276.3 4035.61 263.42C4035.61 250.633 4034.95 240.693 4033.65 233.6C4032.34 226.413 4030.57 220.813 4028.33 216.8C4026.09 212.693 4022.49 207.42 4017.55 200.98H4026.09C4031.87 207.7 4036.12 213.347 4038.83 217.92C4041.53 222.493 4043.49 228.233 4044.71 235.14C4046.01 241.953 4046.67 251.38 4046.67 263.42C4046.67 275.46 4046.01 284.887 4044.71 291.7C4043.49 298.513 4041.53 304.16 4038.83 308.64C4036.21 313.213 4031.97 319 4026.09 326H4017.55Z" fill="#767676"/>
<path d="M162.805 365.174C165.998 361.984 170.327 360.192 174.84 360.192H591.301C598.887 360.192 602.685 369.366 597.318 374.728L515.027 456.954C511.834 460.145 507.505 461.937 502.991 461.937H86.5309C78.9443 461.937 75.1464 452.763 80.5131 447.4L162.805 365.174Z" fill="#00FFA3"/>
<path d="M162.805 57.9825C165.998 54.7921 170.327 53 174.84 53H591.301C598.887 53 602.685 62.1739 597.318 67.5363L515.027 149.763C511.834 152.953 507.505 154.745 502.991 154.745H86.5309C78.9443 154.745 75.1464 145.571 80.5131 140.209L162.805 57.9825Z" fill="#00FFA3"/>
<path d="M515.027 210.6C511.834 207.41 507.505 205.618 502.991 205.618H86.5309C78.9443 205.618 75.1464 214.791 80.5131 220.154L162.805 302.38C165.998 305.57 170.327 307.363 174.84 307.363H591.301C598.887 307.363 602.685 298.189 597.318 292.826L515.027 210.6Z" fill="#00FFA3"/>
<path d="M820.024 276.968H902.478C914.06 276.968 923.449 286.428 923.449 298.097C923.449 309.766 914.06 319.225 902.478 319.225H803.025C801.472 319.225 799.971 319.784 798.791 320.801L768.763 346.684C764.166 350.646 766.947 358.232 772.997 358.232H897.497C897.548 358.232 897.59 358.19 897.59 358.138C897.59 358.084 897.636 358.041 897.69 358.045C899.257 358.169 900.84 358.232 902.438 358.232C935.464 358.232 962.237 331.308 962.237 298.097C962.237 266.558 938.094 240.691 907.38 238.164C907.328 238.16 907.287 238.116 907.287 238.063C907.287 238.007 907.242 237.962 907.186 237.962H818.358C806.776 237.962 797.387 228.502 797.387 216.833C797.387 205.164 806.776 195.705 818.358 195.705H917.673C919.309 195.705 920.884 195.085 922.086 193.969L949.97 168.085C954.332 164.036 951.488 156.698 945.557 156.698H820.024C820.018 156.698 820.013 156.703 820.013 156.709C820.013 156.715 820.008 156.72 820.002 156.719C819.469 156.705 818.934 156.698 818.397 156.698C785.371 156.698 758.599 183.622 758.599 216.833C758.599 250.045 785.371 276.968 818.397 276.968C818.934 276.968 819.469 276.961 820.002 276.947C820.008 276.947 820.013 276.952 820.013 276.958C820.013 276.963 820.018 276.968 820.024 276.968Z" fill="white"/>
<path d="M1300.26 156.698C1296.66 156.698 1293.74 159.636 1293.74 163.26V351.67C1293.74 355.294 1296.66 358.232 1300.26 358.232H1451.25C1453.05 358.232 1454.77 357.481 1456.01 356.158L1474.91 335.893C1478.81 331.702 1475.86 324.843 1470.15 324.843H1338.32C1334.71 324.843 1331.79 321.905 1331.79 318.282V163.26C1331.79 159.636 1328.87 156.698 1325.27 156.698H1300.26Z" fill="white"/>
<path fill-rule="evenodd" clip-rule="evenodd" d="M1058.44 156.698C1058.43 156.698 1058.42 156.706 1058.42 156.716C1058.42 156.725 1058.42 156.733 1058.41 156.734C1039.11 157.57 1023.61 173.099 1022.78 192.437C1022.78 192.447 1022.77 192.454 1022.76 192.454C1022.76 192.454 1022.75 192.457 1022.75 192.46C1022.75 192.463 1022.74 192.467 1022.74 192.472V319.208C1022.74 319.218 1022.75 319.225 1022.76 319.225C1022.77 319.225 1022.78 319.233 1022.78 319.243C1022.76 319.776 1022.74 320.312 1022.74 320.85C1022.74 340.945 1038.57 357.337 1058.41 358.196C1058.42 358.197 1058.42 358.204 1058.42 358.214L1058.43 358.222L1058.43 358.228C1058.43 358.23 1058.44 358.232 1058.44 358.232H1195.44C1195.45 358.232 1195.46 358.224 1195.46 358.214L1195.46 358.204L1195.47 358.198L1195.48 358.196C1215.32 357.337 1231.14 340.945 1231.14 320.85C1231.14 320.312 1231.13 319.776 1231.1 319.243C1231.1 319.233 1231.11 319.225 1231.12 319.225C1231.13 319.225 1231.14 319.218 1231.14 319.208V192.472C1231.14 192.462 1231.13 192.454 1231.12 192.454C1231.11 192.454 1231.1 192.447 1231.1 192.437C1230.27 173.099 1214.77 157.57 1195.48 156.734C1195.47 156.733 1195.46 156.725 1195.46 156.716C1195.46 156.706 1195.45 156.698 1195.44 156.698H1058.44ZM1083.98 192.454L1083.97 192.459L1083.97 192.465C1083.97 192.471 1083.96 192.476 1083.96 192.476C1071.9 193.002 1062.21 202.771 1061.69 214.935C1061.69 214.941 1061.69 214.946 1061.68 214.946C1061.67 214.946 1061.67 214.951 1061.67 214.957V294.678C1061.67 294.684 1061.67 294.689 1061.68 294.689C1061.68 294.689 1061.69 294.694 1061.69 294.7C1061.68 295.035 1061.67 295.372 1061.67 295.711C1061.67 308.351 1071.56 318.662 1083.96 319.203C1083.96 319.203 1083.97 319.208 1083.97 319.214L1083.97 319.22L1083.97 319.224L1083.98 319.225H1169.9L1169.91 319.224L1169.91 319.22L1169.92 319.214C1169.92 319.208 1169.92 319.203 1169.93 319.203C1182.33 318.662 1192.22 308.351 1192.22 295.711C1192.22 295.372 1192.21 295.035 1192.19 294.7L1192.19 294.697L1192.2 294.694L1192.2 294.689C1192.21 294.689 1192.22 294.684 1192.22 294.678V214.957C1192.22 214.951 1192.21 214.946 1192.2 214.946C1192.2 214.946 1192.19 214.941 1192.19 214.935C1191.67 202.771 1181.99 193.002 1169.93 192.476C1169.92 192.476 1169.92 192.471 1169.92 192.465L1169.91 192.46L1169.91 192.456L1169.9 192.454H1083.98Z" fill="white"/>
<path fill-rule="evenodd" clip-rule="evenodd" d="M1694.45 351.67C1694.45 355.294 1697.35 358.232 1700.93 358.232H1726.53C1730.11 358.232 1733.01 355.294 1733.01 351.67V195.722C1733.01 195.712 1733 195.705 1732.99 195.705L1732.98 195.703L1732.98 195.7C1732.98 195.697 1732.97 195.692 1732.97 195.687C1733 195.154 1733.01 194.618 1733.01 194.079C1733.01 173.985 1717.34 157.593 1697.68 156.734C1697.67 156.733 1697.67 156.725 1697.67 156.716C1697.67 156.706 1697.66 156.698 1697.65 156.698H1566.13C1566.12 156.698 1566.11 156.706 1566.11 156.715C1566.11 156.725 1566.1 156.733 1566.09 156.732C1565.56 156.71 1565.03 156.698 1564.5 156.698C1544.1 156.698 1527.56 173.434 1527.56 194.079C1527.56 194.618 1527.57 195.154 1527.59 195.687C1527.59 195.697 1527.58 195.705 1527.57 195.705C1527.56 195.705 1527.56 195.712 1527.56 195.722V351.67C1527.56 355.294 1530.45 358.232 1534.03 358.232H1559.64C1563.21 358.232 1566.11 355.294 1566.11 351.67V286.78C1566.11 283.156 1569.01 280.219 1572.58 280.219H1687.98C1691.56 280.219 1694.45 283.156 1694.45 286.78V351.67ZM1566.11 244.402V211.957C1566.11 199.391 1576.18 189.204 1588.6 189.204H1671.97C1684.39 189.204 1694.45 199.391 1694.45 211.957V244.402C1694.45 248.026 1691.56 250.964 1687.98 250.964H1572.58C1569.01 250.964 1566.11 248.026 1566.11 244.402Z" fill="white"/>
<path fill-rule="evenodd" clip-rule="evenodd" d="M2234.96 358.232C2231.36 358.232 2228.43 355.294 2228.43 351.67V286.78C2228.43 283.156 2225.5 280.219 2221.89 280.219H2105.22C2101.61 280.219 2098.68 283.156 2098.68 286.78V351.67C2098.68 355.294 2095.76 358.232 2092.15 358.232H2066.3C2062.69 358.232 2059.76 355.294 2059.76 351.67V195.722L2059.76 195.717L2059.76 195.712C2059.77 195.707 2059.77 195.705 2059.78 195.705C2059.79 195.705 2059.8 195.697 2059.79 195.687C2059.77 195.154 2059.76 194.618 2059.76 194.079C2059.76 173.434 2076.46 156.698 2097.06 156.698C2097.6 156.698 2098.13 156.71 2098.67 156.732C2098.68 156.733 2098.68 156.725 2098.68 156.715C2098.68 156.706 2098.69 156.698 2098.7 156.698L2231.66 156.698C2231.67 156.698 2231.67 156.706 2231.67 156.716C2231.67 156.725 2231.68 156.733 2231.69 156.734C2251.53 157.593 2267.35 173.985 2267.35 194.079C2267.35 194.618 2267.34 195.154 2267.32 195.687C2267.32 195.697 2267.33 195.705 2267.34 195.705C2267.34 195.705 2267.35 195.707 2267.35 195.71C2267.35 195.713 2267.35 195.717 2267.35 195.722V351.67C2267.35 355.294 2264.43 358.232 2260.82 358.232H2234.96ZM2098.68 211.957V244.402C2098.68 248.026 2101.61 250.964 2105.22 250.964H2221.89C2225.5 250.964 2228.43 248.026 2228.43 244.402V211.957C2228.43 199.391 2218.26 189.204 2205.72 189.204H2121.39C2108.85 189.204 2098.68 199.391 2098.68 211.957Z" fill="white"/>
<path d="M1829.39 156.698C1831.28 156.698 1833.08 157.54 1834.31 159.002L1949.15 295.901C1953.06 300.542 1960.55 297.743 1960.55 291.643V163.26C1960.55 159.636 1963.45 156.698 1967.03 156.698H1992.63C1996.21 156.698 1999.11 159.636 1999.11 163.26V351.67C1999.11 355.294 1996.21 358.232 1992.63 358.232H1960.79C1960.66 358.232 1960.55 358.122 1960.55 357.987C1960.55 357.927 1960.53 357.87 1960.49 357.825L1843.72 221.882C1839.79 217.316 1832.38 220.136 1832.38 226.198V351.67C1832.38 355.294 1829.48 358.232 1825.9 358.232H1800.13C1796.56 358.232 1793.66 355.294 1793.66 351.67V163.26C1793.66 159.636 1796.56 156.698 1800.13 156.698H1829.39Z" fill="white"/>
</svg>
