<svg width="643" height="643" viewBox="0 0 643 643" fill="none" xmlns="http://www.w3.org/2000/svg">
<path fill-rule="evenodd" clip-rule="evenodd" d="M243 488.116C243 486.947 243.941 486 245.101 486H253.15C254.311 486 255.252 486.947 255.252 488.116V538.115C255.252 539.284 256.192 540.231 257.353 540.231H304.895C306.734 540.231 307.686 542.443 306.427 543.795L300.343 550.331C299.946 550.758 299.391 551 298.81 551H255.252H245.101C243.941 551 243 550.053 243 548.884V488.116Z" fill="white"/>
<path fill-rule="evenodd" clip-rule="evenodd" d="M114.632 524.79H87.9082C87.9063 524.79 87.9048 524.789 87.9048 524.787C87.9048 524.785 87.9032 524.783 87.9013 524.783C87.7284 524.788 87.5549 524.79 87.381 524.79C76.6771 524.79 68 516.107 68 505.395C68 494.684 76.6771 486 87.381 486C87.5549 486 87.7284 486.002 87.9013 486.007C87.9032 486.007 87.9048 486.005 87.9048 486.003C87.9048 486.002 87.9063 486 87.9082 486H128.594C130.516 486 131.438 488.367 130.024 489.673L120.987 498.021C120.597 498.381 120.087 498.581 119.557 498.581H87.3682C83.6144 498.581 80.5714 501.632 80.5714 505.395C80.5714 509.159 83.6144 512.21 87.3682 512.21H116.158C116.176 512.21 116.19 512.224 116.19 512.242C116.19 512.259 116.204 512.274 116.221 512.275C126.175 513.09 134 521.433 134 531.605C134 542.316 125.323 551 114.619 551C114.101 551 113.588 550.98 113.08 550.94C113.063 550.938 113.048 550.952 113.048 550.97C113.048 550.986 113.034 551 113.018 551H72.6665C70.7058 551 69.8045 548.554 71.2943 547.276L81.0266 538.928C81.4089 538.6 81.8956 538.419 82.3988 538.419H96.4681H114.632C118.386 538.419 121.429 535.368 121.429 531.605C121.429 527.841 118.386 524.79 114.632 524.79Z" fill="white"/>
<path fill-rule="evenodd" clip-rule="evenodd" d="M166.521 486C166.518 486 166.516 486.003 166.516 486.006C166.516 486.009 166.513 486.011 166.51 486.011C160.282 486.281 155.281 491.29 155.011 497.527C155.011 497.53 155.009 497.532 155.006 497.532C155.003 497.532 155 497.535 155 497.538V538.414C155 538.417 155.002 538.419 155.005 538.419C155.009 538.419 155.011 538.422 155.011 538.425C155.004 538.597 155 538.77 155 538.944C155 545.425 160.107 550.711 166.51 550.989C166.513 550.989 166.516 550.991 166.516 550.994C166.516 550.997 166.518 551 166.521 551H210.479C210.482 551 210.484 550.997 210.484 550.994C210.484 550.991 210.487 550.989 210.49 550.989C216.893 550.711 222 545.425 222 538.944C222 538.77 221.996 538.597 221.989 538.425C221.989 538.422 221.991 538.419 221.995 538.419C221.998 538.419 222 538.417 222 538.414V497.538C222 497.535 221.997 497.532 221.994 497.532C221.991 497.532 221.989 497.53 221.989 497.527C221.719 491.29 216.718 486.281 210.49 486.011C210.487 486.011 210.484 486.009 210.484 486.006C210.484 486.003 210.482 486 210.479 486H166.521ZM174.763 497.532C174.761 497.532 174.76 497.534 174.76 497.536C174.76 497.538 174.758 497.539 174.756 497.539C170.864 497.709 167.738 500.86 167.57 504.783C167.57 504.785 167.568 504.786 167.566 504.786C167.564 504.786 167.563 504.788 167.563 504.79V530.502C167.563 530.504 167.564 530.506 167.566 530.506C167.568 530.506 167.569 530.507 167.569 530.509C167.565 530.617 167.563 530.726 167.563 530.835C167.563 534.912 170.754 538.238 174.756 538.412C174.758 538.412 174.76 538.414 174.76 538.416C174.76 538.418 174.761 538.419 174.763 538.419H202.237C202.239 538.419 202.24 538.418 202.24 538.416C202.24 538.414 202.242 538.412 202.244 538.412C206.246 538.238 209.438 534.912 209.438 530.835C209.438 530.726 209.435 530.617 209.431 530.509C209.431 530.507 209.432 530.506 209.434 530.506C209.436 530.506 209.438 530.504 209.438 530.502V504.79C209.438 504.788 209.436 504.786 209.434 504.786C209.432 504.786 209.43 504.785 209.43 504.783C209.262 500.86 206.136 497.709 202.244 497.539C202.242 497.539 202.24 497.538 202.24 497.536C202.24 497.534 202.239 497.532 202.237 497.532H174.763Z" fill="white"/>
<path fill-rule="evenodd" clip-rule="evenodd" d="M342.75 503.823V514.287C342.75 515.456 343.708 516.403 344.891 516.403H383.109C384.292 516.403 385.25 515.456 385.25 514.287V503.823C385.25 499.77 381.92 496.484 377.813 496.484H350.188C346.08 496.484 342.75 499.77 342.75 503.823ZM387.391 551C386.208 551 385.25 550.053 385.25 548.884V527.955C385.25 526.786 384.292 525.839 383.109 525.839H344.891C343.708 525.839 342.75 526.786 342.75 527.955V548.884C342.75 550.053 341.792 551 340.609 551H332.141C330.958 551 330 550.053 330 548.884V498.586C330 498.583 330.002 498.581 330.006 498.581C330.009 498.581 330.011 498.578 330.011 498.575C330.004 498.403 330 498.23 330 498.056C330 491.398 335.471 486 342.219 486C342.395 486 342.57 486.004 342.744 486.011C342.747 486.011 342.75 486.009 342.75 486.005C342.75 486.002 342.752 486 342.756 486H386.307C386.31 486 386.312 486.003 386.312 486.006C386.312 486.009 386.315 486.011 386.318 486.011C392.817 486.289 398 491.575 398 498.056C398 498.23 397.996 498.403 397.989 498.575C397.989 498.578 397.991 498.581 397.994 498.581C397.998 498.581 398 498.583 398 498.586V548.884C398 550.053 397.042 551 395.859 551H387.391Z" fill="white"/>
<path fill-rule="evenodd" clip-rule="evenodd" d="M519.563 503.823V514.287C519.563 515.456 520.507 516.403 521.672 516.403H559.328C560.493 516.403 561.438 515.456 561.438 514.287V503.823C561.438 499.77 558.157 496.484 554.109 496.484H526.891C522.843 496.484 519.563 499.77 519.563 503.823ZM563.547 551C562.382 551 561.438 550.053 561.438 548.884V527.955C561.438 526.786 560.493 525.839 559.328 525.839H521.672C520.507 525.839 519.563 526.786 519.563 527.955V548.884C519.563 550.053 518.618 551 517.453 551H509.109C507.944 551 507 550.053 507 548.884V498.586C507 498.583 507.002 498.581 507.005 498.581C507.009 498.581 507.011 498.578 507.011 498.575C507.004 498.403 507 498.23 507 498.056C507 491.398 512.39 486 519.039 486C519.213 486 519.385 486.004 519.557 486.011C519.56 486.011 519.563 486.009 519.563 486.005C519.563 486.002 519.565 486 519.568 486H562.479C562.482 486 562.484 486.003 562.484 486.006C562.484 486.009 562.487 486.011 562.49 486.011C568.893 486.289 574 491.575 574 498.056C574 498.23 573.996 498.403 573.989 498.575C573.989 498.578 573.991 498.581 573.995 498.581C573.998 498.581 574 498.583 574 498.586V548.884C574 550.053 573.056 551 571.891 551H563.547Z" fill="white"/>
<path fill-rule="evenodd" clip-rule="evenodd" d="M431.391 486.743C430.984 486.272 430.389 486 429.762 486H420.141C418.958 486 418 486.947 418 488.116V548.884C418 550.053 418.958 551 420.141 551H428.609C429.792 551 430.75 550.053 430.75 548.884V508.415C430.75 506.46 433.202 505.551 434.503 507.024L473.23 550.869C473.243 550.883 473.25 550.902 473.25 550.921C473.25 550.965 473.286 551 473.33 551H473.346H483.859C485.042 551 486 550.053 486 548.884V488.116C486 486.947 485.042 486 483.859 486H475.391C474.208 486 473.25 486.947 473.25 488.116V529.523C473.25 531.491 470.772 532.394 469.48 530.897L431.391 486.743Z" fill="white"/>
<path d="M435.21 160.604C433.092 162.75 430.22 163.955 427.225 163.955H144.315C134.316 163.955 129.25 151.761 136.241 144.519L182.646 96.4417C184.771 94.2407 187.681 93 190.72 93H474.685C484.745 93 489.784 105.321 482.67 112.527L435.21 160.604Z" fill="white"/>
<path d="M435.21 375.326C433.092 377.418 430.22 378.593 427.225 378.593H144.315C134.316 378.593 129.25 366.704 136.241 359.643L182.646 312.768C184.771 310.622 187.681 309.412 190.72 309.412H474.685C484.745 309.412 489.784 321.425 482.67 328.451L435.21 375.326Z" fill="white"/>
<path d="M435.21 204.473C433.092 202.381 430.22 201.206 427.225 201.206L144.315 201.206C134.316 201.206 129.25 213.095 136.241 220.156L182.646 267.031C184.771 269.177 187.681 270.387 190.72 270.387L474.685 270.387C484.745 270.387 489.784 258.374 482.67 251.348L435.21 204.473Z" fill="white"/>
</svg>
