<svg width="1394" height="382" viewBox="0 0 1394 382" fill="none" xmlns="http://www.w3.org/2000/svg">
<path d="M77.2012 227.002L89.8247 179.123C93.2446 166.08 104.376 159.542 123.219 159.509H150.327C151.568 159.509 152.59 159.978 153.395 160.917C154.233 161.856 154.652 162.945 154.652 164.186V227.002C154.652 228.31 154.183 229.416 153.244 230.321C152.305 231.193 151.182 231.629 149.875 231.629H140.419C139.045 231.629 137.905 231.193 137 230.321C136.128 229.416 135.692 228.276 135.692 226.901V214.228H99.9336L96.564 226.901C96.2287 228.276 95.4743 229.416 94.3008 230.321C93.1273 231.193 91.8867 231.629 90.5791 231.629H80.6714C79.3638 231.629 78.425 231.26 77.855 230.522C77.285 229.751 77 229.081 77 228.511C77.0335 227.941 77.1006 227.438 77.2012 227.002ZM103.655 199.995H135.692V173.742H121.358C118.14 173.742 115.323 174.664 112.909 176.508C110.529 178.318 108.919 180.766 108.081 183.851L103.655 199.995Z" fill="#31514F"/>
<path d="M207.176 223.129C200.974 217.195 197.872 208.025 197.872 195.619C197.872 183.18 200.974 173.993 207.176 168.059C213.413 162.09 222.75 159.106 235.189 159.106H246.405C254.016 159.106 260.738 161.085 266.572 165.041C272.44 168.997 275.374 174.412 275.374 181.286C275.374 183.264 274.787 184.689 273.613 185.561C272.44 186.399 271.3 186.818 270.193 186.818H264.209C261.124 186.818 258.727 184.974 257.017 181.286C254.536 175.988 250.411 173.339 244.645 173.339H235.692C228.35 173.339 223.371 174.915 220.755 178.067C218.14 181.219 216.833 187.053 216.833 195.569C216.833 204.085 218.14 209.936 220.755 213.121C223.371 216.273 228.35 217.849 235.692 217.849H245.701C251.468 217.849 255.575 215.2 258.022 209.902C259.732 206.181 262.147 204.32 265.265 204.32H271.25C272.825 204.32 274.066 204.907 274.971 206.08C275.91 207.254 276.379 208.528 276.379 209.902C276.379 216.776 273.462 222.191 267.628 226.147C261.794 230.07 255.072 232.031 247.461 232.031H235.189C222.75 232.031 213.413 229.064 207.176 223.129Z" fill="#31514F"/>
<path d="M324.327 223.129C318.124 217.195 315.023 208.025 315.023 195.619C315.023 183.18 318.124 173.993 324.327 168.059C330.563 162.09 339.901 159.106 352.34 159.106H363.555C371.166 159.106 377.889 161.085 383.723 165.041C389.59 168.997 392.524 174.412 392.524 181.286C392.524 183.264 391.937 184.689 390.764 185.561C389.59 186.399 388.45 186.818 387.344 186.818H381.359C378.274 186.818 375.877 184.974 374.167 181.286C371.686 175.988 367.562 173.339 361.795 173.339H352.843C345.5 173.339 340.521 174.915 337.906 178.067C335.291 181.219 333.983 187.053 333.983 195.569C333.983 204.085 335.291 209.936 337.906 213.121C340.521 216.273 345.5 217.849 352.843 217.849H362.851C368.618 217.849 372.725 215.2 375.173 209.902C376.883 206.181 379.297 204.32 382.415 204.32H388.4C389.976 204.32 391.216 204.907 392.122 206.08C393.06 207.254 393.53 208.528 393.53 209.902C393.53 216.776 390.613 222.191 384.779 226.147C378.945 230.07 372.222 232.031 364.611 232.031H352.34C339.901 232.031 330.563 229.064 324.327 223.129Z" fill="#31514F"/>
<path d="M436.297 226.801V164.186C436.297 162.878 436.766 161.772 437.705 160.867C438.644 159.961 439.767 159.509 441.075 159.509H499.063C500.37 159.509 501.477 159.978 502.382 160.917C503.321 161.856 503.79 162.979 503.79 164.287V169.014C503.79 170.322 503.321 171.445 502.382 172.384C501.477 173.289 500.37 173.742 499.063 173.742H455.257V188.377H492.977C494.285 188.377 495.391 188.846 496.297 189.785C497.235 190.69 497.705 191.797 497.705 193.104V197.832C497.705 199.14 497.235 200.263 496.297 201.202C495.391 202.107 494.285 202.56 492.977 202.56H455.257V217.396H498.962C500.236 217.396 501.326 217.849 502.231 218.754C503.136 219.659 503.589 220.766 503.589 222.073V226.901C503.589 228.209 503.12 229.332 502.181 230.271C501.242 231.176 500.119 231.629 498.811 231.629H441.075C439.767 231.629 438.644 231.176 437.705 230.271C436.766 229.332 436.297 228.175 436.297 226.801Z" fill="#31514F"/>
<path d="M546.004 227.002V164.387C546.004 163.013 546.473 161.856 547.412 160.917C548.351 159.978 549.474 159.509 550.782 159.509H560.237C561.545 159.509 562.651 159.978 563.556 160.917C564.495 161.856 564.965 163.013 564.965 164.387V217.396H608.77C610.077 217.396 611.184 217.865 612.089 218.804C613.028 219.743 613.497 220.866 613.497 222.174V226.901C613.497 228.209 613.028 229.332 612.089 230.271C611.184 231.176 610.077 231.629 608.77 231.629H550.782C549.474 231.629 548.351 231.193 547.412 230.321C546.473 229.416 546.004 228.31 546.004 227.002Z" fill="#31514F"/>
<path d="M654.705 226.801V164.186C654.705 162.878 655.175 161.772 656.113 160.867C657.052 159.961 658.175 159.509 659.483 159.509H717.471C718.779 159.509 719.885 159.978 720.79 160.917C721.729 161.856 722.198 162.979 722.198 164.287V169.014C722.198 170.322 721.729 171.445 720.79 172.384C719.885 173.289 718.779 173.742 717.471 173.742H673.666V188.377H711.385C712.693 188.377 713.799 188.846 714.705 189.785C715.644 190.69 716.113 191.797 716.113 193.104V197.832C716.113 199.14 715.644 200.263 714.705 201.202C713.799 202.107 712.693 202.56 711.385 202.56H673.666V217.396H717.37C718.644 217.396 719.734 217.849 720.639 218.754C721.545 219.659 721.997 220.766 721.997 222.073V226.901C721.997 228.209 721.528 229.332 720.589 230.271C719.65 231.176 718.527 231.629 717.219 231.629H659.483C658.175 231.629 657.052 231.176 656.113 230.271C655.175 229.332 654.705 228.175 654.705 226.801Z" fill="#31514F"/>
<path d="M839.299 229.466C839.299 230.908 838.444 231.629 836.734 231.629H824.663C823.389 231.629 821.981 231.176 820.439 230.271C818.93 229.332 817.773 228.209 816.969 226.901L808.419 213.523C804.898 208.025 800.64 205.275 795.644 205.275H783.373V226.901C783.373 228.209 782.903 229.332 781.965 230.271C781.059 231.176 779.953 231.629 778.645 231.629H769.19C767.883 231.629 766.759 231.176 765.821 230.271C764.882 229.332 764.412 228.209 764.412 226.901V164.287C764.412 162.979 764.865 161.856 765.77 160.917C766.676 159.978 767.782 159.509 769.09 159.509H810.581C818.259 159.509 824.546 161.571 829.441 165.695C834.37 169.819 836.834 175.385 836.834 182.392C836.834 192.149 830.514 198.268 817.874 200.749C819.885 201.487 821.746 202.761 823.456 204.571C825.166 206.348 827.128 208.947 829.341 212.367L838.494 226.901C839.03 227.84 839.299 228.695 839.299 229.466ZM783.373 191.042H804.798C808.251 191.042 811.285 190.355 813.901 188.98C816.549 187.606 817.874 185.41 817.874 182.392C817.874 179.375 816.549 177.178 813.901 175.804C811.285 174.429 808.251 173.742 804.798 173.742H783.373V191.042Z" fill="#31514F"/>
<path d="M856.066 288.002L887.346 179.123C890.766 166.08 901.898 159.542 920.741 159.509H947.849C949.089 159.509 950.112 159.978 950.917 160.917C951.755 161.856 952.174 162.945 952.174 164.186V227.002C952.174 228.31 951.705 229.416 950.766 230.321C949.827 231.193 948.704 231.629 947.396 231.629H937.941C936.566 231.629 935.427 231.193 934.521 230.321C933.649 229.416 933.214 228.276 933.214 226.901V214.228H897.455L875.429 287.901C875.093 289.276 874.339 290.416 873.166 291.321C871.992 292.193 870.751 292.629 869.444 292.629H859.536C858.229 292.629 857.29 292.26 856.72 291.522C856.15 290.751 855.865 290.081 855.865 289.511C855.898 288.941 855.965 288.438 856.066 288.002ZM901.177 199.995H933.214V173.742H918.88C915.661 173.742 912.845 174.664 910.431 176.508C908.05 178.318 906.441 180.766 905.603 183.851L901.177 199.995Z" fill="#31514F"/>
<path d="M993.332 169.014V164.287C993.332 162.912 993.784 161.772 994.69 160.867C995.595 159.961 996.735 159.509 998.11 159.509H1061.93C1063.31 159.509 1064.45 159.961 1065.35 160.867C1066.26 161.772 1066.71 162.912 1066.71 164.287V169.014C1066.71 170.389 1066.26 171.529 1065.35 172.434C1064.45 173.306 1063.31 173.742 1061.93 173.742H1039.5V227.002C1039.5 228.31 1039.03 229.416 1038.09 230.321C1037.19 231.193 1036.08 231.629 1034.77 231.629H1025.27C1023.96 231.629 1022.84 231.193 1021.9 230.321C1020.99 229.416 1020.54 228.31 1020.54 227.002V173.742H998.11C996.735 173.742 995.595 173.306 994.69 172.434C993.784 171.529 993.332 170.389 993.332 169.014Z" fill="#31514F"/>
<path d="M1172.95 224.186C1166.11 230.187 1156.05 233.188 1142.77 233.188C1129.53 233.188 1119.47 230.187 1112.59 224.186C1105.72 218.15 1102.28 208.611 1102.28 195.569C1102.28 182.526 1105.72 173.004 1112.59 167.002C1119.47 161.001 1129.53 158 1142.77 158C1156.05 158 1166.11 161.001 1172.95 167.002C1179.82 173.004 1183.26 182.526 1183.26 195.569C1183.26 208.611 1179.82 218.15 1172.95 224.186ZM1159.22 177.614C1155.83 173.591 1150.35 171.579 1142.77 171.579C1135.23 171.579 1129.74 173.591 1126.32 177.614C1122.94 181.638 1121.24 187.639 1121.24 195.619C1121.24 203.565 1122.94 209.55 1126.32 213.574C1129.74 217.564 1135.23 219.559 1142.77 219.559C1150.35 219.559 1155.83 217.564 1159.22 213.574C1162.6 209.55 1164.3 203.565 1164.3 195.619C1164.3 187.639 1162.6 181.638 1159.22 177.614Z" fill="#31514F"/>
<path d="M1301.46 229.466C1301.46 230.908 1300.61 231.629 1298.9 231.629H1286.83C1285.55 231.629 1284.15 231.176 1282.6 230.271C1281.09 229.332 1279.94 228.209 1279.13 226.901L1270.58 213.523C1267.06 208.025 1262.8 205.275 1257.81 205.275H1245.54V226.901C1245.54 228.209 1245.07 229.332 1244.13 230.271C1243.22 231.176 1242.12 231.629 1240.81 231.629H1231.35C1230.05 231.629 1228.92 231.176 1227.98 230.271C1227.05 229.332 1226.58 228.209 1226.58 226.901V164.287C1226.58 162.979 1227.03 161.856 1227.93 160.917C1228.84 159.978 1229.95 159.509 1231.25 159.509H1272.75C1280.42 159.509 1286.71 161.571 1291.61 165.695C1296.53 169.819 1299 175.385 1299 182.392C1299 192.149 1292.68 198.268 1280.04 200.749C1282.05 201.487 1283.91 202.761 1285.62 204.571C1287.33 206.348 1289.29 208.947 1291.5 212.367L1300.66 226.901C1301.19 227.84 1301.46 228.695 1301.46 229.466ZM1245.54 191.042H1266.96C1270.42 191.042 1273.45 190.355 1276.06 188.98C1278.71 187.606 1280.04 185.41 1280.04 182.392C1280.04 179.375 1278.71 177.178 1276.06 175.804C1273.45 174.429 1270.42 173.742 1266.96 173.742H1245.54V191.042Z" fill="#31514F"/>
<path d="M102.201 253.002L114.825 205.123C118.245 192.08 129.376 185.542 148.219 185.509H175.327C176.568 185.509 177.59 185.978 178.395 186.917C179.233 187.856 179.652 188.945 179.652 190.186V253.002C179.652 254.31 179.183 255.416 178.244 256.321C177.305 257.193 176.182 257.629 174.875 257.629H165.419C164.045 257.629 162.905 257.193 162 256.321C161.128 255.416 160.692 254.276 160.692 252.901V240.228H124.934L121.564 252.901C121.229 254.276 120.474 255.416 119.301 256.321C118.127 257.193 116.887 257.629 115.579 257.629H105.671C104.364 257.629 103.425 257.26 102.855 256.522C102.285 255.751 102 255.081 102 254.511C102.034 253.941 102.101 253.438 102.201 253.002ZM128.655 225.995H160.692V199.742H146.358C143.14 199.742 140.323 200.664 137.909 202.508C135.529 204.318 133.919 206.766 133.081 209.851L128.655 225.995Z" fill="#30504E"/>
<path d="M232.176 249.129C225.974 243.195 222.872 234.025 222.872 221.619C222.872 209.18 225.974 199.993 232.176 194.059C238.413 188.09 247.75 185.106 260.189 185.106H271.405C279.016 185.106 285.738 187.085 291.572 191.041C297.44 194.997 300.374 200.412 300.374 207.286C300.374 209.264 299.787 210.689 298.613 211.561C297.44 212.399 296.3 212.818 295.193 212.818H289.209C286.124 212.818 283.727 210.974 282.017 207.286C279.536 201.988 275.411 199.339 269.645 199.339H260.692C253.35 199.339 248.371 200.915 245.755 204.067C243.14 207.219 241.833 213.053 241.833 221.569C241.833 230.085 243.14 235.936 245.755 239.121C248.371 242.273 253.35 243.849 260.692 243.849H270.701C276.468 243.849 280.575 241.2 283.022 235.902C284.732 232.181 287.147 230.32 290.265 230.32H296.25C297.825 230.32 299.066 230.907 299.971 232.08C300.91 233.254 301.379 234.528 301.379 235.902C301.379 242.776 298.462 248.191 292.628 252.147C286.794 256.07 280.072 258.031 272.461 258.031H260.189C247.75 258.031 238.413 255.064 232.176 249.129Z" fill="#30504E"/>
<path d="M349.327 249.129C343.124 243.195 340.023 234.025 340.023 221.619C340.023 209.18 343.124 199.993 349.327 194.059C355.563 188.09 364.901 185.106 377.34 185.106H388.555C396.166 185.106 402.889 187.085 408.723 191.041C414.59 194.997 417.524 200.412 417.524 207.286C417.524 209.264 416.937 210.689 415.764 211.561C414.59 212.399 413.45 212.818 412.344 212.818H406.359C403.274 212.818 400.877 210.974 399.167 207.286C396.686 201.988 392.562 199.339 386.795 199.339H377.843C370.5 199.339 365.521 200.915 362.906 204.067C360.291 207.219 358.983 213.053 358.983 221.569C358.983 230.085 360.291 235.936 362.906 239.121C365.521 242.273 370.5 243.849 377.843 243.849H387.851C393.618 243.849 397.725 241.2 400.173 235.902C401.883 232.181 404.297 230.32 407.415 230.32H413.4C414.976 230.32 416.216 230.907 417.122 232.08C418.06 233.254 418.53 234.528 418.53 235.902C418.53 242.776 415.613 248.191 409.779 252.147C403.945 256.07 397.222 258.031 389.611 258.031H377.34C364.901 258.031 355.563 255.064 349.327 249.129Z" fill="#30504E"/>
<path d="M461.297 252.801V190.186C461.297 188.878 461.766 187.772 462.705 186.867C463.644 185.961 464.767 185.509 466.075 185.509H524.063C525.37 185.509 526.477 185.978 527.382 186.917C528.321 187.856 528.79 188.979 528.79 190.287V195.014C528.79 196.322 528.321 197.445 527.382 198.384C526.477 199.289 525.37 199.742 524.063 199.742H480.257V214.377H517.977C519.285 214.377 520.391 214.846 521.297 215.785C522.235 216.69 522.705 217.797 522.705 219.104V223.832C522.705 225.14 522.235 226.263 521.297 227.202C520.391 228.107 519.285 228.56 517.977 228.56H480.257V243.396H523.962C525.236 243.396 526.326 243.849 527.231 244.754C528.136 245.659 528.589 246.766 528.589 248.073V252.901C528.589 254.209 528.12 255.332 527.181 256.271C526.242 257.176 525.119 257.629 523.811 257.629H466.075C464.767 257.629 463.644 257.176 462.705 256.271C461.766 255.332 461.297 254.175 461.297 252.801Z" fill="#30504E"/>
<path d="M571.004 253.002V190.387C571.004 189.013 571.473 187.856 572.412 186.917C573.351 185.978 574.474 185.509 575.782 185.509H585.237C586.545 185.509 587.651 185.978 588.556 186.917C589.495 187.856 589.965 189.013 589.965 190.387V243.396H633.77C635.077 243.396 636.184 243.865 637.089 244.804C638.028 245.743 638.497 246.866 638.497 248.174V252.901C638.497 254.209 638.028 255.332 637.089 256.271C636.184 257.176 635.077 257.629 633.77 257.629H575.782C574.474 257.629 573.351 257.193 572.412 256.321C571.473 255.416 571.004 254.31 571.004 253.002Z" fill="#30504E"/>
<path d="M679.705 252.801V190.186C679.705 188.878 680.175 187.772 681.113 186.867C682.052 185.961 683.175 185.509 684.483 185.509H742.471C743.779 185.509 744.885 185.978 745.79 186.917C746.729 187.856 747.198 188.979 747.198 190.287V195.014C747.198 196.322 746.729 197.445 745.79 198.384C744.885 199.289 743.779 199.742 742.471 199.742H698.666V214.377H736.385C737.693 214.377 738.799 214.846 739.705 215.785C740.644 216.69 741.113 217.797 741.113 219.104V223.832C741.113 225.14 740.644 226.263 739.705 227.202C738.799 228.107 737.693 228.56 736.385 228.56H698.666V243.396H742.37C743.644 243.396 744.734 243.849 745.639 244.754C746.545 245.659 746.997 246.766 746.997 248.073V252.901C746.997 254.209 746.528 255.332 745.589 256.271C744.65 257.176 743.527 257.629 742.219 257.629H684.483C683.175 257.629 682.052 257.176 681.113 256.271C680.175 255.332 679.705 254.175 679.705 252.801Z" fill="#30504E"/>
<path d="M864.299 255.466C864.299 256.908 863.444 257.629 861.734 257.629H849.663C848.389 257.629 846.981 257.176 845.439 256.271C843.93 255.332 842.773 254.209 841.969 252.901L833.419 239.523C829.898 234.025 825.64 231.275 820.644 231.275H808.373V252.901C808.373 254.209 807.903 255.332 806.965 256.271C806.059 257.176 804.953 257.629 803.645 257.629H794.19C792.883 257.629 791.759 257.176 790.821 256.271C789.882 255.332 789.412 254.209 789.412 252.901V190.287C789.412 188.979 789.865 187.856 790.77 186.917C791.676 185.978 792.782 185.509 794.09 185.509H835.581C843.259 185.509 849.546 187.571 854.441 191.695C859.37 195.819 861.834 201.385 861.834 208.392C861.834 218.149 855.514 224.268 842.874 226.749C844.885 227.487 846.746 228.761 848.456 230.571C850.166 232.348 852.128 234.947 854.341 238.367L863.494 252.901C864.03 253.84 864.299 254.695 864.299 255.466ZM808.373 217.042H829.798C833.251 217.042 836.285 216.355 838.901 214.98C841.549 213.606 842.874 211.41 842.874 208.392C842.874 205.375 841.549 203.178 838.901 201.804C836.285 200.429 833.251 199.742 829.798 199.742H808.373V217.042Z" fill="#30504E"/>
<path d="M881.066 314.002L912.346 205.123C915.766 192.08 926.898 185.542 945.741 185.509H972.849C974.089 185.509 975.112 185.978 975.917 186.917C976.755 187.856 977.174 188.945 977.174 190.186V253.002C977.174 254.31 976.705 255.416 975.766 256.321C974.827 257.193 973.704 257.629 972.396 257.629H962.941C961.566 257.629 960.427 257.193 959.521 256.321C958.649 255.416 958.214 254.276 958.214 252.901V240.228H922.455L900.429 313.901C900.093 315.276 899.339 316.416 898.166 317.321C896.992 318.193 895.751 318.629 894.444 318.629H884.536C883.229 318.629 882.29 318.26 881.72 317.522C881.15 316.751 880.865 316.081 880.865 315.511C880.898 314.941 880.965 314.438 881.066 314.002ZM926.177 225.995H958.214V199.742H943.88C940.661 199.742 937.845 200.664 935.431 202.508C933.05 204.318 931.441 206.766 930.603 209.851L926.177 225.995Z" fill="#30504E"/>
<path d="M1018.33 195.014V190.287C1018.33 188.912 1018.78 187.772 1019.69 186.867C1020.6 185.961 1021.73 185.509 1023.11 185.509H1086.93C1088.31 185.509 1089.45 185.961 1090.35 186.867C1091.26 187.772 1091.71 188.912 1091.71 190.287V195.014C1091.71 196.389 1091.26 197.529 1090.35 198.434C1089.45 199.306 1088.31 199.742 1086.93 199.742H1064.5V253.002C1064.5 254.31 1064.03 255.416 1063.09 256.321C1062.19 257.193 1061.08 257.629 1059.77 257.629H1050.27C1048.96 257.629 1047.84 257.193 1046.9 256.321C1045.99 255.416 1045.54 254.31 1045.54 253.002V199.742H1023.11C1021.73 199.742 1020.6 199.306 1019.69 198.434C1018.78 197.529 1018.33 196.389 1018.33 195.014Z" fill="#30504E"/>
<path d="M1197.95 250.186C1191.11 256.187 1181.05 259.188 1167.77 259.188C1154.53 259.188 1144.47 256.187 1137.59 250.186C1130.72 244.15 1127.28 234.611 1127.28 221.569C1127.28 208.526 1130.72 199.004 1137.59 193.002C1144.47 187.001 1154.53 184 1167.77 184C1181.05 184 1191.11 187.001 1197.95 193.002C1204.82 199.004 1208.26 208.526 1208.26 221.569C1208.26 234.611 1204.82 244.15 1197.95 250.186ZM1184.22 203.614C1180.83 199.591 1175.35 197.579 1167.77 197.579C1160.23 197.579 1154.74 199.591 1151.32 203.614C1147.94 207.638 1146.24 213.639 1146.24 221.619C1146.24 229.565 1147.94 235.55 1151.32 239.574C1154.74 243.564 1160.23 245.559 1167.77 245.559C1175.35 245.559 1180.83 243.564 1184.22 239.574C1187.6 235.55 1189.3 229.565 1189.3 221.619C1189.3 213.639 1187.6 207.638 1184.22 203.614Z" fill="#30504E"/>
<path d="M1326.46 255.466C1326.46 256.908 1325.61 257.629 1323.9 257.629H1311.83C1310.55 257.629 1309.15 257.176 1307.6 256.271C1306.09 255.332 1304.94 254.209 1304.13 252.901L1295.58 239.523C1292.06 234.025 1287.8 231.275 1282.81 231.275H1270.54V252.901C1270.54 254.209 1270.07 255.332 1269.13 256.271C1268.22 257.176 1267.12 257.629 1265.81 257.629H1256.35C1255.05 257.629 1253.92 257.176 1252.98 256.271C1252.05 255.332 1251.58 254.209 1251.58 252.901V190.287C1251.58 188.979 1252.03 187.856 1252.93 186.917C1253.84 185.978 1254.95 185.509 1256.25 185.509H1297.75C1305.42 185.509 1311.71 187.571 1316.61 191.695C1321.53 195.819 1324 201.385 1324 208.392C1324 218.149 1317.68 224.268 1305.04 226.749C1307.05 227.487 1308.91 228.761 1310.62 230.571C1312.33 232.348 1314.29 234.947 1316.5 238.367L1325.66 252.901C1326.19 253.84 1326.46 254.695 1326.46 255.466ZM1270.54 217.042H1291.96C1295.42 217.042 1298.45 216.355 1301.06 214.98C1303.71 213.606 1305.04 211.41 1305.04 208.392C1305.04 205.375 1303.71 203.178 1301.06 201.804C1298.45 200.429 1295.42 199.742 1291.96 199.742H1270.54V217.042Z" fill="#30504E"/>
<path d="M90.2573 241.373L102.881 193.494C106.301 180.451 117.432 173.913 136.275 173.88H163.383C164.624 173.88 165.646 174.349 166.451 175.288C167.289 176.227 167.708 177.317 167.708 178.557V241.373C167.708 242.681 167.239 243.787 166.3 244.692C165.361 245.564 164.238 246 162.931 246H153.476C152.101 246 150.961 245.564 150.056 244.692C149.184 243.787 148.748 242.647 148.748 241.272V228.599H112.99L109.62 241.272C109.285 242.647 108.53 243.787 107.357 244.692C106.183 245.564 104.943 246 103.635 246H93.7275C92.4199 246 91.4811 245.631 90.9111 244.894C90.3411 244.122 90.0562 243.452 90.0562 242.882C90.0897 242.312 90.1567 241.809 90.2573 241.373ZM116.711 214.366H148.748V188.113H134.415C131.196 188.113 128.379 189.035 125.965 190.879C123.585 192.689 121.975 195.137 121.137 198.222L116.711 214.366Z" fill="#28EFFC"/>
<path d="M220.232 237.5C214.03 231.566 210.928 222.396 210.928 209.99C210.928 197.551 214.03 188.364 220.232 182.43C226.469 176.462 235.807 173.478 248.246 173.478H259.461C267.072 173.478 273.794 175.456 279.628 179.412C285.496 183.368 288.43 188.783 288.43 195.657C288.43 197.635 287.843 199.06 286.669 199.932C285.496 200.77 284.356 201.189 283.25 201.189H277.265C274.18 201.189 271.783 199.345 270.073 195.657C267.592 190.359 263.468 187.71 257.701 187.71H248.749C241.406 187.71 236.427 189.286 233.812 192.438C231.196 195.59 229.889 201.424 229.889 209.94C229.889 218.456 231.196 224.307 233.812 227.492C236.427 230.644 241.406 232.22 248.749 232.22H258.757C264.524 232.22 268.631 229.571 271.079 224.273C272.789 220.552 275.203 218.691 278.321 218.691H284.306C285.882 218.691 287.122 219.278 288.027 220.451C288.966 221.625 289.436 222.899 289.436 224.273C289.436 231.147 286.519 236.562 280.685 240.518C274.851 244.441 268.128 246.402 260.517 246.402H248.246C235.807 246.402 226.469 243.435 220.232 237.5Z" fill="#28EFFC"/>
<path d="M337.383 237.5C331.18 231.566 328.079 222.396 328.079 209.99C328.079 197.551 331.18 188.364 337.383 182.43C343.619 176.462 352.957 173.478 365.396 173.478H376.611C384.222 173.478 390.945 175.456 396.779 179.412C402.646 183.368 405.58 188.783 405.58 195.657C405.58 197.635 404.993 199.06 403.82 199.932C402.646 200.77 401.506 201.189 400.4 201.189H394.415C391.33 201.189 388.933 199.345 387.223 195.657C384.742 190.359 380.618 187.71 374.851 187.71H365.899C358.556 187.71 353.577 189.286 350.962 192.438C348.347 195.59 347.039 201.424 347.039 209.94C347.039 218.456 348.347 224.307 350.962 227.492C353.577 230.644 358.556 232.22 365.899 232.22H375.907C381.674 232.22 385.781 229.571 388.229 224.273C389.939 220.552 392.353 218.691 395.471 218.691H401.456C403.032 218.691 404.273 219.278 405.178 220.451C406.117 221.625 406.586 222.899 406.586 224.273C406.586 231.147 403.669 236.562 397.835 240.518C392.001 244.441 385.279 246.402 377.668 246.402H365.396C352.957 246.402 343.619 243.435 337.383 237.5Z" fill="#28EFFC"/>
<path d="M449.353 241.172V178.557C449.353 177.25 449.823 176.143 450.761 175.238C451.7 174.333 452.823 173.88 454.131 173.88H512.119C513.426 173.88 514.533 174.349 515.438 175.288C516.377 176.227 516.846 177.35 516.846 178.658V183.385C516.846 184.693 516.377 185.816 515.438 186.755C514.533 187.66 513.426 188.113 512.119 188.113H468.314V202.748H506.033C507.341 202.748 508.447 203.217 509.353 204.156C510.291 205.062 510.761 206.168 510.761 207.476V212.203C510.761 213.511 510.291 214.634 509.353 215.573C508.447 216.478 507.341 216.931 506.033 216.931H468.314V231.767H512.018C513.292 231.767 514.382 232.22 515.287 233.125C516.193 234.03 516.645 235.137 516.645 236.444V241.272C516.645 242.58 516.176 243.703 515.237 244.642C514.298 245.547 513.175 246 511.867 246H454.131C452.823 246 451.7 245.547 450.761 244.642C449.823 243.703 449.353 242.547 449.353 241.172Z" fill="#28EFFC"/>
<path d="M559.06 241.373V178.758C559.06 177.384 559.53 176.227 560.468 175.288C561.407 174.349 562.53 173.88 563.838 173.88H573.293C574.601 173.88 575.707 174.349 576.612 175.288C577.551 176.227 578.021 177.384 578.021 178.758V231.767H621.826C623.133 231.767 624.24 232.236 625.145 233.175C626.084 234.114 626.553 235.237 626.553 236.545V241.272C626.553 242.58 626.084 243.703 625.145 244.642C624.24 245.547 623.133 246 621.826 246H563.838C562.53 246 561.407 245.564 560.468 244.692C559.53 243.787 559.06 242.681 559.06 241.373Z" fill="#28EFFC"/>
<path d="M667.761 241.172V178.557C667.761 177.25 668.231 176.143 669.17 175.238C670.108 174.333 671.232 173.88 672.539 173.88H730.527C731.835 173.88 732.941 174.349 733.846 175.288C734.785 176.227 735.255 177.35 735.255 178.658V183.385C735.255 184.693 734.785 185.816 733.846 186.755C732.941 187.66 731.835 188.113 730.527 188.113H686.722V202.748H724.442C725.749 202.748 726.856 203.217 727.761 204.156C728.7 205.062 729.169 206.168 729.169 207.476V212.203C729.169 213.511 728.7 214.634 727.761 215.573C726.856 216.478 725.749 216.931 724.442 216.931H686.722V231.767H730.426C731.701 231.767 732.79 232.22 733.695 233.125C734.601 234.03 735.053 235.137 735.053 236.444V241.272C735.053 242.58 734.584 243.703 733.645 244.642C732.706 245.547 731.583 246 730.276 246H672.539C671.232 246 670.108 245.547 669.17 244.642C668.231 243.703 667.761 242.547 667.761 241.172Z" fill="#28EFFC"/>
<path d="M852.355 243.837C852.355 245.279 851.5 246 849.79 246H837.719C836.445 246 835.037 245.547 833.495 244.642C831.986 243.703 830.829 242.58 830.025 241.272L821.475 227.895C817.954 222.396 813.696 219.646 808.7 219.646H796.429V241.272C796.429 242.58 795.96 243.703 795.021 244.642C794.115 245.547 793.009 246 791.701 246H782.246C780.939 246 779.815 245.547 778.877 244.642C777.938 243.703 777.469 242.58 777.469 241.272V178.658C777.469 177.35 777.921 176.227 778.826 175.288C779.732 174.349 780.838 173.88 782.146 173.88H823.637C831.315 173.88 837.602 175.942 842.497 180.066C847.426 184.19 849.89 189.756 849.89 196.763C849.89 206.52 843.57 212.639 830.93 215.12C832.942 215.858 834.802 217.132 836.512 218.942C838.222 220.719 840.184 223.318 842.397 226.738L851.55 241.272C852.086 242.211 852.355 243.066 852.355 243.837ZM796.429 205.414H817.854C821.307 205.414 824.342 204.726 826.957 203.352C829.606 201.977 830.93 199.781 830.93 196.763C830.93 193.746 829.606 191.549 826.957 190.175C824.342 188.8 821.307 188.113 817.854 188.113H796.429V205.414Z" fill="#28EFFC"/>
<path d="M869.122 302.373L900.403 193.494C903.823 180.451 914.954 173.913 933.797 173.88H960.905C962.146 173.88 963.168 174.349 963.973 175.288C964.811 176.227 965.23 177.317 965.23 178.557V241.373C965.23 242.681 964.761 243.787 963.822 244.692C962.883 245.564 961.76 246 960.452 246H950.997C949.623 246 948.483 245.564 947.577 244.692C946.706 243.787 946.27 242.647 946.27 241.272V228.599H910.511L888.485 302.272C888.15 303.647 887.395 304.787 886.222 305.692C885.048 306.564 883.808 307 882.5 307H872.592C871.285 307 870.346 306.631 869.776 305.894C869.206 305.122 868.921 304.452 868.921 303.882C868.954 303.312 869.021 302.809 869.122 302.373ZM914.233 214.366H946.27V188.113H931.936C928.718 188.113 925.901 189.035 923.487 190.879C921.107 192.689 919.497 195.137 918.659 198.222L914.233 214.366Z" fill="#28EFFC"/>
<path d="M1006.39 183.385V178.658C1006.39 177.283 1006.84 176.143 1007.75 175.238C1008.65 174.333 1009.79 173.88 1011.17 173.88H1074.99C1076.36 173.88 1077.5 174.333 1078.41 175.238C1079.31 176.143 1079.77 177.283 1079.77 178.658V183.385C1079.77 184.76 1079.31 185.9 1078.41 186.805C1077.5 187.677 1076.36 188.113 1074.99 188.113H1052.56V241.373C1052.56 242.681 1052.09 243.787 1051.15 244.692C1050.24 245.564 1049.14 246 1047.83 246H1038.32C1037.02 246 1035.89 245.564 1034.95 244.692C1034.05 243.787 1033.6 242.681 1033.6 241.373V188.113H1011.17C1009.79 188.113 1008.65 187.677 1007.75 186.805C1006.84 185.9 1006.39 184.76 1006.39 183.385Z" fill="#28EFFC"/>
<path d="M1186 238.557C1179.16 244.558 1169.1 247.559 1155.83 247.559C1142.58 247.559 1132.52 244.558 1125.65 238.557C1118.78 232.521 1115.34 222.983 1115.34 209.94C1115.34 196.897 1118.78 187.375 1125.65 181.374C1132.52 175.372 1142.58 172.371 1155.83 172.371C1169.1 172.371 1179.16 175.372 1186 181.374C1192.88 187.375 1196.31 196.897 1196.31 209.94C1196.31 222.983 1192.88 232.521 1186 238.557ZM1172.27 191.985C1168.89 187.962 1163.4 185.95 1155.83 185.95C1148.28 185.95 1142.8 187.962 1139.38 191.985C1135.99 196.009 1134.3 202.01 1134.3 209.99C1134.3 217.937 1135.99 223.921 1139.38 227.945C1142.8 231.935 1148.28 233.93 1155.83 233.93C1163.4 233.93 1168.89 231.935 1172.27 227.945C1175.66 223.921 1177.35 217.937 1177.35 209.99C1177.35 202.01 1175.66 196.009 1172.27 191.985Z" fill="#28EFFC"/>
<path d="M1314.52 243.837C1314.52 245.279 1313.66 246 1311.95 246H1299.88C1298.61 246 1297.2 245.547 1295.66 244.642C1294.15 243.703 1292.99 242.58 1292.19 241.272L1283.64 227.895C1280.12 222.396 1275.86 219.646 1270.86 219.646H1258.59V241.272C1258.59 242.58 1258.12 243.703 1257.18 244.642C1256.28 245.547 1255.17 246 1253.87 246H1244.41C1243.1 246 1241.98 245.547 1241.04 244.642C1240.1 243.703 1239.63 242.58 1239.63 241.272V178.658C1239.63 177.35 1240.09 176.227 1240.99 175.288C1241.9 174.349 1243 173.88 1244.31 173.88H1285.8C1293.48 173.88 1299.77 175.942 1304.66 180.066C1309.59 184.19 1312.05 189.756 1312.05 196.763C1312.05 206.52 1305.73 212.639 1293.09 215.12C1295.11 215.858 1296.97 217.132 1298.68 218.942C1300.39 220.719 1302.35 223.318 1304.56 226.738L1313.71 241.272C1314.25 242.211 1314.52 243.066 1314.52 243.837ZM1258.59 205.414H1280.02C1283.47 205.414 1286.51 204.726 1289.12 203.352C1291.77 201.977 1293.09 199.781 1293.09 196.763C1293.09 193.746 1291.77 191.549 1289.12 190.175C1286.51 188.8 1283.47 188.113 1280.02 188.113H1258.59V205.414Z" fill="#28EFFC"/>
<path fill-rule="evenodd" clip-rule="evenodd" d="M254 64.9209C254 63.86 254.853 63 255.904 63H263.199C264.25 63 265.103 63.86 265.103 64.9209V110.304C265.103 111.365 265.956 112.225 267.007 112.225H310.092C311.759 112.225 312.621 114.233 311.481 115.46L305.967 121.393C305.607 121.78 305.104 122 304.578 122H265.103H255.904C254.853 122 254 121.14 254 120.079V64.9209Z" fill="white"/>
<path fill-rule="evenodd" clip-rule="evenodd" d="M139.393 98.2097H115.098C115.097 98.2097 115.095 98.2083 115.095 98.2066C115.095 98.2048 115.094 98.2034 115.092 98.2035C114.935 98.2076 114.777 98.2097 114.619 98.2097C104.888 98.2097 97 90.3277 97 80.6048C97 70.882 104.888 63 114.619 63C114.777 63 114.935 63.0021 115.092 63.0062C115.094 63.0063 115.095 63.0049 115.095 63.0031C115.095 63.0014 115.097 63 115.098 63H152.085C153.833 63 154.671 65.1482 153.386 66.3337L145.17 73.9112C144.816 74.2379 144.352 74.4194 143.87 74.4194H114.607C111.195 74.4194 108.429 77.1887 108.429 80.6048C108.429 84.021 111.195 86.7903 114.607 86.7903H140.78C140.796 86.7903 140.81 86.8036 140.81 86.82C140.81 86.8354 140.822 86.8483 140.837 86.8496C149.887 87.5892 157 95.1621 157 104.395C157 114.118 149.112 122 139.381 122C138.91 122 138.443 121.982 137.982 121.945C137.966 121.944 137.952 121.957 137.952 121.973C137.952 121.988 137.94 122 137.925 122H101.242C99.4599 122 98.6404 119.779 99.9948 118.619L108.842 111.042C109.19 110.744 109.632 110.581 110.09 110.581H122.88H139.393C142.805 110.581 145.571 107.811 145.571 104.395C145.571 100.979 142.805 98.2097 139.393 98.2097Z" fill="white"/>
<path fill-rule="evenodd" clip-rule="evenodd" d="M185.49 63C185.487 63 185.484 63.0023 185.484 63.0052C185.484 63.008 185.482 63.0103 185.479 63.0104C179.809 63.2551 175.256 67.8013 175.01 73.4627C175.01 73.4655 175.008 73.4677 175.005 73.4677C175.002 73.4677 175 73.4701 175 73.4729V110.576C175 110.578 175.002 110.581 175.005 110.581C175.008 110.581 175.01 110.583 175.01 110.586C175.003 110.742 175 110.899 175 111.056C175 116.939 179.649 121.738 185.479 121.99C185.482 121.99 185.484 121.992 185.484 121.995C185.484 121.998 185.487 122 185.49 122H225.51C225.513 122 225.516 121.998 225.516 121.995C225.516 121.992 225.518 121.99 225.521 121.99C231.351 121.738 236 116.939 236 111.056C236 110.899 235.997 110.742 235.99 110.586C235.99 110.583 235.992 110.581 235.995 110.581C235.998 110.581 236 110.578 236 110.576V73.4729C236 73.4701 235.998 73.4677 235.995 73.4677C235.992 73.4677 235.99 73.4655 235.99 73.4627C235.744 67.8013 231.191 63.2551 225.521 63.0104C225.518 63.0103 225.516 63.008 225.516 63.0052C225.516 63.0023 225.513 63 225.51 63H185.49ZM192.994 73.4677C192.992 73.4677 192.99 73.4692 192.99 73.471C192.99 73.4728 192.989 73.4742 192.987 73.4743C189.443 73.6282 186.597 76.4879 186.444 80.0492C186.444 80.0509 186.443 80.0523 186.441 80.0523C186.439 80.0523 186.438 80.0537 186.438 80.0555V103.394C186.438 103.396 186.439 103.398 186.441 103.398C186.442 103.398 186.444 103.399 186.444 103.401C186.44 103.499 186.438 103.598 186.438 103.697C186.438 107.397 189.343 110.416 192.987 110.574C192.989 110.574 192.99 110.576 192.99 110.577C192.99 110.579 192.992 110.581 192.994 110.581H218.007C218.008 110.581 218.01 110.579 218.01 110.577C218.01 110.576 218.011 110.574 218.013 110.574C221.657 110.416 224.563 107.397 224.563 103.697C224.563 103.598 224.56 103.499 224.556 103.401C224.556 103.399 224.558 103.398 224.559 103.398C224.561 103.398 224.563 103.396 224.563 103.394V80.0555C224.563 80.0537 224.561 80.0523 224.559 80.0523C224.558 80.0523 224.556 80.0509 224.556 80.0492C224.403 76.4879 221.557 73.6282 218.013 73.4743C218.011 73.4742 218.01 73.4728 218.01 73.471C218.01 73.4692 218.008 73.4677 218.007 73.4677H192.994Z" fill="white"/>
<path fill-rule="evenodd" clip-rule="evenodd" d="M344.438 79.1774V88.6758C344.438 89.7367 345.297 90.5968 346.358 90.5968H380.642C381.703 90.5968 382.563 89.7367 382.563 88.6758V79.1774C382.563 75.4985 379.575 72.5161 375.891 72.5161H351.109C347.425 72.5161 344.438 75.4985 344.438 79.1774ZM384.483 122C383.422 122 382.562 121.14 382.562 120.079V101.082C382.562 100.021 381.703 99.1613 380.642 99.1613H346.358C345.297 99.1613 344.438 100.021 344.438 101.082V120.079C344.438 121.14 343.578 122 342.517 122H334.92C333.86 122 333 121.14 333 120.079V74.4243C333 74.4216 333.002 74.4194 333.005 74.4194C333.008 74.4194 333.01 74.417 333.01 74.4142C333.003 74.2581 333 74.1012 333 73.9435C333 67.8996 337.907 63 343.961 63C344.119 63 344.276 63.0033 344.432 63.0099C344.435 63.0101 344.438 63.0078 344.438 63.005C344.438 63.0022 344.44 63 344.442 63H383.51C383.513 63 383.516 63.0023 383.516 63.0052C383.516 63.008 383.518 63.0103 383.521 63.0104C389.351 63.262 394 68.0607 394 73.9435C394 74.1012 393.997 74.2581 393.99 74.4142C393.99 74.417 393.992 74.4194 393.995 74.4194C393.998 74.4194 394 74.4216 394 74.4243V120.079C394 121.14 393.14 122 392.08 122H384.483Z" fill="white"/>
<path fill-rule="evenodd" clip-rule="evenodd" d="M502.438 79.1774V88.6758C502.438 89.7367 503.297 90.5968 504.358 90.5968H538.642C539.703 90.5968 540.563 89.7367 540.563 88.6758V79.1774C540.563 75.4985 537.575 72.5161 533.891 72.5161H509.109C505.425 72.5161 502.438 75.4985 502.438 79.1774ZM542.483 122C541.422 122 540.562 121.14 540.562 120.079V101.082C540.562 100.021 539.703 99.1613 538.642 99.1613H504.358C503.297 99.1613 502.438 100.021 502.438 101.082V120.079C502.438 121.14 501.578 122 500.517 122H492.92C491.86 122 491 121.14 491 120.079V74.4243C491 74.4216 491.002 74.4194 491.005 74.4194C491.008 74.4194 491.01 74.417 491.01 74.4142C491.003 74.2581 491 74.1012 491 73.9435C491 67.8996 495.907 63 501.961 63C502.119 63 502.276 63.0033 502.432 63.0099C502.435 63.0101 502.438 63.0078 502.438 63.005C502.438 63.0022 502.44 63 502.442 63H541.51C541.513 63 541.516 63.0023 541.516 63.0052C541.516 63.008 541.518 63.0103 541.521 63.0104C547.351 63.262 552 68.0607 552 73.9435C552 74.1012 551.997 74.2581 551.99 74.4142C551.99 74.417 551.992 74.4194 551.995 74.4194C551.998 74.4194 552 74.4216 552 74.4243V120.079C552 121.14 551.14 122 550.08 122H542.483Z" fill="white"/>
<path fill-rule="evenodd" clip-rule="evenodd" d="M424.013 63.6745C423.648 63.2465 423.114 63 422.551 63H413.92C412.86 63 412 63.86 412 64.9209V120.079C412 121.14 412.86 122 413.92 122H421.517C422.578 122 423.438 121.14 423.438 120.079V83.3463C423.438 81.5716 425.637 80.7461 426.804 82.0829L461.545 121.881C461.556 121.894 461.562 121.911 461.562 121.928C461.562 121.968 461.595 122 461.634 122H461.649H471.08C472.14 122 473 121.14 473 120.079V64.9209C473 63.86 472.14 63 471.08 63H463.483C462.422 63 461.562 63.86 461.562 64.9209V102.506C461.562 104.292 459.339 105.111 458.181 103.752L424.013 63.6745Z" fill="white"/>
</svg>
