<svg width="2568" height="643" viewBox="0 0 2568 643" fill="none" xmlns="http://www.w3.org/2000/svg">
<path fill-rule="evenodd" clip-rule="evenodd" d="M1252 221C1252 217.134 1255.13 214 1259 214H1285.81C1289.68 214 1292.81 217.134 1292.81 221V386.38C1292.81 390.246 1295.95 393.38 1299.81 393.38H1458.19C1464.32 393.38 1467.49 400.698 1463.3 405.168L1443.03 426.788C1441.71 428.199 1439.86 429 1437.92 429H1292.81H1259C1255.13 429 1252 425.866 1252 422V221Z" fill="white"/>
<path fill-rule="evenodd" clip-rule="evenodd" d="M831.121 342.306H742.496C742.49 342.306 742.485 342.301 742.485 342.295C742.485 342.289 742.48 342.284 742.474 342.284C741.9 342.299 741.325 342.306 740.748 342.306C705.251 342.306 676.474 313.584 676.474 278.153C676.474 242.722 705.251 214 740.748 214C741.325 214 741.9 214.008 742.474 214.023C742.48 214.023 742.485 214.018 742.485 214.011C742.485 214.005 742.49 214 742.496 214H877.425C883.8 214 886.856 221.828 882.168 226.148L852.197 253.761C850.905 254.952 849.212 255.613 847.454 255.613H740.706C728.257 255.613 718.165 265.705 718.165 278.153C718.165 290.602 728.257 300.694 740.706 300.694H836.182C836.242 300.694 836.29 300.742 836.29 300.802C836.29 300.858 836.334 300.905 836.39 300.909C869.403 303.605 895.353 331.201 895.353 364.847C895.353 400.278 866.576 429 831.079 429C829.361 429 827.659 428.933 825.975 428.801C825.917 428.796 825.868 428.842 825.868 428.9C825.868 428.955 825.823 429 825.768 429H691.95C685.448 429 682.458 420.908 687.399 416.681L719.675 389.068C720.943 387.983 722.557 387.387 724.225 387.387H770.884H831.121C843.57 387.387 853.662 377.295 853.662 364.847C853.662 352.398 843.57 342.306 831.121 342.306Z" fill="white"/>
<path fill-rule="evenodd" clip-rule="evenodd" d="M1000.76 214C1000.75 214 1000.75 214.008 1000.75 214.019C1000.75 214.029 1000.74 214.037 1000.73 214.038C980.058 214.93 963.46 231.496 962.567 252.127C962.566 252.137 962.558 252.145 962.548 252.145C962.538 252.145 962.529 252.154 962.529 252.164V387.369C962.529 387.379 962.537 387.387 962.547 387.387C962.558 387.387 962.566 387.396 962.565 387.406C962.541 387.975 962.529 388.546 962.529 389.121C962.529 410.558 979.476 428.045 1000.73 428.962C1000.74 428.963 1000.75 428.971 1000.75 428.981C1000.75 428.992 1000.75 429 1000.76 429H1146.65C1146.66 429 1146.67 428.992 1146.67 428.981C1146.67 428.971 1146.67 428.963 1146.68 428.962C1167.93 428.045 1184.88 410.558 1184.88 389.121C1184.88 388.546 1184.87 387.975 1184.85 387.406C1184.85 387.396 1184.85 387.387 1184.86 387.387C1184.87 387.387 1184.88 387.379 1184.88 387.369V252.164C1184.88 252.154 1184.87 252.145 1184.86 252.145C1184.85 252.145 1184.84 252.137 1184.84 252.127C1183.95 231.496 1167.35 214.93 1146.68 214.038C1146.67 214.037 1146.67 214.029 1146.67 214.019C1146.67 214.008 1146.66 214 1146.65 214H1000.76ZM1028.12 252.145C1028.11 252.145 1028.11 252.15 1028.11 252.157C1028.11 252.163 1028.1 252.169 1028.09 252.169C1015.18 252.73 1004.8 263.151 1004.24 276.128C1004.24 276.135 1004.24 276.14 1004.23 276.14C1004.23 276.14 1004.22 276.145 1004.22 276.152V361.2C1004.22 361.206 1004.23 361.211 1004.23 361.211C1004.24 361.211 1004.24 361.217 1004.24 361.223C1004.23 361.581 1004.22 361.94 1004.22 362.302C1004.22 375.787 1014.81 386.786 1028.09 387.363C1028.1 387.364 1028.11 387.369 1028.11 387.375C1028.11 387.382 1028.11 387.387 1028.12 387.387H1119.29C1119.3 387.387 1119.31 387.382 1119.31 387.375C1119.31 387.369 1119.31 387.364 1119.32 387.363C1132.6 386.786 1143.19 375.787 1143.19 362.302C1143.19 361.94 1143.18 361.581 1143.17 361.223C1143.17 361.217 1143.17 361.211 1143.18 361.211C1143.19 361.211 1143.19 361.206 1143.19 361.2V276.152C1143.19 276.145 1143.19 276.14 1143.18 276.14C1143.17 276.14 1143.17 276.135 1143.17 276.128C1142.61 263.151 1132.24 252.73 1119.32 252.169C1119.31 252.169 1119.31 252.163 1119.31 252.157C1119.31 252.15 1119.3 252.145 1119.29 252.145H1028.12Z" fill="white"/>
<path fill-rule="evenodd" clip-rule="evenodd" d="M1582.69 272.952V307.565C1582.69 311.431 1585.83 314.565 1589.69 314.565H1714.66C1718.53 314.565 1721.66 311.431 1721.66 307.565V272.952C1721.66 259.545 1710.77 248.677 1697.34 248.677H1607.01C1593.58 248.677 1582.69 259.545 1582.69 272.952ZM1728.66 429C1724.8 429 1721.66 425.866 1721.66 422V352.774C1721.66 348.908 1718.53 345.774 1714.66 345.774H1589.69C1585.83 345.774 1582.69 348.908 1582.69 352.774V422C1582.69 425.866 1579.56 429 1575.69 429H1548C1544.13 429 1541 425.866 1541 422V255.631C1541 255.621 1541.01 255.613 1541.02 255.613C1541.03 255.613 1541.04 255.604 1541.04 255.594C1541.01 255.025 1541 254.454 1541 253.879C1541 231.854 1558.89 214 1580.95 214C1581.53 214 1582.1 214.012 1582.67 214.036C1582.68 214.037 1582.69 214.028 1582.69 214.018C1582.69 214.008 1582.7 214 1582.71 214H1725.12C1725.13 214 1725.14 214.008 1725.14 214.019C1725.14 214.029 1725.14 214.037 1725.15 214.038C1746.41 214.955 1763.35 232.442 1763.35 253.879C1763.35 254.454 1763.34 255.025 1763.32 255.594C1763.32 255.604 1763.32 255.613 1763.33 255.613C1763.34 255.613 1763.35 255.621 1763.35 255.631V422C1763.35 425.866 1760.22 429 1756.35 429H1728.66Z" fill="white"/>
<path fill-rule="evenodd" clip-rule="evenodd" d="M2162.69 272.952V307.565C2162.69 311.431 2165.83 314.565 2169.69 314.565H2294.66C2298.53 314.565 2301.66 311.431 2301.66 307.565V272.952C2301.66 259.545 2290.77 248.677 2277.34 248.677H2187.01C2173.58 248.677 2162.69 259.545 2162.69 272.952ZM2308.66 429C2304.8 429 2301.66 425.866 2301.66 422V352.774C2301.66 348.908 2298.53 345.774 2294.66 345.774H2169.69C2165.83 345.774 2162.69 348.908 2162.69 352.774V422C2162.69 425.866 2159.56 429 2155.69 429H2128C2124.13 429 2121 425.866 2121 422V255.631C2121 255.621 2121.01 255.613 2121.02 255.613C2121.03 255.613 2121.04 255.604 2121.04 255.594C2121.01 255.025 2121 254.454 2121 253.879C2121 231.854 2138.89 214 2160.95 214C2161.53 214 2162.1 214.012 2162.67 214.036C2162.68 214.037 2162.69 214.028 2162.69 214.018C2162.69 214.008 2162.7 214 2162.71 214H2305.12C2305.13 214 2305.14 214.008 2305.14 214.019C2305.14 214.029 2305.14 214.037 2305.15 214.038C2326.41 214.955 2343.35 232.442 2343.35 253.879C2343.35 254.454 2343.34 255.025 2343.32 255.594C2343.32 255.604 2343.32 255.613 2343.33 255.613C2343.34 255.613 2343.35 255.621 2343.35 255.631V422C2343.35 425.866 2340.22 429 2336.35 429H2308.66Z" fill="white"/>
<path fill-rule="evenodd" clip-rule="evenodd" d="M1874.79 216.458C1873.46 214.898 1871.51 214 1869.46 214H1838C1834.13 214 1831 217.134 1831 221V422C1831 425.866 1834.13 429 1838 429H1865.69C1869.56 429 1872.69 425.866 1872.69 422V288.143C1872.69 281.676 1880.71 278.668 1884.96 283.539L2011.6 428.567C2011.64 428.614 2011.66 428.675 2011.66 428.739C2011.66 428.883 2011.78 429 2011.92 429H2011.98H2046.35C2050.22 429 2053.35 425.866 2053.35 422V221C2053.35 217.134 2050.22 214 2046.35 214H2018.66C2014.8 214 2011.66 217.134 2011.66 221V357.962C2011.66 364.469 2003.56 367.455 1999.34 362.504L1874.79 216.458Z" fill="white"/>
<path d="M513.394 230.135C510.876 232.654 507.46 234.069 503.898 234.069H167.455C155.564 234.069 149.541 219.754 157.854 211.252L213.04 154.811C215.567 152.227 219.028 150.77 222.642 150.77H560.339C572.303 150.77 578.294 165.235 569.835 173.695L513.394 230.135Z" fill="#00FFAD"/>
<path d="M513.394 486.56C510.876 489.078 507.46 490.493 503.898 490.493H167.455C155.564 490.493 149.541 476.178 157.854 467.676L213.04 411.235C215.567 408.651 219.028 407.194 222.642 407.194H560.339C572.303 407.194 578.294 421.659 569.835 430.119L513.394 486.56Z" fill="#00FFAD"/>
<path d="M513.394 282.865C510.876 280.347 507.46 278.932 503.898 278.932L167.455 278.932C155.564 278.932 149.541 293.247 157.854 301.749L213.04 358.19C215.567 360.774 219.028 362.23 222.642 362.23L560.339 362.23C572.303 362.23 578.294 347.766 569.835 339.306L513.394 282.865Z" fill="#00FFAD"/>
</svg>
