<svg width="2568" height="643" viewBox="0 0 2568 643" fill="none" xmlns="http://www.w3.org/2000/svg">
<path fill-rule="evenodd" clip-rule="evenodd" d="M1252 221C1252 217.134 1255.13 214 1259 214H1285.81C1289.68 214 1292.81 217.134 1292.81 221V386.38C1292.81 390.246 1295.95 393.38 1299.81 393.38H1458.19C1464.32 393.38 1467.49 400.698 1463.3 405.168L1443.03 426.788C1441.71 428.199 1439.86 429 1437.92 429H1292.81H1259C1255.13 429 1252 425.866 1252 422V221Z" fill="white"/>
<path fill-rule="evenodd" clip-rule="evenodd" d="M831.121 342.306H742.496C742.49 342.306 742.485 342.301 742.485 342.295C742.485 342.289 742.48 342.284 742.474 342.284C741.9 342.299 741.325 342.306 740.748 342.306C705.251 342.306 676.474 313.584 676.474 278.153C676.474 242.722 705.251 214 740.748 214C741.325 214 741.9 214.008 742.474 214.023C742.48 214.023 742.485 214.018 742.485 214.011C742.485 214.005 742.49 214 742.496 214H877.425C883.8 214 886.856 221.828 882.168 226.148L852.197 253.761C850.905 254.952 849.212 255.613 847.454 255.613H740.706C728.257 255.613 718.165 265.705 718.165 278.153C718.165 290.602 728.257 300.694 740.706 300.694H836.182C836.242 300.694 836.29 300.742 836.29 300.802C836.29 300.858 836.334 300.905 836.39 300.909C869.403 303.605 895.353 331.201 895.353 364.847C895.353 400.278 866.576 429 831.079 429C829.361 429 827.659 428.933 825.975 428.801C825.917 428.796 825.868 428.842 825.868 428.9C825.868 428.955 825.823 429 825.768 429H691.95C685.448 429 682.458 420.908 687.399 416.681L719.675 389.068C720.943 387.983 722.557 387.387 724.225 387.387H770.884H831.121C843.57 387.387 853.662 377.295 853.662 364.847C853.662 352.398 843.57 342.306 831.121 342.306Z" fill="white"/>
<path fill-rule="evenodd" clip-rule="evenodd" d="M1000.76 214C1000.75 214 1000.75 214.008 1000.75 214.019C1000.75 214.029 1000.74 214.037 1000.73 214.038C980.058 214.93 963.46 231.496 962.567 252.127C962.566 252.137 962.558 252.145 962.548 252.145C962.538 252.145 962.529 252.154 962.529 252.164V387.369C962.529 387.379 962.537 387.387 962.547 387.387C962.558 387.387 962.566 387.396 962.565 387.406C962.541 387.975 962.529 388.546 962.529 389.121C962.529 410.558 979.476 428.045 1000.73 428.962C1000.74 428.963 1000.75 428.971 1000.75 428.981C1000.75 428.992 1000.75 429 1000.76 429H1146.65C1146.66 429 1146.67 428.992 1146.67 428.981C1146.67 428.971 1146.67 428.963 1146.68 428.962C1167.93 428.045 1184.88 410.558 1184.88 389.121C1184.88 388.546 1184.87 387.975 1184.85 387.406C1184.85 387.396 1184.85 387.387 1184.86 387.387C1184.87 387.387 1184.88 387.379 1184.88 387.369V252.164C1184.88 252.154 1184.87 252.145 1184.86 252.145C1184.85 252.145 1184.84 252.137 1184.84 252.127C1183.95 231.496 1167.35 214.93 1146.68 214.038C1146.67 214.037 1146.67 214.029 1146.67 214.019C1146.67 214.008 1146.66 214 1146.65 214H1000.76ZM1028.12 252.145C1028.11 252.145 1028.11 252.15 1028.11 252.157C1028.11 252.163 1028.1 252.169 1028.09 252.169C1015.18 252.73 1004.8 263.151 1004.24 276.128C1004.24 276.135 1004.24 276.14 1004.23 276.14C1004.23 276.14 1004.22 276.145 1004.22 276.152V361.2C1004.22 361.206 1004.23 361.211 1004.23 361.211C1004.24 361.211 1004.24 361.217 1004.24 361.223C1004.23 361.581 1004.22 361.94 1004.22 362.302C1004.22 375.787 1014.81 386.786 1028.09 387.363C1028.1 387.364 1028.11 387.369 1028.11 387.375C1028.11 387.382 1028.11 387.387 1028.12 387.387H1119.29C1119.3 387.387 1119.31 387.382 1119.31 387.375C1119.31 387.369 1119.31 387.364 1119.32 387.363C1132.6 386.786 1143.19 375.787 1143.19 362.302C1143.19 361.94 1143.18 361.581 1143.17 361.223C1143.17 361.217 1143.17 361.211 1143.18 361.211C1143.19 361.211 1143.19 361.206 1143.19 361.2V276.152C1143.19 276.145 1143.19 276.14 1143.18 276.14C1143.17 276.14 1143.17 276.135 1143.17 276.128C1142.61 263.151 1132.24 252.73 1119.32 252.169C1119.31 252.169 1119.31 252.163 1119.31 252.157C1119.31 252.15 1119.3 252.145 1119.29 252.145H1028.12Z" fill="white"/>
<path fill-rule="evenodd" clip-rule="evenodd" d="M1562.69 272.952V307.565C1562.69 311.431 1565.83 314.565 1569.69 314.565H1694.66C1698.53 314.565 1701.66 311.431 1701.66 307.565V272.952C1701.66 259.545 1690.77 248.677 1677.34 248.677H1587.01C1573.58 248.677 1562.69 259.545 1562.69 272.952ZM1708.66 429C1704.8 429 1701.66 425.866 1701.66 422V352.774C1701.66 348.908 1698.53 345.774 1694.66 345.774H1569.69C1565.83 345.774 1562.69 348.908 1562.69 352.774V422C1562.69 425.866 1559.56 429 1555.69 429H1528C1524.13 429 1521 425.866 1521 422V255.631C1521 255.621 1521.01 255.613 1521.02 255.613C1521.03 255.613 1521.04 255.604 1521.04 255.594C1521.01 255.025 1521 254.454 1521 253.879C1521 231.854 1538.89 214 1560.95 214C1561.53 214 1562.1 214.012 1562.67 214.036C1562.68 214.037 1562.69 214.028 1562.69 214.018C1562.69 214.008 1562.7 214 1562.71 214H1705.12C1705.13 214 1705.14 214.008 1705.14 214.019C1705.14 214.029 1705.14 214.037 1705.15 214.038C1726.41 214.955 1743.35 232.442 1743.35 253.879C1743.35 254.454 1743.34 255.025 1743.32 255.594C1743.32 255.604 1743.32 255.613 1743.33 255.613C1743.34 255.613 1743.35 255.621 1743.35 255.631V422C1743.35 425.866 1740.22 429 1736.35 429H1708.66Z" fill="white"/>
<path fill-rule="evenodd" clip-rule="evenodd" d="M2142.69 272.952V307.565C2142.69 311.431 2145.83 314.565 2149.69 314.565H2274.66C2278.53 314.565 2281.66 311.431 2281.66 307.565V272.952C2281.66 259.545 2270.77 248.677 2257.34 248.677H2167.01C2153.58 248.677 2142.69 259.545 2142.69 272.952ZM2288.66 429C2284.8 429 2281.66 425.866 2281.66 422V352.774C2281.66 348.908 2278.53 345.774 2274.66 345.774H2149.69C2145.83 345.774 2142.69 348.908 2142.69 352.774V422C2142.69 425.866 2139.56 429 2135.69 429H2108C2104.13 429 2101 425.866 2101 422V255.631C2101 255.621 2101.01 255.613 2101.02 255.613C2101.03 255.613 2101.04 255.604 2101.04 255.594C2101.01 255.025 2101 254.454 2101 253.879C2101 231.854 2118.89 214 2140.95 214C2141.53 214 2142.1 214.012 2142.67 214.036C2142.68 214.037 2142.69 214.028 2142.69 214.018C2142.69 214.008 2142.7 214 2142.71 214H2285.12C2285.13 214 2285.14 214.008 2285.14 214.019C2285.14 214.029 2285.14 214.037 2285.15 214.038C2306.41 214.955 2323.35 232.442 2323.35 253.879C2323.35 254.454 2323.34 255.025 2323.32 255.594C2323.32 255.604 2323.32 255.613 2323.33 255.613C2323.34 255.613 2323.35 255.621 2323.35 255.631V422C2323.35 425.866 2320.22 429 2316.35 429H2288.66Z" fill="white"/>
<path fill-rule="evenodd" clip-rule="evenodd" d="M1854.79 216.458C1853.46 214.898 1851.51 214 1849.46 214H1818C1814.13 214 1811 217.134 1811 221V422C1811 425.866 1814.13 429 1818 429H1845.69C1849.56 429 1852.69 425.866 1852.69 422V288.143C1852.69 281.676 1860.71 278.668 1864.96 283.539L1991.6 428.567C1991.64 428.614 1991.66 428.675 1991.66 428.739C1991.66 428.883 1991.78 429 1991.92 429H1991.98H2026.35C2030.22 429 2033.35 425.866 2033.35 422V221C2033.35 217.134 2030.22 214 2026.35 214H1998.66C1994.8 214 1991.66 217.134 1991.66 221V357.962C1991.66 364.469 1983.56 367.455 1979.34 362.504L1854.79 216.458Z" fill="white"/>
<mask id="mask0" mask-type="alpha" maskUnits="userSpaceOnUse" x="153" y="150" width="421" height="342">
<path fill-rule="evenodd" clip-rule="evenodd" d="M513.426 231.12C510.9 233.678 507.475 235.116 503.903 235.116H166.494C154.569 235.116 148.528 220.573 156.865 211.936L212.21 154.597C214.744 151.972 218.215 150.492 221.839 150.492H560.506C572.504 150.492 578.512 165.187 570.028 173.781L513.426 231.12ZM513.426 487.205C510.9 489.699 507.475 491.101 503.903 491.101H166.494C154.569 491.101 148.528 476.922 156.865 468.5L212.21 412.595C214.744 410.036 218.215 408.593 221.839 408.593H560.506C572.504 408.593 578.512 422.92 570.028 431.3L513.426 487.205ZM503.903 279.543C507.475 279.543 510.9 280.944 513.426 283.439L570.028 339.344C578.512 347.723 572.504 362.05 560.506 362.05L221.839 362.05C218.215 362.05 214.744 360.608 212.21 358.048L156.865 302.143C148.528 293.721 154.569 279.543 166.494 279.543L503.903 279.543Z" fill="#00FFAD"/>
</mask>
<g mask="url(#mask0)">
<path d="M59.9746 120.677H692.071V554.796H59.9746V120.677Z" fill="url(#paint0_linear)"/>
</g>
<defs>
<linearGradient id="paint0_linear" x1="597.256" y1="132.926" x2="396.707" y2="589.48" gradientUnits="userSpaceOnUse">
<stop stop-color="#02FFAD"/>
<stop offset="1" stop-color="#F71DF4"/>
</linearGradient>
</defs>
</svg>
