<svg width="1234" height="382" viewBox="0 0 1234 382" fill="none" xmlns="http://www.w3.org/2000/svg">
<path d="M123.304 247.129C117.101 241.195 114 232.025 114 219.619C114 207.18 117.101 197.993 123.304 192.059C129.541 186.09 138.878 183.106 151.317 183.106H162.533C170.144 183.106 176.866 185.085 182.7 189.041C188.568 192.997 191.501 198.412 191.501 205.286C191.501 207.264 190.915 208.689 189.741 209.561C188.568 210.399 187.428 210.818 186.321 210.818H180.336C177.252 210.818 174.854 208.974 173.145 205.286C170.663 199.988 166.539 197.339 160.772 197.339H151.82C144.478 197.339 139.499 198.915 136.883 202.067C134.268 205.219 132.96 211.053 132.96 219.569C132.96 228.085 134.268 233.936 136.883 237.121C139.499 240.273 144.478 241.849 151.82 241.849H161.829C167.596 241.849 171.703 239.2 174.15 233.902C175.86 230.181 178.274 228.32 181.393 228.32H187.377C188.953 228.32 190.194 228.907 191.099 230.08C192.038 231.254 192.507 232.528 192.507 233.902C192.507 240.776 189.59 246.191 183.756 250.147C177.922 254.07 171.2 256.031 163.589 256.031H151.317C138.878 256.031 129.541 253.064 123.304 247.129Z" fill="#E5CBE8"/>
<path d="M301.812 248.186C294.972 254.187 284.914 257.188 271.636 257.188C258.392 257.188 248.334 254.187 241.46 248.186C234.587 242.15 231.15 232.611 231.15 219.569C231.15 206.526 234.587 197.004 241.46 191.002C248.334 185.001 258.392 182 271.636 182C284.914 182 294.972 185.001 301.812 191.002C308.685 197.004 312.122 206.526 312.122 219.569C312.122 232.611 308.685 242.15 301.812 248.186ZM288.082 201.614C284.696 197.591 279.214 195.579 271.636 195.579C264.092 195.579 258.61 197.591 255.19 201.614C251.804 205.638 250.111 211.639 250.111 219.619C250.111 227.565 251.804 233.55 255.19 237.574C258.61 241.564 264.092 243.559 271.636 243.559C279.214 243.559 284.696 241.564 288.082 237.574C291.468 233.55 293.162 227.565 293.162 219.619C293.162 211.639 291.468 205.638 288.082 201.614Z" fill="#E5CBE8"/>
<path d="M355.442 251.002V188.387C355.442 187.013 355.912 185.856 356.851 184.917C357.789 183.978 358.913 183.509 360.22 183.509H369.675C370.983 183.509 372.089 183.978 372.995 184.917C373.934 185.856 374.403 187.013 374.403 188.387V241.396H418.208C419.516 241.396 420.622 241.865 421.527 242.804C422.466 243.743 422.936 244.866 422.936 246.174V250.901C422.936 252.209 422.466 253.332 421.527 254.271C420.622 255.176 419.516 255.629 418.208 255.629H360.22C358.913 255.629 357.789 255.193 356.851 254.321C355.912 253.416 355.442 252.31 355.442 251.002Z" fill="#E5CBE8"/>
<path d="M464.144 251.002V188.387C464.144 187.013 464.613 185.856 465.552 184.917C466.491 183.978 467.614 183.509 468.922 183.509H478.377C479.684 183.509 480.791 183.978 481.696 184.917C482.635 185.856 483.104 187.013 483.104 188.387V241.396H526.909C528.217 241.396 529.323 241.865 530.229 242.804C531.167 243.743 531.637 244.866 531.637 246.174V250.901C531.637 252.209 531.167 253.332 530.229 254.271C529.323 255.176 528.217 255.629 526.909 255.629H468.922C467.614 255.629 466.491 255.193 465.552 254.321C464.613 253.416 464.144 252.31 464.144 251.002Z" fill="#E5CBE8"/>
<path d="M572.845 250.801V188.186C572.845 186.878 573.314 185.772 574.253 184.867C575.192 183.961 576.315 183.509 577.623 183.509H635.611C636.918 183.509 638.025 183.978 638.93 184.917C639.869 185.856 640.338 186.979 640.338 188.287V193.014C640.338 194.322 639.869 195.445 638.93 196.384C638.025 197.289 636.918 197.742 635.611 197.742H591.805V212.377H629.525C630.833 212.377 631.939 212.846 632.844 213.785C633.783 214.69 634.253 215.797 634.253 217.104V221.832C634.253 223.14 633.783 224.263 632.844 225.202C631.939 226.107 630.833 226.56 629.525 226.56H591.805V241.396H635.51C636.784 241.396 637.874 241.849 638.779 242.754C639.684 243.659 640.137 244.766 640.137 246.073V250.901C640.137 252.209 639.667 253.332 638.729 254.271C637.79 255.176 636.667 255.629 635.359 255.629H577.623C576.315 255.629 575.192 255.176 574.253 254.271C573.314 253.332 572.845 252.175 572.845 250.801Z" fill="#E5CBE8"/>
<path d="M687.732 247.129C681.529 241.195 678.428 232.025 678.428 219.619C678.428 207.18 681.529 197.993 687.732 192.059C693.968 186.09 703.306 183.106 715.745 183.106H726.961C734.572 183.106 741.294 185.085 747.128 189.041C752.996 192.997 755.929 198.412 755.929 205.286C755.929 207.264 755.343 208.689 754.169 209.561C752.996 210.399 751.856 210.818 750.749 210.818H744.764C741.68 210.818 739.282 208.974 737.572 205.286C735.091 199.988 730.967 197.339 725.2 197.339H716.248C708.905 197.339 703.926 198.915 701.311 202.067C698.696 205.219 697.388 211.053 697.388 219.569C697.388 228.085 698.696 233.936 701.311 237.121C703.926 240.273 708.905 241.849 716.248 241.849H726.257C732.023 241.849 736.131 239.2 738.578 233.902C740.288 230.181 742.702 228.32 745.82 228.32H751.805C753.381 228.32 754.622 228.907 755.527 230.08C756.466 231.254 756.935 232.528 756.935 233.902C756.935 240.776 754.018 246.191 748.184 250.147C742.35 254.07 735.628 256.031 728.017 256.031H715.745C703.306 256.031 693.968 253.064 687.732 247.129Z" fill="#E5CBE8"/>
<path d="M792.51 193.014V188.287C792.51 186.912 792.963 185.772 793.868 184.867C794.774 183.961 795.914 183.509 797.288 183.509H861.11C862.485 183.509 863.625 183.961 864.53 184.867C865.435 185.772 865.888 186.912 865.888 188.287V193.014C865.888 194.389 865.435 195.529 864.53 196.434C863.625 197.306 862.485 197.742 861.11 197.742H838.679V251.002C838.679 252.31 838.21 253.416 837.271 254.321C836.366 255.193 835.26 255.629 833.952 255.629H824.447C823.139 255.629 822.016 255.193 821.077 254.321C820.172 253.416 819.719 252.31 819.719 251.002V197.742H797.288C795.914 197.742 794.774 197.306 793.868 196.434C792.963 195.529 792.51 194.389 792.51 193.014Z" fill="#E5CBE8"/>
<path d="M907.096 318.502V188.287C907.096 186.979 907.565 185.856 908.504 184.917C909.443 183.978 910.566 183.509 911.874 183.509H921.228C922.603 183.509 923.743 183.978 924.648 184.917C925.587 185.856 926.056 186.979 926.056 188.287V318.401C926.056 319.709 925.57 320.832 924.598 321.771C923.659 322.676 922.536 323.129 921.228 323.129H911.874C910.566 323.129 909.443 322.693 908.504 321.821C907.565 320.916 907.096 319.81 907.096 318.502Z" fill="#E5CBE8"/>
<path d="M967.617 187.733C967.415 187.331 967.315 186.895 967.315 186.426C967.315 185.923 967.617 185.319 968.22 184.615C968.857 183.878 969.746 183.509 970.886 183.509H981.9C984.515 183.509 986.51 185.101 987.885 188.287L1007.35 231.639L1026.81 188.287C1028.19 185.135 1030.18 183.542 1032.8 183.509H1043.81C1044.98 183.509 1045.87 183.878 1046.48 184.615C1047.08 185.319 1047.38 185.923 1047.38 186.426C1047.38 186.895 1047.3 187.331 1047.13 187.733L1018.16 250.499C1016.59 253.919 1014.19 255.629 1010.97 255.629H1003.73C1000.51 255.629 998.111 253.919 996.535 250.499L967.617 187.733Z" fill="#E5CBE8"/>
<path d="M1088.59 250.801V188.186C1088.59 186.878 1089.06 185.772 1090 184.867C1090.94 183.961 1092.06 183.509 1093.37 183.509H1151.35C1152.66 183.509 1153.77 183.978 1154.67 184.917C1155.61 185.856 1156.08 186.979 1156.08 188.287V193.014C1156.08 194.322 1155.61 195.445 1154.67 196.384C1153.77 197.289 1152.66 197.742 1151.35 197.742H1107.55V212.377H1145.27C1146.58 212.377 1147.68 212.846 1148.59 213.785C1149.53 214.69 1150 215.797 1150 217.104V221.832C1150 223.14 1149.53 224.263 1148.59 225.202C1147.68 226.107 1146.58 226.56 1145.27 226.56H1107.55V241.396H1151.25C1152.53 241.396 1153.62 241.849 1154.52 242.754C1155.43 243.659 1155.88 244.766 1155.88 246.073V250.901C1155.88 252.209 1155.41 253.332 1154.47 254.271C1153.53 255.176 1152.41 255.629 1151.1 255.629H1093.37C1092.06 255.629 1090.94 255.176 1090 254.271C1089.06 253.332 1088.59 252.175 1088.59 250.801Z" fill="#E5CBE8"/>
<path d="M94.3042 223.129C88.1014 217.195 85 208.025 85 195.619C85 183.18 88.1014 173.993 94.3042 168.059C100.541 162.09 109.878 159.106 122.317 159.106H133.533C141.144 159.106 147.866 161.085 153.7 165.041C159.568 168.997 162.501 174.412 162.501 181.286C162.501 183.264 161.915 184.689 160.741 185.561C159.568 186.399 158.428 186.818 157.321 186.818H151.336C148.252 186.818 145.854 184.974 144.145 181.286C141.663 175.988 137.539 173.339 131.772 173.339H122.82C115.478 173.339 110.499 174.915 107.883 178.067C105.268 181.219 103.96 187.053 103.96 195.569C103.96 204.085 105.268 209.936 107.883 213.121C110.499 216.273 115.478 217.849 122.82 217.849H132.829C138.596 217.849 142.703 215.2 145.15 209.902C146.86 206.181 149.274 204.32 152.393 204.32H158.377C159.953 204.32 161.194 204.907 162.099 206.08C163.038 207.254 163.507 208.528 163.507 209.902C163.507 216.776 160.59 222.191 154.756 226.147C148.922 230.07 142.2 232.031 134.589 232.031H122.317C109.878 232.031 100.541 229.064 94.3042 223.129Z" fill="#E5D4E7"/>
<path d="M272.812 224.186C265.972 230.187 255.914 233.188 242.636 233.188C229.392 233.188 219.334 230.187 212.46 224.186C205.587 218.15 202.15 208.611 202.15 195.569C202.15 182.526 205.587 173.004 212.46 167.002C219.334 161.001 229.392 158 242.636 158C255.914 158 265.972 161.001 272.812 167.002C279.685 173.004 283.122 182.526 283.122 195.569C283.122 208.611 279.685 218.15 272.812 224.186ZM259.082 177.614C255.696 173.591 250.214 171.579 242.636 171.579C235.092 171.579 229.61 173.591 226.19 177.614C222.804 181.638 221.111 187.639 221.111 195.619C221.111 203.565 222.804 209.55 226.19 213.574C229.61 217.564 235.092 219.559 242.636 219.559C250.214 219.559 255.696 217.564 259.082 213.574C262.468 209.55 264.162 203.565 264.162 195.619C264.162 187.639 262.468 181.638 259.082 177.614Z" fill="#E5D4E7"/>
<path d="M326.442 227.002V164.387C326.442 163.013 326.912 161.856 327.851 160.917C328.789 159.978 329.913 159.509 331.22 159.509H340.675C341.983 159.509 343.089 159.978 343.995 160.917C344.934 161.856 345.403 163.013 345.403 164.387V217.396H389.208C390.516 217.396 391.622 217.865 392.527 218.804C393.466 219.743 393.936 220.866 393.936 222.174V226.901C393.936 228.209 393.466 229.332 392.527 230.271C391.622 231.176 390.516 231.629 389.208 231.629H331.22C329.913 231.629 328.789 231.193 327.851 230.321C326.912 229.416 326.442 228.31 326.442 227.002Z" fill="#E5D4E7"/>
<path d="M435.144 227.002V164.387C435.144 163.013 435.613 161.856 436.552 160.917C437.491 159.978 438.614 159.509 439.922 159.509H449.377C450.684 159.509 451.791 159.978 452.696 160.917C453.635 161.856 454.104 163.013 454.104 164.387V217.396H497.909C499.217 217.396 500.323 217.865 501.229 218.804C502.167 219.743 502.637 220.866 502.637 222.174V226.901C502.637 228.209 502.167 229.332 501.229 230.271C500.323 231.176 499.217 231.629 497.909 231.629H439.922C438.614 231.629 437.491 231.193 436.552 230.321C435.613 229.416 435.144 228.31 435.144 227.002Z" fill="#E5D4E7"/>
<path d="M543.845 226.801V164.186C543.845 162.878 544.314 161.772 545.253 160.867C546.192 159.961 547.315 159.509 548.623 159.509H606.611C607.918 159.509 609.025 159.978 609.93 160.917C610.869 161.856 611.338 162.979 611.338 164.287V169.014C611.338 170.322 610.869 171.445 609.93 172.384C609.025 173.289 607.918 173.742 606.611 173.742H562.805V188.377H600.525C601.833 188.377 602.939 188.846 603.844 189.785C604.783 190.69 605.253 191.797 605.253 193.104V197.832C605.253 199.14 604.783 200.263 603.844 201.202C602.939 202.107 601.833 202.56 600.525 202.56H562.805V217.396H606.51C607.784 217.396 608.874 217.849 609.779 218.754C610.684 219.659 611.137 220.766 611.137 222.073V226.901C611.137 228.209 610.667 229.332 609.729 230.271C608.79 231.176 607.667 231.629 606.359 231.629H548.623C547.315 231.629 546.192 231.176 545.253 230.271C544.314 229.332 543.845 228.175 543.845 226.801Z" fill="#E5D4E7"/>
<path d="M658.732 223.129C652.529 217.195 649.428 208.025 649.428 195.619C649.428 183.18 652.529 173.993 658.732 168.059C664.968 162.09 674.306 159.106 686.745 159.106H697.961C705.572 159.106 712.294 161.085 718.128 165.041C723.996 168.997 726.929 174.412 726.929 181.286C726.929 183.264 726.343 184.689 725.169 185.561C723.996 186.399 722.856 186.818 721.749 186.818H715.764C712.68 186.818 710.282 184.974 708.572 181.286C706.091 175.988 701.967 173.339 696.2 173.339H687.248C679.905 173.339 674.926 174.915 672.311 178.067C669.696 181.219 668.388 187.053 668.388 195.569C668.388 204.085 669.696 209.936 672.311 213.121C674.926 216.273 679.905 217.849 687.248 217.849H697.257C703.023 217.849 707.131 215.2 709.578 209.902C711.288 206.181 713.702 204.32 716.82 204.32H722.805C724.381 204.32 725.622 204.907 726.527 206.08C727.466 207.254 727.935 208.528 727.935 209.902C727.935 216.776 725.018 222.191 719.184 226.147C713.35 230.07 706.628 232.031 699.017 232.031H686.745C674.306 232.031 664.968 229.064 658.732 223.129Z" fill="#E5D4E7"/>
<path d="M763.51 169.014V164.287C763.51 162.912 763.963 161.772 764.868 160.867C765.774 159.961 766.914 159.509 768.288 159.509H832.11C833.485 159.509 834.625 159.961 835.53 160.867C836.435 161.772 836.888 162.912 836.888 164.287V169.014C836.888 170.389 836.435 171.529 835.53 172.434C834.625 173.306 833.485 173.742 832.11 173.742H809.679V227.002C809.679 228.31 809.21 229.416 808.271 230.321C807.366 231.193 806.26 231.629 804.952 231.629H795.447C794.139 231.629 793.016 231.193 792.077 230.321C791.172 229.416 790.719 228.31 790.719 227.002V173.742H768.288C766.914 173.742 765.774 173.306 764.868 172.434C763.963 171.529 763.51 170.389 763.51 169.014Z" fill="#E5D4E7"/>
<path d="M878.096 294.502V164.287C878.096 162.979 878.565 161.856 879.504 160.917C880.443 159.978 881.566 159.509 882.874 159.509H892.228C893.603 159.509 894.743 159.978 895.648 160.917C896.587 161.856 897.056 162.979 897.056 164.287V294.401C897.056 295.709 896.57 296.832 895.598 297.771C894.659 298.676 893.536 299.129 892.228 299.129H882.874C881.566 299.129 880.443 298.693 879.504 297.821C878.565 296.916 878.096 295.81 878.096 294.502Z" fill="#E5D4E7"/>
<path d="M938.617 163.733C938.415 163.331 938.315 162.895 938.315 162.426C938.315 161.923 938.617 161.319 939.22 160.615C939.857 159.878 940.746 159.509 941.886 159.509H952.9C955.515 159.509 957.51 161.101 958.885 164.287L978.348 207.639L997.811 164.287C999.186 161.135 1001.18 159.542 1003.8 159.509H1014.81C1015.98 159.509 1016.87 159.878 1017.48 160.615C1018.08 161.319 1018.38 161.923 1018.38 162.426C1018.38 162.895 1018.3 163.331 1018.13 163.733L989.161 226.499C987.585 229.919 985.188 231.629 981.969 231.629H974.727C971.508 231.629 969.111 229.919 967.535 226.499L938.617 163.733Z" fill="#E5D4E7"/>
<path d="M1059.59 226.801V164.186C1059.59 162.878 1060.06 161.772 1061 160.867C1061.94 159.961 1063.06 159.509 1064.37 159.509H1122.35C1123.66 159.509 1124.77 159.978 1125.67 160.917C1126.61 161.856 1127.08 162.979 1127.08 164.287V169.014C1127.08 170.322 1126.61 171.445 1125.67 172.384C1124.77 173.289 1123.66 173.742 1122.35 173.742H1078.55V188.377H1116.27C1117.58 188.377 1118.68 188.846 1119.59 189.785C1120.53 190.69 1121 191.797 1121 193.104V197.832C1121 199.14 1120.53 200.263 1119.59 201.202C1118.68 202.107 1117.58 202.56 1116.27 202.56H1078.55V217.396H1122.25C1123.53 217.396 1124.62 217.849 1125.52 218.754C1126.43 219.659 1126.88 220.766 1126.88 222.073V226.901C1126.88 228.209 1126.41 229.332 1125.47 230.271C1124.53 231.176 1123.41 231.629 1122.1 231.629H1064.37C1063.06 231.629 1061.94 231.176 1061 230.271C1060.06 229.332 1059.59 228.175 1059.59 226.801Z" fill="#E5D4E7"/>
<path d="M106.266 236.5C100.063 230.566 96.9617 221.396 96.9617 208.99C96.9617 196.551 100.063 187.364 106.266 181.43C112.502 175.462 121.84 172.478 134.279 172.478H145.494C153.105 172.478 159.828 174.456 165.662 178.412C171.529 182.368 174.463 187.783 174.463 194.657C174.463 196.635 173.876 198.06 172.703 198.932C171.529 199.77 170.389 200.189 169.283 200.189H163.298C160.213 200.189 157.816 198.345 156.106 194.657C153.625 189.359 149.501 186.71 143.734 186.71H134.782C127.439 186.71 122.46 188.286 119.845 191.438C117.23 194.59 115.922 200.424 115.922 208.94C115.922 217.456 117.23 223.307 119.845 226.492C122.46 229.644 127.439 231.22 134.782 231.22H144.79C150.557 231.22 154.664 228.571 157.112 223.273C158.822 219.552 161.236 217.691 164.354 217.691H170.339C171.915 217.691 173.156 218.278 174.061 219.451C175 220.625 175.469 221.899 175.469 223.273C175.469 230.147 172.552 235.562 166.718 239.518C160.884 243.441 154.162 245.402 146.551 245.402H134.279C121.84 245.402 112.502 242.435 106.266 236.5Z" fill="#C121D0"/>
<path d="M284.774 237.557C277.934 243.558 267.875 246.559 254.598 246.559C241.354 246.559 231.296 243.558 224.422 237.557C217.549 231.521 214.112 221.983 214.112 208.94C214.112 195.897 217.549 186.375 224.422 180.374C231.296 174.372 241.354 171.371 254.598 171.371C267.875 171.371 277.934 174.372 284.774 180.374C291.647 186.375 295.084 195.897 295.084 208.94C295.084 221.983 291.647 231.521 284.774 237.557ZM271.044 190.985C267.657 186.962 262.175 184.95 254.598 184.95C247.054 184.95 241.572 186.962 238.152 190.985C234.766 195.009 233.073 201.01 233.073 208.99C233.073 216.937 234.766 222.921 238.152 226.945C241.572 230.935 247.054 232.93 254.598 232.93C262.175 232.93 267.657 230.935 271.044 226.945C274.43 222.921 276.123 216.937 276.123 208.99C276.123 201.01 274.43 195.009 271.044 190.985Z" fill="#C121D0"/>
<path d="M338.404 240.373V177.758C338.404 176.384 338.874 175.227 339.812 174.288C340.751 173.349 341.874 172.88 343.182 172.88H352.637C353.945 172.88 355.051 173.349 355.956 174.288C356.895 175.227 357.365 176.384 357.365 177.758V230.767H401.17C402.477 230.767 403.584 231.236 404.489 232.175C405.428 233.114 405.897 234.237 405.897 235.545V240.272C405.897 241.58 405.428 242.703 404.489 243.642C403.584 244.547 402.477 245 401.17 245H343.182C341.874 245 340.751 244.564 339.812 243.692C338.874 242.787 338.404 241.681 338.404 240.373Z" fill="#C121D0"/>
<path d="M447.105 240.373V177.758C447.105 176.384 447.575 175.227 448.514 174.288C449.452 173.349 450.576 172.88 451.883 172.88H461.338C462.646 172.88 463.752 173.349 464.658 174.288C465.596 175.227 466.066 176.384 466.066 177.758V230.767H509.871C511.179 230.767 512.285 231.236 513.19 232.175C514.129 233.114 514.599 234.237 514.599 235.545V240.272C514.599 241.58 514.129 242.703 513.19 243.642C512.285 244.547 511.179 245 509.871 245H451.883C450.576 245 449.452 244.564 448.514 243.692C447.575 242.787 447.105 241.681 447.105 240.373Z" fill="#C121D0"/>
<path d="M555.807 240.172V177.557C555.807 176.25 556.276 175.143 557.215 174.238C558.154 173.333 559.277 172.88 560.584 172.88H618.572C619.88 172.88 620.986 173.349 621.892 174.288C622.83 175.227 623.3 176.35 623.3 177.658V182.385C623.3 183.693 622.83 184.816 621.892 185.755C620.986 186.66 619.88 187.113 618.572 187.113H574.767V201.748H612.487C613.794 201.748 614.901 202.217 615.806 203.156C616.745 204.062 617.214 205.168 617.214 206.476V211.203C617.214 212.511 616.745 213.634 615.806 214.573C614.901 215.478 613.794 215.931 612.487 215.931H574.767V230.767H618.472C619.746 230.767 620.835 231.22 621.741 232.125C622.646 233.03 623.099 234.137 623.099 235.444V240.272C623.099 241.58 622.629 242.703 621.69 243.642C620.752 244.547 619.628 245 618.321 245H560.584C559.277 245 558.154 244.547 557.215 243.642C556.276 242.703 555.807 241.547 555.807 240.172Z" fill="#C121D0"/>
<path d="M670.694 236.5C664.491 230.566 661.39 221.396 661.39 208.99C661.39 196.551 664.491 187.364 670.694 181.43C676.93 175.462 686.268 172.478 698.707 172.478H709.922C717.533 172.478 724.256 174.456 730.09 178.412C735.957 182.368 738.891 187.783 738.891 194.657C738.891 196.635 738.304 198.06 737.131 198.932C735.957 199.77 734.817 200.189 733.711 200.189H727.726C724.641 200.189 722.244 198.345 720.534 194.657C718.053 189.359 713.929 186.71 708.162 186.71H699.21C691.867 186.71 686.888 188.286 684.273 191.438C681.658 194.59 680.35 200.424 680.35 208.94C680.35 217.456 681.658 223.307 684.273 226.492C686.888 229.644 691.867 231.22 699.21 231.22H709.218C714.985 231.22 719.092 228.571 721.54 223.273C723.25 219.552 725.664 217.691 728.782 217.691H734.767C736.343 217.691 737.583 218.278 738.489 219.451C739.427 220.625 739.897 221.899 739.897 223.273C739.897 230.147 736.98 235.562 731.146 239.518C725.312 243.441 718.589 245.402 710.978 245.402H698.707C686.268 245.402 676.93 242.435 670.694 236.5Z" fill="#C121D0"/>
<path d="M775.472 182.385V177.658C775.472 176.283 775.925 175.143 776.83 174.238C777.735 173.333 778.875 172.88 780.25 172.88H844.072C845.446 172.88 846.586 173.333 847.492 174.238C848.397 175.143 848.85 176.283 848.85 177.658V182.385C848.85 183.76 848.397 184.9 847.492 185.805C846.586 186.677 845.446 187.113 844.072 187.113H821.641V240.373C821.641 241.681 821.172 242.787 820.233 243.692C819.328 244.564 818.221 245 816.914 245H807.408C806.101 245 804.977 244.564 804.039 243.692C803.133 242.787 802.681 241.681 802.681 240.373V187.113H780.25C778.875 187.113 777.735 186.677 776.83 185.805C775.925 184.9 775.472 183.76 775.472 182.385Z" fill="#C121D0"/>
<path d="M890.058 307.873V177.658C890.058 176.35 890.527 175.227 891.466 174.288C892.405 173.349 893.528 172.88 894.835 172.88H904.19C905.565 172.88 906.705 173.349 907.61 174.288C908.549 175.227 909.018 176.35 909.018 177.658V307.772C909.018 309.08 908.532 310.203 907.56 311.142C906.621 312.047 905.498 312.5 904.19 312.5H894.835C893.528 312.5 892.405 312.064 891.466 311.192C890.527 310.287 890.058 309.181 890.058 307.873Z" fill="#C121D0"/>
<path d="M950.578 177.104C950.377 176.702 950.276 176.266 950.276 175.797C950.276 175.294 950.578 174.69 951.182 173.986C951.819 173.249 952.707 172.88 953.847 172.88H964.861C967.477 172.88 969.472 174.472 970.846 177.658L990.31 221.01L1009.77 177.658C1011.15 174.506 1013.14 172.913 1015.76 172.88H1026.77C1027.95 172.88 1028.83 173.249 1029.44 173.986C1030.04 174.69 1030.34 175.294 1030.34 175.797C1030.34 176.266 1030.26 176.702 1030.09 177.104L1001.12 239.87C999.547 243.29 997.149 245 993.931 245H986.689C983.47 245 981.073 243.29 979.497 239.87L950.578 177.104Z" fill="#C121D0"/>
<path d="M1071.55 240.172V177.557C1071.55 176.25 1072.02 175.143 1072.96 174.238C1073.9 173.333 1075.02 172.88 1076.33 172.88H1134.32C1135.62 172.88 1136.73 173.349 1137.64 174.288C1138.57 175.227 1139.04 176.35 1139.04 177.658V182.385C1139.04 183.693 1138.57 184.816 1137.64 185.755C1136.73 186.66 1135.62 187.113 1134.32 187.113H1090.51V201.748H1128.23C1129.54 201.748 1130.65 202.217 1131.55 203.156C1132.49 204.062 1132.96 205.168 1132.96 206.476V211.203C1132.96 212.511 1132.49 213.634 1131.55 214.573C1130.65 215.478 1129.54 215.931 1128.23 215.931H1090.51V230.767H1134.22C1135.49 230.767 1136.58 231.22 1137.49 232.125C1138.39 233.03 1138.84 234.137 1138.84 235.444V240.272C1138.84 241.58 1138.37 242.703 1137.43 243.642C1136.5 244.547 1135.37 245 1134.07 245H1076.33C1075.02 245 1073.9 244.547 1072.96 243.642C1072.02 242.703 1071.55 241.547 1071.55 240.172Z" fill="#C121D0"/>
<path fill-rule="evenodd" clip-rule="evenodd" d="M254 64.9209C254 63.86 254.853 63 255.904 63H263.199C264.25 63 265.103 63.86 265.103 64.9209V110.304C265.103 111.365 265.956 112.225 267.007 112.225H310.092C311.759 112.225 312.621 114.233 311.481 115.46L305.967 121.393C305.607 121.78 305.104 122 304.578 122H265.103H255.904C254.853 122 254 121.14 254 120.079V64.9209Z" fill="#232323"/>
<path fill-rule="evenodd" clip-rule="evenodd" d="M139.393 98.2097H115.098C115.097 98.2097 115.095 98.2083 115.095 98.2066C115.095 98.2048 115.094 98.2034 115.092 98.2035C114.935 98.2076 114.777 98.2097 114.619 98.2097C104.888 98.2097 97 90.3277 97 80.6048C97 70.882 104.888 63 114.619 63C114.777 63 114.935 63.0021 115.092 63.0062C115.094 63.0063 115.095 63.0049 115.095 63.0031C115.095 63.0014 115.097 63 115.098 63H152.085C153.833 63 154.671 65.1482 153.386 66.3337L145.17 73.9112C144.816 74.2379 144.352 74.4194 143.87 74.4194H114.607C111.195 74.4194 108.429 77.1887 108.429 80.6048C108.429 84.021 111.195 86.7903 114.607 86.7903H140.78C140.796 86.7903 140.81 86.8036 140.81 86.82C140.81 86.8354 140.822 86.8483 140.837 86.8496C149.887 87.5892 157 95.1621 157 104.395C157 114.118 149.112 122 139.381 122C138.91 122 138.443 121.982 137.982 121.945C137.966 121.944 137.952 121.957 137.952 121.973C137.952 121.988 137.94 122 137.925 122H101.242C99.4599 122 98.6404 119.779 99.9948 118.619L108.842 111.042C109.19 110.744 109.632 110.581 110.09 110.581H122.88H139.393C142.805 110.581 145.571 107.811 145.571 104.395C145.571 100.979 142.805 98.2097 139.393 98.2097Z" fill="#232323"/>
<path fill-rule="evenodd" clip-rule="evenodd" d="M185.49 63C185.487 63 185.484 63.0023 185.484 63.0052C185.484 63.008 185.482 63.0103 185.479 63.0104C179.809 63.2551 175.256 67.8013 175.01 73.4627C175.01 73.4655 175.008 73.4677 175.005 73.4677C175.002 73.4677 175 73.4701 175 73.4729V110.576C175 110.578 175.002 110.581 175.005 110.581C175.008 110.581 175.01 110.583 175.01 110.586C175.003 110.742 175 110.899 175 111.056C175 116.939 179.649 121.738 185.479 121.99C185.482 121.99 185.484 121.992 185.484 121.995C185.484 121.998 185.487 122 185.49 122H225.51C225.513 122 225.516 121.998 225.516 121.995C225.516 121.992 225.518 121.99 225.521 121.99C231.351 121.738 236 116.939 236 111.056C236 110.899 235.997 110.742 235.99 110.586C235.99 110.583 235.992 110.581 235.995 110.581C235.998 110.581 236 110.578 236 110.576V73.4729C236 73.4701 235.998 73.4677 235.995 73.4677C235.992 73.4677 235.99 73.4655 235.99 73.4627C235.744 67.8013 231.191 63.2551 225.521 63.0104C225.518 63.0103 225.516 63.008 225.516 63.0052C225.516 63.0023 225.513 63 225.51 63H185.49ZM192.994 73.4677C192.992 73.4677 192.99 73.4692 192.99 73.471C192.99 73.4728 192.989 73.4742 192.987 73.4743C189.443 73.6282 186.597 76.4879 186.444 80.0492C186.444 80.0509 186.443 80.0523 186.441 80.0523C186.439 80.0523 186.438 80.0537 186.438 80.0555V103.394C186.438 103.396 186.439 103.398 186.441 103.398C186.442 103.398 186.444 103.399 186.444 103.401C186.44 103.499 186.438 103.598 186.438 103.697C186.438 107.397 189.343 110.416 192.987 110.574C192.989 110.574 192.99 110.576 192.99 110.577C192.99 110.579 192.992 110.581 192.994 110.581H218.007C218.008 110.581 218.01 110.579 218.01 110.577C218.01 110.576 218.011 110.574 218.013 110.574C221.657 110.416 224.563 107.397 224.563 103.697C224.563 103.598 224.56 103.499 224.556 103.401C224.556 103.399 224.558 103.398 224.559 103.398C224.561 103.398 224.563 103.396 224.563 103.394V80.0555C224.563 80.0537 224.561 80.0523 224.559 80.0523C224.558 80.0523 224.556 80.0509 224.556 80.0492C224.403 76.4879 221.557 73.6282 218.013 73.4743C218.011 73.4742 218.01 73.4728 218.01 73.471C218.01 73.4692 218.008 73.4677 218.007 73.4677H192.994Z" fill="#232323"/>
<path fill-rule="evenodd" clip-rule="evenodd" d="M344.438 79.1774V88.6758C344.438 89.7367 345.297 90.5968 346.358 90.5968H380.642C381.703 90.5968 382.563 89.7367 382.563 88.6758V79.1774C382.563 75.4985 379.575 72.5161 375.891 72.5161H351.109C347.425 72.5161 344.438 75.4985 344.438 79.1774ZM384.483 122C383.422 122 382.562 121.14 382.562 120.079V101.082C382.562 100.021 381.703 99.1613 380.642 99.1613H346.358C345.297 99.1613 344.438 100.021 344.438 101.082V120.079C344.438 121.14 343.578 122 342.517 122H334.92C333.86 122 333 121.14 333 120.079V74.4243C333 74.4216 333.002 74.4194 333.005 74.4194C333.008 74.4194 333.01 74.417 333.01 74.4142C333.003 74.2581 333 74.1012 333 73.9435C333 67.8996 337.907 63 343.961 63C344.119 63 344.276 63.0033 344.432 63.0099C344.435 63.0101 344.438 63.0078 344.438 63.005C344.438 63.0022 344.44 63 344.442 63H383.51C383.513 63 383.516 63.0023 383.516 63.0052C383.516 63.008 383.518 63.0103 383.521 63.0104C389.351 63.262 394 68.0607 394 73.9435C394 74.1012 393.997 74.2581 393.99 74.4142C393.99 74.417 393.992 74.4194 393.995 74.4194C393.998 74.4194 394 74.4216 394 74.4243V120.079C394 121.14 393.14 122 392.08 122H384.483Z" fill="#232323"/>
<path fill-rule="evenodd" clip-rule="evenodd" d="M502.438 79.1774V88.6758C502.438 89.7367 503.297 90.5968 504.358 90.5968H538.642C539.703 90.5968 540.563 89.7367 540.563 88.6758V79.1774C540.563 75.4985 537.575 72.5161 533.891 72.5161H509.109C505.425 72.5161 502.438 75.4985 502.438 79.1774ZM542.483 122C541.422 122 540.562 121.14 540.562 120.079V101.082C540.562 100.021 539.703 99.1613 538.642 99.1613H504.358C503.297 99.1613 502.438 100.021 502.438 101.082V120.079C502.438 121.14 501.578 122 500.517 122H492.92C491.86 122 491 121.14 491 120.079V74.4243C491 74.4216 491.002 74.4194 491.005 74.4194C491.008 74.4194 491.01 74.417 491.01 74.4142C491.003 74.2581 491 74.1012 491 73.9435C491 67.8996 495.907 63 501.961 63C502.119 63 502.276 63.0033 502.432 63.0099C502.435 63.0101 502.438 63.0078 502.438 63.005C502.438 63.0022 502.44 63 502.442 63H541.51C541.513 63 541.516 63.0023 541.516 63.0052C541.516 63.008 541.518 63.0103 541.521 63.0104C547.351 63.262 552 68.0607 552 73.9435C552 74.1012 551.997 74.2581 551.99 74.4142C551.99 74.417 551.992 74.4194 551.995 74.4194C551.998 74.4194 552 74.4216 552 74.4243V120.079C552 121.14 551.14 122 550.08 122H542.483Z" fill="#232323"/>
<path fill-rule="evenodd" clip-rule="evenodd" d="M424.013 63.6745C423.648 63.2465 423.114 63 422.551 63H413.92C412.86 63 412 63.86 412 64.9209V120.079C412 121.14 412.86 122 413.92 122H421.517C422.578 122 423.438 121.14 423.438 120.079V83.3463C423.438 81.5716 425.637 80.7461 426.804 82.0829L461.545 121.881C461.556 121.894 461.562 121.911 461.562 121.928C461.562 121.968 461.595 122 461.634 122H461.649H471.08C472.14 122 473 121.14 473 120.079V64.9209C473 63.86 472.14 63 471.08 63H463.483C462.422 63 461.562 63.86 461.562 64.9209V102.506C461.562 104.292 459.339 105.111 458.181 103.752L424.013 63.6745Z" fill="#232323"/>
</svg>
