<svg width="2141" height="643" viewBox="0 0 2141 643" fill="none" xmlns="http://www.w3.org/2000/svg">
<mask id="mask0" mask-type="alpha" maskUnits="userSpaceOnUse" x="249" y="214" width="1668" height="215">
<path fill-rule="evenodd" clip-rule="evenodd" d="M825 221C825 217.134 828.134 214 832 214H858.815C862.681 214 865.815 217.134 865.815 221V386.38C865.815 390.246 868.949 393.38 872.815 393.38H1031.19C1037.32 393.38 1040.49 400.698 1036.3 405.168L1016.03 426.788C1014.71 428.199 1012.86 429 1010.92 429H865.815H832C828.134 429 825 425.866 825 422V221Z" fill="white"/>
<path fill-rule="evenodd" clip-rule="evenodd" d="M404.121 342.306H315.496C315.49 342.306 315.485 342.301 315.485 342.295C315.485 342.289 315.48 342.284 315.474 342.284C314.9 342.299 314.325 342.306 313.748 342.306C278.251 342.306 249.474 313.584 249.474 278.153C249.474 242.722 278.251 214 313.748 214C314.325 214 314.9 214.008 315.474 214.023C315.48 214.023 315.485 214.018 315.485 214.011C315.485 214.005 315.49 214 315.496 214H450.425C456.8 214 459.856 221.828 455.168 226.148L425.197 253.761C423.905 254.952 422.212 255.613 420.454 255.613H313.706C301.257 255.613 291.165 265.705 291.165 278.153C291.165 290.602 301.257 300.694 313.706 300.694H409.182C409.242 300.694 409.29 300.742 409.29 300.802C409.29 300.858 409.334 300.905 409.39 300.909C442.403 303.605 468.353 331.201 468.353 364.847C468.353 400.278 439.576 429 404.079 429C402.361 429 400.659 428.933 398.975 428.801C398.917 428.796 398.868 428.842 398.868 428.9C398.868 428.955 398.823 429 398.768 429H264.95C258.448 429 255.458 420.908 260.399 416.681L292.675 389.068C293.943 387.983 295.557 387.387 297.225 387.387H343.884H404.121C416.57 387.387 426.662 377.295 426.662 364.847C426.662 352.398 416.57 342.306 404.121 342.306Z" fill="white"/>
<path fill-rule="evenodd" clip-rule="evenodd" d="M573.765 214C573.755 214 573.746 214.008 573.746 214.019C573.746 214.029 573.738 214.037 573.728 214.038C553.058 214.93 536.461 231.496 535.567 252.127C535.567 252.137 535.558 252.145 535.548 252.145C535.538 252.145 535.529 252.154 535.529 252.164V387.369C535.529 387.379 535.537 387.387 535.547 387.387C535.558 387.387 535.566 387.396 535.566 387.406C535.541 387.975 535.529 388.546 535.529 389.121C535.529 410.558 552.476 428.045 573.728 428.962C573.738 428.963 573.746 428.971 573.746 428.981C573.746 428.992 573.755 429 573.765 429H719.646C719.657 429 719.665 428.992 719.665 428.981C719.665 428.971 719.673 428.963 719.684 428.962C740.935 428.045 757.882 410.558 757.882 389.121C757.882 388.546 757.87 387.975 757.846 387.406C757.846 387.396 757.854 387.387 757.864 387.387C757.874 387.387 757.882 387.379 757.882 387.369V252.164C757.882 252.154 757.874 252.145 757.863 252.145C757.853 252.145 757.845 252.137 757.844 252.127C756.951 231.496 740.353 214.93 719.684 214.038C719.673 214.037 719.665 214.029 719.665 214.019C719.665 214.008 719.657 214 719.646 214H573.765ZM601.118 252.145C601.112 252.145 601.106 252.15 601.106 252.157C601.106 252.163 601.101 252.169 601.095 252.169C588.176 252.73 577.803 263.151 577.244 276.128C577.244 276.135 577.239 276.14 577.233 276.14C577.226 276.14 577.221 276.145 577.221 276.152V361.2C577.221 361.206 577.226 361.211 577.232 361.211C577.238 361.211 577.244 361.217 577.243 361.223C577.228 361.581 577.221 361.94 577.221 362.302C577.221 375.787 587.813 386.786 601.095 387.363C601.101 387.364 601.106 387.369 601.106 387.375C601.106 387.382 601.112 387.387 601.118 387.387H692.294C692.3 387.387 692.306 387.382 692.306 387.375C692.306 387.369 692.311 387.364 692.317 387.363C705.599 386.786 716.191 375.787 716.191 362.302C716.191 361.94 716.184 361.581 716.169 361.223C716.168 361.217 716.173 361.211 716.18 361.211C716.186 361.211 716.191 361.206 716.191 361.2V276.152C716.191 276.145 716.186 276.14 716.179 276.14C716.173 276.14 716.168 276.135 716.168 276.128C715.609 263.151 705.236 252.73 692.317 252.169C692.311 252.169 692.306 252.163 692.306 252.157C692.306 252.15 692.3 252.145 692.294 252.145H601.118Z" fill="white"/>
<path fill-rule="evenodd" clip-rule="evenodd" d="M1155.69 272.952V307.565C1155.69 311.431 1158.83 314.565 1162.69 314.565H1287.66C1291.53 314.565 1294.66 311.431 1294.66 307.565V272.952C1294.66 259.545 1283.77 248.677 1270.34 248.677H1180.01C1166.58 248.677 1155.69 259.545 1155.69 272.952ZM1301.66 429C1297.8 429 1294.66 425.866 1294.66 422V352.774C1294.66 348.908 1291.53 345.774 1287.66 345.774H1162.69C1158.83 345.774 1155.69 348.908 1155.69 352.774V422C1155.69 425.866 1152.56 429 1148.69 429H1121C1117.13 429 1114 425.866 1114 422V255.631C1114 255.621 1114.01 255.613 1114.02 255.613C1114.03 255.613 1114.04 255.604 1114.04 255.594C1114.01 255.025 1114 254.454 1114 253.879C1114 231.854 1131.89 214 1153.95 214C1154.53 214 1155.1 214.012 1155.67 214.036C1155.68 214.037 1155.69 214.028 1155.69 214.018C1155.69 214.008 1155.7 214 1155.71 214H1298.12C1298.13 214 1298.14 214.008 1298.14 214.019C1298.14 214.029 1298.14 214.037 1298.15 214.038C1319.41 214.955 1336.35 232.442 1336.35 253.879C1336.35 254.454 1336.34 255.025 1336.32 255.594C1336.32 255.604 1336.32 255.613 1336.33 255.613C1336.34 255.613 1336.35 255.621 1336.35 255.631V422C1336.35 425.866 1333.22 429 1329.35 429H1301.66Z" fill="white"/>
<path fill-rule="evenodd" clip-rule="evenodd" d="M1735.69 272.952V307.565C1735.69 311.431 1738.83 314.565 1742.69 314.565H1867.66C1871.53 314.565 1874.66 311.431 1874.66 307.565V272.952C1874.66 259.545 1863.77 248.677 1850.34 248.677H1760.01C1746.58 248.677 1735.69 259.545 1735.69 272.952ZM1881.66 429C1877.8 429 1874.66 425.866 1874.66 422V352.774C1874.66 348.908 1871.53 345.774 1867.66 345.774H1742.69C1738.83 345.774 1735.69 348.908 1735.69 352.774V422C1735.69 425.866 1732.56 429 1728.69 429H1701C1697.13 429 1694 425.866 1694 422V255.631C1694 255.621 1694.01 255.613 1694.02 255.613C1694.03 255.613 1694.04 255.604 1694.04 255.594C1694.01 255.025 1694 254.454 1694 253.879C1694 231.854 1711.89 214 1733.95 214C1734.53 214 1735.1 214.012 1735.67 214.036C1735.68 214.037 1735.69 214.028 1735.69 214.018C1735.69 214.008 1735.7 214 1735.71 214H1878.12C1878.13 214 1878.14 214.008 1878.14 214.019C1878.14 214.029 1878.14 214.037 1878.15 214.038C1899.41 214.955 1916.35 232.442 1916.35 253.879C1916.35 254.454 1916.34 255.025 1916.32 255.594C1916.32 255.604 1916.32 255.613 1916.33 255.613C1916.34 255.613 1916.35 255.621 1916.35 255.631V422C1916.35 425.866 1913.22 429 1909.35 429H1881.66Z" fill="white"/>
<path fill-rule="evenodd" clip-rule="evenodd" d="M1447.79 216.458C1446.46 214.898 1444.51 214 1442.46 214H1411C1407.13 214 1404 217.134 1404 221V422C1404 425.866 1407.13 429 1411 429H1438.69C1442.56 429 1445.69 425.866 1445.69 422V288.143C1445.69 281.676 1453.71 278.668 1457.96 283.539L1584.6 428.567C1584.64 428.614 1584.66 428.675 1584.66 428.739C1584.66 428.883 1584.78 429 1584.92 429H1584.98H1619.35C1623.22 429 1626.35 425.866 1626.35 422V221C1626.35 217.134 1623.22 214 1619.35 214H1591.66C1587.8 214 1584.66 217.134 1584.66 221V357.962C1584.66 364.469 1576.56 367.455 1572.34 362.504L1447.79 216.458Z" fill="white"/>
</mask>
<g mask="url(#mask0)">
<path d="M185 86.5L1990 47V677L139.5 471L185 86.5Z" fill="url(#paint0_linear)"/>
</g>
<defs>
<linearGradient id="paint0_linear" x1="1637.65" y1="64.7757" x2="1505.94" y2="832.586" gradientUnits="userSpaceOnUse">
<stop stop-color="#02FFAD"/>
<stop offset="1" stop-color="#F71DF4"/>
</linearGradient>
</defs>
</svg>
