<svg width="353" height="285" viewBox="0 0 353 285" fill="none" xmlns="http://www.w3.org/2000/svg">
<g clip-path="url(#clip0)">
<mask id="mask0" mask-type="alpha" maskUnits="userSpaceOnUse" x="-1" y="-1" width="354" height="286">
<path fill-rule="evenodd" clip-rule="evenodd" d="M302.209 66.6044C300.092 68.7496 297.22 69.9548 294.225 69.9548H11.3144C1.31531 69.9548 -3.75005 57.7613 3.24047 50.519L49.6462 2.44172C51.7707 0.24071 54.6813 -1 57.7201 -1H341.685C351.745 -1 356.783 11.3212 349.67 18.5272L302.209 66.6044ZM302.209 281.326C300.092 283.418 297.22 284.593 294.225 284.593H11.3144C1.31531 284.593 -3.75005 272.704 3.24047 265.643L49.6462 218.768C51.7707 216.622 54.6813 215.412 57.7201 215.412H341.685C351.745 215.412 356.783 227.425 349.67 234.451L302.209 281.326ZM294.225 107.206C297.22 107.206 300.092 108.381 302.209 110.473L349.67 157.348C356.783 164.374 351.745 176.387 341.685 176.387L57.7201 176.387C54.6813 176.387 51.7707 175.177 49.6462 173.031L3.2405 126.156C-3.75 119.095 1.31532 107.206 11.3144 107.206L294.225 107.206Z" fill="#00FFAD"/>
</mask>
<g mask="url(#mask0)">
<path d="M-156 -26H452V404H-156V-26Z" fill="url(#paint0_linear)"/>
</g>
</g>
<defs>
<linearGradient id="paint0_linear" x1="360.8" y1="-13.8673" x2="158.22" y2="433.979" gradientUnits="userSpaceOnUse">
<stop stop-color="#02FFAD"/>
<stop offset="1" stop-color="#F71DF4"/>
</linearGradient>
<clipPath id="clip0">
<rect width="353" height="285" fill="white"/>
</clipPath>
</defs>
</svg>
