<svg width="643" height="643" viewBox="0 0 643 643" fill="none" xmlns="http://www.w3.org/2000/svg">
<path fill-rule="evenodd" clip-rule="evenodd" d="M243 474.116C243 472.947 243.941 472 245.101 472H253.15C254.311 472 255.252 472.947 255.252 474.116V524.115C255.252 525.284 256.192 526.231 257.353 526.231H304.895C306.734 526.231 307.686 528.443 306.427 529.795L300.343 536.331C299.946 536.758 299.391 537 298.81 537H255.252H245.101C243.941 537 243 536.053 243 534.884V474.116Z" fill="#232323"/>
<path fill-rule="evenodd" clip-rule="evenodd" d="M114.632 510.79H87.9082C87.9063 510.79 87.9048 510.789 87.9048 510.787C87.9048 510.785 87.9032 510.783 87.9013 510.783C87.7284 510.788 87.5549 510.79 87.381 510.79C76.6771 510.79 68 502.107 68 491.395C68 480.684 76.6771 472 87.381 472C87.5549 472 87.7284 472.002 87.9013 472.007C87.9032 472.007 87.9048 472.005 87.9048 472.003C87.9048 472.002 87.9063 472 87.9082 472H128.594C130.516 472 131.438 474.367 130.024 475.673L120.987 484.021C120.597 484.381 120.087 484.581 119.557 484.581H87.3682C83.6144 484.581 80.5714 487.632 80.5714 491.395C80.5714 495.159 83.6144 498.21 87.3682 498.21H116.158C116.176 498.21 116.19 498.224 116.19 498.242C116.19 498.259 116.204 498.274 116.221 498.275C126.175 499.09 134 507.433 134 517.605C134 528.316 125.323 537 114.619 537C114.101 537 113.588 536.98 113.08 536.94C113.063 536.938 113.048 536.952 113.048 536.97C113.048 536.986 113.034 537 113.018 537H72.6665C70.7058 537 69.8045 534.554 71.2943 533.276L81.0266 524.928C81.4089 524.6 81.8956 524.419 82.3988 524.419H96.4681H114.632C118.386 524.419 121.429 521.368 121.429 517.605C121.429 513.841 118.386 510.79 114.632 510.79Z" fill="#232323"/>
<path fill-rule="evenodd" clip-rule="evenodd" d="M166.521 472C166.518 472 166.516 472.003 166.516 472.006C166.516 472.009 166.513 472.011 166.51 472.011C160.282 472.281 155.281 477.29 155.011 483.527C155.011 483.53 155.009 483.532 155.006 483.532C155.003 483.532 155 483.535 155 483.538V524.414C155 524.417 155.002 524.419 155.005 524.419C155.009 524.419 155.011 524.422 155.011 524.425C155.004 524.597 155 524.77 155 524.944C155 531.425 160.107 536.711 166.51 536.989C166.513 536.989 166.516 536.991 166.516 536.994C166.516 536.997 166.518 537 166.521 537H210.479C210.482 537 210.484 536.997 210.484 536.994C210.484 536.991 210.487 536.989 210.49 536.989C216.893 536.711 222 531.425 222 524.944C222 524.77 221.996 524.597 221.989 524.425C221.989 524.422 221.991 524.419 221.995 524.419C221.998 524.419 222 524.417 222 524.414V483.538C222 483.535 221.997 483.532 221.994 483.532C221.991 483.532 221.989 483.53 221.989 483.527C221.719 477.29 216.718 472.281 210.49 472.011C210.487 472.011 210.484 472.009 210.484 472.006C210.484 472.003 210.482 472 210.479 472H166.521ZM174.763 483.532C174.761 483.532 174.76 483.534 174.76 483.536C174.76 483.538 174.758 483.539 174.756 483.539C170.864 483.709 167.738 486.86 167.57 490.783C167.57 490.785 167.568 490.786 167.566 490.786C167.564 490.786 167.563 490.788 167.563 490.79V516.502C167.563 516.504 167.564 516.506 167.566 516.506C167.568 516.506 167.569 516.507 167.569 516.509C167.565 516.617 167.563 516.726 167.563 516.835C167.563 520.912 170.754 524.238 174.756 524.412C174.758 524.412 174.76 524.414 174.76 524.416C174.76 524.418 174.761 524.419 174.763 524.419H202.237C202.239 524.419 202.24 524.418 202.24 524.416C202.24 524.414 202.242 524.412 202.244 524.412C206.246 524.238 209.438 520.912 209.438 516.835C209.438 516.726 209.435 516.617 209.431 516.509C209.431 516.507 209.432 516.506 209.434 516.506C209.436 516.506 209.438 516.504 209.438 516.502V490.79C209.438 490.788 209.436 490.786 209.434 490.786C209.432 490.786 209.43 490.785 209.43 490.783C209.262 486.86 206.136 483.709 202.244 483.539C202.242 483.539 202.24 483.538 202.24 483.536C202.24 483.534 202.239 483.532 202.237 483.532H174.763Z" fill="#232323"/>
<path fill-rule="evenodd" clip-rule="evenodd" d="M342.75 489.823V500.287C342.75 501.456 343.708 502.403 344.891 502.403H383.109C384.292 502.403 385.25 501.456 385.25 500.287V489.823C385.25 485.77 381.92 482.484 377.813 482.484H350.188C346.08 482.484 342.75 485.77 342.75 489.823ZM387.391 537C386.208 537 385.25 536.053 385.25 534.884V513.955C385.25 512.786 384.292 511.839 383.109 511.839H344.891C343.708 511.839 342.75 512.786 342.75 513.955V534.884C342.75 536.053 341.792 537 340.609 537H332.141C330.958 537 330 536.053 330 534.884V484.586C330 484.583 330.002 484.581 330.006 484.581C330.009 484.581 330.011 484.578 330.011 484.575C330.004 484.403 330 484.23 330 484.056C330 477.398 335.471 472 342.219 472C342.395 472 342.57 472.004 342.744 472.011C342.747 472.011 342.75 472.009 342.75 472.005C342.75 472.002 342.752 472 342.756 472H386.307C386.31 472 386.312 472.003 386.312 472.006C386.312 472.009 386.315 472.011 386.318 472.011C392.817 472.289 398 477.575 398 484.056C398 484.23 397.996 484.403 397.989 484.575C397.989 484.578 397.991 484.581 397.994 484.581C397.998 484.581 398 484.583 398 484.586V534.884C398 536.053 397.042 537 395.859 537H387.391Z" fill="#232323"/>
<path fill-rule="evenodd" clip-rule="evenodd" d="M519.563 489.823V500.287C519.563 501.456 520.507 502.403 521.672 502.403H559.328C560.493 502.403 561.438 501.456 561.438 500.287V489.823C561.438 485.77 558.157 482.484 554.109 482.484H526.891C522.843 482.484 519.563 485.77 519.563 489.823ZM563.547 537C562.382 537 561.438 536.053 561.438 534.884V513.955C561.438 512.786 560.493 511.839 559.328 511.839H521.672C520.507 511.839 519.563 512.786 519.563 513.955V534.884C519.563 536.053 518.618 537 517.453 537H509.109C507.944 537 507 536.053 507 534.884V484.586C507 484.583 507.002 484.581 507.005 484.581C507.009 484.581 507.011 484.578 507.011 484.575C507.004 484.403 507 484.23 507 484.056C507 477.398 512.39 472 519.039 472C519.213 472 519.385 472.004 519.557 472.011C519.56 472.011 519.563 472.009 519.563 472.005C519.563 472.002 519.565 472 519.568 472H562.479C562.482 472 562.484 472.003 562.484 472.006C562.484 472.009 562.487 472.011 562.49 472.011C568.893 472.289 574 477.575 574 484.056C574 484.23 573.996 484.403 573.989 484.575C573.989 484.578 573.991 484.581 573.995 484.581C573.998 484.581 574 484.583 574 484.586V534.884C574 536.053 573.056 537 571.891 537H563.547Z" fill="#232323"/>
<path fill-rule="evenodd" clip-rule="evenodd" d="M431.391 472.743C430.984 472.272 430.389 472 429.762 472H420.141C418.958 472 418 472.947 418 474.116V534.884C418 536.053 418.958 537 420.141 537H428.609C429.792 537 430.75 536.053 430.75 534.884V494.415C430.75 492.46 433.202 491.551 434.503 493.024L473.23 536.869C473.243 536.883 473.25 536.902 473.25 536.921C473.25 536.965 473.286 537 473.33 537H473.346H483.859C485.042 537 486 536.053 486 534.884V474.116C486 472.947 485.042 472 483.859 472H475.391C474.208 472 473.25 472.947 473.25 474.116V515.523C473.25 517.491 470.772 518.394 469.48 516.897L431.391 472.743Z" fill="#232323"/>
<path d="M435.209 173.604C433.092 175.75 430.22 176.955 427.225 176.955H144.314C134.315 176.955 129.25 164.761 136.24 157.519L182.646 109.442C184.771 107.241 187.681 106 190.72 106H474.685C484.745 106 489.783 118.321 482.67 125.527L435.209 173.604Z" fill="#1DD79B"/>
<path d="M435.209 388.326C433.092 390.418 430.22 391.593 427.225 391.593H144.314C134.315 391.593 129.25 379.704 136.24 372.643L182.646 325.768C184.771 323.622 187.681 322.412 190.72 322.412H474.685C484.745 322.412 489.783 334.425 482.67 341.451L435.209 388.326Z" fill="#1DD79B"/>
<path d="M435.209 217.473C433.092 215.381 430.22 214.206 427.225 214.206L144.314 214.206C134.315 214.206 129.25 226.095 136.24 233.156L182.646 280.031C184.771 282.177 187.681 283.387 190.72 283.387L474.685 283.387C484.745 283.387 489.783 271.374 482.67 264.348L435.209 217.473Z" fill="#1DD79B"/>
</svg>
