<svg width="643" height="643" viewBox="0 0 643 643" fill="none" xmlns="http://www.w3.org/2000/svg">
<path fill-rule="evenodd" clip-rule="evenodd" d="M242 488.116C242 486.947 242.941 486 244.101 486H252.15C253.311 486 254.252 486.947 254.252 488.116V538.115C254.252 539.284 255.192 540.231 256.353 540.231H303.895C305.734 540.231 306.686 542.443 305.427 543.795L299.343 550.331C298.946 550.758 298.391 551 297.81 551H254.252H244.101C242.941 551 242 550.053 242 548.884V488.116Z" fill="#232323"/>
<path fill-rule="evenodd" clip-rule="evenodd" d="M113.632 524.79H86.9082C86.9063 524.79 86.9048 524.789 86.9048 524.787C86.9048 524.785 86.9032 524.783 86.9013 524.783C86.7284 524.788 86.5549 524.79 86.381 524.79C75.6771 524.79 67 516.107 67 505.395C67 494.684 75.6771 486 86.381 486C86.5549 486 86.7284 486.002 86.9013 486.007C86.9032 486.007 86.9048 486.005 86.9048 486.003C86.9048 486.002 86.9063 486 86.9082 486H127.594C129.516 486 130.438 488.367 129.024 489.673L119.987 498.021C119.597 498.381 119.087 498.581 118.557 498.581H86.3682C82.6144 498.581 79.5714 501.632 79.5714 505.395C79.5714 509.159 82.6144 512.21 86.3682 512.21H115.158C115.176 512.21 115.19 512.224 115.19 512.242C115.19 512.259 115.204 512.274 115.221 512.275C125.175 513.09 133 521.433 133 531.605C133 542.316 124.323 551 113.619 551C113.101 551 112.588 550.98 112.08 550.94C112.063 550.938 112.048 550.952 112.048 550.97C112.048 550.986 112.034 551 112.018 551H71.6665C69.7058 551 68.8045 548.554 70.2943 547.276L80.0266 538.928C80.4089 538.6 80.8956 538.419 81.3988 538.419H95.4681H113.632C117.386 538.419 120.429 535.368 120.429 531.605C120.429 527.841 117.386 524.79 113.632 524.79Z" fill="#232323"/>
<path fill-rule="evenodd" clip-rule="evenodd" d="M165.521 486C165.518 486 165.516 486.003 165.516 486.006C165.516 486.009 165.513 486.011 165.51 486.011C159.282 486.281 154.281 491.29 154.011 497.527C154.011 497.53 154.009 497.532 154.006 497.532C154.003 497.532 154 497.535 154 497.538V538.414C154 538.417 154.002 538.419 154.005 538.419C154.009 538.419 154.011 538.422 154.011 538.425C154.004 538.597 154 538.77 154 538.944C154 545.425 159.107 550.711 165.51 550.989C165.513 550.989 165.516 550.991 165.516 550.994C165.516 550.997 165.518 551 165.521 551H209.479C209.482 551 209.484 550.997 209.484 550.994C209.484 550.991 209.487 550.989 209.49 550.989C215.893 550.711 221 545.425 221 538.944C221 538.77 220.996 538.597 220.989 538.425C220.989 538.422 220.991 538.419 220.995 538.419C220.998 538.419 221 538.417 221 538.414V497.538C221 497.535 220.997 497.532 220.994 497.532C220.991 497.532 220.989 497.53 220.989 497.527C220.719 491.29 215.718 486.281 209.49 486.011C209.487 486.011 209.484 486.009 209.484 486.006C209.484 486.003 209.482 486 209.479 486H165.521ZM173.763 497.532C173.761 497.532 173.76 497.534 173.76 497.536C173.76 497.538 173.758 497.539 173.756 497.539C169.864 497.709 166.738 500.86 166.57 504.783C166.57 504.785 166.568 504.786 166.566 504.786C166.564 504.786 166.563 504.788 166.563 504.79V530.502C166.563 530.504 166.564 530.506 166.566 530.506C166.568 530.506 166.569 530.507 166.569 530.509C166.565 530.617 166.563 530.726 166.563 530.835C166.563 534.912 169.754 538.238 173.756 538.412C173.758 538.412 173.76 538.414 173.76 538.416C173.76 538.418 173.761 538.419 173.763 538.419H201.237C201.239 538.419 201.24 538.418 201.24 538.416C201.24 538.414 201.242 538.412 201.244 538.412C205.246 538.238 208.438 534.912 208.438 530.835C208.438 530.726 208.435 530.617 208.431 530.509C208.431 530.507 208.432 530.506 208.434 530.506C208.436 530.506 208.438 530.504 208.438 530.502V504.79C208.438 504.788 208.436 504.786 208.434 504.786C208.432 504.786 208.43 504.785 208.43 504.783C208.262 500.86 205.136 497.709 201.244 497.539C201.242 497.539 201.24 497.538 201.24 497.536C201.24 497.534 201.239 497.532 201.237 497.532H173.763Z" fill="#232323"/>
<path fill-rule="evenodd" clip-rule="evenodd" d="M341.75 503.823V514.287C341.75 515.456 342.708 516.403 343.891 516.403H382.109C383.292 516.403 384.25 515.456 384.25 514.287V503.823C384.25 499.77 380.92 496.484 376.813 496.484H349.188C345.08 496.484 341.75 499.77 341.75 503.823ZM386.391 551C385.208 551 384.25 550.053 384.25 548.884V527.955C384.25 526.786 383.292 525.839 382.109 525.839H343.891C342.708 525.839 341.75 526.786 341.75 527.955V548.884C341.75 550.053 340.792 551 339.609 551H331.141C329.958 551 329 550.053 329 548.884V498.586C329 498.583 329.002 498.581 329.006 498.581C329.009 498.581 329.011 498.578 329.011 498.575C329.004 498.403 329 498.23 329 498.056C329 491.398 334.471 486 341.219 486C341.395 486 341.57 486.004 341.744 486.011C341.747 486.011 341.75 486.009 341.75 486.005C341.75 486.002 341.752 486 341.756 486H385.307C385.31 486 385.312 486.003 385.312 486.006C385.312 486.009 385.315 486.011 385.318 486.011C391.817 486.289 397 491.575 397 498.056C397 498.23 396.996 498.403 396.989 498.575C396.989 498.578 396.991 498.581 396.994 498.581C396.998 498.581 397 498.583 397 498.586V548.884C397 550.053 396.042 551 394.859 551H386.391Z" fill="#232323"/>
<path fill-rule="evenodd" clip-rule="evenodd" d="M518.563 503.823V514.287C518.563 515.456 519.507 516.403 520.672 516.403H558.328C559.493 516.403 560.438 515.456 560.438 514.287V503.823C560.438 499.77 557.157 496.484 553.109 496.484H525.891C521.843 496.484 518.563 499.77 518.563 503.823ZM562.547 551C561.382 551 560.438 550.053 560.438 548.884V527.955C560.438 526.786 559.493 525.839 558.328 525.839H520.672C519.507 525.839 518.563 526.786 518.563 527.955V548.884C518.563 550.053 517.618 551 516.453 551H508.109C506.944 551 506 550.053 506 548.884V498.586C506 498.583 506.002 498.581 506.005 498.581C506.009 498.581 506.011 498.578 506.011 498.575C506.004 498.403 506 498.23 506 498.056C506 491.398 511.39 486 518.039 486C518.213 486 518.385 486.004 518.557 486.011C518.56 486.011 518.563 486.009 518.563 486.005C518.563 486.002 518.565 486 518.568 486H561.479C561.482 486 561.484 486.003 561.484 486.006C561.484 486.009 561.487 486.011 561.49 486.011C567.893 486.289 573 491.575 573 498.056C573 498.23 572.996 498.403 572.989 498.575C572.989 498.578 572.991 498.581 572.995 498.581C572.998 498.581 573 498.583 573 498.586V548.884C573 550.053 572.056 551 570.891 551H562.547Z" fill="#232323"/>
<path fill-rule="evenodd" clip-rule="evenodd" d="M430.391 486.743C429.984 486.272 429.389 486 428.762 486H419.141C417.958 486 417 486.947 417 488.116V548.884C417 550.053 417.958 551 419.141 551H427.609C428.792 551 429.75 550.053 429.75 548.884V508.415C429.75 506.46 432.202 505.551 433.503 507.024L472.23 550.869C472.243 550.883 472.25 550.902 472.25 550.921C472.25 550.965 472.286 551 472.33 551H472.346H482.859C484.042 551 485 550.053 485 548.884V488.116C485 486.947 484.042 486 482.859 486H474.391C473.208 486 472.25 486.947 472.25 488.116V529.523C472.25 531.491 469.772 532.394 468.48 530.897L430.391 486.743Z" fill="#232323"/>
<path d="M434.21 160.604C432.092 162.75 429.22 163.955 426.225 163.955H143.315C133.316 163.955 128.25 151.761 135.241 144.519L181.646 96.4417C183.771 94.2407 186.681 93 189.72 93H473.685C483.745 93 488.784 105.321 481.67 112.527L434.21 160.604Z" fill="#232323"/>
<path d="M434.21 375.326C432.092 377.418 429.22 378.593 426.225 378.593H143.315C133.316 378.593 128.25 366.704 135.241 359.643L181.646 312.768C183.771 310.622 186.681 309.412 189.72 309.412H473.685C483.745 309.412 488.784 321.425 481.67 328.451L434.21 375.326Z" fill="#232323"/>
<path d="M434.21 204.473C432.092 202.381 429.22 201.206 426.225 201.206L143.315 201.206C133.316 201.206 128.25 213.095 135.241 220.156L181.646 267.031C183.771 269.177 186.681 270.387 189.72 270.387L473.685 270.387C483.745 270.387 488.784 258.374 481.67 251.348L434.21 204.473Z" fill="#232323"/>
</svg>
