<svg width="1222" height="382" viewBox="0 0 1222 382" fill="none" xmlns="http://www.w3.org/2000/svg">
<path d="M178.742 110.277L181.153 110.881C180.6 113.143 177.737 114.878 172.564 116.084L165.181 119.101L165.783 116.839L163.674 116.311L175.653 115.104L175.954 113.747C173.594 114.953 172.941 115.557 173.995 115.557C174.498 115.557 176.004 115.632 178.516 115.783C177.863 118.548 176.507 120.031 174.447 120.232L175.201 117.291L173.167 116.989C173.568 116.839 174.196 116.763 175.05 116.763C175.452 116.763 177.059 116.989 179.872 117.442L179.194 118.196L178.214 118.045L177.687 122.118H175.351C175.854 122.118 176.23 121.188 176.482 119.327L177.612 119.478L176.934 122.042C174.874 124.305 173.644 125.537 173.242 125.738L173.016 125.361L172.715 127.774L170.379 128.076L171.057 125.361L169.023 124.833H170.831L174.673 125.813C169.952 130.741 161.113 134.461 148.154 136.975C145.693 137.126 147.2 136.12 152.675 133.958C147.702 133.958 145.216 134.989 145.216 137.051C145.216 141.777 142.755 159.399 137.833 189.918C137.331 192.935 136.778 195.6 136.176 197.913L127.662 256.06C126.507 263.199 123.644 275.015 119.074 291.506L116.512 290.827C115.156 290.576 114.478 289.696 114.478 288.188C114.478 287.685 114.403 287.76 114.252 288.414H118.471C118.119 289.671 117.115 290.299 115.457 290.299H114.855C112.996 289.947 112.067 285.799 112.067 277.855C112.067 275.744 112.092 273.808 112.143 272.048C111.891 271.998 111.766 271.219 111.766 269.71C111.766 269.208 111.741 269.107 111.691 269.409L115.683 270.389L116.136 268.579C114.83 278.786 113.926 289.545 113.423 300.858V303.573C109.908 302.869 108.15 300.405 108.15 296.182C108.15 293.215 108.351 289.042 108.752 283.663C108.652 277.73 108.602 272.375 108.602 267.599C108.602 255.632 108.878 248.065 109.43 244.898L113.273 245.878C112.67 247.99 112.218 250.051 111.917 252.063L106.794 251.384L107.622 246.708L111.314 247.613C111.013 248.417 110.636 250.177 110.184 252.892C109.581 256.613 109.054 263.953 108.602 274.914L103.253 273.934C103.654 262.118 103.88 247.538 103.931 230.191C104.734 225.365 105.136 215.661 105.136 201.08C105.387 199.22 106.241 198.239 107.698 198.139C107.497 197.083 107.396 196.103 107.396 195.198V194.67C107.748 193.061 108.878 192.256 110.787 192.256H108.752V193.463C108.752 186.525 110.209 174.257 113.122 156.659L116.06 139.539C117.316 139.841 117.919 139.992 117.868 139.992C115.809 139.992 110.736 141.199 102.65 143.612C98.431 144.416 91.0228 145.422 80.4252 146.629L81.0279 141.953H83.3634C82.4593 141.953 81.8315 143.059 81.4799 145.271H84.1167L79.4458 146.629L80.2745 143.159C80.4252 142.405 81.1785 141.601 82.5346 140.746L86.6782 141.802L80.6512 141.425C76.9345 140.57 73.8456 139.916 71.3846 139.464C70.9828 139.414 70.4554 139.389 69.8025 139.389C66.6885 139.389 61.1637 140.067 53.228 141.425L51.3446 141.048C50.5409 142.053 48.2055 142.657 44.3381 142.858L32.6607 144.592L31.9826 141.802C32.1835 140.595 34.745 139.313 39.6671 137.956L39.0644 140.369L41.2492 140.972C36.3271 141.676 33.2634 142.028 32.0579 142.028H31.5306L28.065 141.349L28.5924 137.428H30.7019C31.2041 137.428 35.8751 136.045 44.7148 133.28L44.1121 135.693L46.2216 136.221L28.4417 137.201L26.9349 133.053C36.6285 131.947 42.5049 131.243 44.5641 130.942L43.8107 133.732C43.1578 133.632 42.8313 132.877 42.8313 131.47V130.338C44.6394 129.383 45.9704 128.905 46.8243 128.905H45.2422L44.4134 131.998L42.9067 131.771L43.66 128.905C47.3265 126.643 59.0291 124.154 78.7677 121.439C89.5662 119.78 104.031 117.769 122.163 115.406C122.363 114.249 123.569 113.671 125.779 113.671C126.13 113.671 127.06 113.847 128.566 114.199C128.566 114.551 127.386 114.526 125.025 114.124C125.327 113.068 126.382 112.54 128.19 112.54H129.094L132.032 114.501C136.452 113.948 143.81 113.344 154.106 112.691C157.27 111.786 163.297 111.258 172.187 111.107C174.347 110.453 176.105 110.126 177.461 110.126C177.963 110.126 178.39 110.177 178.742 110.277ZM107.472 218.879C109.531 218.879 110.36 220.865 109.958 224.837L109.43 228.985L109.054 227.929H107.547C106.492 227.929 105.915 228.331 105.814 229.136L105.965 227.627C106.367 223.907 106.844 220.915 107.396 218.653C107.447 218.703 107.472 218.778 107.472 218.879Z" fill="black"/>
<path d="M214.979 135.844H219.274C227.059 135.844 234.015 140.821 240.142 150.777C241.649 151.983 243.432 155.754 245.491 162.089C247.601 163.698 249.484 167.922 251.142 174.759H253.327L251.519 177.701C251.519 176.343 252.121 175.664 253.327 175.664L251.519 178.606V181.773C251.519 185.092 251.267 189.064 250.765 193.689L253.101 201.457C253.101 209.452 247.752 220.488 237.054 234.566L226.732 243.163L225.677 242.786C215.03 248.618 207.194 251.535 202.172 251.535V247.462L204.131 247.16V250.328H206.316C201.845 251.334 197.451 251.836 193.131 251.836C179.068 251.836 167.692 244.496 159.003 229.814H162.318V232.529H156.969C156.969 230.87 156.843 229.462 156.592 228.306H160.359V231.926H156.065C153.051 227.652 151.545 219.683 151.545 208.019V207.114C151.545 194.896 155.512 180.466 163.448 163.824C170.68 152.31 179.947 144.919 191.248 141.651C203.503 137.78 211.413 135.844 214.979 135.844ZM180.7 215.41H175.427V213.298C175.226 211.689 175.125 211.287 175.125 212.091H179.269V213.524C179.269 213.826 180.098 215.108 181.755 217.37C181.755 218.929 183.89 221.066 188.159 223.781C190.068 224.083 191.901 224.233 193.659 224.233H193.96C203.654 224.233 212.292 220.613 219.876 213.373C224.246 208.697 226.431 201.432 226.431 191.578V187.731C226.431 186.726 226.506 186.122 226.657 185.921L226.431 184.865V178.455C224.773 173.93 222.337 170.913 219.123 169.405C215.306 167.896 212.242 167.142 209.932 167.142C206.115 167.142 199.535 169.706 190.193 174.835C187.883 175.84 186.728 178.354 186.728 182.377C182.71 199.572 180.7 210.583 180.7 215.41ZM247.827 175.664H253.101V180.039H247.827V175.664ZM160.359 227.401V224.233H156.216V227.401H160.359Z" fill="black"/>
<path d="M337.63 132.903H338.534C339.79 132.903 340.594 133.154 340.945 133.657L340.418 133.958C343.281 133.958 345.491 136.724 347.048 142.254C335.847 177.248 329.87 200.276 329.117 211.337C326.556 224.812 323.994 234.163 321.433 239.392C320.579 240.75 318.921 245.526 316.46 253.722H311.488L311.714 250.479H315.481L315.405 250.705L315.029 253.722H310.433L309.378 250.479H312.467C311.714 252.741 311.186 255.959 310.885 260.132H305.913C305.611 257.819 305.461 256.185 305.461 255.23C305.461 254.727 305.411 254.928 305.31 255.833H309.604C309.604 256.336 309.454 256.588 309.152 256.588C309.152 254.275 309.479 253.118 310.132 253.118L309.152 256.588C309.303 256.94 309.378 257.995 309.378 259.755H305.159C302.799 257.04 301.619 252.565 301.619 246.331C301.619 244.471 301.644 243.113 301.694 242.258H305.837L305.762 243.691H300.413L300.564 240.901H304.481L303.803 244.445H299.283C298.228 241.127 297.701 239.493 297.701 239.543C290.067 246.632 282.583 250.177 275.25 250.177H274.798C260.986 250.177 253.553 240.373 252.498 220.764L252.875 215.334V215.183C252.875 214.982 252.674 214.555 252.272 213.901L252.95 212.921L252.649 211.035C253.05 210.533 253.251 210.331 253.251 210.432C253.251 211.438 253 211.94 252.498 211.94L254.08 203.192L253.703 202.438C257.269 185.343 261.187 170.36 265.456 157.489C269.022 147.534 272.036 142.556 274.497 142.556H275.325C277.083 142.556 277.962 142.506 277.962 142.405C277.611 142.456 278.188 142.179 279.695 141.576C280.549 141.978 280.725 142.179 280.222 142.179L284.969 139.916C285.069 141.173 284.542 141.802 283.387 141.802C283.939 141.601 285.27 141.5 287.38 141.5C287.38 142.456 289.213 143.31 292.879 144.064L292.729 145.422C292.477 145.422 292.955 146.402 294.16 148.363L294.085 150.55L294.838 149.268C294.537 149.268 294.386 149.997 294.386 151.455V153.416C293.382 153.416 292.929 153.341 293.03 153.19L292.955 153.944C288.083 175.664 285.496 188.687 285.195 193.011L284.818 197.686C284.768 199.597 284.743 201.407 284.743 203.116C284.743 212.267 285.17 217.119 286.023 217.672C294.361 211.84 298.555 208.421 298.605 207.415L298.68 206.737C299.986 195.575 300.89 189.994 301.393 189.994V191.804C301.393 192.86 301.091 193.388 300.488 193.388C302.949 184.287 304.255 179.586 304.406 179.284C304.406 180.592 304.054 181.245 303.351 181.245C310.433 155.251 315.481 140.319 318.494 136.447H322.111L323.316 137.201H321.282C321.382 135.995 322.688 135.391 325.199 135.391C327.259 135.391 328.263 135.366 328.213 135.316C328.113 136.824 329.343 136.246 331.905 133.581H334.24L335.822 134.713H334.24C334.391 133.506 335.521 132.903 337.63 132.903ZM273.065 226.948L273.141 226.043H269.524C269.575 225.34 269.223 224.988 268.47 224.988C268.922 225.792 269.148 225.867 269.148 225.214V226.948H273.065ZM274.873 234.415L275.175 232.982C275.125 232.177 273.944 231.775 271.634 231.775L271.408 234.415H274.873ZM276.38 237.281V234.189C276.33 234.038 275.828 233.837 274.873 233.585L274.647 236.376L276.38 237.281Z" fill="black"/>
<path d="M357.896 117.367C359.805 117.618 361.839 117.97 363.999 118.422L368.444 119.327C368.745 119.378 368.996 119.403 369.197 119.403C369.348 119.403 369.724 119.327 370.327 119.177L371.382 119.705C371.382 119.705 371.558 119.705 371.909 119.705C372.361 119.705 373.592 119.956 375.601 120.459L375.676 120.383L382.155 120.911C417.213 127.548 444.309 138.006 463.445 152.285C464.952 155.754 465.705 158.519 465.705 160.581C465.705 161.184 465.63 161.788 465.479 162.391C463.571 169.43 457.519 174.332 447.323 177.097C444.008 181.22 432.506 185.72 412.818 190.597L439.789 224.912C449.231 235.42 455.987 249.624 460.055 267.523C459.854 269.182 458.95 270.012 457.343 270.012C454.781 270.012 449.257 259.831 440.768 239.468L465.329 288.942L457.569 282.908C454.254 277.529 452.597 275.166 452.597 275.819V278.459L448.001 277.478C445.389 276.221 431.979 263.451 407.77 239.166C398.78 228.155 389.237 214.982 379.142 199.647L381.779 200.024C375.5 222.851 367.791 243.163 358.65 260.962C356.992 264.129 353.728 271.747 348.856 283.813L343.733 282.682L345.842 274.99L349.383 276.196L348.705 277.855L347.274 282.758L344.561 281.853C340.995 281.149 338.459 275.517 336.952 264.959C337.002 260.132 338.359 255.808 341.02 251.987L343.356 247.613C343.306 246.205 343.934 245.501 345.239 245.501C346.344 245.501 345.491 250.403 342.678 260.208V245.652C344.838 245.652 338.359 266.744 323.241 308.928C331.93 272.878 336.274 254.375 336.274 253.42V255.079C338.735 255.079 339.413 256.211 338.308 258.473L333.411 248.443C341.347 226.773 345.39 215.611 345.541 214.957L345.465 215.032L349.232 216.088C347.022 223.328 344.009 231.825 340.192 241.58L336.5 248.443C334.843 250.403 333.411 251.384 332.206 251.384C330.348 251.384 329.418 250.429 329.418 248.518C329.418 245.149 333.386 233.987 341.322 215.032C343.632 206.586 346.143 194.821 348.856 179.737C350.563 173.854 352.02 169.832 353.225 167.67V167.972C353.225 168.877 352.798 169.229 351.945 169.028C357.068 159.073 361.086 148.916 363.999 138.559C358.675 136.95 351.543 131.721 342.603 122.872L357.896 117.367ZM405.661 148.74V145.271C407.168 145.523 408.649 145.874 410.106 146.327L409.202 150.55C407.594 149.997 405.033 149.67 401.517 149.57L396.319 149.042L397.826 148.891V148.137C397.826 148.74 397.8 149.319 397.75 149.872L392.778 165.257C392.929 165.257 393.004 164.151 393.004 161.938L391.271 161.637C404.782 160.531 412.818 159.299 415.379 157.941C423.817 155.93 428.061 154.673 428.112 154.17L427.886 154.925C422.411 152.612 414.4 150.5 403.853 148.589L405.661 148.74Z" fill="black"/>
<path d="M533.585 136.824H535.695L535.845 136.9L535.996 136.824H542.475C542.475 139.992 542.475 141.576 542.475 141.576C542.274 139.062 543.103 138.986 544.961 141.349V142.782C544.961 142.631 543.605 142.556 540.893 142.556V142.481C543.153 142.481 544.861 143.059 546.016 144.215C546.016 144.869 544.133 145.196 540.366 145.196C542.626 147.458 544.032 148.589 544.585 148.589C545.79 148.589 546.393 149.092 546.393 150.098C543.128 150.098 541.496 147.961 541.496 143.687C544.76 143.687 546.393 143.662 546.393 143.612C550.31 143.361 553.173 143.235 554.981 143.235C564.876 144.341 573.816 145.045 581.802 145.347C582.656 145.196 585.242 144.944 589.562 144.592V148.665L603.801 144.592H590.993C593.956 144.592 595.438 145.925 595.438 148.589C590.164 148.589 587.528 147.257 587.528 144.592C592.148 144.592 597.121 145.095 602.445 146.101L610.732 142.254V143.009L604.629 149.796C604.228 147.282 606.513 145.02 611.485 143.009V149.268L611.786 148.288C612.289 148.388 612.54 149.369 612.54 151.229V154.849H606.588V148.363H612.54V151.983C612.54 153.844 609.25 155.654 602.671 157.413V151.154C606.638 152.21 608.622 154.774 608.622 158.846H602.671V152.36L609.376 153.039V156.207C609.376 158.771 606.437 160.128 600.561 160.279V153.869H606.513V160.958C603.148 160.958 600.009 162.894 597.095 166.765C589.863 183.256 581.249 195.625 571.254 203.871C558.095 214.278 545.966 223.957 534.866 232.906C524.319 236.778 519.045 239.392 519.045 240.75C517.538 243.566 515.63 245.878 513.319 247.688H506.087L512.038 227.552V242.258H515.655C514.751 245.727 512.943 247.462 510.23 247.462H506.313L505.333 242.032H541.571C520.024 244.546 506.664 248.317 501.491 253.345H495.087V261.264L500.361 248.141C501.717 248.141 502.395 249.121 502.395 251.082V253.118H493.656V248.593C493.656 247.588 494.008 245.878 494.711 243.465C494.711 244.068 494.259 244.37 493.355 244.37C496.971 223.655 501.039 207.239 505.559 195.122C512.892 177.324 516.659 168.072 516.86 167.368C517.061 167.368 517.162 166.086 517.162 163.522V163.07C517.162 163.221 518.995 163.296 522.661 163.296L516.785 156.131C516.785 158.746 518.166 158.545 520.928 155.528C524.595 143.511 528.738 137.503 533.359 137.503C533.359 137.553 532.656 137.579 531.25 137.579C531.3 137.579 532.078 137.327 533.585 136.824ZM563.344 166.916C563.294 166.916 563.269 165.584 563.269 162.919L531.325 166.916C550.059 166.916 554.429 166.991 544.434 167.142C545.288 167.142 545.715 166.74 545.715 165.936C540.14 179.209 536.272 190.019 534.113 198.365C546.217 192.583 559.853 178.204 575.021 155.226V166.162L563.344 166.916Z" fill="black"/>
<path d="M642.826 134.034C646.091 134.084 649.23 134.838 652.243 136.296C664.699 135.19 675.422 134.537 684.413 134.336C698.275 134.889 710.379 135.165 720.726 135.165L721.253 139.389L716.205 139.69V136.372H724.116C721.002 139.64 716.256 141.928 709.877 143.235C706.462 144.442 703.046 145.321 699.631 145.874L698.878 142.858L715.301 143.687L716.356 147.986H709.726C710.58 147.886 711.007 147.433 711.007 146.629V144.819H715.452L716.431 148.514C710.605 150.274 696.542 152.536 674.242 155.302C667.914 155.453 662.715 155.528 658.647 155.528L657.291 155.98C656.387 155.679 655.709 155.528 655.257 155.528H651.49C651.64 155.427 651.214 156.508 650.209 158.771C650.109 158.268 651.917 159.399 655.633 162.165C652.519 163.221 651.615 163.748 652.921 163.748L652.017 161.033L654.353 162.617C650.083 175.287 647.949 181.899 647.949 182.452V180.416L654.805 179.888V179.812C655.006 179.762 657.341 179.737 661.811 179.737H664.297C666.306 179.737 674.769 180.617 689.686 182.377H691.796L692.926 186.751C690.917 186.751 689.912 186.751 689.912 186.751L689.084 183.508H692.775L693.303 187.43C685.116 189.089 679.917 190.572 677.708 191.879C673.639 192.483 670.098 193.111 667.085 193.765L666.331 190.823H667.311L668.14 193.991C656.588 199.421 648.125 202.136 642.751 202.136C640.541 214.203 637.025 225.113 632.203 234.867L631.902 233.057C635.719 232.655 639.963 232.454 644.634 232.454C662.564 232.806 673.137 232.982 676.351 232.982H682.604L683.735 237.356C681.474 237.356 679.817 237.406 678.762 237.507L677.934 234.189H681.851L682.378 236.225V236.451C682.378 238.01 681.926 238.789 681.022 238.789V235.546L683.885 235.848L684.413 239.996H681.399C681.048 239.996 680.194 240.046 678.838 240.147V236.828C682.253 236.828 686.823 236.954 692.549 237.205L693.077 241.278C688.657 241.58 686.974 241.73 688.029 241.73V238.261H692.775L693.227 242.107C687.501 243.515 678.511 245.174 666.256 247.085C665.603 247.638 658.094 249.398 643.73 252.364C639.963 254.174 627.909 256.06 607.568 258.021C606.211 258.021 605.533 257.845 605.533 257.493V257.945C604.83 259.755 603.675 260.66 602.068 260.66H599.657L599.356 259.227H602.746L602.52 260.66H598.376C596.417 258.247 595.363 256.663 595.212 255.909L594.911 254.476L593.856 253.646L593.404 252.063L592.5 253.646C591.797 253.646 590.365 252.691 588.206 250.78C587.754 250.78 586.799 250.127 585.343 248.82L585.192 247.462V247.085C585.192 245.476 586.649 243.54 589.562 241.278C591.219 238.965 593.228 237.507 595.589 236.904C598.753 226.194 601.842 213.549 604.855 198.969C610.882 182.527 617.186 167.193 623.765 152.964H626.402C623.238 152.36 621.48 151.355 621.128 149.947L621.053 150.324C620.249 150.324 619.622 149.444 619.17 147.684V147.232C619.17 146.025 619.421 145.145 619.923 144.592C619.973 144.643 619.873 143.562 619.622 141.349H618.718L620.752 143.386L620.526 141.425C623.74 138.257 628.738 136.673 635.518 136.673C636.422 135.115 639.159 134.336 643.73 134.336C643.73 134.537 642.399 134.637 639.737 134.637C639.737 134.235 640.767 134.034 642.826 134.034ZM621.957 235.018V233.284C621.957 234.239 622.083 234.541 622.334 234.189H619.772C618.868 234.189 618.416 234.641 618.416 235.546V235.622L618.266 235.018H621.957Z" fill="black"/>
<path d="M873.889 118.95C876.299 118.649 877.655 118.498 877.957 118.498C878.208 118.498 879.313 118.548 881.272 118.649C883.281 118.699 884.285 119.428 884.285 120.836C884.285 121.288 884.135 121.892 883.833 122.646C883.883 122.545 883.909 122.42 883.909 122.269C883.909 121.665 883.683 121.313 883.23 121.213C885.139 121.665 886.093 122.495 886.093 123.702C886.093 124.204 885.943 124.833 885.641 125.587C885.641 125.587 885.641 125.537 885.641 125.436C885.641 124.33 884.938 123.777 883.532 123.777C883.683 123.777 884.938 123.677 887.299 123.475C889.659 123.274 893.25 122.822 898.072 122.118C902.442 121.565 904.928 121.288 905.531 121.288H907.941V123.626C907.941 125.084 906.887 125.813 904.777 125.813C905.631 125.813 906.058 125.21 906.058 124.003C906.058 122.847 905.832 122.269 905.38 122.269C907.891 122.269 909.147 123.123 909.147 124.833C909.147 126.14 902.869 128.704 890.312 132.526C877.756 136.347 860.478 140.847 838.48 146.025C816.481 151.204 805.23 153.793 804.728 153.793H806.913C806.913 152.235 808.545 152.662 811.81 155.075C815.778 158.092 823.412 162.818 834.713 169.254C846.064 175.639 853.346 180.139 856.561 182.754C859.825 185.368 862.688 187.153 865.149 188.108C867.61 189.064 868.841 189.541 868.841 189.541C868.74 189.541 869.619 189.114 871.478 188.259C873.738 187.203 875.923 186.675 878.032 186.675C878.032 188.636 877.354 190.069 875.998 190.974C876.149 190.874 876.224 190.572 876.224 190.069C876.224 188.863 875.521 188.259 874.115 188.259C874.014 188.259 874.039 188.234 874.19 188.184C875.144 187.932 875.847 187.807 876.299 187.807C877.856 187.807 878.635 188.46 878.635 189.768V190.522C878.635 191.527 877.907 192.508 876.45 193.463C875.044 194.418 874.341 194.695 874.341 194.293C874.341 193.89 874.793 193.991 875.697 194.594C877.455 195.902 878.333 197.51 878.333 199.421C876.274 199.421 874.491 199.119 872.984 198.516C872.281 198.214 872.005 198.064 872.156 198.064H874.341C874.341 196.203 874.742 195.499 875.546 195.952C876.35 196.354 876.751 196.932 876.751 197.686V197.913C876.751 199.27 875.898 199.949 874.19 199.949C873.738 199.949 873.185 199.848 872.532 199.647C871.88 199.446 871.051 199.27 870.046 199.119H870.122C869.218 199.119 865.275 201.759 858.294 207.038C850.509 212.871 842.698 218.15 834.863 222.876C827.028 227.552 818.766 233.334 810.077 240.222C801.388 247.06 792.121 253.521 782.277 259.604C772.433 265.738 765.251 270.138 760.73 272.802C759.073 273.707 757.867 274.16 757.114 274.16C755.507 274.16 754.703 273.506 754.703 272.199C754.703 271.093 757.466 268.026 762.991 262.998C765.703 260.534 767.059 259.202 767.059 259.001C767.059 260.057 767.636 260.585 768.792 260.585C768.038 260.585 764.723 262.194 758.847 265.412C746.893 271.998 740.263 275.291 738.958 275.291C737.401 275.291 736.622 274.638 736.622 273.33C736.622 272.224 740.088 269.409 747.019 264.884C753.95 260.359 758.294 257.266 760.052 255.607C761.81 253.998 767.461 249.021 777.003 240.675C786.597 232.278 794.281 225.34 800.057 219.859C805.883 214.329 812.262 208.547 819.193 202.513C826.174 196.429 829.489 193.488 829.138 193.689C829.138 195.047 825.823 194.544 819.193 192.181C811.257 189.315 804.879 186.122 800.057 182.603C795.235 179.083 790.414 175.815 785.592 172.799C780.77 169.782 775.924 167.092 771.052 164.729C766.18 162.316 763.543 160.606 763.141 159.6C763.041 159.249 762.991 158.947 762.991 158.695C762.991 157.439 763.719 156.659 765.175 156.358C764.221 156.559 763.744 157.112 763.744 158.017C763.744 158.369 763.945 158.746 764.347 159.148C763.694 158.494 763.367 157.891 763.367 157.338C763.367 156.835 763.92 155.955 765.025 154.698C766.13 153.391 767.636 152.737 769.545 152.737C769.193 152.737 769.018 153.316 769.018 154.472C769.018 154.975 768.616 154.975 767.812 154.472C767.009 153.969 765.853 153.064 764.347 151.757C762.84 150.45 762.086 149.419 762.086 148.665C762.086 147.76 762.463 147.106 763.217 146.704C762.815 147.056 762.614 147.433 762.614 147.835C762.614 148.187 762.815 148.539 763.217 148.891C762.463 148.489 762.086 147.911 762.086 147.157C762.086 145.799 762.991 145.12 764.799 145.12C764.146 145.12 763.945 144.894 764.196 144.442C764.447 143.989 765.251 143.511 766.607 143.009C767.963 142.506 771.705 141.601 777.832 140.294C783.96 138.936 788.405 137.704 791.167 136.598C793.929 135.492 798.098 134.16 803.673 132.601C809.298 130.992 813.141 130.188 815.2 130.188H821.076C822.985 130.188 829.665 128.855 841.116 126.19C852.618 123.475 860.353 121.665 864.321 120.76C868.339 119.805 871.528 119.202 873.889 118.95ZM854.677 198.139L696.617 297.917L809.851 205.379L823.713 192.935L797.797 184.111L846.616 176.419L861.382 186.6L854.677 198.139Z" fill="black"/>
<path d="M984.485 119.101H986.971C992.747 119.101 998.548 119.755 1004.37 121.062V123.702C1004.02 123.199 1003.85 122.017 1003.85 120.157H1006.63C1008.79 120.157 1009.87 120.534 1009.87 121.288H1005.88V123.4C1005.53 122.998 1005.35 121.691 1005.35 119.478H1008.14C1009.1 119.478 1010.85 120.509 1013.42 122.57C1014.57 122.42 1015.42 122.344 1015.98 122.344C1022.61 123.903 1028.38 128.704 1033.3 136.749C1041.19 151.581 1045.13 165.181 1045.13 177.55C1045.13 183.181 1043 195.7 1038.73 215.108H1033.61V212.167H1037.37L1036.85 215.787H1031.8L1030.82 208.622H1033.98C1031.42 214.957 1022 224.611 1005.73 237.582C994.028 246.984 981.02 254.451 966.705 259.981C956.409 263.199 949.076 264.808 944.707 264.808C940.186 264.808 930.694 263.25 916.229 260.132C906.184 260.132 896.867 255.356 888.278 245.803C885.114 238.663 883.532 231.147 883.532 223.253C883.532 202.387 891.869 182.829 908.544 164.578C914.169 156.433 923.938 147.634 937.851 138.182C951.763 130.992 958.493 127.397 958.041 127.397C958.041 125.537 964.42 123.048 977.177 119.931C978.885 119.378 981.321 119.101 984.485 119.101ZM928.66 187.354C930.116 189.768 930.844 192.357 930.844 195.122C925.822 206.938 923.31 214.052 923.31 216.465C923.31 221.493 925.571 226.747 930.091 232.228C935.867 234.591 939.86 235.772 942.07 235.772C958.393 233.912 968.388 231.65 972.054 228.985C987.223 220.337 994.807 214.907 994.807 212.695C1006.91 195.499 1012.96 178.028 1012.96 160.279C1012.96 157.212 1012.31 155.478 1011 155.075C999.452 147.282 992.521 143.386 990.211 143.386L984.636 146.779C972.984 150.953 961.833 156.508 951.186 163.447C945.36 167.771 942.446 171.416 942.446 174.382C939.282 174.382 934.687 178.706 928.66 187.354Z" fill="black"/>
<path d="M1078.58 112.314H1080.84C1083.45 112.917 1085.54 114.048 1087.1 115.707H1085.59C1085.69 115.255 1086.62 115.029 1088.38 115.029H1091.54C1091.54 115.934 1091.57 116.386 1091.62 116.386C1092.52 115.481 1094.18 115.029 1096.59 115.029L1097.12 115.179C1097.32 115.079 1098.2 115.029 1099.75 115.029C1101.11 115.934 1100.88 116.386 1099.07 116.386C1099.07 116.185 1100.91 115.808 1104.57 115.255C1107.29 116.713 1109.27 118.975 1110.53 122.042V123.626C1110.53 131.671 1101.51 155.126 1083.48 193.991C1072.83 209.829 1067.51 218.829 1067.51 220.99C1064.75 226.672 1063.36 228.96 1063.36 227.853H1060.95C1071.05 222.876 1086.9 217.446 1108.49 211.563L1102.69 215.711H1096.66C1097.67 215.259 1099.35 215.032 1101.71 215.032V217.22C1101.71 218.376 1098.87 220.915 1093.2 224.837H1087.02L1136.22 207.943C1124.01 215.032 1117.91 217.722 1117.91 216.013H1115.57C1116.58 215.56 1118.29 215.334 1120.7 215.334V218.803C1117.93 219.909 1116.55 221.066 1116.55 222.273C1081.65 243.741 1058.77 256.412 1047.92 260.283C1043.9 261.238 1041.11 262.948 1039.56 265.412C1038.6 266.97 1037.37 267.875 1035.87 268.127C1032.65 268.127 1031.04 266.141 1031.04 262.169V262.244L1029.69 262.546C1025.67 260.534 1023.66 258.624 1023.66 256.814V254.401C1023.66 253.244 1025.97 251.158 1030.59 248.141C1030.59 246.683 1032.27 244.596 1035.64 241.881C1038.6 235.647 1041.24 226.37 1043.55 214.052C1043.55 209.125 1052.14 180.667 1069.32 128.679C1069.62 128.478 1071.38 123.475 1074.59 113.671C1076.25 113.671 1077.58 113.219 1078.58 112.314Z" fill="black"/>
<path d="M219.062 74.1508L221.472 74.7542C220.92 77.0167 218.057 78.7513 212.884 79.958L205.501 82.9747L206.103 80.7122L203.994 80.1843L215.973 78.9776L216.274 77.62C213.914 78.8267 213.261 79.4301 214.315 79.4301C214.818 79.4301 216.324 79.5055 218.836 79.6563C218.183 82.4216 216.827 83.9049 214.767 84.106L215.521 81.1647L213.487 80.863C213.888 80.7122 214.516 80.6368 215.37 80.6368C215.772 80.6368 217.379 80.863 220.192 81.3155L219.514 82.0697L218.534 81.9189L218.007 85.9914H215.671C216.174 85.9914 216.55 85.0613 216.801 83.201L217.932 83.3518L217.254 85.916C215.194 88.1785 213.964 89.4103 213.562 89.6115L213.336 89.2344L213.035 91.6477L210.699 91.9494L211.377 89.2344L209.343 88.7065H211.151L214.993 89.6869C210.272 94.6142 201.432 98.3348 188.474 100.849C186.013 101 187.52 99.994 192.995 97.832C188.022 97.832 185.536 98.8627 185.536 100.924C185.536 105.65 183.075 123.273 178.153 153.792C177.651 156.809 177.098 159.473 176.495 161.786L167.982 219.933C166.827 227.073 163.964 238.888 159.394 255.38L156.832 254.701C155.476 254.449 154.798 253.57 154.798 252.061C154.798 251.558 154.723 251.634 154.572 252.287H158.791C158.439 253.544 157.435 254.173 155.777 254.173H155.175C153.316 253.821 152.387 249.673 152.387 241.729C152.387 239.617 152.412 237.682 152.463 235.922C152.211 235.872 152.086 235.092 152.086 233.584C152.086 233.081 152.061 232.981 152.011 233.282L156.003 234.263L156.455 232.453C155.15 242.659 154.246 253.419 153.743 264.731V267.446C150.228 266.742 148.47 264.279 148.47 260.055C148.47 257.089 148.671 252.916 149.072 247.536C148.972 241.603 148.922 236.249 148.922 231.472C148.922 219.506 149.198 211.939 149.75 208.771L153.593 209.752C152.99 211.864 152.538 213.925 152.237 215.936L147.114 215.257L147.942 210.581L151.634 211.486C151.332 212.291 150.956 214.051 150.504 216.766C149.901 220.486 149.374 227.827 148.922 238.788L143.573 237.807C143.974 225.992 144.2 211.411 144.251 194.065C145.054 189.238 145.456 179.535 145.456 164.954C145.707 163.093 146.561 162.113 148.018 162.012C147.817 160.957 147.716 159.976 147.716 159.071V158.543C148.068 156.934 149.198 156.13 151.106 156.13H149.072V157.337C149.072 150.398 150.529 138.13 153.442 120.533L156.38 103.413C157.636 103.715 158.238 103.865 158.188 103.865C156.129 103.865 151.056 105.072 142.97 107.485C138.751 108.29 131.343 109.295 120.745 110.502L121.348 105.826H123.683C122.779 105.826 122.151 106.932 121.8 109.145H124.437L119.766 110.502L120.594 107.033C120.745 106.279 121.498 105.474 122.855 104.62L126.998 105.675L120.971 105.298C117.254 104.444 114.166 103.79 111.705 103.337C111.303 103.287 110.775 103.262 110.122 103.262C107.008 103.262 101.484 103.941 93.548 105.298L91.6645 104.921C90.8609 105.927 88.5254 106.53 84.658 106.731L72.9806 108.466L72.3026 105.675C72.5035 104.469 75.065 103.187 79.9871 101.829L79.3844 104.242L81.5692 104.846C76.6471 105.55 73.5833 105.902 72.3779 105.902H71.8505L68.385 105.223L68.9123 101.301H71.0218C71.5241 101.301 76.195 99.9185 85.0347 97.1532L84.432 99.5666L86.5415 100.095L68.7616 101.075L67.2549 96.927C76.9484 95.8209 82.8248 95.117 84.8841 94.8153L84.1307 97.6057C83.4777 97.5052 83.1513 96.751 83.1513 95.3432V94.2119C84.9594 93.2567 86.2904 92.779 87.1442 92.779H85.5621L84.7334 95.8711L83.2266 95.6449L83.98 92.779C87.6465 90.5165 99.349 88.0277 119.088 85.3127C129.886 83.6535 144.351 81.6423 162.483 79.2792C162.683 78.1228 163.889 77.5446 166.099 77.5446C166.45 77.5446 167.38 77.7206 168.886 78.0726C168.886 78.4245 167.706 78.3994 165.345 77.9971C165.647 76.9413 166.701 76.4134 168.51 76.4134H169.414L172.352 78.3742C176.772 77.8212 184.13 77.2178 194.426 76.5642C197.59 75.6592 203.617 75.1313 212.507 74.9804C214.667 74.3268 216.425 74 217.781 74C218.283 74 218.71 74.0503 219.062 74.1508ZM147.792 182.752C149.851 182.752 150.68 184.738 150.278 188.71L149.75 192.858L149.374 191.802H147.867C146.812 191.802 146.235 192.205 146.134 193.009L146.285 191.501C146.687 187.78 147.164 184.789 147.716 182.526C147.766 182.576 147.792 182.652 147.792 182.752Z" fill="#323232" fill-opacity="0.25"/>
<path d="M255.299 99.7174H259.594C267.379 99.7174 274.335 104.695 280.462 114.65C281.969 115.857 283.752 119.628 285.811 125.963C287.921 127.572 289.804 131.795 291.462 138.633H293.647L291.838 141.574C291.838 140.217 292.441 139.538 293.647 139.538L291.838 142.479V145.647C291.838 148.965 291.587 152.937 291.085 157.563L293.421 165.331C293.421 173.325 288.072 184.361 277.374 198.439L267.052 207.037L265.997 206.66C255.35 212.492 247.514 215.408 242.492 215.408V211.336L244.451 211.034V214.202H246.635C242.165 215.207 237.771 215.71 233.451 215.71C219.388 215.71 208.012 208.369 199.323 193.688H202.638V196.403H197.289C197.289 194.744 197.163 193.336 196.912 192.18H200.679V195.8H196.385C193.371 191.526 191.864 183.557 191.864 171.892V170.987C191.864 158.769 195.832 144.34 203.768 127.697C211 116.184 220.267 108.793 231.568 105.525C243.823 101.653 251.733 99.7174 255.299 99.7174ZM221.02 179.283H215.747V177.171C215.546 175.563 215.445 175.16 215.445 175.965H219.589V177.398C219.589 177.699 220.418 178.981 222.075 181.244C222.075 182.803 224.21 184.939 228.479 187.654C230.387 187.956 232.221 188.107 233.979 188.107H234.28C243.974 188.107 252.612 184.487 260.196 177.247C264.566 172.571 266.751 165.306 266.751 155.451V151.605C266.751 150.599 266.826 149.996 266.977 149.795L266.751 148.739V142.328C265.093 137.803 262.657 134.787 259.443 133.278C255.626 131.77 252.562 131.016 250.252 131.016C246.435 131.016 239.855 133.58 230.513 138.708C228.203 139.714 227.047 142.228 227.047 146.25C223.029 163.445 221.02 174.456 221.02 179.283ZM288.147 139.538H293.421V143.912H288.147V139.538ZM200.679 191.275V188.107H196.535V191.275H200.679Z" fill="#323232" fill-opacity="0.25"/>
<path d="M377.95 96.7761H378.854C380.11 96.7761 380.913 97.0275 381.265 97.5303L380.738 97.832C383.601 97.832 385.81 100.597 387.367 106.128C376.167 141.122 370.19 164.149 369.437 175.211C366.875 188.685 364.314 198.037 361.752 203.266C360.899 204.623 359.241 209.4 356.78 217.595H351.808L352.034 214.352H355.801L355.725 214.579L355.349 217.595H350.753L349.698 214.352H352.787C352.034 216.615 351.506 219.833 351.205 224.006H346.233C345.931 221.693 345.781 220.059 345.781 219.104C345.781 218.601 345.73 218.802 345.63 219.707H349.924C349.924 220.21 349.774 220.461 349.472 220.461C349.472 218.148 349.799 216.992 350.452 216.992L349.472 220.461C349.623 220.813 349.698 221.869 349.698 223.629H345.479C343.119 220.914 341.938 216.439 341.938 210.204C341.938 208.344 341.964 206.987 342.014 206.132H346.157L346.082 207.565H340.733L340.884 204.774H344.801L344.123 208.319H339.603C338.548 205.001 338.021 203.366 338.021 203.417C330.387 210.506 322.903 214.051 315.57 214.051H315.118C301.306 214.051 293.873 204.246 292.818 184.638L293.195 179.208V179.057C293.195 178.856 292.994 178.428 292.592 177.775L293.27 176.794L292.969 174.909C293.37 174.406 293.571 174.205 293.571 174.306C293.571 175.311 293.32 175.814 292.818 175.814L294.4 167.065L294.023 166.311C297.589 149.217 301.507 134.234 305.776 121.362C309.342 111.407 312.356 106.43 314.817 106.43H315.645C317.403 106.43 318.282 106.379 318.282 106.279C317.931 106.329 318.508 106.053 320.015 105.449C320.869 105.851 321.045 106.053 320.542 106.053L325.289 103.79C325.389 105.047 324.862 105.675 323.707 105.675C324.259 105.474 325.59 105.374 327.7 105.374C327.7 106.329 329.533 107.184 333.199 107.938L333.049 109.295C332.797 109.295 333.275 110.276 334.48 112.237L334.405 114.424L335.158 113.142C334.857 113.142 334.706 113.871 334.706 115.329V117.29C333.701 117.29 333.249 117.214 333.35 117.064L333.275 117.818C328.403 139.538 325.816 152.56 325.515 156.884L325.138 161.56C325.088 163.471 325.063 165.281 325.063 166.99C325.063 176.141 325.49 180.993 326.343 181.546C334.681 175.713 338.875 172.294 338.925 171.289L339 170.61C340.306 159.448 341.21 153.867 341.712 153.867V155.677C341.712 156.733 341.411 157.261 340.808 157.261C343.269 148.161 344.575 143.46 344.726 143.158C344.726 144.465 344.374 145.119 343.671 145.119C350.753 119.125 355.801 104.192 358.814 100.321H362.43L363.636 101.075H361.602C361.702 99.8683 363.008 99.2649 365.519 99.2649C367.579 99.2649 368.583 99.2398 368.533 99.1895C368.432 100.698 369.663 100.12 372.224 97.4549H374.56L376.142 98.5862H374.56C374.711 97.3795 375.841 96.7761 377.95 96.7761ZM313.385 190.822L313.461 189.917H309.844C309.895 189.213 309.543 188.861 308.79 188.861C309.242 189.666 309.468 189.741 309.468 189.087V190.822H313.385ZM315.193 198.288L315.495 196.855C315.444 196.051 314.264 195.649 311.954 195.649L311.728 198.288H315.193ZM316.7 201.154V198.062C316.65 197.911 316.148 197.71 315.193 197.459L314.967 200.249L316.7 201.154Z" fill="#323232" fill-opacity="0.25"/>
<path d="M398.216 81.2401C400.125 81.4915 402.159 81.8434 404.319 82.2959L408.764 83.201C409.065 83.2512 409.316 83.2764 409.517 83.2764C409.668 83.2764 410.044 83.201 410.647 83.0501L411.702 83.578C411.702 83.578 411.878 83.578 412.229 83.578C412.681 83.578 413.912 83.8294 415.921 84.3322L415.996 84.2568L422.475 84.7847C457.533 91.4215 484.629 101.879 503.765 116.158C505.272 119.628 506.025 122.393 506.025 124.454C506.025 125.058 505.95 125.661 505.799 126.264C503.891 133.303 497.839 138.206 487.643 140.971C484.328 145.094 472.826 149.594 453.138 154.471L480.109 188.786C489.551 199.294 496.307 213.498 500.375 231.397C500.174 233.056 499.27 233.886 497.663 233.886C495.101 233.886 489.576 223.704 481.088 203.341L505.649 252.815L497.889 246.782C494.574 241.402 492.916 239.039 492.916 239.693V242.332L488.321 241.352C485.709 240.095 472.299 227.324 448.09 203.04C439.1 192.029 429.557 178.856 419.462 163.521L422.098 163.898C415.82 186.724 408.111 207.037 398.97 224.835C397.312 228.003 394.047 235.62 389.176 247.687L384.053 246.556L386.162 238.863L389.703 240.07L389.025 241.729L387.593 246.631L384.881 245.726C381.315 245.022 378.779 239.391 377.272 228.833C377.322 224.006 378.678 219.682 381.34 215.861L383.676 211.486C383.626 210.079 384.253 209.375 385.559 209.375C386.664 209.375 385.81 214.277 382.998 224.081V209.526C385.158 209.526 378.678 230.617 363.561 272.801C372.25 236.751 376.594 218.249 376.594 217.294V218.953C379.055 218.953 379.733 220.084 378.628 222.347L373.731 212.316C381.667 190.646 385.71 179.484 385.861 178.831L385.785 178.906L389.552 179.962C387.342 187.202 384.329 195.699 380.512 205.453L376.82 212.316C375.163 214.277 373.731 215.257 372.526 215.257C370.667 215.257 369.738 214.302 369.738 212.391C369.738 209.023 373.706 197.861 381.642 178.906C383.952 170.459 386.463 158.694 389.176 143.611C390.883 137.728 392.34 133.706 393.545 131.544V131.845C393.545 132.75 393.118 133.102 392.264 132.901C397.387 122.946 401.406 112.79 404.319 102.432C398.995 100.824 391.863 95.5946 382.923 86.7456L398.216 81.2401ZM445.981 112.614V109.145C447.487 109.396 448.969 109.748 450.426 110.2L449.522 114.424C447.914 113.871 445.353 113.544 441.837 113.443L436.639 112.916L438.146 112.765V112.011C438.146 112.614 438.12 113.192 438.07 113.745L433.098 129.13C433.249 129.13 433.324 128.024 433.324 125.812L431.591 125.51C445.102 124.404 453.138 123.172 455.699 121.815C464.137 119.804 468.381 118.547 468.432 118.044L468.206 118.798C462.731 116.485 454.72 114.374 444.173 112.463L445.981 112.614Z" fill="#323232" fill-opacity="0.25"/>
<path d="M573.905 100.698H576.015L576.165 100.773L576.316 100.698H582.795C582.795 103.865 582.795 105.449 582.795 105.449C582.594 102.935 583.423 102.86 585.281 105.223V106.656C585.281 106.505 583.925 106.43 581.213 106.43V106.354C583.473 106.354 585.181 106.932 586.336 108.089C586.336 108.742 584.453 109.069 580.686 109.069C582.946 111.332 584.352 112.463 584.905 112.463C586.11 112.463 586.713 112.966 586.713 113.971C583.448 113.971 581.816 111.835 581.816 107.561C585.08 107.561 586.713 107.536 586.713 107.485C590.63 107.234 593.493 107.108 595.301 107.108C605.196 108.214 614.136 108.918 622.122 109.22C622.976 109.069 625.562 108.818 629.882 108.466V112.538L644.121 108.466H631.313C634.276 108.466 635.758 109.798 635.758 112.463C630.484 112.463 627.847 111.131 627.847 108.466C632.468 108.466 637.441 108.969 642.764 109.974L651.052 106.128V106.882L644.949 113.67C644.547 111.156 646.833 108.893 651.805 106.882V113.142L652.106 112.161C652.609 112.262 652.86 113.242 652.86 115.103V118.723H646.908V112.237H652.86V115.857C652.86 117.717 649.57 119.527 642.99 121.287V115.027C646.958 116.083 648.942 118.647 648.942 122.72H642.99V116.234L649.696 116.913V120.08C649.696 122.644 646.757 124.002 640.881 124.153V117.742H646.833V124.832C643.468 124.832 640.329 126.767 637.415 130.639C630.183 147.13 621.569 159.499 611.574 167.744C598.415 178.152 586.286 187.83 575.186 196.78C564.639 200.651 559.365 203.266 559.365 204.623C557.858 207.439 555.95 209.752 553.639 211.562H546.407L552.358 191.425V206.132H555.975C555.071 209.601 553.263 211.336 550.55 211.336H546.633L545.653 205.906H581.891C560.344 208.419 546.984 212.19 541.811 217.218H535.407V225.137L540.681 212.014C542.037 212.014 542.715 212.995 542.715 214.956V216.992H533.976V212.467C533.976 211.461 534.327 209.752 535.031 207.338C535.031 207.942 534.579 208.244 533.675 208.244C537.291 187.529 541.359 171.113 545.879 158.996C553.212 141.197 556.979 131.946 557.18 131.242C557.381 131.242 557.481 129.96 557.481 127.396V126.943C557.481 127.094 559.315 127.169 562.981 127.169L557.105 120.005C557.105 122.619 558.486 122.418 561.248 119.401C564.915 107.385 569.058 101.377 573.679 101.377C573.679 101.427 572.976 101.452 571.57 101.452C571.62 101.452 572.398 101.201 573.905 100.698ZM603.664 130.79C603.614 130.79 603.589 129.457 603.589 126.792L571.645 130.79C590.379 130.79 594.749 130.865 584.754 131.016C585.608 131.016 586.035 130.614 586.035 129.809C580.46 143.083 576.592 153.892 574.433 162.239C586.537 156.457 600.173 142.077 615.341 119.1V130.035L603.664 130.79Z" fill="#323232" fill-opacity="0.25"/>
<path d="M683.146 97.9074C686.41 97.9577 689.55 98.7119 692.563 100.17C705.019 99.0638 715.742 98.4102 724.733 98.2091C738.595 98.7621 750.699 99.0387 761.046 99.0387L761.573 103.262L756.525 103.564V100.245H764.436C761.322 103.513 756.576 105.801 750.197 107.108C746.782 108.315 743.366 109.195 739.951 109.748L739.198 106.731L755.621 107.561L756.676 111.86H750.046C750.9 111.759 751.327 111.307 751.327 110.502V108.692H755.772L756.751 112.388C750.925 114.147 736.862 116.41 714.562 119.175C708.233 119.326 703.035 119.401 698.967 119.401L697.611 119.854C696.707 119.552 696.029 119.401 695.577 119.401H691.81C691.96 119.301 691.533 120.382 690.529 122.644C690.429 122.142 692.237 123.273 695.953 126.038C692.839 127.094 691.935 127.622 693.241 127.622L692.337 124.907L694.673 126.491C690.403 139.161 688.269 145.773 688.269 146.326V144.289L695.125 143.761V143.686C695.325 143.636 697.661 143.611 702.131 143.611H704.617C706.626 143.611 715.089 144.49 730.006 146.25H732.116L733.246 150.624C731.237 150.624 730.232 150.624 730.232 150.624L729.404 147.381H733.095L733.622 151.303C725.436 152.962 720.237 154.446 718.027 155.753C713.959 156.356 710.418 156.985 707.405 157.638L706.651 154.697H707.631L708.459 157.864C696.908 163.295 688.445 166.01 683.07 166.01C680.861 178.076 677.345 188.987 672.523 198.741L672.222 196.931C676.039 196.529 680.283 196.328 684.954 196.328C702.884 196.679 713.457 196.855 716.671 196.855H722.924L724.055 201.23C721.794 201.23 720.137 201.28 719.082 201.38L718.253 198.062H722.171L722.698 200.098V200.325C722.698 201.883 722.246 202.663 721.342 202.663V199.42L724.205 199.721L724.733 203.869H721.719C721.367 203.869 720.514 203.92 719.158 204.02V200.702C722.573 200.702 727.143 200.827 732.869 201.079L733.396 205.151C728.977 205.453 727.294 205.604 728.349 205.604V202.135H733.095L733.547 205.981C727.821 207.389 718.831 209.048 706.576 210.959C705.923 211.512 698.414 213.271 684.05 216.238C680.283 218.048 668.229 219.933 647.887 221.894C646.531 221.894 645.853 221.718 645.853 221.366V221.819C645.15 223.629 643.995 224.534 642.388 224.534H639.977L639.676 223.101H643.066L642.84 224.534H638.696C636.737 222.12 635.683 220.537 635.532 219.782L635.231 218.349L634.176 217.52L633.724 215.936L632.82 217.52C632.117 217.52 630.685 216.565 628.526 214.654C628.073 214.654 627.119 214 625.663 212.693L625.512 211.336V210.959C625.512 209.35 626.969 207.414 629.882 205.151C631.539 202.839 633.548 201.38 635.909 200.777C639.073 190.068 642.162 177.423 645.175 162.842C651.202 146.401 657.506 131.066 664.085 116.837H666.722C663.558 116.234 661.8 115.228 661.448 113.821L661.373 114.198C660.569 114.198 659.942 113.318 659.49 111.558V111.106C659.49 109.899 659.741 109.019 660.243 108.466C660.293 108.516 660.193 107.435 659.942 105.223H659.038L661.072 107.259L660.846 105.298C664.06 102.131 669.058 100.547 675.838 100.547C676.742 98.9884 679.479 98.2091 684.05 98.2091C684.05 98.4102 682.719 98.5108 680.057 98.5108C680.057 98.1085 681.087 97.9074 683.146 97.9074ZM662.277 198.892V197.157C662.277 198.112 662.403 198.414 662.654 198.062H660.092C659.188 198.062 658.736 198.515 658.736 199.42V199.495L658.586 198.892H662.277Z" fill="#323232" fill-opacity="0.25"/>
<path d="M914.208 82.8239C916.619 82.5222 917.975 82.3714 918.277 82.3714C918.528 82.3714 919.633 82.4216 921.592 82.5222C923.601 82.5725 924.605 83.3015 924.605 84.7093C924.605 85.1618 924.454 85.7652 924.153 86.5193C924.203 86.4188 924.228 86.2931 924.228 86.1422C924.228 85.5389 924.002 85.187 923.55 85.0864C925.459 85.5389 926.413 86.3685 926.413 87.5752C926.413 88.078 926.263 88.7065 925.961 89.4606C925.961 89.4606 925.961 89.4103 925.961 89.3098C925.961 88.2037 925.258 87.6506 923.852 87.6506C924.002 87.6506 925.258 87.55 927.619 87.3489C929.979 87.1478 933.57 86.6953 938.392 85.9914C942.762 85.4384 945.248 85.1618 945.851 85.1618H948.261V87.4998C948.261 88.9578 947.207 89.6869 945.097 89.6869C945.951 89.6869 946.378 89.0835 946.378 87.8769C946.378 86.7205 946.152 86.1422 945.7 86.1422C948.211 86.1422 949.467 86.997 949.467 88.7065C949.467 90.0137 943.189 92.5779 930.632 96.3991C918.076 100.22 900.798 104.72 878.799 109.899C856.801 115.078 845.55 117.667 845.048 117.667H847.233C847.233 116.108 848.865 116.536 852.13 118.949C856.098 121.966 863.732 126.692 875.033 133.127C886.384 139.513 893.666 144.013 896.881 146.627C900.145 149.242 903.008 151.027 905.469 151.982C907.93 152.937 909.161 153.415 909.161 153.415C909.06 153.415 909.939 152.987 911.798 152.133C914.058 151.077 916.243 150.549 918.352 150.549C918.352 152.51 917.674 153.943 916.318 154.848C916.469 154.747 916.544 154.446 916.544 153.943C916.544 152.736 915.841 152.133 914.434 152.133C914.334 152.133 914.359 152.108 914.51 152.057C915.464 151.806 916.167 151.68 916.619 151.68C918.176 151.68 918.955 152.334 918.955 153.641V154.395C918.955 155.401 918.227 156.381 916.77 157.337C915.364 158.292 914.661 158.568 914.661 158.166C914.661 157.764 915.113 157.864 916.017 158.468C917.774 159.775 918.653 161.384 918.653 163.295C916.594 163.295 914.811 162.993 913.304 162.39C912.601 162.088 912.325 161.937 912.476 161.937H914.661C914.661 160.077 915.062 159.373 915.866 159.825C916.67 160.228 917.071 160.806 917.071 161.56V161.786C917.071 163.144 916.218 163.822 914.51 163.822C914.058 163.822 913.505 163.722 912.852 163.521C912.199 163.32 911.371 163.144 910.366 162.993H910.442C909.538 162.993 905.595 165.633 898.613 170.912C890.828 176.744 883.018 182.023 875.183 186.749C867.348 191.425 859.086 197.207 850.397 204.096C841.708 210.933 832.441 217.394 822.597 223.478C812.753 229.612 805.571 234.011 801.05 236.676C799.393 237.581 798.187 238.033 797.434 238.033C795.827 238.033 795.023 237.38 795.023 236.073C795.023 234.967 797.786 231.9 803.31 226.872C806.023 224.408 807.379 223.076 807.379 222.875C807.379 223.93 807.956 224.458 809.112 224.458C808.358 224.458 805.043 226.067 799.167 229.285C787.213 235.872 780.583 239.165 779.278 239.165C777.721 239.165 776.942 238.511 776.942 237.204C776.942 236.098 780.408 233.282 787.339 228.757C794.27 224.232 798.614 221.14 800.372 219.481C802.13 217.872 807.781 212.894 817.323 204.548C826.916 196.152 834.601 189.213 840.377 183.733C846.203 178.202 852.582 172.42 859.513 166.387C866.494 160.303 869.809 157.362 869.458 157.563C869.458 158.92 866.143 158.418 859.513 156.054C851.577 153.189 845.199 149.996 840.377 146.476C835.555 142.957 830.734 139.689 825.912 136.672C821.09 133.655 816.244 130.966 811.372 128.602C806.5 126.189 803.863 124.48 803.461 123.474C803.361 123.122 803.31 122.82 803.31 122.569C803.31 121.312 804.039 120.533 805.495 120.231C804.541 120.432 804.064 120.985 804.064 121.89C804.064 122.242 804.265 122.619 804.667 123.022C804.014 122.368 803.687 121.765 803.687 121.211C803.687 120.709 804.24 119.829 805.345 118.572C806.45 117.265 807.956 116.611 809.865 116.611C809.513 116.611 809.338 117.189 809.338 118.346C809.338 118.848 808.936 118.848 808.132 118.346C807.328 117.843 806.173 116.938 804.667 115.631C803.16 114.323 802.406 113.293 802.406 112.538C802.406 111.633 802.783 110.98 803.536 110.578C803.135 110.93 802.934 111.307 802.934 111.709C802.934 112.061 803.135 112.413 803.536 112.765C802.783 112.362 802.406 111.784 802.406 111.03C802.406 109.673 803.31 108.994 805.119 108.994C804.466 108.994 804.265 108.768 804.516 108.315C804.767 107.863 805.571 107.385 806.927 106.882C808.283 106.379 812.025 105.474 818.152 104.167C824.28 102.81 828.725 101.578 831.487 100.472C834.249 99.3655 838.418 98.0331 843.993 96.4745C849.618 94.8656 853.461 94.0611 855.52 94.0611H861.396C863.305 94.0611 869.985 92.7287 881.436 90.064C892.938 87.3489 900.673 85.5389 904.641 84.6339C908.659 83.6786 911.848 83.0753 914.208 82.8239ZM894.997 162.012L736.937 261.79L850.171 169.253L864.033 156.809L838.117 147.985L886.936 140.292L901.702 150.474L894.997 162.012Z" fill="#323232" fill-opacity="0.25"/>
<path d="M1024.81 82.9747H1027.29C1033.07 82.9747 1038.87 83.6283 1044.69 84.9356V87.5752C1044.34 87.0724 1044.17 85.8909 1044.17 84.0306H1046.95C1049.11 84.0306 1050.19 84.4076 1050.19 85.1618H1046.2V87.2735C1045.85 86.8713 1045.67 85.564 1045.67 83.3518H1048.46C1049.42 83.3518 1051.17 84.3825 1053.74 86.4439C1054.89 86.2931 1055.74 86.2177 1056.3 86.2177C1062.93 87.7763 1068.7 92.5779 1073.62 100.622C1081.51 115.455 1085.45 129.055 1085.45 141.423C1085.45 147.055 1083.32 159.574 1079.05 178.981H1073.93V176.04H1077.69L1077.17 179.66H1072.12L1071.14 172.496H1074.3C1071.74 178.831 1062.32 188.484 1046.05 201.456C1034.35 210.858 1021.34 218.324 1007.03 223.855C996.729 227.073 989.396 228.682 985.027 228.682C980.506 228.682 971.014 227.123 956.549 224.006C946.504 224.006 937.187 219.229 928.598 209.676C925.434 202.537 923.852 195.02 923.852 187.127C923.852 166.261 932.189 146.703 948.864 128.452C954.489 120.306 964.258 111.508 978.171 102.055C992.083 94.8656 998.813 91.2707 998.361 91.2707C998.361 89.4103 1004.74 86.9216 1017.5 83.8043C1019.21 83.2512 1021.64 82.9747 1024.81 82.9747ZM968.979 151.228C970.436 153.641 971.164 156.23 971.164 158.996C966.142 170.811 963.63 177.926 963.63 180.339C963.63 185.367 965.891 190.621 970.411 196.101C976.187 198.464 980.18 199.646 982.39 199.646C998.713 197.786 1008.71 195.523 1012.37 192.858C1027.54 184.21 1035.13 178.78 1035.13 176.568C1047.23 159.373 1053.28 141.901 1053.28 124.153C1053.28 121.086 1052.63 119.351 1051.32 118.949C1039.77 111.156 1032.84 107.259 1030.53 107.259L1024.96 110.653C1013.3 114.826 1002.15 120.382 991.506 127.32C985.679 131.644 982.766 135.289 982.766 138.256C979.602 138.256 975.007 142.58 968.979 151.228Z" fill="#323232" fill-opacity="0.25"/>
<path d="M1118.9 76.1871H1121.16C1123.77 76.7905 1125.86 77.9217 1127.42 79.5809H1125.91C1126.01 79.1284 1126.94 78.9022 1128.7 78.9022H1131.86C1131.86 79.8072 1131.89 80.2597 1131.94 80.2597C1132.84 79.3547 1134.5 78.9022 1136.91 78.9022L1137.44 79.053C1137.64 78.9524 1138.52 78.9022 1140.07 78.9022C1141.43 79.8072 1141.2 80.2597 1139.39 80.2597C1139.39 80.0586 1141.23 79.6815 1144.89 79.1284C1147.61 80.5865 1149.59 82.849 1150.85 85.916V87.4998C1150.85 95.5443 1141.83 118.999 1123.8 157.864C1113.15 173.702 1107.83 182.702 1107.83 184.864C1105.07 190.545 1103.68 192.833 1103.68 191.727H1101.27C1111.37 186.749 1127.22 181.319 1148.81 175.437L1143.01 179.585H1136.98C1137.99 179.132 1139.67 178.906 1142.03 178.906V181.093C1142.03 182.25 1139.19 184.789 1133.52 188.71H1127.34L1176.54 171.817C1164.33 178.906 1158.23 181.596 1158.23 179.886H1155.89C1156.9 179.434 1158.61 179.208 1161.02 179.208V182.677C1158.25 183.783 1156.87 184.939 1156.87 186.146C1121.97 207.615 1099.09 220.285 1088.24 224.157C1084.22 225.112 1081.43 226.821 1079.88 229.285C1078.92 230.844 1077.69 231.749 1076.19 232C1072.97 232 1071.36 230.014 1071.36 226.042V226.117L1070.01 226.419C1065.99 224.408 1063.98 222.497 1063.98 220.687V218.274C1063.98 217.118 1066.29 215.031 1070.91 212.014C1070.91 210.556 1072.59 208.47 1075.96 205.755C1078.92 199.52 1081.56 190.244 1083.87 177.926C1083.87 172.998 1092.46 144.541 1109.64 92.5528C1109.94 92.3516 1111.7 87.3489 1114.91 77.5446C1116.57 77.5446 1117.9 77.0921 1118.9 76.1871Z" fill="#323232" fill-opacity="0.25"/>
<mask id="mask0" mask-type="alpha" maskUnits="userSpaceOnUse" x="48" y="93" width="1110" height="200">
<path d="M200.452 93.8559L202.863 94.4593C202.311 96.7218 199.448 98.4564 194.275 99.6631L186.891 102.68L187.494 100.417L185.385 99.8893L197.363 98.6826L197.665 97.3251C195.304 98.5318 194.651 99.1352 195.706 99.1352C196.208 99.1352 197.715 99.2106 200.226 99.3614C199.573 102.127 198.217 103.61 196.158 103.811L196.911 100.87L194.877 100.568C195.279 100.417 195.907 100.342 196.761 100.342C197.162 100.342 198.77 100.568 201.582 101.021L200.904 101.775L199.925 101.624L199.398 105.696H197.062C197.564 105.696 197.941 104.766 198.192 102.906L199.322 103.057L198.644 105.621C196.585 107.884 195.354 109.115 194.953 109.317L194.727 108.939L194.425 111.353L192.09 111.654L192.768 108.939L190.734 108.412H192.542L196.384 109.392C191.663 114.319 182.823 118.04 169.865 120.554C167.404 120.705 168.911 119.699 174.385 117.537C169.413 117.537 166.927 118.568 166.927 120.629C166.927 125.355 164.466 142.978 159.544 173.497C159.041 176.514 158.489 179.178 157.886 181.491L149.373 239.638C148.218 246.778 145.355 258.593 140.784 275.085L138.223 274.406C136.867 274.154 136.189 273.275 136.189 271.766C136.189 271.263 136.113 271.339 135.963 271.993H140.182C139.83 273.249 138.825 273.878 137.168 273.878H136.565C134.707 273.526 133.778 269.378 133.778 261.434C133.778 259.322 133.803 257.387 133.853 255.627C133.602 255.577 133.476 254.797 133.476 253.289C133.476 252.786 133.451 252.686 133.401 252.987L137.394 253.968L137.846 252.158C136.54 262.364 135.636 273.124 135.134 284.436V287.151C131.618 286.448 129.86 283.984 129.86 279.761C129.86 276.794 130.061 272.621 130.463 267.241C130.362 261.308 130.312 255.954 130.312 251.177C130.312 239.211 130.589 231.644 131.141 228.477L134.983 229.457C134.381 231.569 133.929 233.63 133.627 235.641L128.504 234.962L129.333 230.287L133.024 231.192C132.723 231.996 132.346 233.756 131.894 236.471C131.292 240.191 130.764 247.532 130.312 258.493L124.963 257.512C125.365 245.697 125.591 231.116 125.641 213.77C126.445 208.943 126.847 199.24 126.847 184.659C127.098 182.799 127.952 181.818 129.408 181.718C129.207 180.662 129.107 179.681 129.107 178.776V178.248C129.458 176.639 130.589 175.835 132.497 175.835H130.463V177.042C130.463 170.103 131.919 157.835 134.833 140.238L137.771 123.118C139.026 123.42 139.629 123.57 139.579 123.57C137.52 123.57 132.447 124.777 124.361 127.191C120.142 127.995 112.733 129.001 102.136 130.207L102.738 125.531H105.074C104.17 125.531 103.542 126.637 103.19 128.85H105.827L101.156 130.207L101.985 126.738C102.136 125.984 102.889 125.179 104.245 124.325L108.389 125.381L102.362 125.003C98.6451 124.149 95.5562 123.495 93.0951 123.043C92.6933 122.992 92.166 122.967 91.513 122.967C88.399 122.967 82.8742 123.646 74.9386 125.003L73.0551 124.626C72.2515 125.632 69.916 126.235 66.0487 126.436L54.3712 128.171L53.6932 125.381C53.8941 124.174 56.4556 122.892 61.3777 121.534L60.775 123.948L62.9598 124.551C58.0377 125.255 54.9739 125.607 53.7685 125.607H53.2411L49.7756 124.928L50.303 121.006H52.4124C52.9147 121.006 57.5857 119.624 66.4254 116.858L65.8226 119.272L67.9321 119.8L50.1523 120.78L48.6455 116.632C58.339 115.526 64.2154 114.822 66.2747 114.52L65.5213 117.311C64.8684 117.21 64.5419 116.456 64.5419 115.048V113.917C66.35 112.962 67.681 112.484 68.5348 112.484H66.9527L66.124 115.576L64.6172 115.35L65.3706 112.484C69.0371 110.222 80.7396 107.733 100.478 105.018C111.277 103.359 125.742 101.347 143.873 98.9843C144.074 97.8279 145.279 97.2497 147.489 97.2497C147.841 97.2497 148.77 97.4257 150.277 97.7776C150.277 98.1296 149.097 98.1044 146.736 97.7022C147.037 96.6464 148.092 96.1184 149.9 96.1184H150.804L153.742 98.0793C158.162 97.5262 165.52 96.9229 175.817 96.2693C178.981 95.3643 185.008 94.8363 193.898 94.6855C196.058 94.0319 197.815 93.7051 199.172 93.7051C199.674 93.7051 200.101 93.7554 200.452 93.8559ZM129.182 202.457C131.241 202.457 132.07 204.443 131.668 208.415L131.141 212.563L130.764 211.508H129.258C128.203 211.508 127.625 211.91 127.525 212.714L127.675 211.206C128.077 207.485 128.554 204.494 129.107 202.231C129.157 202.281 129.182 202.357 129.182 202.457Z" fill="black"/>
<path d="M236.69 119.423H240.984C248.769 119.423 255.725 124.4 261.853 134.355C263.36 135.562 265.143 139.333 267.202 145.668C269.312 147.277 271.195 151.5 272.852 158.338H275.037L273.229 161.279C273.229 159.922 273.832 159.243 275.037 159.243L273.229 162.184V165.352C273.229 168.67 272.978 172.642 272.476 177.268L274.811 185.036C274.811 193.03 269.462 204.066 258.764 218.144L248.443 226.742L247.388 226.365C236.74 232.197 228.905 235.113 223.882 235.113V231.041L225.841 230.739V233.907H228.026C223.556 234.912 219.161 235.415 214.842 235.415C200.779 235.415 189.403 228.074 180.714 213.393H184.029V216.108H178.679C178.679 214.449 178.554 213.041 178.303 211.885H182.07V215.505H177.775C174.762 211.231 173.255 203.262 173.255 191.597V190.692C173.255 178.475 177.223 164.045 185.159 147.402C192.391 135.889 201.658 128.498 212.958 125.23C225.213 121.358 233.124 119.423 236.69 119.423ZM202.411 198.988H197.137V196.876C196.936 195.268 196.836 194.865 196.836 195.67H200.98V197.103C200.98 197.404 201.808 198.687 203.466 200.949C203.466 202.508 205.6 204.645 209.87 207.36C211.778 207.661 213.611 207.812 215.369 207.812H215.671C225.364 207.812 234.003 204.192 241.587 196.952C245.957 192.276 248.141 185.011 248.141 175.156V171.31C248.141 170.304 248.217 169.701 248.367 169.5L248.141 168.444V162.034C246.484 157.508 244.048 154.492 240.834 152.983C237.016 151.475 233.953 150.721 231.642 150.721C227.825 150.721 221.246 153.285 211.904 158.413C209.593 159.419 208.438 161.933 208.438 165.955C204.42 183.15 202.411 194.161 202.411 198.988ZM269.538 159.243H274.811V163.617H269.538V159.243ZM182.07 210.98V207.812H177.926V210.98H182.07Z" fill="black"/>
<path d="M359.341 116.481H360.245C361.501 116.481 362.304 116.733 362.656 117.235L362.128 117.537C364.991 117.537 367.201 120.302 368.758 125.833C357.558 160.827 351.581 183.854 350.828 194.916C348.266 208.39 345.705 217.742 343.143 222.971C342.289 224.329 340.632 229.105 338.171 237.3H333.198L333.424 234.057H337.191L337.116 234.284L336.739 237.3H332.144L331.089 234.057H334.178C333.424 236.32 332.897 239.538 332.596 243.711H327.623C327.322 241.398 327.171 239.764 327.171 238.809C327.171 238.306 327.121 238.507 327.021 239.412H331.315C331.315 239.915 331.164 240.166 330.863 240.166C330.863 237.853 331.189 236.697 331.842 236.697L330.863 240.166C331.014 240.518 331.089 241.574 331.089 243.334H326.87C324.509 240.619 323.329 236.144 323.329 229.909C323.329 228.049 323.354 226.692 323.404 225.837H327.548L327.473 227.27H322.124L322.274 224.479H326.192L325.514 228.024H320.994C319.939 224.706 319.411 223.072 319.411 223.122C311.777 230.211 304.294 233.756 296.961 233.756H296.509C282.697 233.756 275.263 223.951 274.208 204.343L274.585 198.913V198.762C274.585 198.561 274.384 198.133 273.982 197.48L274.661 196.499L274.359 194.614C274.761 194.111 274.962 193.91 274.962 194.011C274.962 195.016 274.711 195.519 274.208 195.519L275.791 186.771L275.414 186.016C278.98 168.922 282.898 153.939 287.167 141.067C290.733 131.112 293.746 126.135 296.207 126.135H297.036C298.794 126.135 299.673 126.084 299.673 125.984C299.321 126.034 299.899 125.758 301.406 125.154C302.259 125.556 302.435 125.758 301.933 125.758L306.679 123.495C306.78 124.752 306.252 125.381 305.097 125.381C305.65 125.179 306.981 125.079 309.09 125.079C309.09 126.034 310.923 126.889 314.59 127.643L314.439 129.001C314.188 129.001 314.665 129.981 315.871 131.942L315.795 134.129L316.549 132.847C316.247 132.847 316.097 133.576 316.097 135.034V136.995C315.092 136.995 314.64 136.919 314.741 136.769L314.665 137.523C309.793 159.243 307.207 172.265 306.905 176.589L306.529 181.265C306.478 183.176 306.453 184.986 306.453 186.695C306.453 195.846 306.88 200.698 307.734 201.251C316.071 195.418 320.265 191.999 320.316 190.994L320.391 190.315C321.697 179.153 322.601 173.572 323.103 173.572V175.382C323.103 176.438 322.802 176.966 322.199 176.966C324.66 167.866 325.966 163.165 326.117 162.863C326.117 164.17 325.765 164.824 325.062 164.824C332.144 138.83 337.191 123.897 340.205 120.026H343.821L345.027 120.78H342.992C343.093 119.573 344.399 118.97 346.91 118.97C348.969 118.97 349.974 118.945 349.924 118.895C349.823 120.403 351.054 119.825 353.615 117.16H355.951L357.533 118.291H355.951C356.101 117.085 357.231 116.481 359.341 116.481ZM294.776 210.527L294.851 209.622H291.235C291.285 208.918 290.934 208.566 290.18 208.566C290.632 209.371 290.858 209.446 290.858 208.792V210.527H294.776ZM296.584 217.993L296.885 216.561C296.835 215.756 295.655 215.354 293.344 215.354L293.118 217.993H296.584ZM298.091 220.859V217.767C298.041 217.616 297.538 217.415 296.584 217.164L296.358 219.954L298.091 220.859Z" fill="black"/>
<path d="M379.607 100.945C381.515 101.197 383.55 101.549 385.709 102.001L390.154 102.906C390.456 102.956 390.707 102.981 390.908 102.981C391.058 102.981 391.435 102.906 392.038 102.755L393.092 103.283C393.092 103.283 393.268 103.283 393.62 103.283C394.072 103.283 395.302 103.535 397.311 104.037L397.387 103.962L403.866 104.49C438.923 111.127 466.02 121.584 485.156 135.864C486.663 139.333 487.416 142.098 487.416 144.16C487.416 144.763 487.341 145.366 487.19 145.97C485.281 153.009 479.229 157.911 469.033 160.676C465.719 164.799 454.217 169.299 434.528 174.176L461.5 208.491C470.942 218.999 477.697 233.203 481.766 251.102C481.565 252.761 480.661 253.591 479.053 253.591C476.492 253.591 470.967 243.409 462.479 223.046L487.039 272.52L479.279 266.487C475.965 261.107 474.307 258.744 474.307 259.398V262.037L469.711 261.057C467.1 259.8 453.69 247.029 429.481 222.745C420.49 211.734 410.948 198.561 400.852 183.226L403.489 183.603C397.211 206.429 389.501 226.742 380.36 244.54C378.703 247.708 375.438 255.325 370.566 267.392L365.443 266.261L367.553 258.568L371.094 259.775L370.416 261.434L368.984 266.336L366.272 265.431C362.706 264.727 360.17 259.096 358.663 248.538C358.713 243.711 360.069 239.387 362.731 235.566L365.067 231.192C365.016 229.784 365.644 229.08 366.95 229.08C368.055 229.08 367.201 233.982 364.388 243.786V229.231C366.548 229.231 360.069 250.323 344.951 292.506C353.64 256.456 357.985 237.954 357.985 236.999V238.658C360.446 238.658 361.124 239.789 360.019 242.052L355.122 232.021C363.058 210.351 367.101 199.189 367.251 198.536L367.176 198.611L370.943 199.667C368.733 206.907 365.719 215.404 361.902 225.158L358.211 232.021C356.553 233.982 355.122 234.962 353.916 234.962C352.058 234.962 351.129 234.007 351.129 232.097C351.129 228.728 355.097 217.566 363.032 198.611C365.343 190.164 367.854 178.399 370.566 163.316C372.274 157.433 373.73 153.411 374.936 151.249V151.55C374.936 152.455 374.509 152.807 373.655 152.606C378.778 142.651 382.796 132.495 385.709 122.138C380.385 120.529 373.253 115.3 364.313 106.451L379.607 100.945ZM427.371 132.319V128.85C428.878 129.101 430.36 129.453 431.816 129.906L430.912 134.129C429.305 133.576 426.744 133.249 423.228 133.149L418.029 132.621L419.536 132.47V131.716C419.536 132.319 419.511 132.897 419.461 133.45L414.488 148.835C414.639 148.835 414.714 147.729 414.714 145.517L412.982 145.215C426.492 144.109 434.528 142.877 437.09 141.52C445.528 139.509 449.772 138.252 449.822 137.749L449.596 138.503C444.122 136.19 436.111 134.079 425.563 132.168L427.371 132.319Z" fill="black"/>
<path d="M555.296 120.403H557.405L557.556 120.478L557.707 120.403H564.186C564.186 123.57 564.186 125.154 564.186 125.154C563.985 122.64 564.814 122.565 566.672 124.928V126.361C566.672 126.21 565.316 126.135 562.604 126.135V126.059C564.864 126.059 566.571 126.637 567.727 127.794C567.727 128.447 565.843 128.774 562.076 128.774C564.336 131.037 565.743 132.168 566.295 132.168C567.501 132.168 568.103 132.671 568.103 133.676C564.839 133.676 563.206 131.54 563.206 127.266C566.471 127.266 568.103 127.241 568.103 127.191C572.021 126.939 574.884 126.813 576.692 126.813C586.586 127.92 595.527 128.623 603.512 128.925C604.366 128.774 606.953 128.523 611.272 128.171V132.244L625.511 128.171H612.704C615.667 128.171 617.149 129.503 617.149 132.168C611.875 132.168 609.238 130.836 609.238 128.171C613.859 128.171 618.831 128.674 624.155 129.679L632.442 125.833V126.587L626.34 133.375C625.938 130.861 628.223 128.598 633.196 126.587V132.847L633.497 131.866C633.999 131.967 634.25 132.947 634.25 134.808V138.428H628.299V131.942H634.25V135.562C634.25 137.422 630.961 139.232 624.381 140.992V134.732C628.349 135.788 630.333 138.352 630.333 142.425H624.381V135.939L631.086 136.618V139.785C631.086 142.349 628.148 143.707 622.272 143.858V137.447H628.223V144.537C624.858 144.537 621.719 146.472 618.806 150.344C611.574 166.835 602.96 179.204 592.965 187.449C579.806 197.857 567.676 207.536 556.577 216.485C546.029 220.357 540.756 222.971 540.756 224.329C539.249 227.144 537.34 229.457 535.03 231.267H527.797L533.749 211.13V225.837H537.365C536.461 229.306 534.653 231.041 531.941 231.041H528.023L527.044 225.611H563.282C541.735 228.125 528.375 231.895 523.202 236.923H516.798V244.842L522.072 231.719C523.428 231.719 524.106 232.7 524.106 234.661V236.697H515.367V232.172C515.367 231.166 515.718 229.457 516.421 227.044C516.421 227.647 515.969 227.949 515.065 227.949C518.681 207.234 522.75 190.818 527.27 178.701C534.603 160.902 538.37 151.651 538.571 150.947C538.772 150.947 538.872 149.665 538.872 147.101V146.648C538.872 146.799 540.705 146.875 544.372 146.875L538.495 139.71C538.495 142.324 539.877 142.123 542.639 139.107C546.305 127.09 550.449 121.082 555.07 121.082C555.07 121.132 554.367 121.157 552.96 121.157C553.011 121.157 553.789 120.906 555.296 120.403ZM585.054 150.495C585.004 150.495 584.979 149.162 584.979 146.497L553.036 150.495C571.77 150.495 576.139 150.57 566.145 150.721C566.998 150.721 567.425 150.319 567.425 149.514C561.85 162.788 557.983 173.598 555.823 181.944C567.928 176.162 581.564 161.782 596.732 138.805V149.74L585.054 150.495Z" fill="black"/>
<path d="M664.536 117.612C667.801 117.663 670.94 118.417 673.954 119.875C686.41 118.769 697.133 118.115 706.123 117.914C719.985 118.467 732.09 118.744 742.436 118.744L742.964 122.967L737.916 123.269V119.95H745.826C742.713 123.219 737.966 125.506 731.588 126.813C728.172 128.02 724.757 128.9 721.342 129.453L720.588 126.436L737.012 127.266L738.067 131.565H731.437C732.291 131.464 732.718 131.012 732.718 130.207V128.397H737.163L738.142 132.093C732.316 133.852 718.253 136.115 695.953 138.88C689.624 139.031 684.426 139.107 680.357 139.107L679.001 139.559C678.097 139.257 677.419 139.107 676.967 139.107H673.2C673.351 139.006 672.924 140.087 671.92 142.349C671.819 141.847 673.627 142.978 677.344 145.743C674.23 146.799 673.326 147.327 674.632 147.327L673.728 144.612L676.063 146.196C671.794 158.866 669.659 165.478 669.659 166.031V163.994L676.515 163.466V163.391C676.716 163.341 679.052 163.316 683.522 163.316H686.008C688.017 163.316 696.48 164.195 711.397 165.955H713.506L714.636 170.329C712.627 170.329 711.623 170.329 711.623 170.329L710.794 167.086H714.486L715.013 171.008C706.826 172.667 701.628 174.151 699.418 175.458C695.35 176.061 691.809 176.69 688.795 177.343L688.042 174.402H689.021L689.85 177.57C678.298 183 669.835 185.715 664.461 185.715C662.251 197.782 658.735 208.692 653.914 218.446L653.612 216.636C657.43 216.234 661.674 216.033 666.345 216.033C684.275 216.385 694.848 216.561 698.062 216.561H704.315L705.445 220.935C703.185 220.935 701.528 220.985 700.473 221.086L699.644 217.767H703.562L704.089 219.803V220.03C704.089 221.588 703.637 222.368 702.733 222.368V219.125L705.596 219.426L706.123 223.574H703.11C702.758 223.574 701.904 223.625 700.548 223.725V220.407C703.963 220.407 708.534 220.533 714.26 220.784L714.787 224.856C710.367 225.158 708.685 225.309 709.739 225.309V221.84H714.486L714.938 225.686C709.212 227.094 700.222 228.753 687.967 230.664C687.314 231.217 679.805 232.976 665.44 235.943C661.674 237.753 649.619 239.638 629.278 241.599C627.922 241.599 627.244 241.423 627.244 241.071V241.524C626.541 243.334 625.386 244.239 623.778 244.239H621.368L621.066 242.806H624.456L624.23 244.239H620.087C618.128 241.825 617.073 240.242 616.923 239.487L616.621 238.055L615.567 237.225L615.114 235.641L614.21 237.225C613.507 237.225 612.076 236.27 609.916 234.359C609.464 234.359 608.51 233.705 607.053 232.398L606.903 231.041V230.664C606.903 229.055 608.359 227.119 611.272 224.856C612.93 222.544 614.939 221.086 617.299 220.482C620.463 209.773 623.552 197.128 626.566 182.547C632.593 166.106 638.896 150.771 645.476 136.542H648.113C644.948 135.939 643.191 134.933 642.839 133.526L642.764 133.903C641.96 133.903 641.332 133.023 640.88 131.263V130.811C640.88 129.604 641.131 128.724 641.634 128.171C641.684 128.221 641.583 127.14 641.332 124.928H640.428L642.462 126.964L642.236 125.003C645.451 121.836 650.448 120.252 657.229 120.252C658.133 118.693 660.87 117.914 665.44 117.914C665.44 118.115 664.11 118.216 661.448 118.216C661.448 117.814 662.477 117.612 664.536 117.612ZM643.668 218.597V216.862C643.668 217.817 643.793 218.119 644.044 217.767H641.483C640.579 217.767 640.127 218.22 640.127 219.125V219.2L639.976 218.597H643.668Z" fill="black"/>
<path d="M895.599 102.529C898.01 102.227 899.366 102.076 899.667 102.076C899.919 102.076 901.023 102.127 902.982 102.227C904.991 102.278 905.996 103.007 905.996 104.414C905.996 104.867 905.845 105.47 905.544 106.224C905.594 106.124 905.619 105.998 905.619 105.847C905.619 105.244 905.393 104.892 904.941 104.791C906.85 105.244 907.804 106.074 907.804 107.28C907.804 107.783 907.653 108.412 907.352 109.166C907.352 109.166 907.352 109.115 907.352 109.015C907.352 107.909 906.649 107.356 905.242 107.356C905.393 107.356 906.649 107.255 909.009 107.054C911.37 106.853 914.961 106.4 919.783 105.696C924.152 105.143 926.639 104.867 927.241 104.867H929.652V107.205C929.652 108.663 928.597 109.392 926.488 109.392C927.342 109.392 927.769 108.789 927.769 107.582C927.769 106.426 927.543 105.847 927.091 105.847C929.602 105.847 930.857 106.702 930.857 108.412C930.857 109.719 924.579 112.283 912.023 116.104C899.466 119.925 882.189 124.425 860.19 129.604C838.191 134.783 826.941 137.372 826.439 137.372H828.623C828.623 135.813 830.256 136.241 833.52 138.654C837.488 141.671 845.122 146.397 856.423 152.833C867.774 159.218 875.057 163.718 878.271 166.332C881.536 168.947 884.399 170.732 886.86 171.687C889.321 172.642 890.551 173.12 890.551 173.12C890.451 173.12 891.33 172.693 893.188 171.838C895.448 170.782 897.633 170.254 899.743 170.254C899.743 172.215 899.065 173.648 897.709 174.553C897.859 174.452 897.935 174.151 897.935 173.648C897.935 172.441 897.231 171.838 895.825 171.838C895.725 171.838 895.75 171.813 895.9 171.762C896.855 171.511 897.558 171.385 898.01 171.385C899.567 171.385 900.345 172.039 900.345 173.346V174.1C900.345 175.106 899.617 176.086 898.161 177.042C896.754 177.997 896.051 178.273 896.051 177.871C896.051 177.469 896.503 177.57 897.407 178.173C899.165 179.48 900.044 181.089 900.044 183C897.985 183 896.202 182.698 894.695 182.095C893.992 181.793 893.716 181.642 893.866 181.642H896.051C896.051 179.782 896.453 179.078 897.257 179.53C898.06 179.933 898.462 180.511 898.462 181.265V181.491C898.462 182.849 897.608 183.528 895.9 183.528C895.448 183.528 894.896 183.427 894.243 183.226C893.59 183.025 892.761 182.849 891.757 182.698H891.832C890.928 182.698 886.985 185.338 880.004 190.617C872.219 196.449 864.409 201.728 856.574 206.455C848.739 211.13 840.477 216.912 831.788 223.801C823.099 230.638 813.832 237.099 803.988 243.183C794.143 249.317 786.961 253.716 782.441 256.381C780.783 257.286 779.578 257.739 778.825 257.739C777.217 257.739 776.414 257.085 776.414 255.778C776.414 254.672 779.176 251.605 784.701 246.577C787.413 244.113 788.769 242.781 788.769 242.58C788.769 243.635 789.347 244.163 790.502 244.163C789.749 244.163 786.434 245.772 780.557 248.99C768.604 255.577 761.974 258.87 760.668 258.87C759.111 258.87 758.333 258.216 758.333 256.909C758.333 255.803 761.798 252.987 768.729 248.462C775.66 243.937 780.005 240.845 781.763 239.186C783.521 237.577 789.171 232.599 798.714 224.253C808.307 215.857 815.992 208.918 821.768 203.438C827.594 197.907 833.972 192.125 840.903 186.092C847.885 180.008 851.2 177.067 850.848 177.268C850.848 178.625 847.533 178.123 840.903 175.76C832.968 172.894 826.589 169.701 821.768 166.181C816.946 162.662 812.124 159.394 807.303 156.377C802.481 153.36 797.634 150.671 792.762 148.307C787.89 145.894 785.254 144.185 784.852 143.179C784.751 142.827 784.701 142.525 784.701 142.274C784.701 141.017 785.429 140.238 786.886 139.936C785.932 140.137 785.454 140.69 785.454 141.595C785.454 141.947 785.655 142.324 786.057 142.727C785.404 142.073 785.078 141.47 785.078 140.917C785.078 140.414 785.63 139.534 786.735 138.277C787.84 136.97 789.347 136.316 791.256 136.316C790.904 136.316 790.728 136.894 790.728 138.051C790.728 138.553 790.326 138.553 789.523 138.051C788.719 137.548 787.564 136.643 786.057 135.336C784.55 134.028 783.797 132.998 783.797 132.244C783.797 131.339 784.174 130.685 784.927 130.283C784.525 130.635 784.324 131.012 784.324 131.414C784.324 131.766 784.525 132.118 784.927 132.47C784.174 132.068 783.797 131.489 783.797 130.735C783.797 129.378 784.701 128.699 786.509 128.699C785.856 128.699 785.655 128.473 785.906 128.02C786.158 127.568 786.961 127.09 788.317 126.587C789.673 126.084 793.415 125.179 799.543 123.872C805.67 122.515 810.115 121.283 812.878 120.177C815.64 119.071 819.809 117.738 825.384 116.18C831.009 114.571 834.851 113.766 836.911 113.766H842.787C844.696 113.766 851.376 112.434 862.827 109.769C874.329 107.054 882.063 105.244 886.031 104.339C890.049 103.384 893.239 102.78 895.599 102.529ZM876.388 181.718L718.328 281.495L831.562 188.958L845.424 176.514L819.507 167.69L868.327 159.997L883.093 170.179L876.388 181.718Z" fill="black"/>
<path d="M1006.2 102.68H1008.68C1014.46 102.68 1020.26 103.333 1026.09 104.641V107.28C1025.73 106.777 1025.56 105.596 1025.56 103.736H1028.35C1030.5 103.736 1031.58 104.113 1031.58 104.867H1027.59V106.979C1027.24 106.576 1027.06 105.269 1027.06 103.057H1029.85C1030.81 103.057 1032.56 104.088 1035.13 106.149C1036.28 105.998 1037.13 105.923 1037.69 105.923C1044.32 107.481 1050.09 112.283 1055.02 120.328C1062.9 135.16 1066.84 148.76 1066.84 161.129C1066.84 166.76 1064.71 179.279 1060.44 198.687H1055.32V195.745H1059.08L1058.56 199.365H1053.51L1052.53 192.201H1055.69C1053.13 198.536 1043.71 208.189 1027.44 221.161C1015.74 230.563 1002.73 238.029 988.416 243.56C978.12 246.778 970.787 248.387 966.417 248.387C961.897 248.387 952.404 246.828 937.939 243.711C927.894 243.711 918.577 238.934 909.989 229.382C906.825 222.242 905.242 214.725 905.242 206.832C905.242 185.966 913.58 166.408 930.255 148.157C935.88 140.012 945.649 131.213 959.561 121.76C973.474 114.571 980.204 110.976 979.752 110.976C979.752 109.115 986.131 106.627 998.888 103.509C1000.6 102.956 1003.03 102.68 1006.2 102.68ZM950.37 170.933C951.827 173.346 952.555 175.936 952.555 178.701C947.532 190.516 945.021 197.631 945.021 200.044C945.021 205.072 947.281 210.326 951.802 215.806C957.577 218.169 961.57 219.351 963.78 219.351C980.104 217.491 990.098 215.228 993.765 212.563C1008.93 203.915 1016.52 198.485 1016.52 196.273C1028.62 179.078 1034.67 161.606 1034.67 143.858C1034.67 140.791 1034.02 139.056 1032.71 138.654C1021.16 130.861 1014.23 126.964 1011.92 126.964L1006.35 130.358C994.694 134.531 983.544 140.087 972.896 147.025C967.07 151.349 964.157 154.995 964.157 157.961C960.993 157.961 956.397 162.285 950.37 170.933Z" fill="black"/>
<path d="M1100.29 95.8922H1102.55C1105.17 96.4955 1107.25 97.6268 1108.81 99.286H1107.3C1107.4 98.8335 1108.33 98.6072 1110.09 98.6072H1113.25C1113.25 99.5122 1113.28 99.9647 1113.33 99.9647C1114.23 99.0597 1115.89 98.6072 1118.3 98.6072L1118.83 98.7581C1119.03 98.6575 1119.91 98.6072 1121.46 98.6072C1122.82 99.5122 1122.59 99.9647 1120.79 99.9647C1120.79 99.7636 1122.62 99.3865 1126.29 98.8335C1129 100.292 1130.98 102.554 1132.24 105.621V107.205C1132.24 115.249 1123.22 138.704 1105.19 177.57C1094.54 193.407 1089.22 202.407 1089.22 204.569C1086.46 210.251 1085.08 212.538 1085.08 211.432H1082.66C1092.76 206.455 1108.61 201.024 1130.2 195.142L1124.4 199.29H1118.37C1119.38 198.837 1121.06 198.611 1123.42 198.611V200.798C1123.42 201.955 1120.58 204.494 1114.91 208.415H1108.73L1157.93 191.522C1145.72 198.611 1139.62 201.301 1139.62 199.592H1137.28C1138.29 199.139 1140 198.913 1142.41 198.913V202.382C1139.65 203.488 1138.26 204.645 1138.26 205.851C1103.36 227.32 1080.48 239.99 1069.63 243.862C1065.61 244.817 1062.83 246.526 1061.27 248.99C1060.31 250.549 1059.08 251.454 1057.58 251.705C1054.36 251.705 1052.75 249.719 1052.75 245.747V245.823L1051.4 246.124C1047.38 244.113 1045.37 242.203 1045.37 240.393V237.979C1045.37 236.823 1047.68 234.736 1052.3 231.719C1052.3 230.261 1053.99 228.175 1057.35 225.46C1060.31 219.225 1062.95 209.949 1065.26 197.631C1065.26 192.703 1073.85 164.246 1091.03 112.258C1091.33 112.057 1093.09 107.054 1096.3 97.2497C1097.96 97.2497 1099.29 96.7972 1100.29 95.8922Z" fill="black"/>
</mask>
<g mask="url(#mask0)">
<path d="M-245.02 3.21289H1305.74V768.434H-245.02V3.21289Z" fill="url(#paint0_linear)"/>
</g>
<defs>
<linearGradient id="paint0_linear" x1="2385.03" y1="146.223" x2="2109.48" y2="1019.31" gradientUnits="userSpaceOnUse">
<stop stop-color="#02FFAD"/>
<stop offset="0.286458" stop-color="#34D1BB"/>
<stop offset="1" stop-color="#FF5FFD"/>
</linearGradient>
</defs>
</svg>
