<svg width="643" height="643" viewBox="0 0 643 643" fill="none" xmlns="http://www.w3.org/2000/svg">
<g clip-path="url(#clip0)">
<rect width="643" height="643" fill="white"/>
<path d="M-164 -50H693V763H-164V-50Z" fill="url(#paint0_linear)"/>
<path fill-rule="evenodd" clip-rule="evenodd" d="M244 488.116C244 486.947 244.941 486 246.101 486H254.15C255.311 486 256.252 486.947 256.252 488.116V538.115C256.252 539.284 257.192 540.231 258.353 540.231H305.895C307.734 540.231 308.686 542.443 307.427 543.795L301.343 550.331C300.946 550.758 300.391 551 299.81 551H256.252H246.101C244.941 551 244 550.053 244 548.884V488.116Z" fill="white"/>
<path fill-rule="evenodd" clip-rule="evenodd" d="M115.632 524.79H88.9082C88.9063 524.79 88.9048 524.789 88.9048 524.787C88.9048 524.785 88.9032 524.783 88.9013 524.783C88.7284 524.788 88.5549 524.79 88.381 524.79C77.6771 524.79 69 516.107 69 505.395C69 494.684 77.6771 486 88.381 486C88.5549 486 88.7284 486.002 88.9013 486.007C88.9032 486.007 88.9048 486.005 88.9048 486.003C88.9048 486.002 88.9063 486 88.9082 486H129.594C131.516 486 132.438 488.367 131.024 489.673L121.987 498.021C121.597 498.381 121.087 498.581 120.557 498.581H88.3682C84.6144 498.581 81.5714 501.632 81.5714 505.395C81.5714 509.159 84.6144 512.21 88.3682 512.21H117.158C117.176 512.21 117.19 512.224 117.19 512.242C117.19 512.259 117.204 512.274 117.221 512.275C127.175 513.09 135 521.433 135 531.605C135 542.316 126.323 551 115.619 551C115.101 551 114.588 550.98 114.08 550.94C114.063 550.938 114.048 550.952 114.048 550.97C114.048 550.986 114.034 551 114.018 551H73.6665C71.7058 551 70.8045 548.554 72.2943 547.276L82.0266 538.928C82.4089 538.6 82.8956 538.419 83.3988 538.419H97.4681H115.632C119.386 538.419 122.429 535.368 122.429 531.605C122.429 527.841 119.386 524.79 115.632 524.79Z" fill="white"/>
<path fill-rule="evenodd" clip-rule="evenodd" d="M167.521 486C167.518 486 167.516 486.003 167.516 486.006C167.516 486.009 167.513 486.011 167.51 486.011C161.282 486.281 156.281 491.29 156.011 497.527C156.011 497.53 156.009 497.532 156.006 497.532C156.003 497.532 156 497.535 156 497.538V538.414C156 538.417 156.002 538.419 156.005 538.419C156.009 538.419 156.011 538.422 156.011 538.425C156.004 538.597 156 538.77 156 538.944C156 545.425 161.107 550.711 167.51 550.989C167.513 550.989 167.516 550.991 167.516 550.994C167.516 550.997 167.518 551 167.521 551H211.479C211.482 551 211.484 550.997 211.484 550.994C211.484 550.991 211.487 550.989 211.49 550.989C217.893 550.711 223 545.425 223 538.944C223 538.77 222.996 538.597 222.989 538.425C222.989 538.422 222.991 538.419 222.995 538.419C222.998 538.419 223 538.417 223 538.414V497.538C223 497.535 222.997 497.532 222.994 497.532C222.991 497.532 222.989 497.53 222.989 497.527C222.719 491.29 217.718 486.281 211.49 486.011C211.487 486.011 211.484 486.009 211.484 486.006C211.484 486.003 211.482 486 211.479 486H167.521ZM175.763 497.532C175.761 497.532 175.76 497.534 175.76 497.536C175.76 497.538 175.758 497.539 175.756 497.539C171.864 497.709 168.738 500.86 168.57 504.783C168.57 504.785 168.568 504.786 168.566 504.786C168.564 504.786 168.563 504.788 168.563 504.79V530.502C168.563 530.504 168.564 530.506 168.566 530.506C168.568 530.506 168.569 530.507 168.569 530.509C168.565 530.617 168.563 530.726 168.563 530.835C168.563 534.912 171.754 538.238 175.756 538.412C175.758 538.412 175.76 538.414 175.76 538.416C175.76 538.418 175.761 538.419 175.763 538.419H203.237C203.239 538.419 203.24 538.418 203.24 538.416C203.24 538.414 203.242 538.412 203.244 538.412C207.246 538.238 210.438 534.912 210.438 530.835C210.438 530.726 210.435 530.617 210.431 530.509C210.431 530.507 210.432 530.506 210.434 530.506C210.436 530.506 210.438 530.504 210.438 530.502V504.79C210.438 504.788 210.436 504.786 210.434 504.786C210.432 504.786 210.43 504.785 210.43 504.783C210.262 500.86 207.136 497.709 203.244 497.539C203.242 497.539 203.24 497.538 203.24 497.536C203.24 497.534 203.239 497.532 203.237 497.532H175.763Z" fill="white"/>
<path fill-rule="evenodd" clip-rule="evenodd" d="M343.75 503.823V514.287C343.75 515.456 344.708 516.403 345.891 516.403H384.109C385.292 516.403 386.25 515.456 386.25 514.287V503.823C386.25 499.77 382.92 496.484 378.813 496.484H351.188C347.08 496.484 343.75 499.77 343.75 503.823ZM388.391 551C387.208 551 386.25 550.053 386.25 548.884V527.955C386.25 526.786 385.292 525.839 384.109 525.839H345.891C344.708 525.839 343.75 526.786 343.75 527.955V548.884C343.75 550.053 342.792 551 341.609 551H333.141C331.958 551 331 550.053 331 548.884V498.586C331 498.583 331.002 498.581 331.006 498.581C331.009 498.581 331.011 498.578 331.011 498.575C331.004 498.403 331 498.23 331 498.056C331 491.398 336.471 486 343.219 486C343.395 486 343.57 486.004 343.744 486.011C343.747 486.011 343.75 486.009 343.75 486.005C343.75 486.002 343.752 486 343.756 486H387.307C387.31 486 387.312 486.003 387.312 486.006C387.312 486.009 387.315 486.011 387.318 486.011C393.817 486.289 399 491.575 399 498.056C399 498.23 398.996 498.403 398.989 498.575C398.989 498.578 398.991 498.581 398.994 498.581C398.998 498.581 399 498.583 399 498.586V548.884C399 550.053 398.042 551 396.859 551H388.391Z" fill="white"/>
<path fill-rule="evenodd" clip-rule="evenodd" d="M520.563 503.823V514.287C520.563 515.456 521.507 516.403 522.672 516.403H560.328C561.493 516.403 562.438 515.456 562.438 514.287V503.823C562.438 499.77 559.157 496.484 555.109 496.484H527.891C523.843 496.484 520.563 499.77 520.563 503.823ZM564.547 551C563.382 551 562.438 550.053 562.438 548.884V527.955C562.438 526.786 561.493 525.839 560.328 525.839H522.672C521.507 525.839 520.563 526.786 520.563 527.955V548.884C520.563 550.053 519.618 551 518.453 551H510.109C508.944 551 508 550.053 508 548.884V498.586C508 498.583 508.002 498.581 508.005 498.581C508.009 498.581 508.011 498.578 508.011 498.575C508.004 498.403 508 498.23 508 498.056C508 491.398 513.39 486 520.039 486C520.213 486 520.385 486.004 520.557 486.011C520.56 486.011 520.563 486.009 520.563 486.005C520.563 486.002 520.565 486 520.568 486H563.479C563.482 486 563.484 486.003 563.484 486.006C563.484 486.009 563.487 486.011 563.49 486.011C569.893 486.289 575 491.575 575 498.056C575 498.23 574.996 498.403 574.989 498.575C574.989 498.578 574.991 498.581 574.995 498.581C574.998 498.581 575 498.583 575 498.586V548.884C575 550.053 574.056 551 572.891 551H564.547Z" fill="white"/>
<path fill-rule="evenodd" clip-rule="evenodd" d="M432.391 486.743C431.984 486.272 431.389 486 430.762 486H421.141C419.958 486 419 486.947 419 488.116V548.884C419 550.053 419.958 551 421.141 551H429.609C430.792 551 431.75 550.053 431.75 548.884V508.415C431.75 506.46 434.202 505.551 435.503 507.024L474.23 550.869C474.243 550.883 474.25 550.902 474.25 550.921C474.25 550.965 474.286 551 474.33 551H474.346H484.859C486.042 551 487 550.053 487 548.884V488.116C487 486.947 486.042 486 484.859 486H476.391C475.208 486 474.25 486.947 474.25 488.116V529.523C474.25 531.491 471.772 532.394 470.48 530.897L432.391 486.743Z" fill="white"/>
<path d="M436.21 160.604C434.092 162.75 431.22 163.955 428.225 163.955H145.315C135.316 163.955 130.25 151.761 137.241 144.519L183.646 96.4417C185.771 94.2407 188.681 93 191.72 93H475.685C485.745 93 490.784 105.321 483.67 112.527L436.21 160.604Z" fill="white"/>
<path d="M436.21 375.326C434.092 377.418 431.22 378.593 428.225 378.593H145.315C135.316 378.593 130.25 366.704 137.241 359.643L183.646 312.768C185.771 310.622 188.681 309.412 191.72 309.412H475.685C485.745 309.412 490.784 321.425 483.67 328.451L436.21 375.326Z" fill="white"/>
<path d="M436.21 204.473C434.092 202.381 431.22 201.206 428.225 201.206L145.315 201.206C135.316 201.206 130.25 213.095 137.241 220.156L183.646 267.031C185.771 269.177 188.681 270.387 191.72 270.387L475.685 270.387C485.745 270.387 490.784 258.374 483.67 251.348L436.21 204.473Z" fill="white"/>
</g>
<defs>
<linearGradient id="paint0_linear" x1="564.45" y1="-27.0607" x2="112.097" y2="718.469" gradientUnits="userSpaceOnUse">
<stop stop-color="#02FFAD"/>
<stop offset="0.286458" stop-color="#34D1BB"/>
<stop offset="1" stop-color="#FF5FFD"/>
</linearGradient>
<clipPath id="clip0">
<rect width="643" height="643" fill="white"/>
</clipPath>
</defs>
</svg>
