<svg width="643" height="643" viewBox="0 0 643 643" fill="none" xmlns="http://www.w3.org/2000/svg">
<g clip-path="url(#clip0)">
<rect width="643" height="643" fill="white"/>
<path d="M-164 -50H693V763H-164V-50Z" fill="url(#paint0_linear)"/>
<path fill-rule="evenodd" clip-rule="evenodd" d="M244 506.116C244 504.947 244.941 504 246.101 504H254.15C255.311 504 256.252 504.947 256.252 506.116V556.115C256.252 557.284 257.192 558.231 258.353 558.231H305.895C307.734 558.231 308.686 560.443 307.427 561.795L301.343 568.331C300.946 568.758 300.391 569 299.81 569H256.252H246.101C244.941 569 244 568.053 244 566.884V506.116Z" fill="#232323"/>
<path fill-rule="evenodd" clip-rule="evenodd" d="M115.632 542.79H88.9082C88.9063 542.79 88.9048 542.789 88.9048 542.787C88.9048 542.785 88.9032 542.783 88.9013 542.783C88.7284 542.788 88.5549 542.79 88.381 542.79C77.6771 542.79 69 534.107 69 523.395C69 512.684 77.6771 504 88.381 504C88.5549 504 88.7284 504.002 88.9013 504.007C88.9032 504.007 88.9048 504.005 88.9048 504.003C88.9048 504.002 88.9063 504 88.9082 504H129.594C131.516 504 132.438 506.367 131.024 507.673L121.987 516.021C121.597 516.381 121.087 516.581 120.557 516.581H88.3682C84.6144 516.581 81.5714 519.632 81.5714 523.395C81.5714 527.159 84.6144 530.21 88.3682 530.21H117.158C117.176 530.21 117.19 530.224 117.19 530.242C117.19 530.259 117.204 530.274 117.221 530.275C127.175 531.09 135 539.433 135 549.605C135 560.316 126.323 569 115.619 569C115.101 569 114.588 568.98 114.08 568.94C114.063 568.938 114.048 568.952 114.048 568.97C114.048 568.986 114.034 569 114.018 569H73.6665C71.7058 569 70.8045 566.554 72.2943 565.276L82.0266 556.928C82.4089 556.6 82.8956 556.419 83.3988 556.419H97.4681H115.632C119.386 556.419 122.429 553.368 122.429 549.605C122.429 545.841 119.386 542.79 115.632 542.79Z" fill="#232323"/>
<path fill-rule="evenodd" clip-rule="evenodd" d="M167.521 504C167.518 504 167.516 504.003 167.516 504.006C167.516 504.009 167.513 504.011 167.51 504.011C161.282 504.281 156.281 509.29 156.011 515.527C156.011 515.53 156.009 515.532 156.006 515.532C156.003 515.532 156 515.535 156 515.538V556.414C156 556.417 156.002 556.419 156.005 556.419C156.009 556.419 156.011 556.422 156.011 556.425C156.004 556.597 156 556.77 156 556.944C156 563.425 161.107 568.711 167.51 568.989C167.513 568.989 167.516 568.991 167.516 568.994C167.516 568.997 167.518 569 167.521 569H211.479C211.482 569 211.484 568.997 211.484 568.994C211.484 568.991 211.487 568.989 211.49 568.989C217.893 568.711 223 563.425 223 556.944C223 556.77 222.996 556.597 222.989 556.425C222.989 556.422 222.991 556.419 222.995 556.419C222.998 556.419 223 556.417 223 556.414V515.538C223 515.535 222.997 515.532 222.994 515.532C222.991 515.532 222.989 515.53 222.989 515.527C222.719 509.29 217.718 504.281 211.49 504.011C211.487 504.011 211.484 504.009 211.484 504.006C211.484 504.003 211.482 504 211.479 504H167.521ZM175.763 515.532C175.761 515.532 175.76 515.534 175.76 515.536C175.76 515.538 175.758 515.539 175.756 515.539C171.864 515.709 168.738 518.86 168.57 522.783C168.57 522.785 168.568 522.786 168.566 522.786C168.564 522.786 168.563 522.788 168.563 522.79V548.502C168.563 548.504 168.564 548.506 168.566 548.506C168.568 548.506 168.569 548.507 168.569 548.509C168.565 548.617 168.563 548.726 168.563 548.835C168.563 552.912 171.754 556.238 175.756 556.412C175.758 556.412 175.76 556.414 175.76 556.416C175.76 556.418 175.761 556.419 175.763 556.419H203.237C203.239 556.419 203.24 556.418 203.24 556.416C203.24 556.414 203.242 556.412 203.244 556.412C207.246 556.238 210.438 552.912 210.438 548.835C210.438 548.726 210.435 548.617 210.431 548.509C210.431 548.507 210.432 548.506 210.434 548.506C210.436 548.506 210.438 548.504 210.438 548.502V522.79C210.438 522.788 210.436 522.786 210.434 522.786C210.432 522.786 210.43 522.785 210.43 522.783C210.262 518.86 207.136 515.709 203.244 515.539C203.242 515.539 203.24 515.538 203.24 515.536C203.24 515.534 203.239 515.532 203.237 515.532H175.763Z" fill="#232323"/>
<path fill-rule="evenodd" clip-rule="evenodd" d="M343.75 521.823V532.287C343.75 533.456 344.708 534.403 345.891 534.403H384.109C385.292 534.403 386.25 533.456 386.25 532.287V521.823C386.25 517.77 382.92 514.484 378.813 514.484H351.188C347.08 514.484 343.75 517.77 343.75 521.823ZM388.391 569C387.208 569 386.25 568.053 386.25 566.884V545.955C386.25 544.786 385.292 543.839 384.109 543.839H345.891C344.708 543.839 343.75 544.786 343.75 545.955V566.884C343.75 568.053 342.792 569 341.609 569H333.141C331.958 569 331 568.053 331 566.884V516.586C331 516.583 331.002 516.581 331.006 516.581C331.009 516.581 331.011 516.578 331.011 516.575C331.004 516.403 331 516.23 331 516.056C331 509.398 336.471 504 343.219 504C343.395 504 343.57 504.004 343.744 504.011C343.747 504.011 343.75 504.009 343.75 504.005C343.75 504.002 343.752 504 343.756 504H387.307C387.31 504 387.312 504.003 387.312 504.006C387.312 504.009 387.315 504.011 387.318 504.011C393.817 504.289 399 509.575 399 516.056C399 516.23 398.996 516.403 398.989 516.575C398.989 516.578 398.991 516.581 398.994 516.581C398.998 516.581 399 516.583 399 516.586V566.884C399 568.053 398.042 569 396.859 569H388.391Z" fill="#232323"/>
<path fill-rule="evenodd" clip-rule="evenodd" d="M520.563 521.823V532.287C520.563 533.456 521.507 534.403 522.672 534.403H560.328C561.493 534.403 562.438 533.456 562.438 532.287V521.823C562.438 517.77 559.157 514.484 555.109 514.484H527.891C523.843 514.484 520.563 517.77 520.563 521.823ZM564.547 569C563.382 569 562.438 568.053 562.438 566.884V545.955C562.438 544.786 561.493 543.839 560.328 543.839H522.672C521.507 543.839 520.563 544.786 520.563 545.955V566.884C520.563 568.053 519.618 569 518.453 569H510.109C508.944 569 508 568.053 508 566.884V516.586C508 516.583 508.002 516.581 508.005 516.581C508.009 516.581 508.011 516.578 508.011 516.575C508.004 516.403 508 516.23 508 516.056C508 509.398 513.39 504 520.039 504C520.213 504 520.385 504.004 520.557 504.011C520.56 504.011 520.563 504.009 520.563 504.005C520.563 504.002 520.565 504 520.568 504H563.479C563.482 504 563.484 504.003 563.484 504.006C563.484 504.009 563.487 504.011 563.49 504.011C569.893 504.289 575 509.575 575 516.056C575 516.23 574.996 516.403 574.989 516.575C574.989 516.578 574.991 516.581 574.995 516.581C574.998 516.581 575 516.583 575 516.586V566.884C575 568.053 574.056 569 572.891 569H564.547Z" fill="#232323"/>
<path fill-rule="evenodd" clip-rule="evenodd" d="M432.391 504.743C431.984 504.272 431.389 504 430.762 504H421.141C419.958 504 419 504.947 419 506.116V566.884C419 568.053 419.958 569 421.141 569H429.609C430.792 569 431.75 568.053 431.75 566.884V526.415C431.75 524.46 434.202 523.551 435.503 525.024L474.23 568.869C474.243 568.883 474.25 568.902 474.25 568.921C474.25 568.965 474.286 569 474.33 569H474.346H484.859C486.042 569 487 568.053 487 566.884V506.116C487 504.947 486.042 504 484.859 504H476.391C475.208 504 474.25 504.947 474.25 506.116V547.523C474.25 549.491 471.772 550.394 470.48 548.897L432.391 504.743Z" fill="#232323"/>
<path d="M436.21 178.604C434.092 180.75 431.22 181.955 428.225 181.955H145.315C135.316 181.955 130.25 169.761 137.241 162.519L183.646 114.442C185.771 112.241 188.681 111 191.72 111H475.685C485.745 111 490.784 123.321 483.67 130.527L436.21 178.604Z" fill="#232323"/>
<path d="M436.21 393.326C434.092 395.418 431.22 396.593 428.225 396.593H145.315C135.316 396.593 130.25 384.704 137.241 377.643L183.646 330.768C185.771 328.622 188.681 327.412 191.72 327.412H475.685C485.745 327.412 490.784 339.425 483.67 346.451L436.21 393.326Z" fill="#232323"/>
<path d="M436.21 222.473C434.092 220.381 431.22 219.206 428.225 219.206L145.315 219.206C135.316 219.206 130.25 231.095 137.241 238.156L183.646 285.031C185.771 287.177 188.681 288.387 191.72 288.387L475.685 288.387C485.745 288.387 490.784 276.374 483.67 269.348L436.21 222.473Z" fill="#232323"/>
</g>
<defs>
<linearGradient id="paint0_linear" x1="564.45" y1="-27.0607" x2="112.097" y2="718.469" gradientUnits="userSpaceOnUse">
<stop stop-color="#02FFAD"/>
<stop offset="0.286458" stop-color="#34D1BB"/>
<stop offset="1" stop-color="#FF5FFD"/>
</linearGradient>
<clipPath id="clip0">
<rect width="643" height="643" fill="white"/>
</clipPath>
</defs>
</svg>
