<svg width="806" height="806" viewBox="0 0 806 806" fill="none" xmlns="http://www.w3.org/2000/svg">
<rect width="806" height="806" fill="url(#paint0_linear)"/>
<path d="M251.041 725.898C251.002 726.562 250.967 727.242 250.936 727.938C250.912 728.633 250.893 729.324 250.877 730.012C250.861 730.699 250.85 731.375 250.842 732.039C250.834 732.703 250.83 733.336 250.83 733.938C250.83 734.539 250.834 735.172 250.842 735.836C250.85 736.5 250.857 737.18 250.865 737.875C250.881 738.562 250.9 739.258 250.924 739.961C250.947 740.656 250.979 741.336 251.018 742H248.838C248.877 741.336 248.908 740.656 248.932 739.961C248.963 739.258 248.986 738.562 249.002 737.875C249.018 737.18 249.029 736.5 249.037 735.836C249.045 735.172 249.049 734.539 249.049 733.938H244.221C244.221 734.539 244.225 735.172 244.232 735.836C244.24 736.5 244.252 737.18 244.268 737.875C244.283 738.562 244.303 739.258 244.326 739.961C244.35 740.656 244.381 741.336 244.42 742H242.229C242.275 741.336 242.311 740.656 242.334 739.961C242.365 739.258 242.389 738.562 242.404 737.875C242.42 737.18 242.432 736.5 242.439 735.836C242.447 735.172 242.451 734.539 242.451 733.938C242.451 733.336 242.447 732.703 242.439 732.039C242.432 731.375 242.42 730.699 242.404 730.012C242.389 729.324 242.365 728.633 242.334 727.938C242.311 727.242 242.275 726.562 242.229 725.898H244.443C244.365 726.992 244.311 728.113 244.279 729.262C244.256 730.402 244.236 731.504 244.221 732.566H249.037C249.029 731.504 249.01 730.402 248.979 729.262C248.947 728.113 248.9 726.992 248.838 725.898H251.041Z" fill="white"/>
<path d="M263.182 733.961C263.182 735.406 263.053 736.656 262.795 737.711C262.537 738.758 262.178 739.625 261.717 740.312C261.264 740.992 260.729 741.496 260.111 741.824C259.494 742.152 258.83 742.316 258.119 742.316C257.4 742.316 256.732 742.152 256.115 741.824C255.498 741.496 254.959 740.992 254.498 740.312C254.045 739.625 253.686 738.758 253.42 737.711C253.162 736.656 253.033 735.406 253.033 733.961C253.033 732.523 253.162 731.281 253.42 730.234C253.686 729.18 254.045 728.309 254.498 727.621C254.959 726.934 255.498 726.426 256.115 726.098C256.732 725.77 257.4 725.605 258.119 725.605C258.83 725.605 259.494 725.77 260.111 726.098C260.729 726.426 261.264 726.934 261.717 727.621C262.178 728.309 262.537 729.18 262.795 730.234C263.053 731.281 263.182 732.523 263.182 733.961ZM261.166 733.961C261.166 732.758 261.088 731.719 260.932 730.844C260.775 729.969 260.561 729.25 260.287 728.688C260.014 728.117 259.689 727.699 259.314 727.434C258.947 727.16 258.549 727.023 258.119 727.023C257.682 727.023 257.275 727.16 256.9 727.434C256.533 727.699 256.209 728.117 255.928 728.688C255.654 729.25 255.439 729.969 255.283 730.844C255.127 731.719 255.049 732.758 255.049 733.961C255.049 735.172 255.127 736.215 255.283 737.09C255.439 737.965 255.654 738.684 255.928 739.246C256.209 739.809 256.533 740.227 256.9 740.5C257.275 740.766 257.682 740.898 258.119 740.898C258.549 740.898 258.947 740.766 259.314 740.5C259.689 740.227 260.014 739.809 260.287 739.246C260.561 738.684 260.775 737.965 260.932 737.09C261.088 736.215 261.166 735.172 261.166 733.961Z" fill="white"/>
<path d="M267.869 740.992C268.182 740.992 268.486 740.945 268.783 740.852C269.088 740.75 269.357 740.59 269.592 740.371C269.826 740.152 270.014 739.875 270.154 739.539C270.295 739.195 270.365 738.777 270.365 738.285C270.365 737.863 270.279 737.473 270.107 737.113C269.943 736.754 269.725 736.41 269.451 736.082C269.178 735.754 268.865 735.438 268.514 735.133C268.162 734.82 267.803 734.508 267.436 734.195C267.068 733.883 266.709 733.562 266.357 733.234C266.006 732.898 265.693 732.547 265.42 732.18C265.146 731.805 264.924 731.402 264.752 730.973C264.588 730.543 264.506 730.074 264.506 729.566C264.506 728.824 264.643 728.199 264.916 727.691C265.189 727.184 265.537 726.777 265.959 726.473C266.381 726.16 266.846 725.938 267.354 725.805C267.869 725.672 268.369 725.605 268.854 725.605C269.361 725.605 269.85 725.648 270.318 725.734C270.795 725.812 271.252 725.898 271.689 725.992V728.324C271.439 728.113 271.201 727.922 270.975 727.75C270.756 727.578 270.533 727.434 270.307 727.316C270.088 727.191 269.861 727.098 269.627 727.035C269.393 726.965 269.143 726.93 268.877 726.93C268.549 726.93 268.236 726.977 267.939 727.07C267.65 727.156 267.396 727.293 267.178 727.48C266.967 727.668 266.795 727.906 266.662 728.195C266.537 728.484 266.475 728.828 266.475 729.227C266.475 729.781 266.619 730.289 266.908 730.75C267.197 731.203 267.561 731.637 267.998 732.051C268.436 732.465 268.908 732.879 269.416 733.293C269.924 733.707 270.396 734.152 270.834 734.629C271.271 735.105 271.635 735.629 271.924 736.199C272.213 736.762 272.357 737.406 272.357 738.133C272.357 738.68 272.295 739.164 272.17 739.586C272.045 740 271.873 740.363 271.654 740.676C271.443 740.98 271.197 741.238 270.916 741.449C270.635 741.66 270.334 741.832 270.014 741.965C269.693 742.09 269.361 742.18 269.018 742.234C268.682 742.289 268.354 742.316 268.033 742.316C267.65 742.316 267.299 742.301 266.979 742.27C266.658 742.246 266.357 742.207 266.076 742.152C265.803 742.105 265.545 742.051 265.303 741.988C265.068 741.918 264.838 741.844 264.611 741.766V739.363C264.854 739.59 265.096 739.805 265.338 740.008C265.58 740.203 265.83 740.375 266.088 740.523C266.354 740.672 266.631 740.789 266.92 740.875C267.209 740.953 267.525 740.992 267.869 740.992Z" fill="white"/>
<path d="M273.131 725.898H281.158V727.27H278.17C278.107 728.418 278.068 729.566 278.053 730.715C278.037 731.863 278.029 732.938 278.029 733.938C278.029 734.539 278.033 735.172 278.041 735.836C278.049 736.5 278.061 737.18 278.076 737.875C278.092 738.562 278.111 739.258 278.135 739.961C278.158 740.656 278.189 741.336 278.229 742H276.037C276.084 741.336 276.119 740.656 276.143 739.961C276.174 739.258 276.197 738.562 276.213 737.875C276.229 737.18 276.24 736.5 276.248 735.836C276.256 735.172 276.26 734.539 276.26 733.938C276.26 732.938 276.248 731.863 276.225 730.715C276.209 729.566 276.174 728.418 276.119 727.27H273.131V725.898Z" fill="white"/>
<path d="M287.17 740.945C287.514 740.945 287.822 740.902 288.096 740.816C288.377 740.73 288.635 740.625 288.869 740.5C289.104 740.367 289.318 740.223 289.514 740.066C289.709 739.902 289.896 739.746 290.076 739.598V741.906C289.873 741.945 289.666 741.988 289.455 742.035C289.252 742.082 289.021 742.125 288.764 742.164C288.514 742.203 288.232 742.238 287.92 742.27C287.607 742.301 287.248 742.316 286.842 742.316C286.021 742.316 285.283 742.129 284.627 741.754C283.979 741.371 283.424 740.824 282.963 740.113C282.51 739.395 282.162 738.523 281.92 737.5C281.678 736.469 281.557 735.305 281.557 734.008C281.557 732.758 281.658 731.617 281.861 730.586C282.064 729.547 282.361 728.66 282.752 727.926C283.15 727.191 283.639 726.621 284.217 726.215C284.803 725.809 285.479 725.605 286.244 725.605C287.033 725.605 287.709 725.789 288.271 726.156C288.842 726.516 289.307 727.043 289.666 727.738C290.033 728.426 290.299 729.273 290.463 730.281C290.635 731.289 290.721 732.441 290.721 733.738V734.172H283.643C283.689 735.414 283.787 736.465 283.936 737.324C284.092 738.184 284.311 738.883 284.592 739.422C284.873 739.961 285.225 740.352 285.646 740.594C286.076 740.828 286.584 740.945 287.17 740.945ZM288.705 732.812C288.689 732.359 288.666 731.898 288.635 731.43C288.604 730.961 288.553 730.508 288.482 730.07C288.42 729.633 288.33 729.223 288.213 728.84C288.104 728.457 287.959 728.125 287.779 727.844C287.6 727.562 287.381 727.34 287.123 727.176C286.865 727.012 286.561 726.93 286.209 726.93C285.74 726.93 285.35 727.102 285.037 727.445C284.732 727.789 284.482 728.238 284.287 728.793C284.1 729.348 283.959 729.977 283.865 730.68C283.771 731.383 283.705 732.094 283.666 732.812H288.705Z" fill="white"/>
<path d="M296.264 725.898C297.1 725.898 297.865 726.027 298.561 726.285C299.256 726.543 299.85 726.984 300.342 727.609C300.842 728.227 301.229 729.051 301.502 730.082C301.783 731.113 301.924 732.398 301.924 733.938C301.924 735.484 301.783 736.777 301.502 737.816C301.229 738.848 300.842 739.676 300.342 740.301C299.842 740.918 299.244 741.355 298.549 741.613C297.854 741.871 297.084 742 296.24 742H292.596C292.643 741.336 292.678 740.656 292.701 739.961C292.732 739.258 292.756 738.562 292.771 737.875C292.787 737.18 292.799 736.5 292.807 735.836C292.814 735.172 292.818 734.539 292.818 733.938C292.818 733.336 292.814 732.703 292.807 732.039C292.799 731.375 292.787 730.699 292.771 730.012C292.756 729.324 292.732 728.633 292.701 727.938C292.678 727.242 292.643 726.562 292.596 725.898H296.264ZM294.729 727.234C294.674 728.391 294.635 729.547 294.611 730.703C294.596 731.852 294.588 732.93 294.588 733.938C294.588 734.945 294.596 736.031 294.611 737.195C294.627 738.352 294.662 739.504 294.717 740.652H296.287C296.623 740.652 296.943 740.617 297.248 740.547C297.561 740.469 297.846 740.336 298.104 740.148C298.369 739.961 298.611 739.707 298.83 739.387C299.049 739.059 299.232 738.648 299.381 738.156C299.537 737.656 299.654 737.062 299.732 736.375C299.818 735.68 299.861 734.867 299.861 733.938C299.861 733.008 299.818 732.199 299.732 731.512C299.654 730.816 299.537 730.223 299.381 729.73C299.232 729.23 299.049 728.82 298.83 728.5C298.611 728.18 298.369 727.926 298.104 727.738C297.846 727.551 297.561 727.422 297.248 727.352C296.943 727.273 296.623 727.234 296.287 727.234H294.729Z" fill="white"/>
<path d="M312.541 725.898C313.166 725.898 313.732 725.977 314.24 726.133C314.756 726.281 315.197 726.516 315.564 726.836C315.932 727.148 316.213 727.555 316.408 728.055C316.611 728.555 316.713 729.148 316.713 729.836C316.713 730.391 316.654 730.875 316.537 731.289C316.42 731.703 316.26 732.055 316.057 732.344C315.861 732.633 315.635 732.867 315.377 733.047C315.119 733.219 314.846 733.34 314.557 733.41C314.9 733.473 315.232 733.602 315.553 733.797C315.881 733.984 316.17 734.25 316.42 734.594C316.67 734.93 316.869 735.344 317.018 735.836C317.166 736.328 317.24 736.902 317.24 737.559C317.24 738.246 317.162 738.863 317.006 739.41C316.857 739.957 316.615 740.422 316.279 740.805C315.951 741.188 315.521 741.484 314.99 741.695C314.467 741.898 313.826 742 313.068 742H308.58C308.627 741.336 308.662 740.656 308.686 739.961C308.717 739.258 308.74 738.562 308.756 737.875C308.771 737.18 308.783 736.5 308.791 735.836C308.799 735.172 308.803 734.539 308.803 733.938C308.803 733.336 308.799 732.703 308.791 732.039C308.783 731.375 308.771 730.699 308.756 730.012C308.74 729.324 308.717 728.633 308.686 727.938C308.662 727.242 308.627 726.562 308.58 725.898H312.541ZM310.572 734.148C310.572 735.141 310.58 736.195 310.596 737.312C310.619 738.422 310.654 739.535 310.701 740.652H312.963C313.314 740.652 313.631 740.598 313.912 740.488C314.193 740.371 314.432 740.18 314.627 739.914C314.822 739.648 314.971 739.305 315.072 738.883C315.174 738.453 315.225 737.926 315.225 737.301C315.225 736.691 315.166 736.188 315.049 735.789C314.939 735.383 314.779 735.059 314.568 734.816C314.365 734.574 314.119 734.402 313.83 734.301C313.541 734.199 313.221 734.148 312.869 734.148H310.572ZM310.713 727.234C310.666 728.18 310.631 729.129 310.607 730.082C310.592 731.027 310.58 731.938 310.572 732.812H312.682C313.064 732.812 313.385 732.762 313.643 732.66C313.908 732.559 314.119 732.402 314.275 732.191C314.432 731.973 314.545 731.695 314.615 731.359C314.686 731.023 314.721 730.625 314.721 730.164C314.721 729.719 314.689 729.316 314.627 728.957C314.564 728.59 314.455 728.281 314.299 728.031C314.143 727.773 313.932 727.578 313.666 727.445C313.408 727.305 313.08 727.234 312.682 727.234H310.713Z" fill="white"/>
<path d="M319.584 742.316C319.232 742.316 318.92 742.297 318.646 742.258C318.373 742.227 318.201 742.203 318.131 742.188V740.523C318.17 740.539 318.232 740.559 318.318 740.582C318.412 740.605 318.518 740.629 318.635 740.652C318.76 740.676 318.893 740.699 319.033 740.723C319.174 740.738 319.311 740.746 319.443 740.746C319.896 740.746 320.252 740.605 320.51 740.324C320.775 740.035 321.014 739.594 321.225 739C321.334 738.68 321.447 738.348 321.564 738.004C321.682 737.652 321.803 737.285 321.928 736.902C321.725 736.301 321.502 735.672 321.26 735.016C321.025 734.359 320.783 733.699 320.533 733.035C320.283 732.363 320.033 731.699 319.783 731.043C319.533 730.379 319.287 729.738 319.045 729.121C318.811 728.504 318.584 727.922 318.365 727.375C318.154 726.828 317.963 726.336 317.791 725.898H319.971C320.119 726.5 320.307 727.176 320.533 727.926C320.76 728.676 320.998 729.438 321.248 730.211C321.506 730.984 321.76 731.742 322.01 732.484C322.26 733.219 322.486 733.879 322.689 734.465C322.947 733.613 323.201 732.762 323.451 731.91C323.701 731.059 323.932 730.254 324.143 729.496C324.354 728.73 324.537 728.039 324.693 727.422C324.857 726.797 324.982 726.289 325.068 725.898H327.248C326.99 726.664 326.689 727.555 326.346 728.57C326.002 729.586 325.635 730.688 325.244 731.875C324.861 733.055 324.467 734.297 324.061 735.602C323.654 736.898 323.26 738.207 322.877 739.527C322.604 740.465 322.205 741.164 321.682 741.625C321.166 742.086 320.467 742.316 319.584 742.316Z" fill="white"/>
<path d="M345.57 742C345.406 740.875 345.236 739.762 345.061 738.66C344.885 737.559 344.709 736.457 344.533 735.355H338.82C338.633 736.457 338.451 737.559 338.275 738.66C338.111 739.762 337.947 740.875 337.783 742H334.443C334.818 740.582 335.188 739.123 335.551 737.623C335.914 736.111 336.26 734.611 336.588 733.123C336.916 731.623 337.227 730.152 337.52 728.711C337.824 727.258 338.1 725.875 338.346 724.562C338.604 723.238 338.838 722.008 339.049 720.871C339.26 719.734 339.441 718.727 339.594 717.848H343.76C343.912 718.727 344.094 719.734 344.305 720.871C344.516 722.008 344.744 723.238 344.99 724.562C345.248 725.875 345.523 727.258 345.816 728.711C346.121 730.152 346.438 731.623 346.766 733.123C347.094 734.611 347.439 736.111 347.803 737.623C348.166 739.123 348.535 740.582 348.91 742H345.57ZM341.545 721.398C341.064 723.391 340.631 725.371 340.244 727.34C339.857 729.309 339.494 731.295 339.154 733.299H344.182C343.842 731.295 343.473 729.309 343.074 727.34C342.688 725.371 342.26 723.391 341.791 721.398H341.545Z" fill="white"/>
<path d="M363.992 717.848C363.922 718.844 363.863 719.863 363.816 720.906C363.781 721.949 363.752 722.986 363.729 724.018C363.705 725.049 363.688 726.062 363.676 727.059C363.664 728.055 363.658 729.004 363.658 729.906C363.658 730.809 363.664 731.758 363.676 732.754C363.688 733.75 363.705 734.77 363.729 735.812C363.752 736.844 363.781 737.887 363.816 738.941C363.852 739.984 363.898 741.004 363.957 742H360.705C360.107 740.277 359.521 738.637 358.947 737.078C358.373 735.52 357.799 734.014 357.225 732.561C356.662 731.096 356.1 729.672 355.537 728.289C354.975 726.895 354.412 725.512 353.85 724.141H353.727C353.703 725.16 353.691 726.156 353.691 727.129C353.703 728.09 353.709 729.016 353.709 729.906C353.709 730.809 353.715 731.758 353.727 732.754C353.738 733.75 353.756 734.77 353.779 735.812C353.803 736.844 353.832 737.887 353.867 738.941C353.902 739.984 353.949 741.004 354.008 742H350.791C350.861 741.004 350.914 739.984 350.949 738.941C350.996 737.887 351.031 736.844 351.055 735.812C351.078 734.77 351.096 733.75 351.107 732.754C351.119 731.758 351.125 730.809 351.125 729.906C351.125 729.004 351.119 728.055 351.107 727.059C351.096 726.062 351.078 725.049 351.055 724.018C351.031 722.986 350.996 721.949 350.949 720.906C350.914 719.863 350.861 718.844 350.791 717.848H354.078C355.262 721.293 356.422 724.545 357.559 727.604C358.695 730.662 359.832 733.562 360.969 736.305H361.092C361.104 735.789 361.109 735.25 361.109 734.688C361.109 734.125 361.104 733.568 361.092 733.018C361.092 732.455 361.086 731.91 361.074 731.383C361.074 730.855 361.074 730.363 361.074 729.906C361.074 729.004 361.068 728.055 361.057 727.059C361.045 726.062 361.027 725.049 361.004 724.018C360.98 722.986 360.945 721.949 360.898 720.906C360.863 719.863 360.811 718.844 360.74 717.848H363.992Z" fill="white"/>
<path d="M377 742C376.836 740.875 376.666 739.762 376.49 738.66C376.314 737.559 376.139 736.457 375.963 735.355H370.25C370.062 736.457 369.881 737.559 369.705 738.66C369.541 739.762 369.377 740.875 369.213 742H365.873C366.248 740.582 366.617 739.123 366.98 737.623C367.344 736.111 367.689 734.611 368.018 733.123C368.346 731.623 368.656 730.152 368.949 728.711C369.254 727.258 369.529 725.875 369.775 724.562C370.033 723.238 370.268 722.008 370.479 720.871C370.689 719.734 370.871 718.727 371.023 717.848H375.189C375.342 718.727 375.523 719.734 375.734 720.871C375.945 722.008 376.174 723.238 376.42 724.562C376.678 725.875 376.953 727.258 377.246 728.711C377.551 730.152 377.867 731.623 378.195 733.123C378.523 734.611 378.869 736.111 379.232 737.623C379.596 739.123 379.965 740.582 380.34 742H377ZM372.975 721.398C372.494 723.391 372.061 725.371 371.674 727.34C371.287 729.309 370.924 731.295 370.584 733.299H375.611C375.271 731.295 374.902 729.309 374.504 727.34C374.117 725.371 373.689 723.391 373.221 721.398H372.975Z" fill="white"/>
<path d="M379.637 717.848H391.678V719.904H387.195C387.102 721.627 387.043 723.35 387.02 725.072C386.996 726.795 386.984 728.406 386.984 729.906C386.984 730.809 386.99 731.758 387.002 732.754C387.014 733.75 387.031 734.77 387.055 735.812C387.078 736.844 387.107 737.887 387.143 738.941C387.178 739.984 387.225 741.004 387.283 742H383.996C384.066 741.004 384.119 739.984 384.154 738.941C384.201 737.887 384.236 736.844 384.26 735.812C384.283 734.77 384.301 733.75 384.312 732.754C384.324 731.758 384.33 730.809 384.33 729.906C384.33 728.406 384.312 726.795 384.277 725.072C384.254 723.35 384.201 721.627 384.119 719.904H379.637V717.848Z" fill="white"/>
<path d="M407.498 729.941C407.498 732.109 407.305 733.984 406.918 735.566C406.531 737.137 405.992 738.438 405.301 739.469C404.621 740.488 403.818 741.244 402.893 741.736C401.967 742.229 400.971 742.475 399.904 742.475C398.826 742.475 397.824 742.229 396.898 741.736C395.973 741.244 395.164 740.488 394.473 739.469C393.793 738.438 393.254 737.137 392.855 735.566C392.469 733.984 392.275 732.109 392.275 729.941C392.275 727.785 392.469 725.922 392.855 724.352C393.254 722.77 393.793 721.463 394.473 720.432C395.164 719.4 395.973 718.639 396.898 718.146C397.824 717.654 398.826 717.408 399.904 717.408C400.971 717.408 401.967 717.654 402.893 718.146C403.818 718.639 404.621 719.4 405.301 720.432C405.992 721.463 406.531 722.77 406.918 724.352C407.305 725.922 407.498 727.785 407.498 729.941ZM404.475 729.941C404.475 728.137 404.357 726.578 404.123 725.266C403.889 723.953 403.566 722.875 403.156 722.031C402.746 721.176 402.26 720.549 401.697 720.15C401.146 719.74 400.549 719.535 399.904 719.535C399.248 719.535 398.639 719.74 398.076 720.15C397.525 720.549 397.039 721.176 396.617 722.031C396.207 722.875 395.885 723.953 395.65 725.266C395.416 726.578 395.299 728.137 395.299 729.941C395.299 731.758 395.416 733.322 395.65 734.635C395.885 735.947 396.207 737.025 396.617 737.869C397.039 738.713 397.525 739.34 398.076 739.75C398.639 740.148 399.248 740.348 399.904 740.348C400.549 740.348 401.146 740.148 401.697 739.75C402.26 739.34 402.746 738.713 403.156 737.869C403.566 737.025 403.889 735.947 404.123 734.635C404.357 733.322 404.475 731.758 404.475 729.941Z" fill="white"/>
<path d="M413.773 717.848C413.703 718.844 413.645 719.863 413.598 720.906C413.562 721.949 413.533 722.986 413.51 724.018C413.486 725.049 413.469 726.062 413.457 727.059C413.445 728.055 413.439 729.004 413.439 729.906C413.439 731.418 413.451 733.041 413.475 734.775C413.498 736.498 413.551 738.221 413.633 739.943H420.752V742H410.451C410.521 741.004 410.574 739.984 410.609 738.941C410.656 737.887 410.691 736.844 410.715 735.812C410.738 734.77 410.756 733.75 410.768 732.754C410.779 731.758 410.785 730.809 410.785 729.906C410.785 729.004 410.779 728.055 410.768 727.059C410.756 726.062 410.738 725.049 410.715 724.018C410.691 722.986 410.656 721.949 410.609 720.906C410.574 719.863 410.521 718.844 410.451 717.848H413.773Z" fill="white"/>
<path d="M432.072 717.848C431.662 718.891 431.246 719.951 430.824 721.029C430.414 722.096 429.992 723.209 429.559 724.369C429.125 725.518 428.686 726.719 428.24 727.973C427.807 729.215 427.355 730.521 426.887 731.893C426.898 733.627 426.928 735.326 426.975 736.99C427.021 738.643 427.092 740.312 427.186 742H423.898C424.004 740.312 424.08 738.643 424.127 736.99C424.186 735.326 424.221 733.627 424.232 731.893C423.764 730.521 423.307 729.215 422.861 727.973C422.416 726.719 421.971 725.518 421.525 724.369C421.092 723.209 420.664 722.096 420.242 721.029C419.82 719.951 419.404 718.891 418.994 717.848H422.264C422.768 719.875 423.283 721.779 423.811 723.561C424.35 725.342 424.906 727.047 425.48 728.676H425.551C426.125 727.047 426.682 725.342 427.221 723.561C427.76 721.779 428.287 719.875 428.803 717.848H432.072Z" fill="white"/>
<path d="M452.182 717.848C451.771 718.891 451.355 719.951 450.934 721.029C450.523 722.096 450.102 723.209 449.668 724.369C449.234 725.518 448.795 726.719 448.35 727.973C447.916 729.215 447.465 730.521 446.996 731.893C447.008 733.627 447.037 735.326 447.084 736.99C447.131 738.643 447.201 740.312 447.295 742H444.008C444.113 740.312 444.189 738.643 444.236 736.99C444.295 735.326 444.33 733.627 444.342 731.893C443.873 730.521 443.416 729.215 442.971 727.973C442.525 726.719 442.08 725.518 441.635 724.369C441.201 723.209 440.773 722.096 440.352 721.029C439.93 719.951 439.514 718.891 439.104 717.848H442.373C442.877 719.875 443.393 721.779 443.92 723.561C444.459 725.342 445.016 727.047 445.59 728.676H445.66C446.234 727.047 446.791 725.342 447.33 723.561C447.869 721.779 448.396 719.875 448.912 717.848H452.182Z" fill="white"/>
<path d="M462.359 742C462.195 740.875 462.025 739.762 461.85 738.66C461.674 737.559 461.498 736.457 461.322 735.355H455.609C455.422 736.457 455.24 737.559 455.064 738.66C454.9 739.762 454.736 740.875 454.572 742H451.232C451.607 740.582 451.977 739.123 452.34 737.623C452.703 736.111 453.049 734.611 453.377 733.123C453.705 731.623 454.016 730.152 454.309 728.711C454.613 727.258 454.889 725.875 455.135 724.562C455.393 723.238 455.627 722.008 455.838 720.871C456.049 719.734 456.23 718.727 456.383 717.848H460.549C460.701 718.727 460.883 719.734 461.094 720.871C461.305 722.008 461.533 723.238 461.779 724.562C462.037 725.875 462.312 727.258 462.605 728.711C462.91 730.152 463.227 731.623 463.555 733.123C463.883 734.611 464.229 736.111 464.592 737.623C464.955 739.123 465.324 740.582 465.699 742H462.359ZM458.334 721.398C457.854 723.391 457.42 725.371 457.033 727.34C456.646 729.309 456.283 731.295 455.943 733.299H460.971C460.631 731.295 460.262 729.309 459.863 727.34C459.477 725.371 459.049 723.391 458.58 721.398H458.334Z" fill="white"/>
<path d="M470.902 717.848C470.797 719.477 470.721 721.141 470.674 722.84C470.627 724.539 470.592 726.18 470.568 727.762C470.99 727.141 471.43 726.455 471.887 725.705C472.344 724.955 472.812 724.158 473.293 723.314C473.785 722.471 474.277 721.592 474.77 720.678C475.262 719.752 475.748 718.809 476.229 717.848H479.885C479.369 718.551 478.812 719.33 478.215 720.186C477.617 721.041 477.014 721.92 476.404 722.822C475.795 723.725 475.191 724.633 474.594 725.547C473.996 726.461 473.434 727.322 472.906 728.131C473.398 729.279 473.926 730.439 474.488 731.611C475.051 732.771 475.654 733.932 476.299 735.092C476.955 736.252 477.658 737.412 478.408 738.572C479.158 739.721 479.967 740.863 480.834 742H477.125C476.832 741.555 476.516 741.039 476.176 740.453C475.836 739.855 475.484 739.223 475.121 738.555C474.77 737.875 474.412 737.172 474.049 736.445C473.686 735.719 473.328 735.004 472.977 734.301C472.637 733.586 472.314 732.9 472.01 732.244C471.705 731.576 471.43 730.967 471.184 730.416L470.568 731.453C470.568 732.262 470.574 733.111 470.586 734.002C470.609 734.881 470.633 735.777 470.656 736.691C470.68 737.605 470.709 738.514 470.744 739.416C470.779 740.318 470.82 741.18 470.867 742H467.58C467.65 741.004 467.703 739.984 467.738 738.941C467.785 737.887 467.82 736.844 467.844 735.812C467.867 734.77 467.885 733.75 467.896 732.754C467.908 731.758 467.914 730.809 467.914 729.906C467.914 729.004 467.908 728.055 467.896 727.059C467.885 726.062 467.867 725.049 467.844 724.018C467.82 722.986 467.785 721.949 467.738 720.906C467.703 719.863 467.65 718.844 467.58 717.848H470.902Z" fill="white"/>
<path d="M495.846 729.941C495.846 732.109 495.652 733.984 495.266 735.566C494.879 737.137 494.34 738.438 493.648 739.469C492.969 740.488 492.166 741.244 491.24 741.736C490.314 742.229 489.318 742.475 488.252 742.475C487.174 742.475 486.172 742.229 485.246 741.736C484.32 741.244 483.512 740.488 482.82 739.469C482.141 738.438 481.602 737.137 481.203 735.566C480.816 733.984 480.623 732.109 480.623 729.941C480.623 727.785 480.816 725.922 481.203 724.352C481.602 722.77 482.141 721.463 482.82 720.432C483.512 719.4 484.32 718.639 485.246 718.146C486.172 717.654 487.174 717.408 488.252 717.408C489.318 717.408 490.314 717.654 491.24 718.146C492.166 718.639 492.969 719.4 493.648 720.432C494.34 721.463 494.879 722.77 495.266 724.352C495.652 725.922 495.846 727.785 495.846 729.941ZM492.822 729.941C492.822 728.137 492.705 726.578 492.471 725.266C492.236 723.953 491.914 722.875 491.504 722.031C491.094 721.176 490.607 720.549 490.045 720.15C489.494 719.74 488.896 719.535 488.252 719.535C487.596 719.535 486.986 719.74 486.424 720.15C485.873 720.549 485.387 721.176 484.965 722.031C484.555 722.875 484.232 723.953 483.998 725.266C483.764 726.578 483.646 728.137 483.646 729.941C483.646 731.758 483.764 733.322 483.998 734.635C484.232 735.947 484.555 737.025 484.965 737.869C485.387 738.713 485.873 739.34 486.424 739.75C486.986 740.148 487.596 740.348 488.252 740.348C488.896 740.348 489.494 740.148 490.045 739.75C490.607 739.34 491.094 738.713 491.504 737.869C491.914 737.025 492.236 735.947 492.471 734.635C492.705 733.322 492.822 731.758 492.822 729.941Z" fill="white"/>
<path d="M504.318 738.449C505.127 735.039 505.824 731.635 506.41 728.236C507.008 724.826 507.57 721.363 508.098 717.848H511.438C511.062 719.277 510.693 720.742 510.33 722.242C509.967 723.742 509.621 725.242 509.293 726.742C508.965 728.23 508.648 729.701 508.344 731.154C508.051 732.596 507.775 733.979 507.518 735.303C507.271 736.615 507.043 737.84 506.832 738.977C506.621 740.113 506.439 741.121 506.287 742H502.121C501.969 741.121 501.787 740.113 501.576 738.977C501.365 737.84 501.131 736.615 500.873 735.303C500.627 733.979 500.352 732.596 500.047 731.154C499.754 729.701 499.443 728.23 499.115 726.742C498.787 725.242 498.441 723.742 498.078 722.242C497.715 720.742 497.346 719.277 496.971 717.848H500.311C500.838 721.363 501.395 724.826 501.98 728.236C502.566 731.635 503.264 735.039 504.072 738.449H504.318Z" fill="white"/>
<path d="M523.514 717.848V719.904H516.518C516.447 721.252 516.395 722.6 516.359 723.947C516.336 725.283 516.318 726.584 516.307 727.85H523.004V729.906H516.307C516.307 731.418 516.318 733.041 516.342 734.775C516.365 736.498 516.418 738.221 516.5 739.943H523.619V742H513.318C513.389 741.004 513.441 739.984 513.477 738.941C513.523 737.887 513.559 736.844 513.582 735.812C513.605 734.77 513.623 733.75 513.635 732.754C513.646 731.758 513.652 730.809 513.652 729.906C513.652 729.004 513.646 728.055 513.635 727.059C513.623 726.062 513.605 725.049 513.582 724.018C513.559 722.986 513.523 721.949 513.477 720.906C513.441 719.863 513.389 718.844 513.318 717.848H523.514Z" fill="white"/>
<path d="M539.949 717.848C539.879 718.844 539.82 719.863 539.773 720.906C539.738 721.949 539.709 722.986 539.686 724.018C539.662 725.049 539.645 726.062 539.633 727.059C539.621 728.055 539.615 729.004 539.615 729.906C539.615 730.809 539.621 731.758 539.633 732.754C539.645 733.75 539.662 734.77 539.686 735.812C539.709 736.844 539.738 737.887 539.773 738.941C539.809 739.984 539.855 741.004 539.914 742H536.662C536.064 740.277 535.479 738.637 534.904 737.078C534.33 735.52 533.756 734.014 533.182 732.561C532.619 731.096 532.057 729.672 531.494 728.289C530.932 726.895 530.369 725.512 529.807 724.141H529.684C529.66 725.16 529.648 726.156 529.648 727.129C529.66 728.09 529.666 729.016 529.666 729.906C529.666 730.809 529.672 731.758 529.684 732.754C529.695 733.75 529.713 734.77 529.736 735.812C529.76 736.844 529.789 737.887 529.824 738.941C529.859 739.984 529.906 741.004 529.965 742H526.748C526.818 741.004 526.871 739.984 526.906 738.941C526.953 737.887 526.988 736.844 527.012 735.812C527.035 734.77 527.053 733.75 527.064 732.754C527.076 731.758 527.082 730.809 527.082 729.906C527.082 729.004 527.076 728.055 527.064 727.059C527.053 726.062 527.035 725.049 527.012 724.018C526.988 722.986 526.953 721.949 526.906 720.906C526.871 719.863 526.818 718.844 526.748 717.848H530.035C531.219 721.293 532.379 724.545 533.516 727.604C534.652 730.662 535.789 733.562 536.926 736.305H537.049C537.061 735.789 537.066 735.25 537.066 734.688C537.066 734.125 537.061 733.568 537.049 733.018C537.049 732.455 537.043 731.91 537.031 731.383C537.031 730.855 537.031 730.363 537.031 729.906C537.031 729.004 537.025 728.055 537.014 727.059C537.002 726.062 536.984 725.049 536.961 724.018C536.938 722.986 536.902 721.949 536.855 720.906C536.82 719.863 536.768 718.844 536.697 717.848H539.949Z" fill="white"/>
<path d="M546.805 717.848C546.699 719.477 546.623 721.141 546.576 722.84C546.529 724.539 546.494 726.18 546.471 727.762C546.893 727.141 547.332 726.455 547.789 725.705C548.246 724.955 548.715 724.158 549.195 723.314C549.688 722.471 550.18 721.592 550.672 720.678C551.164 719.752 551.65 718.809 552.131 717.848H555.787C555.271 718.551 554.715 719.33 554.117 720.186C553.52 721.041 552.916 721.92 552.307 722.822C551.697 723.725 551.094 724.633 550.496 725.547C549.898 726.461 549.336 727.322 548.809 728.131C549.301 729.279 549.828 730.439 550.391 731.611C550.953 732.771 551.557 733.932 552.201 735.092C552.857 736.252 553.561 737.412 554.311 738.572C555.061 739.721 555.869 740.863 556.736 742H553.027C552.734 741.555 552.418 741.039 552.078 740.453C551.738 739.855 551.387 739.223 551.023 738.555C550.672 737.875 550.314 737.172 549.951 736.445C549.588 735.719 549.23 735.004 548.879 734.301C548.539 733.586 548.217 732.9 547.912 732.244C547.607 731.576 547.332 730.967 547.086 730.416L546.471 731.453C546.471 732.262 546.477 733.111 546.488 734.002C546.512 734.881 546.535 735.777 546.559 736.691C546.582 737.605 546.611 738.514 546.646 739.416C546.682 740.318 546.723 741.18 546.77 742H543.482C543.553 741.004 543.605 739.984 543.641 738.941C543.688 737.887 543.723 736.844 543.746 735.812C543.77 734.77 543.787 733.75 543.799 732.754C543.811 731.758 543.816 730.809 543.816 729.906C543.816 729.004 543.811 728.055 543.799 727.059C543.787 726.062 543.77 725.049 543.746 724.018C543.723 722.986 543.688 721.949 543.641 720.906C543.605 719.863 543.553 718.844 543.482 717.848H546.805Z" fill="white"/>
<path d="M571.748 729.941C571.748 732.109 571.555 733.984 571.168 735.566C570.781 737.137 570.242 738.438 569.551 739.469C568.871 740.488 568.068 741.244 567.143 741.736C566.217 742.229 565.221 742.475 564.154 742.475C563.076 742.475 562.074 742.229 561.148 741.736C560.223 741.244 559.414 740.488 558.723 739.469C558.043 738.438 557.504 737.137 557.105 735.566C556.719 733.984 556.525 732.109 556.525 729.941C556.525 727.785 556.719 725.922 557.105 724.352C557.504 722.77 558.043 721.463 558.723 720.432C559.414 719.4 560.223 718.639 561.148 718.146C562.074 717.654 563.076 717.408 564.154 717.408C565.221 717.408 566.217 717.654 567.143 718.146C568.068 718.639 568.871 719.4 569.551 720.432C570.242 721.463 570.781 722.77 571.168 724.352C571.555 725.922 571.748 727.785 571.748 729.941ZM568.725 729.941C568.725 728.137 568.607 726.578 568.373 725.266C568.139 723.953 567.816 722.875 567.406 722.031C566.996 721.176 566.51 720.549 565.947 720.15C565.396 719.74 564.799 719.535 564.154 719.535C563.498 719.535 562.889 719.74 562.326 720.15C561.775 720.549 561.289 721.176 560.867 722.031C560.457 722.875 560.135 723.953 559.9 725.266C559.666 726.578 559.549 728.137 559.549 729.941C559.549 731.758 559.666 733.322 559.9 734.635C560.135 735.947 560.457 737.025 560.867 737.869C561.289 738.713 561.775 739.34 562.326 739.75C562.889 740.148 563.498 740.348 564.154 740.348C564.799 740.348 565.396 740.148 565.947 739.75C566.51 739.34 566.996 738.713 567.406 737.869C567.816 737.025 568.139 735.947 568.373 734.635C568.607 733.322 568.725 731.758 568.725 729.941Z" fill="white"/>
<path d="M140.176 280.12C140.176 284.92 138.626 288.64 135.526 291.28C132.425 293.84 128.338 295.72 123.265 296.92C118.191 298.12 112.413 298.84 105.93 299.08C100.409 299.216 94.7849 299.295 89.0589 299.315C87.4021 299.321 86.0588 300.663 86.0588 302.32V396.16C86.0588 397.817 84.7157 399.16 83.0588 399.16H62C60.3431 399.16 59 397.817 59 396.16V194.8C59 193.143 60.3431 191.8 62 191.8H86.0588C99.5882 191.8 110.017 192.44 117.346 193.72C124.674 195 130.029 196.6 133.412 198.52C136.794 200.44 138.767 202.52 139.331 204.76C139.895 207 140.176 209.08 140.176 211V280.12ZM113.118 211C113.118 209.08 112.624 207.6 111.638 206.56C110.792 205.52 109.312 204.76 107.199 204.28C105.085 203.8 102.266 203.52 98.7426 203.44C96.0506 203.376 92.8228 203.338 89.0594 203.325C87.4026 203.319 86.0588 204.663 86.0588 206.32V284.8C86.0588 286.457 87.402 287.801 89.0588 287.789C91.4055 287.773 93.7174 287.736 95.9945 287.68C99.2359 287.6 102.125 287.32 104.662 286.84C107.199 286.36 109.242 285.6 110.792 284.56C112.343 283.52 113.118 282.04 113.118 280.12V211Z" fill="white"/>
<path d="M241.647 379.96C241.647 380.92 241.436 382.68 241.013 385.24C240.59 387.72 239.11 390.28 236.574 392.92C234.037 395.56 230.02 397.88 224.524 399.88C219.028 401.96 211.206 403 201.059 403C190.912 403 183.09 401.96 177.594 399.88C172.097 397.88 168.081 395.56 165.544 392.92C163.007 390.28 161.528 387.72 161.105 385.24C160.682 382.68 160.471 380.92 160.471 379.96V211C160.471 210.36 160.541 209.4 160.682 208.12C160.823 206.84 161.246 205.44 161.95 203.92C162.655 202.32 163.853 200.72 165.544 199.12C167.235 197.44 169.561 195.92 172.52 194.56C175.48 193.2 179.285 192.12 183.936 191.32C188.586 190.44 194.294 190 201.059 190C207.824 190 213.531 190.44 218.182 191.32C222.833 192.12 226.638 193.2 229.597 194.56C232.557 195.92 234.882 197.44 236.574 199.12C238.265 200.72 239.463 202.32 240.167 203.92C240.872 205.44 241.295 206.84 241.436 208.12C241.577 209.4 241.647 210.36 241.647 211V379.96ZM187.529 379.96C187.529 380.92 187.6 382.08 187.741 383.44C187.882 384.72 188.375 385.96 189.221 387.16C190.066 388.36 191.405 389.4 193.237 390.28C195.069 391.08 197.676 391.48 201.059 391.48C204.441 391.48 207.048 391.08 208.881 390.28C210.713 389.4 212.051 388.36 212.897 387.16C213.743 385.96 214.236 384.72 214.377 383.44C214.518 382.08 214.588 380.92 214.588 379.96V211C214.588 210.04 214.518 209 214.377 207.88C214.236 206.76 213.743 205.76 212.897 204.88C212.051 203.92 210.713 203.12 208.881 202.48C207.048 201.84 204.441 201.52 201.059 201.52C197.676 201.52 195.069 201.84 193.237 202.48C191.405 203.12 190.066 203.92 189.221 204.88C188.375 205.76 187.882 206.76 187.741 207.88C187.6 209 187.529 210.04 187.529 211V379.96Z" fill="white"/>
<path d="M322.824 211C322.824 209.08 322.33 207.6 321.344 206.56C320.498 205.52 319.018 204.76 316.904 204.28C314.79 203.8 311.972 203.52 308.449 203.44C305.756 203.376 302.529 203.338 298.765 203.325C297.108 203.319 295.765 204.663 295.765 206.32V384.64C295.765 386.297 297.108 387.641 298.765 387.635C302.529 387.622 305.756 387.584 308.449 387.52C311.972 387.44 314.79 387.16 316.904 386.68C319.018 386.2 320.498 385.44 321.344 384.4C322.33 383.36 322.824 381.88 322.824 379.96V211ZM349.882 379.96C349.882 384.76 348.332 388.48 345.232 391.12C342.131 393.68 338.044 395.56 332.971 396.76C327.897 397.96 322.119 398.68 315.636 398.92C309.153 399.08 302.529 399.16 295.765 399.16H271.706C270.049 399.16 268.706 397.817 268.706 396.16V194.8C268.706 193.143 270.049 191.8 271.706 191.8H295.765C302.529 191.8 309.153 191.92 315.636 192.16C322.119 192.32 327.897 193 332.971 194.2C338.044 195.4 342.131 197.32 345.232 199.96C348.332 202.52 349.882 206.2 349.882 211V379.96Z" fill="white"/>
<path d="M458.118 273.28C458.118 274.937 456.775 276.28 455.118 276.28H434.059C432.402 276.28 431.059 274.937 431.059 273.28V211C431.059 209.08 430.636 207.52 429.79 206.32C429.086 205.04 428.099 204.08 426.831 203.44C425.562 202.72 424.083 202.24 422.392 202C420.841 201.68 419.221 201.52 417.529 201.52C415.838 201.52 414.147 201.68 412.456 202C410.906 202.24 409.496 202.72 408.228 203.44C406.96 204.08 405.903 205.04 405.057 206.32C404.352 207.52 404 209.08 404 211V379.96C404 380.92 404.07 382.08 404.211 383.44C404.352 384.72 404.846 385.96 405.691 387.16C406.537 388.36 407.876 389.4 409.708 390.28C411.54 391.08 414.147 391.48 417.529 391.48C420.912 391.48 423.519 391.08 425.351 390.28C427.183 389.4 428.522 388.36 429.368 387.16C430.213 385.96 430.707 384.72 430.847 383.44C430.988 382.08 431.059 380.92 431.059 379.96V302.32C431.059 300.663 432.402 299.32 434.059 299.32H455.118C456.775 299.32 458.118 300.663 458.118 302.32V379.96C458.118 380.92 457.906 382.68 457.483 385.24C457.061 387.72 455.581 390.28 453.044 392.92C450.507 395.56 446.491 397.88 440.994 399.88C435.498 401.96 427.676 403 417.529 403C407.382 403 399.561 401.96 394.064 399.88C388.568 397.88 384.551 395.56 382.015 392.92C379.478 390.28 377.998 387.72 377.575 385.24C377.153 382.68 376.941 380.92 376.941 379.96V211C376.941 207.32 378.139 204.16 380.535 201.52C382.931 198.8 386.031 196.6 389.836 194.92C393.782 193.24 398.151 192 402.943 191.2C407.735 190.4 412.597 190 417.529 190C422.744 190 427.747 190.44 432.539 191.32C437.471 192.2 441.84 193.52 445.645 195.28C449.45 197.04 452.48 199.24 454.735 201.88C456.99 204.52 458.118 207.56 458.118 211V273.28Z" fill="white"/>
<path d="M559.266 395.868C559.439 397.632 558.053 399.16 556.28 399.16H535.333C533.755 399.16 532.447 397.937 532.34 396.363L529.337 352.037C529.23 350.463 527.922 349.24 526.343 349.24H511.856C510.283 349.24 508.977 350.455 508.864 352.025L505.671 396.375C505.558 397.945 504.252 399.16 502.679 399.16H481.72C479.947 399.16 478.561 397.632 478.734 395.868L498.441 194.508C498.591 192.971 499.883 191.8 501.427 191.8H536.573C538.117 191.8 539.409 192.971 539.559 194.508L559.266 395.868ZM525.765 291.64L521.992 240.241C521.72 236.534 516.28 236.534 516.008 240.241L512.235 291.64L509.285 334.514C509.166 336.248 510.54 337.72 512.278 337.72H525.919C527.662 337.72 529.038 336.239 528.911 334.5L525.765 291.64Z" fill="white"/>
<path d="M627.235 348.64C627.235 340.16 626.46 332.88 624.91 326.8C623.36 320.72 621.316 315.44 618.779 310.96C616.243 306.4 613.354 302.44 610.112 299.08C606.871 295.72 603.559 292.56 600.176 289.6C596.794 286.64 593.482 283.68 590.241 280.72C586.999 277.76 584.11 274.4 581.574 270.64C579.037 266.88 576.993 262.56 575.443 257.68C573.893 252.72 573.118 246.8 573.118 239.92V211C573.118 209.08 573.611 206.92 574.597 204.52C575.725 202.04 577.768 199.76 580.728 197.68C583.688 195.52 587.775 193.72 592.989 192.28C598.344 190.76 605.25 190 613.706 190C622.162 190 628.997 190.76 634.211 192.28C639.567 193.72 643.724 195.52 646.684 197.68C649.643 199.76 651.616 202.04 652.603 204.52C653.73 206.92 654.294 209.08 654.294 211V261.76C654.294 263.417 652.951 264.76 651.294 264.76H630.235C628.578 264.76 627.235 263.417 627.235 261.76V211C627.235 209.08 626.812 207.52 625.967 206.32C625.262 205.04 624.276 204.08 623.007 203.44C621.739 202.72 620.259 202.24 618.568 202C617.018 201.68 615.397 201.52 613.706 201.52C612.015 201.52 610.324 201.68 608.632 202C607.082 202.24 605.673 202.72 604.404 203.44C603.136 204.08 602.079 205.04 601.233 206.32C600.529 207.52 600.176 209.08 600.176 211V234.4C600.176 243.44 601.515 251 604.193 257.08C606.871 263.16 610.183 268.48 614.129 273.04C618.216 277.52 622.585 281.6 627.235 285.28C631.886 288.96 636.184 292.96 640.13 297.28C644.218 301.52 647.6 306.48 650.278 312.16C652.955 317.76 654.294 324.76 654.294 333.16V379.96C654.294 380.92 654.083 382.68 653.66 385.24C653.237 387.72 651.757 390.28 649.221 392.92C646.684 395.56 642.667 397.88 637.171 399.88C631.675 401.96 623.853 403 613.706 403C603.559 403 595.737 401.96 590.241 399.88C584.745 397.88 580.728 395.56 578.191 392.92C575.654 390.28 574.175 387.72 573.752 385.24C573.329 382.68 573.118 380.92 573.118 379.96V313.84C573.118 312.183 574.461 310.84 576.118 310.84H597.176C598.833 310.84 600.176 312.183 600.176 313.84V379.96C600.176 380.92 600.247 382.08 600.388 383.44C600.529 384.72 601.022 385.96 601.868 387.16C602.713 388.36 604.052 389.4 605.884 390.28C607.716 391.08 610.324 391.48 613.706 391.48C617.088 391.48 619.695 391.08 621.528 390.28C623.36 389.4 624.699 388.36 625.544 387.16C626.39 385.96 626.883 384.72 627.024 383.44C627.165 382.08 627.235 380.92 627.235 379.96V348.64Z" fill="white"/>
<path d="M746 191.8C747.657 191.8 749 193.143 749 194.8V200.32C749 201.977 747.657 203.32 746 203.32H724.941C723.284 203.32 721.941 204.663 721.941 206.32V396.16C721.941 397.817 720.598 399.16 718.941 399.16H697.882C696.226 399.16 694.882 397.817 694.882 396.16V206.32C694.882 204.663 693.539 203.32 691.882 203.32H670.824C669.167 203.32 667.824 201.977 667.824 200.32V194.8C667.824 193.143 669.167 191.8 670.824 191.8H746Z" fill="white"/>
<path d="M155.179 536H155.701C155.701 538.379 155.527 539.569 155.179 539.569C155.353 539.798 155.527 540.414 155.701 541.418C155.527 543.166 155.44 544.141 155.44 544.341L163.256 599.722C163.604 599.722 164.545 596.382 166.079 589.703L176.761 560.852H177.022V561.067C177.022 561.325 176.848 562.157 176.501 563.561V563.991H176.761C176.761 563.676 177.022 562.701 177.543 561.067H178.064V561.712C178.064 561.856 177.977 561.927 177.804 561.927C177.977 562.099 178.064 562.586 178.064 563.389H178.325L179.627 559.175H180.148V559.605H180.409C180.67 558.631 184.23 551.594 191.091 538.494H191.352V538.709C191.352 538.995 191.091 539.698 190.57 540.816V541.031H190.831C190.831 540.859 191.091 540.228 191.612 539.139H192.133V540.171L184.838 568.592C181.538 587.396 178.759 601.398 176.501 610.6L170.769 627.283C171.464 630.292 171.811 632.184 171.811 632.958H171.29C171.29 632.844 171.203 632.414 171.029 631.668H170.769V631.883L171.029 633.13V633.56C170.74 633.532 169.871 632.557 168.424 630.636C168.424 631.066 167.99 631.281 167.121 631.281L167.382 631.668V632.098H166.861V631.668H166.6V631.883L168.163 636.699H167.642L167.121 635.452H166.861V635.667C167.034 635.896 167.121 636.169 167.121 636.484H166.6C163.155 632.041 159.001 622.711 154.137 608.493C152.748 603.591 150.055 592.942 146.06 576.546C145.597 576.546 144.729 578.983 143.455 583.856C143.455 586.264 114.05 661.19 108 676.468C107.305 677.156 106.524 677.5 105.655 677.5C105.655 677.185 105.308 676.841 104.613 676.468V673.931H104.352C103.715 676.167 102.673 677.285 101.226 677.285C101.226 677.428 101.139 677.5 100.965 677.5C99.7494 677.041 99.1414 675.651 99.1414 673.329C99.0257 673.329 98.852 673.114 98.6204 672.684C98.6204 667.926 130.978 584.931 142.934 555.865C142.934 554.03 143.455 553.113 144.497 553.113C145.337 552.224 146.813 549.788 148.926 545.803C148.579 544.399 148.405 542.177 148.405 539.139V538.279C149.505 537.304 150.2 536.817 150.49 536.817C151.416 536.817 152.285 537.104 153.095 537.677H153.616L154.137 536.215H154.658C154.658 536.473 154.398 537.104 153.877 538.107V538.279H154.137C154.832 537.018 155.179 536.258 155.179 536ZM179.888 558.358H180.409V558.788H179.888V558.358Z" fill="#00FFAD"/>
<path d="M217.493 554.919H219.968C223.934 554.919 227.596 557.613 230.955 563.002C231.736 563.633 232.72 565.754 233.907 569.366C235.094 570.283 236.209 572.863 237.251 577.105H237.468L237.251 577.449C237.251 577.564 237.323 577.621 237.468 577.621L237.251 577.965V580.029C237.251 581.892 237.106 584.185 236.817 586.908L238.163 591.38C238.163 595.651 235.167 601.671 229.174 609.439L224.007 613.739L223.572 613.567C217.233 617.006 213.18 618.726 211.414 618.726V618.382L212.543 618.21V618.038H212.326C209.749 618.612 207.274 618.898 204.9 618.898C197.344 618.898 191.062 614.713 186.054 606.343H185.837V607.891H185.359C185.359 607.604 185.215 606.802 184.925 605.483H184.708V607.547H184.274C182.913 605.627 182.233 601.441 182.233 594.992V594.476C182.233 587.654 184.476 579.57 188.964 570.226C192.959 563.948 198.054 559.935 204.249 558.186C211.168 556.008 215.582 554.919 217.493 554.919ZM196.432 598.131H195.998V597.959C195.882 597.041 195.825 596.468 195.825 596.239H195.607V598.131C195.607 598.503 196.085 599.335 197.04 600.625C197.04 601.656 198.531 603.118 201.513 605.01C202.874 605.211 204.104 605.311 205.204 605.311H205.378C211.341 605.311 216.654 603.118 221.314 598.733C224.036 595.838 225.396 591.466 225.396 585.619V583.426C225.396 583.082 225.469 582.824 225.613 582.652L225.396 581.706V577.965C224.296 575.013 222.661 573.035 220.489 572.032C218.087 571.086 216.118 570.613 214.584 570.613C212.123 570.613 208.114 572.117 202.555 575.127C200.789 575.901 199.906 577.621 199.906 580.287C197.59 590.09 196.432 596.038 196.432 598.131ZM237.729 577.621H238.163V577.965H237.729V577.621ZM184.708 604.967V605.311H184.925V604.967H184.708Z" fill="#00FFAD"/>
<path d="M338.907 545.287C340.238 545.115 340.962 545.029 341.078 545.029C341.194 545.029 341.613 545.044 342.337 545.072C343.061 545.101 343.423 545.173 343.423 545.287C343.423 545.431 343.365 545.646 343.249 545.932C343.22 545.99 343.206 546.047 343.206 546.104C343.206 546.305 343.394 546.448 343.77 546.534C344.233 546.649 344.465 546.778 344.465 546.921C344.465 547.093 344.407 547.323 344.291 547.609C344.233 547.753 344.204 547.853 344.204 547.91C344.204 547.996 344.233 548.039 344.291 548.039C344.407 548.039 345.16 547.982 346.549 547.867C347.968 547.753 350.081 547.495 352.889 547.093C355.321 546.778 356.681 546.62 356.971 546.62H357.058V546.878C357.058 546.993 356.884 547.05 356.536 547.05C356.16 547.05 355.972 547.065 355.972 547.093C355.972 547.151 356.276 547.179 356.884 547.179C357.463 547.179 357.752 547.308 357.752 547.566C357.752 547.824 354.279 548.999 347.331 551.092C340.412 553.156 330.642 555.664 318.02 558.616C305.427 561.54 299.043 563.002 298.87 563.002H298.826C298.826 563.145 299.912 564.02 302.083 565.625C304.428 567.373 308.857 570.068 315.371 573.708C321.884 577.349 326.082 579.929 327.964 581.448C329.874 582.967 331.611 584.028 333.175 584.63C334.738 585.232 335.621 585.533 335.824 585.533C335.997 585.533 336.707 585.246 337.951 584.673C339.08 584.157 339.703 583.899 339.819 583.899C339.819 583.956 339.587 584.142 339.124 584.458C338.892 584.63 338.776 584.73 338.776 584.759C338.776 584.787 338.805 584.802 338.863 584.802C338.95 584.802 339.095 584.773 339.297 584.716C339.732 584.601 340.007 584.544 340.123 584.544C340.151 584.544 340.166 584.558 340.166 584.587V585.017C340.166 585.246 339.746 585.633 338.907 586.178C338.096 586.722 337.691 587.052 337.691 587.166C337.691 587.281 338.111 587.611 338.95 588.155C339.645 588.671 339.992 588.958 339.992 589.015C339.876 589.015 339.471 588.872 338.776 588.585C338.168 588.356 337.821 588.241 337.734 588.241H337.691C337.691 588.299 337.922 588.456 338.386 588.714C338.849 588.944 339.08 589.073 339.08 589.101V589.23C339.08 589.288 339.022 589.316 338.907 589.316C338.791 589.316 338.559 589.273 338.212 589.187C337.893 589.073 337.372 588.958 336.649 588.843H336.562C335.722 588.843 333.16 590.434 328.876 593.616C324.418 596.941 319.93 599.951 315.414 602.645C310.898 605.311 306.136 608.608 301.128 612.535C296.12 616.433 290.793 620.117 285.148 623.585C279.503 627.053 275.377 629.533 272.772 631.023C272.048 631.425 271.599 631.625 271.426 631.625C271.368 631.625 271.339 631.611 271.339 631.582C271.339 631.238 272.815 629.734 275.768 627.068C277.563 625.462 278.46 624.459 278.46 624.058C278.46 623.943 278.359 623.886 278.156 623.886C277.462 623.886 275.348 624.846 271.817 626.767C265.071 630.436 261.453 632.27 260.961 632.27C260.932 632.27 260.917 632.256 260.917 632.227C260.917 631.941 262.842 630.55 266.693 628.057C270.543 625.563 272.989 623.843 274.031 622.897C275.073 621.951 278.345 619.099 283.845 614.341C289.374 609.554 293.804 605.598 297.133 602.473C300.491 599.32 304.153 596.038 308.119 592.627C312.085 589.216 314.126 587.482 314.242 587.424C314.242 587.338 312.071 586.521 307.728 584.974C303.27 583.397 299.666 581.62 296.916 579.642C294.194 577.664 291.415 575.801 288.578 574.052C285.77 572.304 283.02 570.785 280.328 569.495C277.664 568.176 276.275 567.373 276.159 567.087C276.13 567.001 276.116 566.929 276.116 566.872C276.116 566.729 276.188 566.643 276.333 566.614C276.477 566.585 276.55 566.542 276.55 566.485C276.55 566.428 276.535 566.385 276.506 566.356C276.391 566.241 276.333 566.155 276.333 566.098C276.333 566.041 276.535 565.768 276.941 565.281C277.375 564.794 277.925 564.55 278.591 564.55C279.257 564.55 279.589 564.521 279.589 564.464C279.589 564.407 279.285 564.192 278.678 563.819C278.07 563.418 277.404 562.916 276.68 562.314C275.956 561.684 275.594 561.297 275.594 561.153C275.594 561.01 275.667 560.895 275.812 560.809C275.869 560.752 275.898 560.709 275.898 560.68C275.898 560.623 275.869 560.566 275.812 560.508C275.667 560.422 275.594 560.351 275.594 560.293C275.594 560.236 275.681 560.207 275.855 560.207C276.029 560.207 276.202 560.035 276.376 559.691C276.579 559.347 276.984 559.075 277.592 558.874C278.2 558.645 280.27 558.158 283.802 557.413C287.333 556.639 289.895 555.936 291.488 555.306C293.109 554.646 295.483 553.887 298.609 553.027C301.765 552.138 303.863 551.694 304.906 551.694H308.293C309.509 551.694 313.446 550.92 320.104 549.372C326.791 547.824 331.264 546.792 333.522 546.276C335.809 545.76 337.604 545.431 338.907 545.287ZM326.618 588.671L205 677.5L302.734 594.218L312.027 586.006L299.434 581.749L322.666 578.137L329.918 583.082L326.618 588.671Z" fill="#00FFAD"/>
<path d="M367.436 546.319C369.839 547.179 371.069 548.77 371.127 551.092C371.272 551.092 371.344 551.135 371.344 551.221L371.387 552.941V552.984C371.387 555.334 368.073 566.915 361.443 587.725H361.66C365.54 587.152 368.16 586.865 369.52 586.865H370.866C373.645 577.865 375.672 569.108 376.946 560.594V560.551C376.946 559.491 377.684 558.645 379.16 558.014C379.16 558.186 379.377 558.358 379.812 558.53C381.114 557.928 381.766 556.997 381.766 555.736V555.65C382.171 554.646 382.605 554.145 383.068 554.145H384.197C384.255 553.887 384.632 553.657 385.326 553.457C385.471 553.657 385.544 553.829 385.544 553.973L386.673 553.801C388.352 554.976 389.206 556.381 389.235 558.014C389.437 558.014 389.654 557.685 389.886 557.026L391.015 557.198C391.044 556.968 391.189 556.854 391.449 556.854C391.449 556.968 391.522 557.026 391.666 557.026L391.493 557.842V558.014H391.71L392.839 557.842C393.447 558.416 393.751 558.76 393.751 558.874C393.751 558.989 393.678 559.046 393.534 559.046C393.852 560.021 394.011 560.58 394.011 560.723V560.766C394.011 562.372 391.912 571.473 387.715 588.069C386.412 594.949 384.038 602.015 380.593 609.267L377.64 617.436H377.206L377.771 614.556V614.384H377.554L376.729 617.092H376.294C376.294 616.978 376.367 616.92 376.511 616.92C376.338 616.662 376.164 615.931 375.99 614.728H376.207L375.99 614.384L377.293 602.473V602.172H377.033C375.817 607.131 373.66 613.509 370.562 621.306C370.012 623.141 369.737 624.216 369.737 624.531H369.303L369.26 623.37L369.433 622.338V622.166H369.216C368.956 623.083 368.825 623.771 368.825 624.23H368.391C367.899 623.026 367.653 622.109 367.653 621.478L367.61 620.833C367.61 620.202 367.667 619.4 367.783 618.425V618.253H367.566L365.004 624.23H364.57L365.612 620.661V620.489H365.352C364.628 622.639 364.136 623.714 363.875 623.714H363.658L363.832 622.51V621.177L367.349 599.593H367.132C361.95 601.112 358.606 602.244 357.101 602.989C357.101 603.534 354.018 612.305 347.852 629.304H347.418V629.132C347.418 628.874 347.548 628.028 347.809 626.595V626.423H347.591C347.215 628.229 346.853 629.132 346.506 629.132C346.187 627.784 346.028 626.996 346.028 626.767V626.595C346.028 625.935 346.13 624.287 346.332 621.65L345.898 621.822L345.16 619.629C345.276 617.422 345.522 614.871 345.898 611.976V611.804H345.637C343.958 615.645 342.25 619.328 340.513 622.854H340.079L340.904 619.973V619.801H340.687C339.992 621.492 339.645 622.453 339.645 622.682H339.167L339.124 620.661V620.618C339.124 619.443 340.73 611.417 343.944 596.54C348.084 581.892 353.091 565.94 358.968 548.684C359.489 547.91 360.155 547.523 360.966 547.523C361.255 547.638 361.472 547.695 361.617 547.695C361.762 547.351 362.21 547.179 362.963 547.179C362.963 547.409 363.036 547.523 363.18 547.523L364.092 547.179C364.295 547.294 364.671 547.351 365.221 547.351C365.048 547.122 364.961 546.95 364.961 546.835C365.54 546.491 366.365 546.319 367.436 546.319Z" fill="#00FFAD"/>
<path d="M434.005 552.339C434.063 552.597 434.265 552.726 434.613 552.726C435.018 552.583 435.322 552.511 435.525 552.511C437.58 553.829 438.608 555.994 438.608 559.003V559.476C436.176 576.904 434.888 587.568 434.743 591.466C437.233 590.95 438.651 590.692 438.999 590.692C438.999 590.836 438.391 591.151 437.175 591.638H437.479C438.289 591.38 438.999 591.251 439.607 591.251C439.114 591.767 437.262 592.799 434.048 594.347C433.701 598.331 433.513 600.968 433.484 602.258H433.18C433.18 602.373 433.267 602.43 433.44 602.43C430.777 620.862 429.445 630.436 429.445 631.152H428.837V630.808C428.837 630.149 428.765 629.175 428.62 627.885H428.316L428.229 631.152H427.621V630.55C427.042 630.55 426.71 631.711 426.623 634.033H426.015L425.798 631.711H425.494L425.407 633.861H424.799C423.844 632.485 422.917 630.292 422.02 627.283H421.716L421.672 627.885H421.108L421.195 624.789H420.891L420.5 627.111V627.283H419.892C419.11 625.362 418.72 622.467 418.72 618.597C418.72 617.881 418.734 617.121 418.763 616.318H418.155V616.877H417.547L417.895 615.544L417.981 613.782H417.677C417.648 614.068 417.417 614.971 416.983 616.49H416.375V615.974C416.375 615.372 416.201 614.642 415.854 613.782C416.49 606.816 416.838 602.846 416.896 601.871C408.935 605.827 403.116 607.948 399.439 608.235C395.763 612.936 392.52 616.204 389.712 618.038L386.108 617.866H384.892L384.284 618.038C384.111 617.809 384.024 617.551 384.024 617.264L383.416 617.479C381.505 615.845 380.55 614.584 380.55 613.696V613.051C380.695 608.751 389.582 596.611 407.212 576.632C408.341 575.056 413.567 569.337 422.888 559.476C423.004 556.381 424.871 554.833 428.49 554.833L428.794 555.22L428.49 555.607H429.662C429.72 554.489 430.458 553.586 431.877 552.898C432.282 553.041 432.586 553.113 432.789 553.113C432.789 552.912 433.194 552.654 434.005 552.339ZM421.933 561.411C421.933 561.612 421.499 562.314 420.63 563.518V563.69H420.934C420.934 563.403 421.354 562.902 422.193 562.185L422.237 561.411H421.933ZM420.37 580.287C420.341 581.09 416.519 586.607 408.906 596.841C411.945 595.809 414.985 595.035 418.025 594.519V594.347L420.63 580.459L420.674 580.287H420.37Z" fill="#00FFAD"/>
<path d="M446.467 544.427C447.278 544.542 448.291 544.714 449.507 544.943L452.069 545.459C452.33 545.517 452.576 545.545 452.807 545.545C452.981 545.545 453.14 545.531 453.285 545.502L453.85 545.76C454.052 545.732 454.226 545.717 454.371 545.717C454.515 545.717 454.646 545.732 454.761 545.76L454.675 545.932L460.059 546.405C480.005 550.132 495.32 555.936 506.002 563.819C506.755 565.51 507.131 566.886 507.131 567.947C507.131 568.233 507.102 568.506 507.044 568.764C506.06 572.375 502.716 574.941 497.013 576.46C495.102 578.811 488.068 581.477 475.909 584.458L492.41 605.225C497.766 611.101 501.587 619.013 503.874 628.96C503.845 629.16 503.758 629.261 503.614 629.261C502.687 629.261 499.126 624.001 492.931 613.481L504.743 637L499.228 632.786C499.459 633.159 499.575 633.446 499.575 633.646V633.775L498.707 633.603C497.433 633.001 489.892 625.835 476.083 612.105C470.959 605.884 465.386 598.26 459.364 589.23L459.06 589.187C455.268 602.803 450.752 614.656 445.512 624.746C444.557 626.58 442.805 630.636 440.258 636.914L439.693 636.785L440.866 632.528L440.605 632.442L439.737 634.506L439.259 636.14L438.999 636.054C437.464 635.767 436.306 632.887 435.525 627.412C435.554 624.889 436.292 622.596 437.739 620.532L439.216 617.78C439.187 616.118 439.114 615.287 438.999 615.287C438.941 615.287 438.883 615.387 438.825 615.587V615.372C438.564 615.372 436.668 620.245 433.136 629.991C434.468 624.517 435.134 621.478 435.134 620.876V620.747C435.105 620.747 435.061 620.804 435.004 620.919L433.571 617.995C438.058 605.841 440.345 599.564 440.432 599.163L440.692 598.303L440.388 598.217C438.883 603.061 437.044 608.235 434.873 613.739L432.832 617.522C432.195 618.268 431.747 618.64 431.486 618.64C431.284 618.64 431.182 618.454 431.182 618.081C431.182 616.275 433.455 610.012 438 599.292C439.36 594.419 440.822 587.682 442.386 579.083C443.312 575.815 444.152 573.536 444.904 572.246V572.16C444.904 572.103 444.832 572.06 444.687 572.032C447.264 567.073 449.478 561.297 451.331 554.704C447.77 553.643 443.862 551.035 439.607 546.878L446.467 544.427ZM472.522 559.992V560.078C474.027 560.336 474.823 560.48 474.91 560.508L474.867 560.723C474.78 560.695 473.665 560.652 471.523 560.594L468.44 560.293L468.006 560.336V560.852C468.006 561.168 467.991 561.426 467.962 561.626L465.4 569.538C465.285 569.538 465.227 569.552 465.227 569.581L465.444 569.624C473.579 568.964 478.413 568.233 479.947 567.431C485.245 566.17 487.952 565.181 488.068 564.464L488.155 564.163C484.275 562.529 479.224 561.153 473 560.035L472.522 559.992Z" fill="#00FFAD"/>
<path d="M522.981 555.478H523.675L524.023 555.607L524.37 555.478H526.541C526.541 555.85 526.397 556.037 526.107 556.037C526.686 556.037 527.309 556.452 527.974 557.284V557.799C527.974 558.43 528.061 558.745 528.235 558.745V558.702C528.264 558.702 528.38 558.803 528.582 559.003C528.582 559.835 528.857 560.25 529.407 560.25C529.263 560.107 529.147 560.035 529.06 560.035C528.886 560.035 528.799 560.322 528.799 560.895C528.655 560.895 528.582 560.394 528.582 559.39C528.727 559.39 528.799 559.405 528.799 559.433C531.955 559.233 534.01 559.132 534.966 559.132C540.64 559.763 545.851 560.164 550.598 560.336C551.148 560.25 553.045 560.078 556.287 559.82V559.648L555.375 559.906H555.809C556.649 559.906 557.069 559.949 557.069 560.035C555.766 560.035 555.114 559.992 555.114 559.906C556.822 559.906 559.312 560.207 562.583 560.809L565.884 559.304V561.153L566.274 560.723H563.365C563.539 560.723 564.523 560.365 566.318 559.648V561.368L566.231 561.669C566.694 561.784 566.926 562.099 566.926 562.615V563.604H566.101V562.056H566.926V563.045C566.926 563.59 565.898 564.134 563.843 564.679V564.034C564.393 564.177 564.668 564.794 564.668 565.883H563.843V564.464L565.102 564.593V565.453C565.102 566.227 564.277 566.628 562.627 566.657V565.195H563.452V567.087C561.889 567.087 560.123 568.391 558.154 571C554.014 580.316 549.136 587.267 543.52 591.853C535.935 597.787 529.002 603.262 522.72 608.278C516.264 610.628 513.037 612.348 513.037 613.438C512.313 614.756 511.473 615.788 510.518 616.533H508.52L508.998 614.943V615.587H510.778C510.634 616.132 510.127 616.404 509.259 616.404H508.13L507.956 615.458H508.781C508.289 615.516 506.566 616.949 503.614 619.758H501.833V618.726L501.746 618.941C502.875 618.941 503.44 619.142 503.44 619.543V619.629H501.008V618.124C501.008 617.637 501.211 616.705 501.616 615.33C501.616 614.871 501.428 614.642 501.052 614.642C502.962 603.692 505.22 594.806 507.826 587.983C512.052 577.807 514.339 572.06 514.687 570.742C514.6 570.742 514.556 570.369 514.556 569.624V569.366C514.556 568.735 514.354 568.42 513.948 568.42L514.339 568.893C514.339 568.291 515.106 567.173 516.641 565.539C518.609 559.089 520.158 555.865 521.287 555.865C521.287 555.893 521.316 555.908 521.374 555.908C521.577 555.908 522.112 555.764 522.981 555.478ZM539.829 570.484C538.961 570.484 538.526 570.498 538.526 570.527L538.874 570.484C538.034 570.484 534.734 570.527 528.973 570.613C528.597 570.613 528.409 570.684 528.409 570.828C525.224 578.309 522.792 585.246 521.113 591.638C530.001 587.424 538.063 579.9 545.301 569.065V570.14L539.829 570.484Z" fill="#00FFAD"/>
<path d="M579.302 545.631C579.736 545.803 579.953 545.975 579.953 546.147C580.069 546.147 580.127 546.09 580.127 545.975C580.764 546.09 581.227 546.147 581.516 546.147L581.864 545.975C582.356 545.975 582.602 546.291 582.602 546.921V547.222L582.993 547.05H583.166C583.745 547.194 584.035 547.767 584.035 548.77V549.2C583.687 553.098 582.11 556.467 579.302 559.304C578.057 559.677 577.029 560.207 576.219 560.895L576.045 560.551L575.697 560.723C575.089 559.663 574.496 559.132 573.917 559.132C572.122 560.422 571.138 561.067 570.964 561.067L571.008 560.895C571.123 560.666 571.196 560.494 571.225 560.379C570.993 560.379 570.863 560.551 570.834 560.895H570.487L570.4 559.992C570.487 558.903 570.53 557.47 570.53 555.693V554.317C571.862 550.705 572.73 548.698 573.135 548.297C573.599 548.297 573.859 547.939 573.917 547.222L574.308 547.05L574.264 547.566H574.785C575.017 547.566 575.147 547.394 575.176 547.05H575.524C575.524 547.538 575.668 547.781 575.958 547.781C576.421 547.781 576.696 547.308 576.783 546.362H577.478C577.97 546.821 578.245 547.05 578.303 547.05H578.477V546.878L578.39 545.975C578.795 545.746 579.099 545.631 579.302 545.631ZM568.532 565.023H569.054C569.748 565.74 570.356 566.098 570.877 566.098C571.427 565.496 572.267 565.195 573.396 565.195H573.57V565.324C573.57 565.725 573.729 565.926 574.047 565.926C574.076 565.697 574.192 565.582 574.395 565.582C574.366 565.783 574.351 565.94 574.351 566.055C574.351 566.313 574.395 566.442 574.482 566.442L575.393 566.27V566.313C575.393 566.571 575.668 566.743 576.219 566.829L576.392 566.442C577.087 566.528 577.434 566.657 577.434 566.829L578.129 566.442C578.129 566.557 578.187 566.614 578.303 566.614L578.086 567.001L578.911 567.689C578.679 567.746 578.419 568.047 578.129 568.592C578.708 568.592 578.998 569.294 578.998 570.699C578.766 573.135 574.279 589.116 565.536 618.64L558.241 636.57H557.894V636.398L558.241 634.807V634.635H558.067C557.778 635.352 557.604 635.939 557.546 636.398H557.199C557.083 635.624 557.025 635.079 557.025 634.764V634.635L557.286 631.797C556.909 630.393 556.721 628.888 556.721 627.283C556.721 626.681 556.75 626.05 556.808 625.391L557.372 618.64V618.554C557.372 618.382 557.271 618.296 557.069 618.296L554.333 625.563H553.985C554.014 625.333 554.275 624.33 554.767 622.553L554.81 622.381H554.637L553.681 625.047H553.334C553.363 624.76 553.392 623.872 553.421 622.381C556.461 604.867 559.355 591.781 562.106 583.125C563.379 579.112 564.784 573.551 566.318 566.442C567.042 566.442 567.664 566.026 568.185 565.195L568.532 565.023Z" fill="#00FFAD"/>
<path d="M621.38 553.844H621.901L621.597 555.564H621.857L622.248 554.704L622.335 554.188H622.856C623.001 554.188 623.073 554.632 623.073 555.521C623.073 557.928 622.537 563.561 621.466 572.418C620.598 577.177 618.933 585.604 616.473 597.701H616.212L616.386 598.045C616.386 598.159 616.299 598.217 616.125 598.217V598.26C616.125 598.346 616.198 598.389 616.342 598.389C615.879 600.109 615.575 601.37 615.43 602.172L615.3 602.86C615.242 603.118 615.112 603.348 614.909 603.548V603.591C614.909 603.677 614.982 603.72 615.126 603.72C614.692 605.268 614.403 606.415 614.258 607.16L613.346 612.32L612.912 613.352L613.129 613.696C612.984 614.556 612.13 616.447 610.567 619.371L611.392 623.499C610.842 623.241 610.422 622.668 610.133 621.779H609.872L609.829 622.123C610.176 622.639 610.35 623.083 610.35 623.456C610.35 623.542 610.335 623.614 610.306 623.671C609.235 622.811 608.468 622.295 608.005 622.123H607.527L605.313 622.811C602.099 622.811 600.174 621.091 599.537 617.651C599.508 617.164 599.494 616.705 599.494 616.275C599.494 615.444 599.552 614.699 599.667 614.04L600.275 610.428L592.893 593.917H592.633C592.546 594.433 592.401 594.777 592.199 594.949V594.992C592.199 595.078 592.271 595.121 592.416 595.121C592.387 595.35 592.285 595.465 592.112 595.465C591.417 598.36 590.925 600.653 590.635 602.344L589.55 608.364C589.492 608.765 589.318 609.281 589.029 609.912V609.955C589.029 610.041 589.101 610.084 589.246 610.084L588.855 610.944L588.768 611.46C587.928 616.161 586.742 618.511 585.207 618.511C585.063 618.511 584.527 618.569 583.601 618.683L583.427 618.339L582.862 618.511C582.747 618.511 582.211 618.11 581.256 617.307L580.952 617.651L581.603 618.339C581.14 618.397 580.329 619.142 579.171 620.575L577.217 621.263H575.176C572.426 620.632 571.051 619.285 571.051 617.221C571.051 616.935 571.08 616.619 571.138 616.275L571.963 611.632C571.992 611.517 572.093 611.46 572.267 611.46C572.267 611.345 572.18 611.288 572.006 611.288C581.183 584.687 586.713 569.036 588.594 564.335C588.739 564.335 588.855 564.163 588.942 563.819C588.565 563.16 588.377 561.913 588.377 560.078V559.691C588.754 559.691 589.246 559.347 589.854 558.659C590.519 558.659 590.867 558.602 590.896 558.487L590.809 557.628C591.359 557.628 591.909 556.882 592.459 555.392H592.98L592.893 555.908H593.414L593.458 555.564H593.718L596.28 557.284L596.411 556.424H596.932C596.961 556.739 596.975 557.026 596.975 557.284C596.975 557.542 596.961 557.771 596.932 557.971H597.192C597.366 556.94 597.627 556.424 597.974 556.424C598.698 556.997 599.089 560.15 599.146 565.883C602.736 579.642 604.676 587.611 604.965 589.789H605.226L605.617 588.929L608.048 579.642H608.309V579.599C608.309 579.513 608.236 579.47 608.092 579.47C609.394 576.002 610.856 571.071 612.478 564.679H612.999C613.086 564.249 613.52 562.816 614.301 560.379H614.822L614.692 561.067L614.649 562.787H614.909L615.213 561.067C615.3 560.838 615.488 560.723 615.778 560.723H616.038C616.241 561.698 616.342 562.672 616.342 563.647C616.342 564.392 616.284 565.138 616.169 565.883H616.429C617.269 564.048 618.919 560.035 621.38 553.844Z" fill="#00FFAD"/>
<path d="M671.013 551.35V551.651C670.81 551.651 669.913 551.981 668.321 552.64V552.769H668.538C670.072 552.196 671.028 551.909 671.404 551.909C671.404 552.138 668.943 553.887 664.022 557.155H664.196C666.685 556.008 671.766 554.732 679.437 553.328V553.457C679.437 553.629 678.743 553.872 677.353 554.188V554.317H677.57C678.873 554.03 679.553 553.887 679.611 553.887V554.016C679.177 554.446 676.644 555.908 672.012 558.401V558.702H677.787V558.96L676.528 559.132V559.261H676.962L678.004 559.132V559.39C674.907 560.68 672.851 561.626 671.838 562.228C671.838 562.543 669.913 563.303 666.063 564.507C661.344 566.313 656.408 568.52 651.255 571.129C649.316 571.129 645.48 574.282 639.748 580.588C639.893 580.789 639.965 580.932 639.965 581.018C639.675 581.018 639.531 581.161 639.531 581.448L639.965 582.007C639.27 583.325 637.49 586.063 634.624 590.219C631.874 595.064 630.499 598.317 630.499 599.98C630.643 600.496 630.716 600.868 630.716 601.097C630.426 601.126 630.281 601.212 630.281 601.355L630.716 601.785V602.086C630.137 602.086 629.717 603.262 629.456 605.612C629.601 607.017 629.673 608.049 629.673 608.708C629.818 608.708 629.891 608.765 629.891 608.88C631.078 608.88 636.419 606.429 645.914 601.527C647.883 600.324 650.358 599.148 653.34 598.002C654.237 597.17 655.988 595.408 658.594 592.713C655.612 593.63 650.908 594.404 644.481 595.035C641.354 596.067 638.894 596.583 637.099 596.583C635.796 596.583 634.696 596.253 633.799 595.594C633.944 595.422 634.016 595.236 634.016 595.035C633.842 595.035 633.495 594.648 632.974 593.874C633.234 593.874 633.712 593.501 634.407 592.756C635.391 592.527 636.071 592.24 636.448 591.896C639.516 591.151 645.827 588.8 655.38 584.845C661.46 583.383 666.729 581.305 671.187 578.61C672.055 578.266 674.111 577.191 677.353 575.385L678.786 575.213C678.931 575.385 679.003 575.629 679.003 575.944H679.437V575.643H679.828C679.828 576.073 680.176 576.403 680.87 576.632C680.87 576.776 681.073 576.962 681.478 577.191C681.131 577.506 680.784 578.08 680.436 578.911L680.653 579.47C680.653 579.642 681.102 581.362 681.999 584.63C680.726 589.646 679.206 594.089 677.44 597.959C674.198 600.968 671.389 603.548 669.016 605.698C666.642 607.848 662.213 610.471 655.728 613.567C652.196 615.201 647.738 616.548 642.353 617.608C638.677 618.382 635.073 618.769 631.541 618.769C631.541 618.855 631.396 618.898 631.106 618.898C627.951 618.898 624.94 617.393 622.074 614.384L620.207 612.965L620.641 612.535C620.091 612.535 619.816 612.391 619.816 612.105C619.816 612.019 619.889 611.976 620.033 611.976L619.816 611.675L620.033 610.428C619.339 608.249 618.991 606.544 618.991 605.311V602.774C618.991 601.914 619.093 598.919 619.295 593.788C625.346 574.611 631.932 562.586 639.053 557.713C645.364 554.99 652.196 553.141 659.549 552.167C666.265 551.622 670.087 551.35 671.013 551.35Z" fill="#00FFAD"/>
<path fill-rule="evenodd" clip-rule="evenodd" d="M297 67.9302C297 66.3119 298.308 65 299.922 65H311.115C312.729 65 314.037 66.3119 314.037 67.9302V137.159C314.037 138.778 315.346 140.089 316.959 140.089H383.072C385.63 140.089 386.953 143.152 385.204 145.024L376.743 154.074C376.19 154.665 375.419 155 374.611 155H314.037H299.922C298.308 155 297 153.688 297 152.07V67.9302Z" fill="#00FFAD"/>
<path fill-rule="evenodd" clip-rule="evenodd" d="M123.295 118.71H86.4492C86.4466 118.71 86.4444 118.708 86.4444 118.705C86.4444 118.702 86.4423 118.7 86.4396 118.7C86.2012 118.707 85.9621 118.71 85.7222 118.71C70.9639 118.71 59 106.686 59 91.8548C59 77.0233 70.9639 65 85.7222 65C85.9621 65 86.2012 65.0032 86.4396 65.0095C86.4423 65.0096 86.4444 65.0074 86.4444 65.0047C86.4444 65.0021 86.4466 65 86.4492 65H142.546C145.197 65 146.468 68.2769 144.518 70.0852L132.058 81.6441C131.521 82.1426 130.817 82.4194 130.086 82.4194H85.7046C80.529 82.4194 76.3333 86.6438 76.3333 91.8548C76.3333 97.0659 80.529 101.29 85.7046 101.29H125.4C125.424 101.29 125.444 101.311 125.444 101.336C125.444 101.359 125.463 101.379 125.486 101.381C139.211 102.509 150 114.061 150 128.145C150 142.977 138.036 155 123.278 155C122.564 155 121.856 154.972 121.156 154.917C121.132 154.915 121.111 154.934 121.111 154.958C121.111 154.981 121.093 155 121.07 155H65.434C62.7308 155 61.488 151.613 63.5421 149.843L76.9609 138.284C77.4881 137.83 78.159 137.581 78.8528 137.581H98.2515H123.295C128.471 137.581 132.667 133.356 132.667 128.145C132.667 122.934 128.471 118.71 123.295 118.71Z" fill="#00FFAD"/>
<path fill-rule="evenodd" clip-rule="evenodd" d="M192.992 65C192.988 65 192.984 65.0035 192.984 65.0079C192.984 65.0122 192.981 65.0156 192.977 65.0158C184.332 65.3892 177.39 72.324 177.016 80.9601C177.016 80.9644 177.012 80.9677 177.008 80.9677C177.004 80.9677 177 80.9713 177 80.9757V137.573C177 137.577 177.003 137.581 177.008 137.581C177.012 137.581 177.015 137.584 177.015 137.589C177.005 137.827 177 138.066 177 138.306C177 147.28 184.088 154.6 192.977 154.984C192.981 154.984 192.984 154.988 192.984 154.992C192.984 154.996 192.988 155 192.992 155H254.008C254.012 155 254.016 154.996 254.016 154.992C254.016 154.988 254.019 154.984 254.023 154.984C262.912 154.6 270 147.28 270 138.306C270 138.066 269.995 137.827 269.985 137.589C269.985 137.584 269.988 137.581 269.992 137.581C269.997 137.581 270 137.577 270 137.573V80.9757C270 80.9713 269.996 80.9677 269.992 80.9677C269.988 80.9677 269.984 80.9644 269.984 80.9601C269.61 72.324 262.668 65.3892 254.023 65.0158C254.019 65.0156 254.016 65.0122 254.016 65.0079C254.016 65.0035 254.012 65 254.008 65H192.992ZM204.433 80.9677C204.43 80.9677 204.428 80.97 204.428 80.9727C204.428 80.9754 204.426 80.9776 204.423 80.9777C199.02 81.2126 194.681 85.5748 194.447 91.0072C194.447 91.0099 194.445 91.012 194.443 91.012C194.44 91.012 194.438 91.0142 194.438 91.0169V126.619C194.438 126.621 194.44 126.623 194.442 126.623C194.445 126.623 194.447 126.626 194.447 126.628C194.441 126.778 194.438 126.929 194.438 127.08C194.438 132.725 198.868 137.329 204.423 137.571C204.426 137.571 204.428 137.573 204.428 137.576C204.428 137.578 204.43 137.581 204.433 137.581H242.567C242.57 137.581 242.572 137.578 242.572 137.576C242.572 137.573 242.574 137.571 242.577 137.571C248.132 137.329 252.563 132.725 252.563 127.08C252.563 126.929 252.559 126.778 252.553 126.628C252.553 126.626 252.555 126.623 252.558 126.623C252.56 126.623 252.563 126.621 252.563 126.619V91.0169C252.563 91.0142 252.56 91.012 252.558 91.012C252.555 91.012 252.553 91.0099 252.553 91.0072C252.319 85.5748 247.98 81.2126 242.577 80.9777C242.574 80.9776 242.572 80.9754 242.572 80.9727C242.572 80.97 242.57 80.9677 242.567 80.9677H204.433Z" fill="#00FFAD"/>
<path fill-rule="evenodd" clip-rule="evenodd" d="M433.25 89.6774V104.167C433.25 105.785 434.547 107.097 436.146 107.097H487.854C489.453 107.097 490.75 105.785 490.75 104.167V89.6774C490.75 84.0655 486.245 79.5161 480.688 79.5161H443.313C437.755 79.5161 433.25 84.0655 433.25 89.6774ZM493.646 155C492.047 155 490.75 153.688 490.75 152.07V123.092C490.75 121.473 489.453 120.161 487.854 120.161H436.146C434.547 120.161 433.25 121.473 433.25 123.092V152.07C433.25 153.688 431.953 155 430.354 155H418.896C417.297 155 416 153.688 416 152.07V82.427C416 82.4228 416.003 82.4194 416.008 82.4194C416.012 82.4194 416.015 82.4158 416.015 82.4114C416.005 82.1734 416 81.9341 416 81.6935C416 72.474 423.401 65 432.531 65C432.769 65 433.006 65.0051 433.242 65.0152C433.246 65.0153 433.25 65.0119 433.25 65.0076C433.25 65.0034 433.253 65 433.257 65H492.18C492.184 65 492.188 65.0035 492.188 65.0079C492.188 65.0122 492.191 65.0156 492.195 65.0158C500.988 65.3997 508 72.7197 508 81.6935C508 81.9341 507.995 82.1734 507.985 82.4114C507.985 82.4158 507.988 82.4194 507.992 82.4194C507.997 82.4194 508 82.4228 508 82.4269V152.07C508 153.688 506.703 155 505.104 155H493.646Z" fill="#00FFAD"/>
<path fill-rule="evenodd" clip-rule="evenodd" d="M674.25 89.6774V104.167C674.25 105.785 675.547 107.097 677.146 107.097H728.854C730.453 107.097 731.75 105.785 731.75 104.167V89.6774C731.75 84.0655 727.245 79.5161 721.688 79.5161H684.313C678.755 79.5161 674.25 84.0655 674.25 89.6774ZM734.646 155C733.047 155 731.75 153.688 731.75 152.07V123.092C731.75 121.473 730.453 120.161 728.854 120.161H677.146C675.547 120.161 674.25 121.473 674.25 123.092V152.07C674.25 153.688 672.953 155 671.354 155H659.896C658.297 155 657 153.688 657 152.07V82.427C657 82.4228 657.003 82.4194 657.008 82.4194C657.012 82.4194 657.015 82.4158 657.015 82.4114C657.005 82.1734 657 81.9341 657 81.6935C657 72.474 664.401 65 673.531 65C673.769 65 674.006 65.0051 674.242 65.0152C674.246 65.0153 674.25 65.0119 674.25 65.0076C674.25 65.0034 674.253 65 674.257 65H733.18C733.184 65 733.188 65.0035 733.188 65.0079C733.188 65.0122 733.191 65.0156 733.195 65.0158C741.988 65.3997 749 72.7197 749 81.6935C749 81.9341 748.995 82.1734 748.985 82.4114C748.985 82.4158 748.988 82.4194 748.992 82.4194C748.997 82.4194 749 82.4228 749 82.4269V152.07C749 153.688 747.703 155 746.104 155H734.646Z" fill="#00FFAD"/>
<path fill-rule="evenodd" clip-rule="evenodd" d="M554.314 66.0288C553.758 65.376 552.944 65 552.086 65H538.928C537.311 65 536 66.3119 536 67.9302V152.07C536 153.688 537.311 155 538.928 155H550.51C552.127 155 553.438 153.688 553.438 152.07V96.0368C553.438 93.3296 556.792 92.0703 558.571 94.1095L611.535 154.819C611.553 154.838 611.562 154.864 611.562 154.891C611.562 154.951 611.611 155 611.672 155H611.694H626.072C627.689 155 629 153.688 629 152.07V67.9302C629 66.3119 627.689 65 626.072 65H614.49C612.873 65 611.562 66.3119 611.562 67.9302V125.263C611.562 127.987 608.173 129.237 606.407 127.164L554.314 66.0288Z" fill="#00FFAD"/>
<defs>
<linearGradient id="paint0_linear" x1="403" y1="0" x2="403" y2="806" gradientUnits="userSpaceOnUse">
<stop stop-color="#212121"/>
<stop offset="1" stop-color="#212121" stop-opacity="0.97"/>
</linearGradient>
</defs>
</svg>
