<svg width="643" height="643" viewBox="0 0 643 643" fill="none" xmlns="http://www.w3.org/2000/svg">
<g clip-path="url(#clip0)">
<rect width="643" height="643" fill="white"/>
<mask id="mask0" mask-type="alpha" maskUnits="userSpaceOnUse" x="132" y="179" width="354" height="286">
<path fill-rule="evenodd" clip-rule="evenodd" d="M435.209 246.604C433.092 248.75 430.22 249.955 427.225 249.955H144.314C134.315 249.955 129.25 237.761 136.24 230.519L182.646 182.442C184.771 180.241 187.681 179 190.72 179H474.685C484.745 179 489.783 191.321 482.67 198.527L435.209 246.604ZM435.209 461.326C433.092 463.418 430.22 464.593 427.225 464.593H144.314C134.315 464.593 129.25 452.704 136.24 445.643L182.646 398.768C184.771 396.622 187.681 395.412 190.72 395.412H474.685C484.745 395.412 489.783 407.425 482.67 414.451L435.209 461.326ZM427.225 287.206C430.22 287.206 433.092 288.381 435.209 290.473L482.67 337.348C489.783 344.374 484.745 356.387 474.685 356.387L190.72 356.387C187.681 356.387 184.771 355.177 182.646 353.031L136.241 306.156C129.25 299.095 134.315 287.206 144.314 287.206L427.225 287.206Z" fill="#00FFAD"/>
</mask>
<g mask="url(#mask0)">
<path d="M-23 154H585V584H-23V154Z" fill="url(#paint0_linear)"/>
</g>
</g>
<defs>
<linearGradient id="paint0_linear" x1="493.8" y1="166.133" x2="291.22" y2="613.979" gradientUnits="userSpaceOnUse">
<stop stop-color="#02FFAD"/>
<stop offset="1" stop-color="#F71DF4"/>
</linearGradient>
<clipPath id="clip0">
<rect width="643" height="643" fill="white"/>
</clipPath>
</defs>
</svg>
