<svg width="643" height="643" viewBox="0 0 643 643" fill="none" xmlns="http://www.w3.org/2000/svg">
<rect width="643" height="643" fill="black"/>
<path d="M435.21 246.604C433.092 248.75 430.22 249.955 427.225 249.955H144.315C134.316 249.955 129.25 237.761 136.241 230.519L182.646 182.442C184.771 180.241 187.681 179 190.72 179H474.685C484.745 179 489.784 191.321 482.67 198.527L435.21 246.604Z" fill="#00FFAD"/>
<path d="M435.21 461.326C433.092 463.418 430.22 464.593 427.225 464.593H144.315C134.316 464.593 129.25 452.704 136.241 445.643L182.646 398.768C184.771 396.622 187.681 395.412 190.72 395.412H474.685C484.745 395.412 489.784 407.425 482.67 414.451L435.21 461.326Z" fill="#00FFAD"/>
<path d="M435.21 290.473C433.092 288.381 430.22 287.206 427.225 287.206L144.315 287.206C134.316 287.206 129.25 299.095 136.241 306.156L182.646 353.031C184.771 355.177 187.681 356.387 190.72 356.387L474.685 356.387C484.745 356.387 489.784 344.374 482.67 337.348L435.21 290.473Z" fill="#00FFAD"/>
</svg>
