<svg width="643" height="643" viewBox="0 0 643 643" fill="none" xmlns="http://www.w3.org/2000/svg">
<g clip-path="url(#clip0)">
<rect width="643" height="643" fill="white"/>
<path d="M-164 -50H693V763H-164V-50Z" fill="url(#paint0_linear)"/>
<path fill-rule="evenodd" clip-rule="evenodd" d="M447.21 246.604C445.092 248.75 442.22 249.955 439.225 249.955H156.315C146.316 249.955 141.25 237.761 148.241 230.519L194.646 182.442C196.771 180.241 199.681 179 202.72 179H486.685C496.745 179 501.784 191.321 494.67 198.527L447.21 246.604ZM447.21 461.326C445.092 463.418 442.22 464.593 439.225 464.593H156.315C146.316 464.593 141.25 452.704 148.241 445.643L194.646 398.768C196.771 396.622 199.681 395.412 202.72 395.412H486.685C496.745 395.412 501.784 407.425 494.67 414.451L447.21 461.326ZM439.225 287.206C442.22 287.206 445.092 288.381 447.21 290.473L494.67 337.348C501.784 344.374 496.745 356.387 486.685 356.387L202.72 356.387C199.682 356.387 196.771 355.177 194.646 353.031L148.241 306.156C141.25 299.095 146.316 287.206 156.315 287.206L439.225 287.206Z" fill="white"/>
</g>
<defs>
<linearGradient id="paint0_linear" x1="564.45" y1="-27.0607" x2="112.097" y2="718.469" gradientUnits="userSpaceOnUse">
<stop stop-color="#02FFAD"/>
<stop offset="0.286458" stop-color="#34D1BB"/>
<stop offset="1" stop-color="#FF5FFD"/>
</linearGradient>
<clipPath id="clip0">
<rect width="643" height="643" fill="white"/>
</clipPath>
</defs>
</svg>
