<svg width="284" height="284" viewBox="0 0 284 284" fill="none" xmlns="http://www.w3.org/2000/svg">
<mask id="mask0" mask-type="alpha" maskUnits="userSpaceOnUse" x="0" y="0" width="284" height="284">
<path d="M142 284C122.397 284 103.99 280.295 86.7778 272.884C69.8047 265.712 54.7441 255.672 41.596 242.763C28.6869 229.615 18.5269 214.434 11.1162 197.222C3.70539 180.01 0 161.603 0 142C0 122.397 3.70539 103.99 11.1162 86.7778C18.5269 69.5657 28.6869 54.5051 41.596 41.596C54.7441 28.4478 69.8047 18.2879 86.7778 11.1161C103.99 3.70538 122.397 0 142 0C161.603 0 180.01 3.70538 197.222 11.1161C214.434 18.2879 229.495 28.4478 242.404 41.596C255.552 54.5051 265.712 69.5657 272.884 86.7778C280.295 103.99 284 122.397 284 142C284 161.603 280.295 180.01 272.884 197.222C265.712 214.434 255.552 229.615 242.404 242.763C229.495 255.672 214.434 265.712 197.222 272.884C180.01 280.295 161.603 284 142 284ZM142 259.258C158.256 259.258 173.436 256.269 187.54 250.293C201.645 244.077 214.076 235.591 224.833 224.833C235.591 214.076 243.958 201.645 249.934 187.54C256.15 173.436 259.258 158.256 259.258 142C259.258 125.744 256.15 110.564 249.934 96.4596C243.958 82.3552 235.591 69.9242 224.833 59.1667C214.076 48.4091 201.645 40.0421 187.54 34.0656C173.436 27.8502 158.256 24.7424 142 24.7424C125.744 24.7424 110.564 27.8502 96.4596 34.0656C82.3552 40.0421 69.9242 48.4091 59.1667 59.1667C48.4091 69.9242 39.9226 82.3552 33.7071 96.4596C27.7306 110.564 24.7424 125.744 24.7424 142C24.7424 158.256 27.7306 173.436 33.7071 187.54C39.9226 201.645 48.4091 214.076 59.1667 224.833C69.9242 235.591 82.3552 244.077 96.4596 250.293C110.564 256.269 125.744 259.258 142 259.258ZM142 242.045C128.135 242.045 115.106 239.535 102.914 234.515C90.9613 229.256 80.3232 222.084 71 213C61.9158 203.677 54.7441 193.039 49.4848 181.086C44.4646 168.894 41.9546 155.865 41.9546 142C41.9546 128.135 44.4646 115.226 49.4848 103.273C54.7441 91.0808 61.9158 80.4428 71 71.3586C80.3232 62.0353 90.9613 54.8636 102.914 49.8434C115.106 44.5842 128.135 41.9545 142 41.9545C155.865 41.9545 168.894 44.5842 181.086 49.8434C193.278 54.8636 203.916 62.0353 213 71.3586C222.323 80.4428 229.495 91.0808 234.515 103.273C239.774 115.226 242.404 128.135 242.404 142C242.404 155.865 239.774 168.894 234.515 181.086C229.495 193.039 222.323 203.677 213 213C203.916 222.084 193.278 229.256 181.086 234.515C168.894 239.535 155.865 242.045 142 242.045ZM142 217.303C156.104 217.303 168.774 213.956 180.01 207.263C191.485 200.569 200.569 191.485 207.263 180.01C214.195 168.535 217.662 155.865 217.662 142C217.662 127.896 214.195 115.226 207.263 103.99C200.569 92.5152 191.485 83.431 180.01 76.7374C168.774 70.0438 156.104 66.697 142 66.697C128.135 66.697 115.465 70.0438 103.99 76.7374C92.5151 83.431 83.431 92.5152 76.7374 103.99C70.0438 115.226 66.697 127.896 66.697 142C66.697 155.865 70.0438 168.535 76.7374 180.01C83.431 191.485 92.5151 200.569 103.99 207.263C115.465 213.956 128.135 217.303 142 217.303Z" fill="black"/>
</mask>
<g mask="url(#mask0)">
<path d="M-70 -56H353V341H-70V-56Z" fill="url(#paint0_linear)"/>
</g>
<defs>
<linearGradient id="paint0_linear" x1="289.55" y1="-44.7984" x2="69.761" y2="321.347" gradientUnits="userSpaceOnUse">
<stop stop-color="#02FFAD"/>
<stop offset="0.286458" stop-color="#34D1BB"/>
<stop offset="1" stop-color="#FF5FFD"/>
</linearGradient>
</defs>
</svg>
