<svg width="284" height="285" viewBox="0 0 284 285" fill="none" xmlns="http://www.w3.org/2000/svg">
<g clip-path="url(#clip0)">
<path d="M142 283C122.397 283 103.99 279.295 86.7778 271.884C69.8047 264.712 54.7441 254.672 41.596 241.763C28.6869 228.615 18.5269 213.434 11.1162 196.222C3.70539 179.01 0 160.603 0 141C0 121.397 3.70539 102.99 11.1162 85.7778C18.5269 68.5657 28.6869 53.5051 41.596 40.596C54.7441 27.4478 69.8047 17.2879 86.7778 10.1161C103.99 2.70538 122.397 -1 142 -1C161.603 -1 180.01 2.70538 197.222 10.1161C214.434 17.2879 229.495 27.4478 242.404 40.596C255.552 53.5051 265.712 68.5657 272.884 85.7778C280.295 102.99 284 121.397 284 141C284 160.603 280.295 179.01 272.884 196.222C265.712 213.434 255.552 228.615 242.404 241.763C229.495 254.672 214.434 264.712 197.222 271.884C180.01 279.295 161.603 283 142 283ZM142 258.258C158.256 258.258 173.436 255.269 187.54 249.293C201.645 243.077 214.076 234.591 224.833 223.833C235.591 213.076 243.958 200.645 249.934 186.54C256.15 172.436 259.258 157.256 259.258 141C259.258 124.744 256.15 109.564 249.934 95.4596C243.958 81.3552 235.591 68.9242 224.833 58.1667C214.076 47.4091 201.645 39.0421 187.54 33.0656C173.436 26.8502 158.256 23.7424 142 23.7424C125.744 23.7424 110.564 26.8502 96.4596 33.0656C82.3552 39.0421 69.9242 47.4091 59.1667 58.1667C48.4091 68.9242 39.9226 81.3552 33.7071 95.4596C27.7306 109.564 24.7424 124.744 24.7424 141C24.7424 157.256 27.7306 172.436 33.7071 186.54C39.9226 200.645 48.4091 213.076 59.1667 223.833C69.9242 234.591 82.3552 243.077 96.4596 249.293C110.564 255.269 125.744 258.258 142 258.258ZM142 241.045C128.135 241.045 115.106 238.535 102.914 233.515C90.9613 228.256 80.3232 221.084 71 212C61.9158 202.677 54.7441 192.039 49.4848 180.086C44.4646 167.894 41.9546 154.865 41.9546 141C41.9546 127.135 44.4646 114.226 49.4848 102.273C54.7441 90.0808 61.9158 79.4428 71 70.3586C80.3232 61.0353 90.9613 53.8636 102.914 48.8434C115.106 43.5842 128.135 40.9545 142 40.9545C155.865 40.9545 168.894 43.5842 181.086 48.8434C193.278 53.8636 203.916 61.0353 213 70.3586C222.323 79.4428 229.495 90.0808 234.515 102.273C239.774 114.226 242.404 127.135 242.404 141C242.404 154.865 239.774 167.894 234.515 180.086C229.495 192.039 222.323 202.677 213 212C203.916 221.084 193.278 228.256 181.086 233.515C168.894 238.535 155.865 241.045 142 241.045ZM142 216.303C156.104 216.303 168.774 212.956 180.01 206.263C191.485 199.569 200.569 190.485 207.263 179.01C214.195 167.535 217.662 154.865 217.662 141C217.662 126.896 214.195 114.226 207.263 102.99C200.569 91.5152 191.485 82.431 180.01 75.7374C168.774 69.0438 156.104 65.697 142 65.697C128.135 65.697 115.465 69.0438 103.99 75.7374C92.5151 82.431 83.431 91.5152 76.7374 102.99C70.0438 114.226 66.697 126.896 66.697 141C66.697 154.865 70.0438 167.535 76.7374 179.01C83.431 190.485 92.5151 199.569 103.99 206.263C115.465 212.956 128.135 216.303 142 216.303Z" fill="white"/>
</g>
<defs>
<clipPath id="clip0">
<rect width="284" height="285" fill="white"/>
</clipPath>
</defs>
</svg>
