<?xml version="1.0" encoding="UTF-8"?>
<svg width="24px" height="24px" viewBox="0 0 24 24" version="1.1" xmlns="http://www.w3.org/2000/svg" xmlns:xlink="http://www.w3.org/1999/xlink">
    <!-- Generator: Sketch 52.2 (67145) - http://www.bohemiancoding.com/sketch -->
    <title>Stockholm-icons / Cooking / Spoon</title>
    <desc>Created with Sketch.</desc>
    <g id="Stockholm-icons-/-Cooking-/-Spoon" stroke="none" stroke-width="1" fill="none" fill-rule="evenodd">
        <rect id="bound" x="0" y="0" width="24" height="24"></rect>
        <path d="M9.37867966,12.9142136 L10.0857864,13.6213203 C10.4763107,14.0118446 10.4763107,14.6450096 10.0857864,15.0355339 L5.13603897,19.9852814 C4.74551468,20.3758057 4.1123497,20.3758057 3.72182541,19.9852814 L3.01471863,19.2781746 C2.62419433,18.8876503 2.62419433,18.2544853 3.01471863,17.863961 L7.96446609,12.9142136 C8.35499039,12.5236893 8.98815536,12.5236893 9.37867966,12.9142136 Z" id="Rectangle-136" fill="#335EEA" opacity="0.3"></path>
        <path d="M15.2123106,13.5376894 C17.697592,13.5376894 19.7123106,11.5229708 19.7123106,9.0376894 C19.7123106,6.55240802 17.697592,2.0376894 15.2123106,2.0376894 C12.7270292,2.0376894 10.7123106,6.55240802 10.7123106,9.0376894 C10.7123106,11.5229708 12.7270292,13.5376894 15.2123106,13.5376894 Z" id="Combined-Shape" fill="#335EEA"></path>
        <path d="M17.6252814,5.50664746 C18.583231,6.61933269 17.533395,9.3264226 16.4896124,10.3702051 C15.4909168,11.3689007 13.9108118,11.4318321 12.8388429,10.5589992 L17.6252814,5.50664746 Z" id="Combined-Shape" fill="#FFFFFF"></path>
    </g>
</svg>