<?xml version="1.0" encoding="UTF-8"?>
<svg width="24px" height="24px" viewBox="0 0 24 24" version="1.1" xmlns="http://www.w3.org/2000/svg" xmlns:xlink="http://www.w3.org/1999/xlink">
    <!-- Generator: Sketch 52.2 (67145) - http://www.bohemiancoding.com/sketch -->
    <title>Stockholm-icons / Home / Book-open</title>
    <desc>Created with Sketch.</desc>
    <g id="Stockholm-icons-/-Home-/-Book-open" stroke="none" stroke-width="1" fill="none" fill-rule="evenodd">
        <rect id="bound" x="0" y="0" width="24" height="24"></rect>
        <path d="M13.6855025,18.7082217 C15.9113859,17.8189707 18.682885,17.2495635 22,17 C22,16.9325178 22,13.1012863 22,5.50630526 L21.9999762,5.50630526 C21.9999762,5.23017604 21.7761292,5.00632908 21.5,5.00632908 C21.4957817,5.00632908 21.4915635,5.00638247 21.4873465,5.00648922 C18.658231,5.07811173 15.8291155,5.74261533 13,7 C13,7.04449645 13,10.79246 13,18.2438906 L12.9999854,18.2438906 C12.9999854,18.520041 13.2238496,18.7439052 13.5,18.7439052 C13.5635398,18.7439052 13.6264972,18.7317946 13.6855025,18.7082217 Z" id="Combined-Shape" fill="#335EEA"></path>
        <path d="M2.68550249,18.7082217 C4.91138588,17.8189707 7.68288505,17.2495635 11,17 C11,16.9325178 11,13.1012863 11,5.50630526 L10.9999762,5.50630526 C10.9999762,5.23017604 10.7761292,5.00632908 10.5,5.00632908 C10.4957817,5.00632908 10.4915635,5.00638247 10.4873465,5.00648922 C7.65823103,5.07811173 4.82911552,5.74261533 2,7 C2,7.04449645 2,10.79246 2,18.2438906 L1.99998542,18.2438906 C1.99998542,18.520041 2.22384958,18.7439052 2.5,18.7439052 C2.56353975,18.7439052 2.62649724,18.7317946 2.68550249,18.7082217 Z" id="Path-41-Copy" fill="#335EEA" opacity="0.3"></path>
    </g>
</svg>