<?xml version="1.0" encoding="UTF-8"?>
<svg width="24px" height="24px" viewBox="0 0 24 24" version="1.1" xmlns="http://www.w3.org/2000/svg" xmlns:xlink="http://www.w3.org/1999/xlink">
    <!-- Generator: Sketch 52.2 (67145) - http://www.bohemiancoding.com/sketch -->
    <title>Stockholm-icons / Food / Burger</title>
    <desc>Created with Sketch.</desc>
    <g id="Stockholm-icons-/-Food-/-Burger" stroke="none" stroke-width="1" fill="none" fill-rule="evenodd">
        <rect id="bound" x="0" y="0" width="24" height="24"></rect>
        <path d="M15,15 L15.9974233,16.1399123 C16.3611054,16.555549 16.992868,16.5976665 17.4085046,16.2339844 C17.4419154,16.20475 17.4733423,16.1733231 17.5025767,16.1399123 L18.5,15 L21,15 C20.4185426,17.9072868 17.865843,20 14.9009805,20 L9.09901951,20 C6.13415704,20 3.58145737,17.9072868 3,15 L15,15 Z" id="Combined-Shape" fill="#335EEA"></path>
        <path d="M3,4 L21,4 L21,4 C20.4185426,6.90728684 17.865843,9 14.9009805,9 L9.09901951,9 C6.13415704,9 3.58145737,6.90728684 3,4 Z" id="Combined-Shape" fill="#335EEA"></path>
        <rect id="Rectangle" fill="#335EEA" opacity="0.3" x="2" y="11" width="20" height="2" rx="1"></rect>
    </g>
</svg>