<svg width="353" height="286" viewBox="0 0 353 286" fill="none" xmlns="http://www.w3.org/2000/svg">
<path d="M302.21 67.6045C300.092 69.7497 297.22 70.9548 294.225 70.9548H11.3146C1.31552 70.9548 -3.74985 58.7613 3.24069 51.519L49.6464 3.44179C51.7709 1.24078 54.6815 6.10352e-05 57.7203 6.10352e-05H341.685C351.745 6.10352e-05 356.784 12.3212 349.67 19.5273L302.21 67.6045Z" fill="currentColor"/>
<path d="M302.21 282.326C300.092 284.418 297.22 285.593 294.225 285.593H11.3146C1.31552 285.593 -3.74985 273.704 3.24069 266.643L49.6464 219.768C51.7709 217.622 54.6815 216.412 57.7203 216.412H341.685C351.745 216.412 356.784 228.425 349.67 235.451L302.21 282.326Z" fill="currentColor"/>
<path d="M302.21 111.473C300.092 109.381 297.22 108.206 294.225 108.206L11.3146 108.206C1.31552 108.206 -3.74979 120.095 3.24072 127.156L49.6464 174.031C51.7709 176.177 54.6815 177.387 57.7203 177.387L341.685 177.387C351.745 177.387 356.784 165.374 349.67 158.348L302.21 111.473Z" fill="currentColor"/>
</svg>
