<svg width="4476" height="513" viewBox="0 0 4476 513" fill="none" xmlns="http://www.w3.org/2000/svg">
<path fill-rule="evenodd" clip-rule="evenodd" d="M1252 150C1252 146.134 1255.13 143 1259 143H1285.81C1289.68 143 1292.81 146.134 1292.81 150V315.38C1292.81 319.246 1295.95 322.38 1299.81 322.38H1458.19C1464.32 322.38 1467.49 329.698 1463.3 334.168L1443.03 355.788C1441.71 357.199 1439.86 358 1437.92 358H1292.81H1259C1255.13 358 1252 354.866 1252 351V150Z" fill="#232323"/>
<path fill-rule="evenodd" clip-rule="evenodd" d="M831.122 271.306H742.497C742.491 271.306 742.486 271.301 742.486 271.295C742.486 271.289 742.48 271.284 742.474 271.284C741.901 271.299 741.325 271.306 740.749 271.306C705.251 271.306 676.475 242.584 676.475 207.153C676.475 171.722 705.251 143 740.749 143C741.325 143 741.901 143.008 742.474 143.023C742.48 143.023 742.486 143.018 742.486 143.011C742.486 143.005 742.491 143 742.497 143H877.425C883.8 143 886.857 150.828 882.168 155.148L852.198 182.761C850.905 183.952 849.212 184.613 847.455 184.613H740.706C728.257 184.613 718.166 194.705 718.166 207.153C718.166 219.602 728.257 229.694 740.706 229.694H836.183C836.242 229.694 836.291 229.742 836.291 229.802C836.291 229.858 836.335 229.905 836.391 229.909C869.403 232.605 895.353 260.201 895.353 293.847C895.353 329.278 866.577 358 831.079 358C829.362 358 827.66 357.933 825.976 357.801C825.918 357.796 825.868 357.842 825.868 357.9C825.868 357.955 825.823 358 825.768 358H691.95C685.448 358 682.459 349.908 687.4 345.681L719.675 318.068C720.943 316.983 722.557 316.387 724.226 316.387H770.885H831.122C843.57 316.387 853.662 306.295 853.662 293.847C853.662 281.398 843.57 271.306 831.122 271.306Z" fill="#232323"/>
<path fill-rule="evenodd" clip-rule="evenodd" d="M1000.77 143C1000.75 143 1000.75 143.008 1000.75 143.019C1000.75 143.029 1000.74 143.037 1000.73 143.038C980.058 143.93 963.461 160.496 962.567 181.127C962.567 181.137 962.558 181.145 962.548 181.145C962.538 181.145 962.529 181.154 962.529 181.164V316.369C962.529 316.379 962.537 316.387 962.547 316.387C962.558 316.387 962.566 316.396 962.566 316.406C962.541 316.975 962.529 317.546 962.529 318.121C962.529 339.558 979.476 357.045 1000.73 357.962C1000.74 357.963 1000.75 357.971 1000.75 357.981C1000.75 357.992 1000.75 358 1000.77 358H1146.65C1146.66 358 1146.67 357.992 1146.67 357.981C1146.67 357.971 1146.67 357.963 1146.68 357.962C1167.94 357.045 1184.88 339.558 1184.88 318.121C1184.88 317.546 1184.87 316.975 1184.85 316.406C1184.85 316.396 1184.85 316.387 1184.86 316.387C1184.87 316.387 1184.88 316.379 1184.88 316.369V181.164C1184.88 181.154 1184.87 181.145 1184.86 181.145C1184.85 181.145 1184.84 181.137 1184.84 181.127C1183.95 160.496 1167.35 143.93 1146.68 143.038C1146.67 143.037 1146.67 143.029 1146.67 143.019C1146.67 143.008 1146.66 143 1146.65 143H1000.77ZM1028.12 181.145C1028.11 181.145 1028.11 181.15 1028.11 181.157C1028.11 181.163 1028.1 181.169 1028.09 181.169C1015.18 181.73 1004.8 192.151 1004.24 205.128C1004.24 205.135 1004.24 205.14 1004.23 205.14C1004.23 205.14 1004.22 205.145 1004.22 205.152V290.2C1004.22 290.206 1004.23 290.211 1004.23 290.211C1004.24 290.211 1004.24 290.217 1004.24 290.223C1004.23 290.581 1004.22 290.94 1004.22 291.302C1004.22 304.787 1014.81 315.786 1028.09 316.363C1028.1 316.364 1028.11 316.369 1028.11 316.375C1028.11 316.382 1028.11 316.387 1028.12 316.387H1119.29C1119.3 316.387 1119.31 316.382 1119.31 316.375C1119.31 316.369 1119.31 316.364 1119.32 316.363C1132.6 315.786 1143.19 304.787 1143.19 291.302C1143.19 290.94 1143.18 290.581 1143.17 290.223C1143.17 290.217 1143.17 290.211 1143.18 290.211C1143.19 290.211 1143.19 290.206 1143.19 290.2V205.152C1143.19 205.145 1143.19 205.14 1143.18 205.14C1143.17 205.14 1143.17 205.135 1143.17 205.128C1142.61 192.151 1132.24 181.73 1119.32 181.169C1119.31 181.169 1119.31 181.163 1119.31 181.157C1119.31 181.15 1119.3 181.145 1119.29 181.145H1028.12Z" fill="#232323"/>
<path fill-rule="evenodd" clip-rule="evenodd" d="M1582.69 201.952V236.565C1582.69 240.431 1585.83 243.565 1589.69 243.565H1714.66C1718.53 243.565 1721.66 240.431 1721.66 236.565V201.952C1721.66 188.545 1710.77 177.677 1697.34 177.677H1607.01C1593.58 177.677 1582.69 188.545 1582.69 201.952ZM1728.66 358C1724.8 358 1721.66 354.866 1721.66 351V281.774C1721.66 277.908 1718.53 274.774 1714.66 274.774H1589.69C1585.83 274.774 1582.69 277.908 1582.69 281.774V351C1582.69 354.866 1579.56 358 1575.69 358H1548C1544.13 358 1541 354.866 1541 351V184.631C1541 184.621 1541.01 184.613 1541.02 184.613C1541.03 184.613 1541.04 184.604 1541.04 184.594C1541.01 184.025 1541 183.454 1541 182.879C1541 160.854 1558.89 143 1580.95 143C1581.53 143 1582.1 143.012 1582.67 143.036C1582.68 143.037 1582.69 143.028 1582.69 143.018C1582.69 143.008 1582.7 143 1582.71 143H1725.12C1725.13 143 1725.14 143.008 1725.14 143.019C1725.14 143.029 1725.14 143.037 1725.15 143.038C1746.41 143.955 1763.35 161.442 1763.35 182.879C1763.35 183.454 1763.34 184.025 1763.32 184.594C1763.32 184.604 1763.32 184.613 1763.33 184.613C1763.34 184.613 1763.35 184.621 1763.35 184.631V351C1763.35 354.866 1760.22 358 1756.35 358H1728.66Z" fill="#232323"/>
<path fill-rule="evenodd" clip-rule="evenodd" d="M2162.69 201.952V236.565C2162.69 240.431 2165.83 243.565 2169.69 243.565H2294.66C2298.53 243.565 2301.66 240.431 2301.66 236.565V201.952C2301.66 188.545 2290.77 177.677 2277.34 177.677H2187.01C2173.58 177.677 2162.69 188.545 2162.69 201.952ZM2308.66 358C2304.8 358 2301.66 354.866 2301.66 351V281.774C2301.66 277.908 2298.53 274.774 2294.66 274.774H2169.69C2165.83 274.774 2162.69 277.908 2162.69 281.774V351C2162.69 354.866 2159.56 358 2155.69 358H2128C2124.13 358 2121 354.866 2121 351V184.631C2121 184.621 2121.01 184.613 2121.02 184.613C2121.03 184.613 2121.04 184.604 2121.04 184.594C2121.01 184.025 2121 183.454 2121 182.879C2121 160.854 2138.89 143 2160.95 143C2161.53 143 2162.1 143.012 2162.67 143.036C2162.68 143.037 2162.69 143.028 2162.69 143.018C2162.69 143.008 2162.7 143 2162.71 143H2305.12C2305.13 143 2305.14 143.008 2305.14 143.019C2305.14 143.029 2305.14 143.037 2305.15 143.038C2326.41 143.955 2343.35 161.442 2343.35 182.879C2343.35 183.454 2343.34 184.025 2343.32 184.594C2343.32 184.604 2343.32 184.613 2343.33 184.613C2343.34 184.613 2343.35 184.621 2343.35 184.631V351C2343.35 354.866 2340.22 358 2336.35 358H2308.66Z" fill="#232323"/>
<path fill-rule="evenodd" clip-rule="evenodd" d="M1874.79 145.458C1873.46 143.898 1871.51 143 1869.46 143H1838C1834.13 143 1831 146.134 1831 150V351C1831 354.866 1834.13 358 1838 358H1865.69C1869.56 358 1872.69 354.866 1872.69 351V217.143C1872.69 210.676 1880.71 207.668 1884.96 212.539L2011.6 357.567C2011.64 357.614 2011.66 357.675 2011.66 357.739C2011.66 357.883 2011.78 358 2011.92 358H2011.98H2046.35C2050.22 358 2053.35 354.866 2053.35 351V150C2053.35 146.134 2050.22 143 2046.35 143H2018.66C2014.8 143 2011.66 146.134 2011.66 150V286.962C2011.66 293.469 2003.56 296.455 1999.34 291.504L1874.79 145.458Z" fill="#232323"/>
<path d="M513.394 159.135C510.876 161.654 507.46 163.068 503.898 163.068H167.455C155.564 163.068 149.541 148.754 157.854 140.251L213.04 83.8105C215.567 81.2266 219.028 79.7701 222.642 79.7701H560.339C572.303 79.7701 578.294 94.2347 569.835 102.694L513.394 159.135Z" fill="#1DD79B"/>
<path d="M513.394 415.56C510.876 418.078 507.46 419.493 503.898 419.493H167.455C155.564 419.493 149.541 405.178 157.854 396.676L213.04 340.235C215.567 337.651 219.028 336.195 222.642 336.195H560.339C572.303 336.195 578.294 350.659 569.835 359.119L513.394 415.56Z" fill="#1DD79B"/>
<path d="M513.394 211.866C510.876 209.347 507.46 207.933 503.898 207.933L167.455 207.933C155.564 207.933 149.541 222.247 157.854 230.749L213.04 287.19C215.567 289.774 219.028 291.231 222.642 291.231L560.339 291.231C572.303 291.231 578.294 276.766 569.835 268.307L513.394 211.866Z" fill="#1DD79B"/>
<path d="M2583.9 195.608H2618.72C2633.88 195.608 2644.59 196.986 2650.84 199.742C2657.09 202.392 2661.07 207.215 2662.76 214.211C2664.46 221.207 2665.31 233.238 2665.31 250.304C2665.31 267.37 2664.46 279.401 2662.76 286.397C2661.07 293.393 2657.09 298.269 2650.84 301.025C2644.59 303.675 2633.88 305 2618.72 305H2583.9V195.608ZM2616.5 292.28C2628.9 292.28 2637.22 291.644 2641.46 290.372C2645.8 288.994 2648.61 285.708 2649.89 280.514C2651.16 275.214 2651.79 265.144 2651.79 250.304C2651.79 235.57 2651.1 225.553 2649.73 220.253C2648.45 214.953 2645.65 211.667 2641.3 210.395C2637.06 209.017 2628.79 208.328 2616.5 208.328H2597.57V292.28H2616.5ZM2764.12 306.272C2749.6 306.272 2739.32 304.841 2733.27 301.979C2727.23 299.117 2723.36 294.135 2721.67 287.033C2720.08 279.825 2719.28 267.582 2719.28 250.304C2719.28 233.026 2720.08 220.836 2721.67 213.734C2723.36 206.526 2727.23 201.491 2733.27 198.629C2739.32 195.767 2749.6 194.336 2764.12 194.336C2778.54 194.336 2788.76 195.767 2794.81 198.629C2800.95 201.491 2804.82 206.526 2806.41 213.734C2808.11 220.836 2808.96 233.026 2808.96 250.304C2808.96 267.582 2808.11 279.825 2806.41 287.033C2804.82 294.135 2800.95 299.117 2794.81 301.979C2788.76 304.841 2778.54 306.272 2764.12 306.272ZM2764.12 293.552C2774.93 293.552 2782.25 292.863 2786.06 291.485C2789.88 290.107 2792.37 286.662 2793.53 281.15C2794.7 275.638 2795.28 265.356 2795.28 250.304C2795.28 235.252 2794.7 224.97 2793.53 219.458C2792.37 213.946 2789.88 210.501 2786.06 209.123C2782.25 207.745 2774.93 207.056 2764.12 207.056C2753.31 207.056 2745.94 207.745 2742.02 209.123C2738.2 210.501 2735.71 213.946 2734.55 219.458C2733.38 224.97 2732.8 235.252 2732.8 250.304C2732.8 265.356 2733.38 275.638 2734.55 281.15C2735.71 286.662 2738.2 290.107 2742.02 291.485C2745.94 292.863 2753.31 293.552 2764.12 293.552ZM2932.94 304.205C2929.66 304.841 2925.52 305.318 2920.54 305.636C2915.66 306.06 2911.11 306.272 2906.87 306.272C2893.72 306.272 2884.13 304.841 2878.09 301.979C2872.04 299.117 2867.96 293.923 2865.84 286.397C2863.83 278.765 2862.82 266.734 2862.82 250.304C2862.82 233.98 2863.83 222.002 2865.84 214.37C2867.96 206.738 2872.04 201.491 2878.09 198.629C2884.13 195.767 2893.72 194.336 2906.87 194.336C2911.21 194.336 2915.77 194.548 2920.54 194.972C2925.31 195.396 2929.23 195.979 2932.31 196.721V208.646C2924.36 207.586 2917.04 207.056 2910.36 207.056C2899.23 207.056 2891.44 207.904 2886.99 209.6C2882.64 211.296 2879.78 214.953 2878.4 220.571C2877.03 226.189 2876.34 236.1 2876.34 250.304C2876.34 264.508 2877.03 274.419 2878.4 280.037C2879.78 285.655 2882.64 289.312 2886.99 291.008C2891.44 292.704 2899.23 293.552 2910.36 293.552C2918.53 293.552 2926.05 293.022 2932.94 291.962V304.205ZM3069.55 195.608V257.141C3069.55 271.345 3068.65 281.786 3066.85 288.464C3065.05 295.036 3061.29 299.647 3055.56 302.297C3049.84 304.947 3040.62 306.272 3027.9 306.272C3015.18 306.272 3005.95 304.947 3000.23 302.297C2994.51 299.541 2990.69 294.877 2988.78 288.305C2986.98 281.733 2986.08 271.345 2986.08 257.141V195.608H2999.59V262.388C2999.59 271.928 3000.12 278.712 3001.18 282.74C3002.24 286.768 3004.68 289.577 3008.5 291.167C3012.31 292.757 3018.78 293.552 3027.9 293.552C3037.01 293.552 3043.42 292.757 3047.13 291.167C3050.95 289.577 3053.34 286.821 3054.29 282.899C3055.35 278.871 3055.88 272.034 3055.88 262.388V195.608H3069.55ZM3228.55 305V218.981H3227.91L3190.39 305H3180.37L3143.01 218.981H3142.37V305H3129.49V195.608H3147.94L3185.3 280.673H3186.1L3223.46 195.608H3241.91V305H3228.55ZM3303.16 305V195.608H3374.39V208.328H3316.83V243.467H3366.76V256.187H3316.83V292.28H3374.39V305H3303.16ZM3500.08 305L3442.36 221.366H3441.73V305H3428.53V195.608H3442.52L3499.45 277.334H3500.08V195.608H3513.12V305H3500.08ZM3597.93 305V208.805H3563.27V195.608H3646.11V208.805H3611.61V305H3597.93ZM3759.43 305L3748.14 275.903H3698.85L3687.57 305H3673.73L3715.07 195.608H3732.24L3773.58 305H3759.43ZM3723.82 210.395H3723.02L3702.99 263.024H3743.85L3723.82 210.395ZM3835.64 305V208.805H3800.98V195.608H3883.82V208.805H3849.31V305H3835.64ZM3934.06 305V195.608H3947.74V305H3934.06ZM4050.16 306.272C4035.63 306.272 4025.35 304.841 4019.31 301.979C4013.27 299.117 4009.4 294.135 4007.7 287.033C4006.11 279.825 4005.32 267.582 4005.32 250.304C4005.32 233.026 4006.11 220.836 4007.7 213.734C4009.4 206.526 4013.27 201.491 4019.31 198.629C4025.35 195.767 4035.63 194.336 4050.16 194.336C4064.57 194.336 4074.8 195.767 4080.84 198.629C4086.99 201.491 4090.86 206.526 4092.45 213.734C4094.15 220.836 4094.99 233.026 4094.99 250.304C4094.99 267.582 4094.15 279.825 4092.45 287.033C4090.86 294.135 4086.99 299.117 4080.84 301.979C4074.8 304.841 4064.57 306.272 4050.16 306.272ZM4050.16 293.552C4060.97 293.552 4068.28 292.863 4072.1 291.485C4075.91 290.107 4078.4 286.662 4079.57 281.15C4080.74 275.638 4081.32 265.356 4081.32 250.304C4081.32 235.252 4080.74 224.97 4079.57 219.458C4078.4 213.946 4075.91 210.501 4072.1 209.123C4068.28 207.745 4060.97 207.056 4050.16 207.056C4039.34 207.056 4031.98 207.745 4028.05 209.123C4024.24 210.501 4021.75 213.946 4020.58 219.458C4019.42 224.97 4018.83 235.252 4018.83 250.304C4018.83 265.356 4019.42 275.638 4020.58 281.15C4021.75 286.662 4024.24 290.107 4028.05 291.485C4031.98 292.863 4039.34 293.552 4050.16 293.552ZM4224.07 305L4166.35 221.366H4165.71V305H4152.52V195.608H4166.51L4223.43 277.334H4224.07V195.608H4237.1V305H4224.07Z" fill="#767676"/>
</svg>
