<svg width="643" height="643" viewBox="0 0 643 643" fill="none" xmlns="http://www.w3.org/2000/svg">
<rect width="643" height="643" fill="#00FFAD"/>
<path d="M447.21 246.604C445.092 248.75 442.22 249.955 439.225 249.955H156.315C146.316 249.955 141.25 237.761 148.241 230.519L194.646 182.442C196.771 180.241 199.681 179 202.72 179H486.685C496.745 179 501.784 191.321 494.67 198.527L447.21 246.604Z" fill="black"/>
<path d="M447.21 461.326C445.092 463.418 442.22 464.593 439.225 464.593H156.315C146.316 464.593 141.25 452.704 148.241 445.643L194.646 398.768C196.771 396.622 199.681 395.412 202.72 395.412H486.685C496.745 395.412 501.784 407.425 494.67 414.451L447.21 461.326Z" fill="black"/>
<path d="M447.21 290.473C445.092 288.381 442.22 287.206 439.225 287.206L156.315 287.206C146.316 287.206 141.25 299.095 148.241 306.156L194.646 353.031C196.771 355.177 199.681 356.387 202.72 356.387L486.685 356.387C496.745 356.387 501.784 344.374 494.67 337.348L447.21 290.473Z" fill="black"/>
</svg>
