<svg width="4476" height="513" viewBox="0 0 4476 513" fill="none" xmlns="http://www.w3.org/2000/svg">
<path fill-rule="evenodd" clip-rule="evenodd" d="M1173.3 164.438C1173.3 160.882 1176.18 158 1179.74 158H1204.4C1207.96 158 1210.84 160.882 1210.84 164.438V316.535C1210.84 320.091 1213.72 322.973 1217.28 322.973H1362.94C1368.57 322.973 1371.49 329.703 1367.63 333.814L1348.99 353.697C1347.77 354.995 1346.07 355.732 1344.29 355.732H1210.84H1179.74C1176.18 355.732 1173.3 352.85 1173.3 349.294V164.438Z" fill="white"/>
<path fill-rule="evenodd" clip-rule="evenodd" d="M786.226 276.001H704.72C704.714 276.001 704.709 275.997 704.709 275.991C704.709 275.985 704.704 275.98 704.699 275.98C704.171 275.994 703.642 276.001 703.112 276.001C670.465 276.001 644 249.586 644 217.001C644 184.415 670.465 158 703.112 158C703.642 158 704.171 158.007 704.699 158.021C704.704 158.021 704.709 158.016 704.709 158.01C704.709 158.005 704.714 158 704.72 158H828.811C834.674 158 837.485 165.199 833.173 169.172L805.61 194.567C804.421 195.663 802.864 196.271 801.248 196.271H703.073C691.624 196.271 682.343 205.552 682.343 217.001C682.343 228.449 691.624 237.731 703.073 237.731H790.881C790.936 237.731 790.98 237.775 790.98 237.83C790.98 237.882 791.02 237.925 791.072 237.929C821.433 240.408 845.299 265.788 845.299 296.731C845.299 329.316 818.834 355.732 786.187 355.732C784.608 355.732 783.042 355.67 781.494 355.549C781.44 355.544 781.395 355.587 781.395 355.64C781.395 355.691 781.353 355.732 781.303 355.732H658.233C652.253 355.732 649.504 348.29 654.048 344.402L683.731 319.007C684.897 318.009 686.381 317.461 687.916 317.461H730.827H786.226C797.675 317.461 806.956 308.18 806.956 296.731C806.956 285.282 797.675 276.001 786.226 276.001Z" fill="white"/>
<path fill-rule="evenodd" clip-rule="evenodd" d="M942.245 158C942.235 158 942.228 158.008 942.228 158.017C942.228 158.027 942.22 158.034 942.211 158.035C923.201 158.855 907.937 174.091 907.115 193.065C907.115 193.074 907.107 193.081 907.097 193.081C907.088 193.081 907.08 193.089 907.08 193.099V317.444C907.08 317.454 907.088 317.461 907.097 317.461C907.106 317.461 907.114 317.469 907.113 317.479C907.091 318.002 907.08 318.527 907.08 319.056C907.08 338.771 922.666 354.854 942.211 355.697C942.22 355.697 942.228 355.705 942.228 355.714C942.228 355.724 942.235 355.732 942.245 355.732H1076.41C1076.42 355.732 1076.43 355.724 1076.43 355.714C1076.43 355.705 1076.43 355.697 1076.44 355.697C1095.99 354.854 1111.57 338.771 1111.57 319.056C1111.57 318.527 1111.56 318.002 1111.54 317.479C1111.54 317.469 1111.55 317.461 1111.56 317.461C1111.57 317.461 1111.57 317.454 1111.57 317.444V193.099C1111.57 193.089 1111.57 193.081 1111.56 193.081C1111.55 193.081 1111.54 193.074 1111.54 193.065C1110.72 174.091 1095.45 158.855 1076.44 158.035C1076.43 158.034 1076.43 158.027 1076.43 158.017C1076.43 158.008 1076.42 158 1076.41 158H942.245ZM967.401 193.081C967.395 193.081 967.39 193.086 967.39 193.092C967.39 193.098 967.385 193.103 967.38 193.103C955.499 193.619 945.958 203.203 945.445 215.138C945.444 215.144 945.44 215.149 945.434 215.149C945.428 215.149 945.423 215.154 945.423 215.16V293.377C945.423 293.383 945.428 293.388 945.433 293.388C945.439 293.388 945.444 293.393 945.444 293.399C945.43 293.728 945.423 294.058 945.423 294.391C945.423 306.793 955.164 316.909 967.38 317.439C967.385 317.44 967.39 317.444 967.39 317.45C967.39 317.456 967.395 317.461 967.401 317.461H1051.25C1051.26 317.461 1051.26 317.456 1051.26 317.45C1051.26 317.444 1051.27 317.44 1051.28 317.439C1063.49 316.909 1073.23 306.793 1073.23 294.391C1073.23 294.058 1073.22 293.728 1073.21 293.399C1073.21 293.393 1073.22 293.388 1073.22 293.388C1073.23 293.388 1073.23 293.383 1073.23 293.377V215.16C1073.23 215.154 1073.23 215.149 1073.22 215.149C1073.22 215.149 1073.21 215.144 1073.21 215.138C1072.7 203.203 1063.16 193.619 1051.28 193.103C1051.27 193.103 1051.26 193.098 1051.26 193.092C1051.26 193.086 1051.26 193.081 1051.25 193.081H967.401Z" fill="white"/>
<path fill-rule="evenodd" clip-rule="evenodd" d="M1477.43 212.217V244.05C1477.43 247.605 1480.32 250.487 1483.87 250.487H1598.8C1602.36 250.487 1605.24 247.605 1605.24 244.05V212.217C1605.24 199.887 1595.23 189.892 1582.88 189.892H1499.8C1487.45 189.892 1477.43 199.887 1477.43 212.217ZM1611.68 355.732C1608.12 355.732 1605.24 352.85 1605.24 349.294V285.628C1605.24 282.073 1602.36 279.19 1598.8 279.19H1483.87C1480.31 279.19 1477.43 282.073 1477.43 285.628V349.294C1477.43 352.85 1474.55 355.732 1470.99 355.732H1445.53C1441.97 355.732 1439.09 352.85 1439.09 349.294V196.287C1439.09 196.278 1439.1 196.271 1439.11 196.271C1439.12 196.271 1439.12 196.263 1439.12 196.253C1439.1 195.73 1439.09 195.204 1439.09 194.676C1439.09 174.42 1455.54 158 1475.83 158C1476.36 158 1476.89 158.011 1477.42 158.033C1477.42 158.034 1477.43 158.026 1477.43 158.017C1477.43 158.007 1477.44 158 1477.45 158H1608.42C1608.43 158 1608.44 158.008 1608.44 158.017C1608.44 158.027 1608.44 158.034 1608.45 158.035C1628 158.878 1643.58 174.96 1643.58 194.676C1643.58 195.204 1643.57 195.73 1643.55 196.253C1643.55 196.263 1643.56 196.271 1643.57 196.271C1643.58 196.271 1643.58 196.278 1643.58 196.287V349.294C1643.58 352.85 1640.7 355.732 1637.15 355.732H1611.68Z" fill="white"/>
<path fill-rule="evenodd" clip-rule="evenodd" d="M2010.85 212.217V244.05C2010.85 247.605 2013.73 250.487 2017.29 250.487H2132.22C2135.78 250.487 2138.66 247.605 2138.66 244.05V212.217C2138.66 199.887 2128.64 189.892 2116.29 189.892H2033.22C2020.86 189.892 2010.85 199.887 2010.85 212.217ZM2145.1 355.732C2141.54 355.732 2138.66 352.85 2138.66 349.294V285.628C2138.66 282.073 2135.78 279.19 2132.22 279.19H2017.29C2013.73 279.19 2010.85 282.073 2010.85 285.628V349.294C2010.85 352.85 2007.97 355.732 2004.41 355.732H1978.94C1975.39 355.732 1972.51 352.85 1972.51 349.294V196.287C1972.51 196.278 1972.51 196.271 1972.52 196.271C1972.53 196.271 1972.54 196.263 1972.54 196.253C1972.52 195.73 1972.51 195.204 1972.51 194.676C1972.51 174.42 1988.96 158 2009.25 158C2009.78 158 2010.31 158.011 2010.83 158.033C2010.84 158.034 2010.85 158.026 2010.85 158.017C2010.85 158.007 2010.86 158 2010.87 158H2141.84C2141.84 158 2141.85 158.008 2141.85 158.017C2141.85 158.027 2141.86 158.034 2141.87 158.035C2161.41 158.878 2177 174.96 2177 194.676C2177 195.204 2176.99 195.73 2176.97 196.253C2176.97 196.263 2176.97 196.271 2176.98 196.271C2176.99 196.271 2177 196.278 2177 196.287V349.294C2177 352.85 2174.12 355.732 2170.56 355.732H2145.1Z" fill="white"/>
<path fill-rule="evenodd" clip-rule="evenodd" d="M1746.07 160.26C1744.85 158.826 1743.05 158 1741.17 158H1712.24C1708.68 158 1705.8 160.882 1705.8 164.438V349.294C1705.8 352.85 1708.68 355.732 1712.24 355.732H1737.7C1741.26 355.732 1744.14 352.85 1744.14 349.294V226.188C1744.14 220.241 1751.52 217.474 1755.43 221.954L1871.89 355.333C1871.93 355.377 1871.95 355.433 1871.95 355.491C1871.95 355.624 1872.06 355.732 1872.19 355.732H1872.24H1903.85C1907.41 355.732 1910.29 352.85 1910.29 349.294V164.438C1910.29 160.882 1907.41 158 1903.85 158H1878.39C1874.83 158 1871.95 160.882 1871.95 164.438V290.399C1871.95 296.384 1864.5 299.13 1860.61 294.577L1746.07 160.26Z" fill="white"/>
<path d="M501.008 173.655C498.703 175.961 495.576 177.256 492.316 177.256H184.318C173.432 177.256 167.918 164.151 175.528 156.368L226.049 104.699C228.362 102.333 231.531 101 234.839 101H543.985C554.937 101 560.422 114.242 552.677 121.986L501.008 173.655Z" fill="#1DD79B"/>
<path d="M501.008 408.399C498.703 410.705 495.576 412 492.316 412H184.318C173.432 412 167.918 398.896 175.528 391.112L226.049 339.443C228.362 337.078 231.531 335.744 234.839 335.744H543.985C554.937 335.744 560.422 348.986 552.677 356.73L501.008 408.399Z" fill="#1DD79B"/>
<path d="M501.008 221.927C498.703 219.621 495.576 218.326 492.316 218.326L184.318 218.326C173.432 218.326 167.918 231.43 175.528 239.214L226.049 290.883C228.362 293.248 231.53 294.582 234.839 294.582L543.985 294.582C554.937 294.582 560.422 281.34 552.677 273.596L501.008 221.927Z" fill="#1DD79B"/>
<path d="M2397 208.68H2427.66C2441.01 208.68 2450.43 209.893 2455.94 212.32C2461.45 214.653 2464.95 218.9 2466.44 225.06C2467.93 231.22 2468.68 241.813 2468.68 256.84C2468.68 271.867 2467.93 282.46 2466.44 288.62C2464.95 294.78 2461.45 299.073 2455.94 301.5C2450.43 303.833 2441.01 305 2427.66 305H2397V208.68ZM2425.7 293.8C2436.62 293.8 2443.95 293.24 2447.68 292.12C2451.51 290.907 2453.98 288.013 2455.1 283.44C2456.22 278.773 2456.78 269.907 2456.78 256.84C2456.78 243.867 2456.17 235.047 2454.96 230.38C2453.84 225.713 2451.37 222.82 2447.54 221.7C2443.81 220.487 2436.53 219.88 2425.7 219.88H2409.04V293.8H2425.7ZM2560.28 306.12C2547.5 306.12 2538.44 304.86 2533.12 302.34C2527.8 299.82 2524.4 295.433 2522.9 289.18C2521.5 282.833 2520.8 272.053 2520.8 256.84C2520.8 241.627 2521.5 230.893 2522.9 224.64C2524.4 218.293 2527.8 213.86 2533.12 211.34C2538.44 208.82 2547.5 207.56 2560.28 207.56C2572.98 207.56 2581.98 208.82 2587.3 211.34C2592.72 213.86 2596.12 218.293 2597.52 224.64C2599.02 230.893 2599.76 241.627 2599.76 256.84C2599.76 272.053 2599.02 282.833 2597.52 289.18C2596.12 295.433 2592.72 299.82 2587.3 302.34C2581.98 304.86 2572.98 306.12 2560.28 306.12ZM2560.28 294.92C2569.8 294.92 2576.24 294.313 2579.6 293.1C2582.96 291.887 2585.16 288.853 2586.18 284C2587.21 279.147 2587.72 270.093 2587.72 256.84C2587.72 243.587 2587.21 234.533 2586.18 229.68C2585.16 224.827 2582.96 221.793 2579.6 220.58C2576.24 219.367 2569.8 218.76 2560.28 218.76C2550.76 218.76 2544.28 219.367 2540.82 220.58C2537.46 221.793 2535.27 224.827 2534.24 229.68C2533.22 234.533 2532.7 243.587 2532.7 256.84C2532.7 270.093 2533.22 279.147 2534.24 284C2535.27 288.853 2537.46 291.887 2540.82 293.1C2544.28 294.313 2550.76 294.92 2560.28 294.92ZM2713.53 304.3C2710.64 304.86 2707 305.28 2702.61 305.56C2698.32 305.933 2694.31 306.12 2690.57 306.12C2679 306.12 2670.55 304.86 2665.23 302.34C2659.91 299.82 2656.32 295.247 2654.45 288.62C2652.68 281.9 2651.79 271.307 2651.79 256.84C2651.79 242.467 2652.68 231.92 2654.45 225.2C2656.32 218.48 2659.91 213.86 2665.23 211.34C2670.55 208.82 2679 207.56 2690.57 207.56C2694.4 207.56 2698.41 207.747 2702.61 208.12C2706.81 208.493 2710.27 209.007 2712.97 209.66V220.16C2705.97 219.227 2699.53 218.76 2693.65 218.76C2683.85 218.76 2676.99 219.507 2673.07 221C2669.25 222.493 2666.73 225.713 2665.51 230.66C2664.3 235.607 2663.69 244.333 2663.69 256.84C2663.69 269.347 2664.3 278.073 2665.51 283.02C2666.73 287.967 2669.25 291.187 2673.07 292.68C2676.99 294.173 2683.85 294.92 2693.65 294.92C2700.84 294.92 2707.47 294.453 2713.53 293.52V304.3ZM2838.42 208.68V262.86C2838.42 275.367 2837.63 284.56 2836.04 290.44C2834.45 296.227 2831.14 300.287 2826.1 302.62C2821.06 304.953 2812.94 306.12 2801.74 306.12C2790.54 306.12 2782.42 304.953 2777.38 302.62C2772.34 300.193 2768.98 296.087 2767.3 290.3C2765.71 284.513 2764.92 275.367 2764.92 262.86V208.68H2776.82V267.48C2776.82 275.88 2777.29 281.853 2778.22 285.4C2779.15 288.947 2781.3 291.42 2784.66 292.82C2788.02 294.22 2793.71 294.92 2801.74 294.92C2809.77 294.92 2815.41 294.22 2818.68 292.82C2822.04 291.42 2824.14 288.993 2824.98 285.54C2825.91 281.993 2826.38 275.973 2826.38 267.48V208.68H2838.42ZM2983.02 305V229.26H2982.46L2949.42 305H2940.6L2907.7 229.26H2907.14V305H2895.8V208.68H2912.04L2944.94 283.58H2945.64L2978.54 208.68H2994.78V305H2983.02ZM3053.31 305V208.68H3116.03V219.88H3065.35V250.82H3109.31V262.02H3065.35V293.8H3116.03V305H3053.31ZM3231.3 305L3180.48 231.36H3179.92V305H3168.3V208.68H3180.62L3230.74 280.64H3231.3V208.68H3242.78V305H3231.3ZM3322.06 305V220.3H3291.54V208.68H3364.48V220.3H3334.1V305H3322.06ZM3468.86 305L3458.92 279.38H3415.52L3405.58 305H3393.4L3429.8 208.68H3444.92L3481.32 305H3468.86ZM3437.5 221.7H3436.8L3419.16 268.04H3455.14L3437.5 221.7ZM3540.56 305V220.3H3510.04V208.68H3582.98V220.3H3552.6V305H3540.56ZM3631.82 305V208.68H3643.86V305H3631.82ZM3738.64 306.12C3725.86 306.12 3716.8 304.86 3711.48 302.34C3706.16 299.82 3702.76 295.433 3701.26 289.18C3699.86 282.833 3699.16 272.053 3699.16 256.84C3699.16 241.627 3699.86 230.893 3701.26 224.64C3702.76 218.293 3706.16 213.86 3711.48 211.34C3716.8 208.82 3725.86 207.56 3738.64 207.56C3751.34 207.56 3760.34 208.82 3765.66 211.34C3771.08 213.86 3774.48 218.293 3775.88 224.64C3777.38 230.893 3778.12 241.627 3778.12 256.84C3778.12 272.053 3777.38 282.833 3775.88 289.18C3774.48 295.433 3771.08 299.82 3765.66 302.34C3760.34 304.86 3751.34 306.12 3738.64 306.12ZM3738.64 294.92C3748.16 294.92 3754.6 294.313 3757.96 293.1C3761.32 291.887 3763.52 288.853 3764.54 284C3765.57 279.147 3766.08 270.093 3766.08 256.84C3766.08 243.587 3765.57 234.533 3764.54 229.68C3763.52 224.827 3761.32 221.793 3757.96 220.58C3754.6 219.367 3748.16 218.76 3738.64 218.76C3729.12 218.76 3722.64 219.367 3719.18 220.58C3715.82 221.793 3713.63 224.827 3712.6 229.68C3711.58 234.533 3711.06 243.587 3711.06 256.84C3711.06 270.093 3711.58 279.147 3712.6 284C3713.63 288.853 3715.82 291.887 3719.18 293.1C3722.64 294.313 3729.12 294.92 3738.64 294.92ZM3896.37 305L3845.55 231.36H3844.99V305H3833.37V208.68H3845.69L3895.81 280.64H3896.37V208.68H3907.85V305H3896.37Z" fill="#767676"/>
</svg>
