<svg width="4476" height="513" viewBox="0 0 4476 513" fill="none" xmlns="http://www.w3.org/2000/svg">
<path d="M2457 208.68H2487.66C2501.01 208.68 2510.43 209.893 2515.94 212.32C2521.45 214.653 2524.95 218.9 2526.44 225.06C2527.93 231.22 2528.68 241.813 2528.68 256.84C2528.68 271.867 2527.93 282.46 2526.44 288.62C2524.95 294.78 2521.45 299.073 2515.94 301.5C2510.43 303.833 2501.01 305 2487.66 305H2457V208.68ZM2485.7 293.8C2496.62 293.8 2503.95 293.24 2507.68 292.12C2511.51 290.907 2513.98 288.013 2515.1 283.44C2516.22 278.773 2516.78 269.907 2516.78 256.84C2516.78 243.867 2516.17 235.047 2514.96 230.38C2513.84 225.713 2511.37 222.82 2507.54 221.7C2503.81 220.487 2496.53 219.88 2485.7 219.88H2469.04V293.8H2485.7ZM2620.28 306.12C2607.5 306.12 2598.44 304.86 2593.12 302.34C2587.8 299.82 2584.4 295.433 2582.9 289.18C2581.5 282.833 2580.8 272.053 2580.8 256.84C2580.8 241.627 2581.5 230.893 2582.9 224.64C2584.4 218.293 2587.8 213.86 2593.12 211.34C2598.44 208.82 2607.5 207.56 2620.28 207.56C2632.98 207.56 2641.98 208.82 2647.3 211.34C2652.72 213.86 2656.12 218.293 2657.52 224.64C2659.02 230.893 2659.76 241.627 2659.76 256.84C2659.76 272.053 2659.02 282.833 2657.52 289.18C2656.12 295.433 2652.72 299.82 2647.3 302.34C2641.98 304.86 2632.98 306.12 2620.28 306.12ZM2620.28 294.92C2629.8 294.92 2636.24 294.313 2639.6 293.1C2642.96 291.887 2645.16 288.853 2646.18 284C2647.21 279.147 2647.72 270.093 2647.72 256.84C2647.72 243.587 2647.21 234.533 2646.18 229.68C2645.16 224.827 2642.96 221.793 2639.6 220.58C2636.24 219.367 2629.8 218.76 2620.28 218.76C2610.76 218.76 2604.28 219.367 2600.82 220.58C2597.46 221.793 2595.27 224.827 2594.24 229.68C2593.22 234.533 2592.7 243.587 2592.7 256.84C2592.7 270.093 2593.22 279.147 2594.24 284C2595.27 288.853 2597.46 291.887 2600.82 293.1C2604.28 294.313 2610.76 294.92 2620.28 294.92ZM2773.53 304.3C2770.64 304.86 2767 305.28 2762.61 305.56C2758.32 305.933 2754.3 306.12 2750.57 306.12C2739 306.12 2730.55 304.86 2725.23 302.34C2719.91 299.82 2716.32 295.247 2714.45 288.62C2712.68 281.9 2711.79 271.307 2711.79 256.84C2711.79 242.467 2712.68 231.92 2714.45 225.2C2716.32 218.48 2719.91 213.86 2725.23 211.34C2730.55 208.82 2739 207.56 2750.57 207.56C2754.4 207.56 2758.41 207.747 2762.61 208.12C2766.81 208.493 2770.26 209.007 2772.97 209.66V220.16C2765.97 219.227 2759.53 218.76 2753.65 218.76C2743.85 218.76 2736.99 219.507 2733.07 221C2729.24 222.493 2726.72 225.713 2725.51 230.66C2724.3 235.607 2723.69 244.333 2723.69 256.84C2723.69 269.347 2724.3 278.073 2725.51 283.02C2726.72 287.967 2729.24 291.187 2733.07 292.68C2736.99 294.173 2743.85 294.92 2753.65 294.92C2760.84 294.92 2767.46 294.453 2773.53 293.52V304.3ZM2898.42 208.68V262.86C2898.42 275.367 2897.62 284.56 2896.04 290.44C2894.45 296.227 2891.14 300.287 2886.1 302.62C2881.06 304.953 2872.94 306.12 2861.74 306.12C2850.54 306.12 2842.42 304.953 2837.38 302.62C2832.34 300.193 2828.98 296.087 2827.3 290.3C2825.71 284.513 2824.92 275.367 2824.92 262.86V208.68H2836.82V267.48C2836.82 275.88 2837.28 281.853 2838.22 285.4C2839.15 288.947 2841.3 291.42 2844.66 292.82C2848.02 294.22 2853.71 294.92 2861.74 294.92C2869.76 294.92 2875.41 294.22 2878.68 292.82C2882.04 291.42 2884.14 288.993 2884.98 285.54C2885.91 281.993 2886.38 275.973 2886.38 267.48V208.68H2898.42ZM3043.02 305V229.26H3042.46L3009.42 305H3000.6L2967.7 229.26H2967.14V305H2955.8V208.68H2972.04L3004.94 283.58H3005.64L3038.54 208.68H3054.78V305H3043.02ZM3113.31 305V208.68H3176.03V219.88H3125.35V250.82H3169.31V262.02H3125.35V293.8H3176.03V305H3113.31ZM3291.3 305L3240.48 231.36H3239.92V305H3228.3V208.68H3240.62L3290.74 280.64H3291.3V208.68H3302.78V305H3291.3ZM3382.06 305V220.3H3351.54V208.68H3424.48V220.3H3394.1V305H3382.06ZM3528.86 305L3518.92 279.38H3475.52L3465.58 305H3453.4L3489.8 208.68H3504.92L3541.32 305H3528.86ZM3497.5 221.7H3496.8L3479.16 268.04H3515.14L3497.5 221.7ZM3600.56 305V220.3H3570.04V208.68H3642.98V220.3H3612.6V305H3600.56ZM3691.82 305V208.68H3703.86V305H3691.82ZM3798.64 306.12C3785.86 306.12 3776.8 304.86 3771.48 302.34C3766.16 299.82 3762.76 295.433 3761.26 289.18C3759.86 282.833 3759.16 272.053 3759.16 256.84C3759.16 241.627 3759.86 230.893 3761.26 224.64C3762.76 218.293 3766.16 213.86 3771.48 211.34C3776.8 208.82 3785.86 207.56 3798.64 207.56C3811.34 207.56 3820.34 208.82 3825.66 211.34C3831.08 213.86 3834.48 218.293 3835.88 224.64C3837.38 230.893 3838.12 241.627 3838.12 256.84C3838.12 272.053 3837.38 282.833 3835.88 289.18C3834.48 295.433 3831.08 299.82 3825.66 302.34C3820.34 304.86 3811.34 306.12 3798.64 306.12ZM3798.64 294.92C3808.16 294.92 3814.6 294.313 3817.96 293.1C3821.32 291.887 3823.52 288.853 3824.54 284C3825.57 279.147 3826.08 270.093 3826.08 256.84C3826.08 243.587 3825.57 234.533 3824.54 229.68C3823.52 224.827 3821.32 221.793 3817.96 220.58C3814.6 219.367 3808.16 218.76 3798.64 218.76C3789.12 218.76 3782.64 219.367 3779.18 220.58C3775.82 221.793 3773.63 224.827 3772.6 229.68C3771.58 234.533 3771.06 243.587 3771.06 256.84C3771.06 270.093 3771.58 279.147 3772.6 284C3773.63 288.853 3775.82 291.887 3779.18 293.1C3782.64 294.313 3789.12 294.92 3798.64 294.92ZM3956.37 305L3905.55 231.36H3904.99V305H3893.37V208.68H3905.69L3955.81 280.64H3956.37V208.68H3967.85V305H3956.37Z" fill="#767676"/>
<path d="M162.805 365.174C165.998 361.984 170.327 360.192 174.84 360.192H591.301C598.887 360.192 602.685 369.366 597.318 374.728L515.027 456.954C511.834 460.145 507.505 461.937 502.991 461.937H86.5309C78.9443 461.937 75.1464 452.763 80.5131 447.4L162.805 365.174Z" fill="#00FFA3"/>
<path d="M162.805 57.9825C165.998 54.7921 170.327 53 174.84 53H591.301C598.887 53 602.685 62.1739 597.318 67.5363L515.027 149.763C511.834 152.953 507.505 154.745 502.991 154.745H86.5309C78.9443 154.745 75.1464 145.571 80.5131 140.209L162.805 57.9825Z" fill="#00FFA3"/>
<path d="M515.027 210.6C511.834 207.41 507.505 205.618 502.991 205.618H86.5309C78.9443 205.618 75.1464 214.791 80.5131 220.154L162.805 302.38C165.998 305.57 170.327 307.363 174.84 307.363H591.301C598.887 307.363 602.685 298.189 597.318 292.826L515.027 210.6Z" fill="#00FFA3"/>
<path d="M820.024 276.968H902.478C914.06 276.968 923.449 286.428 923.449 298.097C923.449 309.766 914.06 319.225 902.478 319.225H803.025C801.472 319.225 799.971 319.784 798.791 320.801L768.763 346.684C764.166 350.646 766.947 358.232 772.997 358.232H897.497C897.548 358.232 897.59 358.19 897.59 358.138C897.59 358.084 897.636 358.041 897.69 358.045C899.257 358.169 900.84 358.232 902.438 358.232C935.464 358.232 962.237 331.308 962.237 298.097C962.237 266.558 938.094 240.691 907.38 238.164C907.328 238.16 907.287 238.116 907.287 238.063C907.287 238.007 907.242 237.962 907.186 237.962H818.358C806.776 237.962 797.387 228.502 797.387 216.833C797.387 205.164 806.776 195.705 818.358 195.705H917.673C919.309 195.705 920.884 195.085 922.086 193.969L949.97 168.085C954.332 164.036 951.488 156.698 945.557 156.698H820.024C820.018 156.698 820.013 156.703 820.013 156.709C820.013 156.715 820.008 156.72 820.002 156.719C819.469 156.705 818.934 156.698 818.397 156.698C785.371 156.698 758.599 183.622 758.599 216.833C758.599 250.045 785.371 276.968 818.397 276.968C818.934 276.968 819.469 276.961 820.002 276.947C820.008 276.947 820.013 276.952 820.013 276.958C820.013 276.963 820.018 276.968 820.024 276.968Z" fill="white"/>
<path d="M1300.26 156.698C1296.66 156.698 1293.74 159.636 1293.74 163.26V351.67C1293.74 355.294 1296.66 358.232 1300.26 358.232H1451.25C1453.05 358.232 1454.77 357.481 1456.01 356.158L1474.91 335.893C1478.81 331.702 1475.86 324.843 1470.15 324.843H1338.32C1334.71 324.843 1331.79 321.905 1331.79 318.282V163.26C1331.79 159.636 1328.87 156.698 1325.27 156.698H1300.26Z" fill="white"/>
<path fill-rule="evenodd" clip-rule="evenodd" d="M1058.44 156.698C1058.43 156.698 1058.42 156.706 1058.42 156.716C1058.42 156.725 1058.42 156.733 1058.41 156.734C1039.11 157.57 1023.61 173.099 1022.78 192.437C1022.78 192.447 1022.77 192.454 1022.76 192.454C1022.76 192.454 1022.75 192.457 1022.75 192.46C1022.75 192.463 1022.74 192.467 1022.74 192.472V319.208C1022.74 319.218 1022.75 319.225 1022.76 319.225C1022.77 319.225 1022.78 319.233 1022.78 319.243C1022.76 319.776 1022.74 320.312 1022.74 320.85C1022.74 340.945 1038.57 357.337 1058.41 358.196C1058.42 358.197 1058.42 358.204 1058.42 358.214L1058.43 358.222L1058.43 358.228C1058.43 358.23 1058.44 358.232 1058.44 358.232H1195.44C1195.45 358.232 1195.46 358.224 1195.46 358.214L1195.46 358.204L1195.47 358.198L1195.48 358.196C1215.32 357.337 1231.14 340.945 1231.14 320.85C1231.14 320.312 1231.13 319.776 1231.1 319.243C1231.1 319.233 1231.11 319.225 1231.12 319.225C1231.13 319.225 1231.14 319.218 1231.14 319.208V192.472C1231.14 192.462 1231.13 192.454 1231.12 192.454C1231.11 192.454 1231.1 192.447 1231.1 192.437C1230.27 173.099 1214.77 157.57 1195.48 156.734C1195.47 156.733 1195.46 156.725 1195.46 156.716C1195.46 156.706 1195.45 156.698 1195.44 156.698H1058.44ZM1083.98 192.454L1083.97 192.459L1083.97 192.465C1083.97 192.471 1083.96 192.476 1083.96 192.476C1071.9 193.002 1062.21 202.771 1061.69 214.935C1061.69 214.941 1061.69 214.946 1061.68 214.946C1061.67 214.946 1061.67 214.951 1061.67 214.957V294.678C1061.67 294.684 1061.67 294.689 1061.68 294.689C1061.68 294.689 1061.69 294.694 1061.69 294.7C1061.68 295.035 1061.67 295.372 1061.67 295.711C1061.67 308.351 1071.56 318.662 1083.96 319.203C1083.96 319.203 1083.97 319.208 1083.97 319.214L1083.97 319.22L1083.97 319.224L1083.98 319.225H1169.9L1169.91 319.224L1169.91 319.22L1169.92 319.214C1169.92 319.208 1169.92 319.203 1169.93 319.203C1182.33 318.662 1192.22 308.351 1192.22 295.711C1192.22 295.372 1192.21 295.035 1192.19 294.7L1192.19 294.697L1192.2 294.694L1192.2 294.689C1192.21 294.689 1192.22 294.684 1192.22 294.678V214.957C1192.22 214.951 1192.21 214.946 1192.2 214.946C1192.2 214.946 1192.19 214.941 1192.19 214.935C1191.67 202.771 1181.99 193.002 1169.93 192.476C1169.92 192.476 1169.92 192.471 1169.92 192.465L1169.91 192.46L1169.91 192.456L1169.9 192.454H1083.98Z" fill="white"/>
<path fill-rule="evenodd" clip-rule="evenodd" d="M1694.45 351.67C1694.45 355.294 1697.35 358.232 1700.93 358.232H1726.53C1730.11 358.232 1733.01 355.294 1733.01 351.67V195.722C1733.01 195.712 1733 195.705 1732.99 195.705L1732.98 195.703L1732.98 195.7C1732.98 195.697 1732.97 195.692 1732.97 195.687C1733 195.154 1733.01 194.618 1733.01 194.079C1733.01 173.985 1717.34 157.593 1697.68 156.734C1697.67 156.733 1697.67 156.725 1697.67 156.716C1697.67 156.706 1697.66 156.698 1697.65 156.698H1566.13C1566.12 156.698 1566.11 156.706 1566.11 156.715C1566.11 156.725 1566.1 156.733 1566.09 156.732C1565.56 156.71 1565.03 156.698 1564.5 156.698C1544.1 156.698 1527.56 173.434 1527.56 194.079C1527.56 194.618 1527.57 195.154 1527.59 195.687C1527.59 195.697 1527.58 195.705 1527.57 195.705C1527.56 195.705 1527.56 195.712 1527.56 195.722V351.67C1527.56 355.294 1530.45 358.232 1534.03 358.232H1559.64C1563.21 358.232 1566.11 355.294 1566.11 351.67V286.78C1566.11 283.156 1569.01 280.219 1572.58 280.219H1687.98C1691.56 280.219 1694.45 283.156 1694.45 286.78V351.67ZM1566.11 244.402V211.957C1566.11 199.391 1576.18 189.204 1588.6 189.204H1671.97C1684.39 189.204 1694.45 199.391 1694.45 211.957V244.402C1694.45 248.026 1691.56 250.964 1687.98 250.964H1572.58C1569.01 250.964 1566.11 248.026 1566.11 244.402Z" fill="white"/>
<path fill-rule="evenodd" clip-rule="evenodd" d="M2234.96 358.232C2231.36 358.232 2228.43 355.294 2228.43 351.67V286.78C2228.43 283.156 2225.5 280.219 2221.89 280.219H2105.22C2101.61 280.219 2098.68 283.156 2098.68 286.78V351.67C2098.68 355.294 2095.76 358.232 2092.15 358.232H2066.3C2062.69 358.232 2059.76 355.294 2059.76 351.67V195.722L2059.76 195.717L2059.76 195.712C2059.77 195.707 2059.77 195.705 2059.78 195.705C2059.79 195.705 2059.8 195.697 2059.79 195.687C2059.77 195.154 2059.76 194.618 2059.76 194.079C2059.76 173.434 2076.46 156.698 2097.06 156.698C2097.6 156.698 2098.13 156.71 2098.67 156.732C2098.68 156.733 2098.68 156.725 2098.68 156.715C2098.68 156.706 2098.69 156.698 2098.7 156.698L2231.66 156.698C2231.67 156.698 2231.67 156.706 2231.67 156.716C2231.67 156.725 2231.68 156.733 2231.69 156.734C2251.53 157.593 2267.35 173.985 2267.35 194.079C2267.35 194.618 2267.34 195.154 2267.32 195.687C2267.32 195.697 2267.33 195.705 2267.34 195.705C2267.34 195.705 2267.35 195.707 2267.35 195.71C2267.35 195.713 2267.35 195.717 2267.35 195.722V351.67C2267.35 355.294 2264.43 358.232 2260.82 358.232H2234.96ZM2098.68 211.957V244.402C2098.68 248.026 2101.61 250.964 2105.22 250.964H2221.89C2225.5 250.964 2228.43 248.026 2228.43 244.402V211.957C2228.43 199.391 2218.26 189.204 2205.72 189.204H2121.39C2108.85 189.204 2098.68 199.391 2098.68 211.957Z" fill="white"/>
<path d="M1829.39 156.698C1831.28 156.698 1833.08 157.54 1834.31 159.002L1949.15 295.901C1953.06 300.542 1960.55 297.743 1960.55 291.643V163.26C1960.55 159.636 1963.45 156.698 1967.03 156.698H1992.63C1996.21 156.698 1999.11 159.636 1999.11 163.26V351.67C1999.11 355.294 1996.21 358.232 1992.63 358.232H1960.79C1960.66 358.232 1960.55 358.122 1960.55 357.987C1960.55 357.927 1960.53 357.87 1960.49 357.825L1843.72 221.882C1839.79 217.316 1832.38 220.136 1832.38 226.198V351.67C1832.38 355.294 1829.48 358.232 1825.9 358.232H1800.13C1796.56 358.232 1793.66 355.294 1793.66 351.67V163.26C1793.66 159.636 1796.56 156.698 1800.13 156.698H1829.39Z" fill="white"/>
</svg>
