<svg width="419" height="79" viewBox="0 0 419 79" fill="none" xmlns="http://www.w3.org/2000/svg">
<g clip-path="url(#clip0)">
<path d="M131.908 35.3H106.467V26.9H138.494V18.5H106.409C104.18 18.5 102.043 19.3789 100.468 20.9432C98.892 22.5076 98.0068 24.6293 98.0068 26.8417V35.3583C98.0068 37.5707 98.892 39.6924 100.468 41.2568C102.043 42.8211 104.18 43.7 106.409 43.7H131.849V52.1H98.612V60.5H131.908C134.136 60.5 136.273 59.6211 137.849 58.0568C139.425 56.4924 140.31 54.3707 140.31 52.1583V43.6417C140.31 41.4293 139.425 39.3076 137.849 37.7432C136.273 36.1789 134.136 35.3 131.908 35.3V35.3Z" fill="black"/>
<path d="M181.173 18.5H155.639C154.536 18.5 153.443 18.7158 152.424 19.1351C151.405 19.5544 150.479 20.1689 149.7 20.9436C148.92 21.7182 148.302 22.6379 147.88 23.6499C147.459 24.6619 147.242 25.7465 147.243 26.8417V52.1583C147.242 53.2535 147.459 54.3381 147.88 55.3501C148.302 56.3621 148.92 57.2818 149.7 58.0564C150.479 58.8311 151.405 59.4456 152.424 59.8649C153.443 60.2842 154.536 60.5 155.639 60.5H181.173C183.402 60.5 185.539 59.6211 187.114 58.0568C188.69 56.4924 189.575 54.3707 189.575 52.1583V26.8417C189.575 24.6293 188.69 22.5076 187.114 20.9432C185.539 19.3789 183.402 18.5 181.173 18.5V18.5ZM181.114 52.1H155.733V26.9H181.114V52.1Z" fill="black"/>
<path d="M270.539 18.5H245.639C243.41 18.5 241.273 19.3789 239.698 20.9432C238.122 22.5076 237.237 24.6293 237.237 26.8417V60.5H245.697V46.6983H270.48V60.5H278.941V26.8417C278.941 25.746 278.725 24.6609 278.303 23.6485C277.881 22.6361 277.262 21.7163 276.481 20.9415C275.701 20.1668 274.775 19.5523 273.755 19.1334C272.735 18.7145 271.642 18.4992 270.539 18.5V18.5ZM270.48 38.2983H245.697V26.9H270.48V38.2983Z" fill="black"/>
<path d="M369.598 18.5H344.704C343.599 18.4977 342.505 18.7118 341.483 19.13C340.462 19.5481 339.534 20.1622 338.752 20.937C337.97 21.7119 337.349 22.6322 336.926 23.6454C336.503 24.6586 336.285 25.7448 336.285 26.8417V60.5H344.745V46.6984H369.54V60.5H378V26.8417C378 24.6293 377.115 22.5076 375.539 20.9432C373.964 19.3789 371.827 18.5 369.598 18.5V18.5ZM369.54 38.2984H344.763V26.9H369.54V38.2984Z" fill="black"/>
<path d="M320.309 52.1H316.925L304.798 22C304.383 20.9672 303.666 20.0817 302.739 19.4578C301.812 18.8339 300.718 18.5002 299.598 18.5H292.066C290.581 18.5 289.157 19.0857 288.107 20.1282C287.057 21.1708 286.467 22.5848 286.467 24.0592V60.5H294.927V26.9H298.312L310.433 57C310.846 58.0327 311.562 58.9185 312.488 59.5426C313.414 60.1666 314.507 60.5002 315.626 60.5H323.159C324.644 60.5 326.068 59.9143 327.118 58.8718C328.168 57.8292 328.758 56.4152 328.758 54.9408V18.5H320.297L320.309 52.1Z" fill="black"/>
<path d="M205.533 18.5H197.072V52.1583C197.072 54.3707 197.957 56.4924 199.533 58.0568C201.109 59.6211 203.246 60.5 205.474 60.5H230.915V52.1H205.533V18.5Z" fill="black"/>
<path fill-rule="evenodd" clip-rule="evenodd" d="M37.954 50.525C38.1042 50.3635 38.2857 50.2337 38.4876 50.1435C38.6896 50.0533 38.9077 50.0045 39.1291 50H76.0503C76.2065 50.0022 76.3587 50.0491 76.4887 50.1352C76.6187 50.2213 76.7209 50.3428 76.7829 50.4851C76.845 50.6275 76.8643 50.7846 76.8386 50.9376C76.8128 51.0906 76.7431 51.2329 76.6378 51.3475L68.8117 59.975C68.6615 60.1365 68.48 60.2663 68.2781 60.3565C68.0762 60.4467 67.858 60.4955 67.6367 60.5H30.692C30.5358 60.4978 30.3835 60.4509 30.2536 60.3648C30.1236 60.2787 30.0214 60.1572 29.9593 60.0149C29.8973 59.8725 29.878 59.7154 29.9037 59.5624C29.9294 59.4094 29.9992 59.2671 30.1045 59.1525L37.954 50.525ZM76.673 43.3733C76.7784 43.4879 76.8481 43.6303 76.8738 43.7833C76.8996 43.9363 76.8802 44.0934 76.8182 44.2357C76.7561 44.3781 76.6539 44.4996 76.524 44.5856C76.394 44.6717 76.2417 44.7186 76.0855 44.7208L39.1526 44.75C38.9312 44.7455 38.7131 44.6967 38.5111 44.6065C38.3092 44.5163 38.1277 44.3865 37.9775 44.225L30.0927 35.6267C29.9874 35.5121 29.9177 35.3697 29.8919 35.2167C29.8662 35.0637 29.8855 34.9066 29.9476 34.7643C30.0097 34.6219 30.1118 34.5004 30.2418 34.4144C30.3718 34.3283 30.524 34.2814 30.6802 34.2792L67.6132 34.25C67.8345 34.2545 68.0527 34.3033 68.2546 34.3935C68.4565 34.4837 68.638 34.6135 68.7882 34.775L76.673 43.3733ZM37.954 19.025C38.1042 18.8635 38.2857 18.7337 38.4876 18.6435C38.6896 18.5533 38.9077 18.5045 39.1291 18.5L76.0738 18.5292C76.23 18.5314 76.3822 18.5783 76.5122 18.6644C76.6422 18.7504 76.7443 18.8719 76.8064 19.0143C76.8685 19.1566 76.8878 19.3137 76.8621 19.4667C76.8363 19.6197 76.7666 19.7621 76.6613 19.8767L68.8117 28.475C68.6615 28.6365 68.48 28.7663 68.2781 28.8565C68.0762 28.9467 67.858 28.9955 67.6367 29H30.692C30.5358 28.9978 30.3835 28.9509 30.2536 28.8648C30.1236 28.7787 30.0214 28.6572 29.9593 28.5149C29.8973 28.3725 29.878 28.2154 29.9037 28.0624C29.9294 27.9094 29.9992 27.7671 30.1045 27.6525L37.954 19.025Z" fill="#14F195"/>
</g>
</svg>
