<svg width="3386" height="1815" viewBox="0 0 3386 1815" fill="none" xmlns="http://www.w3.org/2000/svg">
<g clip-path="url(#clip0)">
<rect width="3386" height="1815" fill="black"/>
<path d="M1752.35 1669.05L2247.96 927.475C2313.27 829.749 2297.74 698.966 2211.35 619.109L1491.45 -46.3232C1419.34 -112.977 1313.85 -128.806 1225.45 -86.2374L428.064 297.746C400.078 311.223 369.727 319.11 338.712 320.967L139.367 332.903C26.6934 339.649 -65.8232 424.312 -82.5028 535.938L-115.258 755.146C-128.368 842.884 -91.7877 930.71 -20.2483 983.257L450.465 1329.01C480.492 1351.06 504.956 1379.82 521.907 1413L667.016 1697.02C710.958 1783.02 802.303 1834.19 898.55 1826.72L1572.33 1774.4C1645.34 1768.73 1711.68 1729.9 1752.35 1669.05Z" stroke="url(#paint0_radial)" stroke-width="3" opacity="50%">
	<animate attributeName="stroke-width" values="3;3;3;3;3;3;3;3;3;3;3;3;3;3;" dur="10s" begin="2.0s" repeatCount="indefinite" />
	<animate attributeName="opacity" values="0.5;1.0;0.5;0.5;0.5;0.5;0.5;0.5;0.5;0.5;0.5;0.5;0.5;0.5;" dur="10s" begin="2.0s" repeatCount="indefinite" />
</path>
<path d="M1715.9 1734.24L2268.23 949.474C2336.22 852.873 2324.36 721.933 2240.25 640.695L1489.53 -84.4279C1419.28 -152.279 1314.21 -169.843 1224.61 -128.71L365.391 265.733C337.025 278.755 306.448 286.147 275.374 287.496L53.1572 297.141C-59.6913 302.039 -154.558 385.161 -174.347 496.478L-218.288 743.668C-233.837 831.137 -199.732 919.508 -129.701 973.21L363.142 1351.14C392.542 1373.68 416.192 1402.84 432.206 1436.28L581.186 1747.39C622.711 1834.11 712.629 1886.78 809.088 1880.89L1532.94 1836.64C1606.1 1832.17 1673.53 1794.43 1715.9 1734.24Z" stroke="url(#paint1_radial)" stroke-width="3" opacity="50%">
	<animate attributeName="stroke-width" values="3;3;3;3;3;3;3;3;3;3;3;3;3;3;" dur="10s" begin="1.9s" repeatCount="indefinite" />
	<animate attributeName="opacity" values="0.5;1.0;0.5;0.5;0.5;0.5;0.5;0.5;0.5;0.5;0.5;0.5;0.5;0.5;" dur="10s" begin="1.9s" repeatCount="indefinite" />
</path>
<path d="M1795.37 1606.19L2228.98 903.559C2290.21 804.338 2269.27 674.07 2179.61 596.39L1483 -7.13083C1408.15 -71.9839 1302.01 -85.2334 1215.39 -40.539L481.856 337.954C454.434 352.104 424.414 360.726 393.48 363.337L216.331 378.289C103.966 387.774 14.9822 474.616 2.93394 586.55L-17.7884 779.07C-27.2573 867.04 12.9439 953.888 86.6294 1004.65L539.392 1316.54C570.323 1337.84 595.969 1365.99 614.286 1398.72L758.143 1655.8C805.633 1740.67 899.08 1789.57 994.998 1779.76L1619.76 1715.85C1692.51 1708.41 1757.23 1668 1795.37 1606.19Z" stroke="url(#paint2_radial)" stroke-width="3" opacity="50%">
	<animate attributeName="stroke-width" values="3;3;3;3;3;3;3;3;3;3;3;3;3;3;" dur="10s" begin="1.8s" repeatCount="indefinite" />
	<animate attributeName="opacity" values="0.5;1.0;0.5;0.5;0.5;0.5;0.5;0.5;0.5;0.5;0.5;0.5;0.5;0.5;" dur="10s" begin="1.8s" repeatCount="indefinite" />
</path>
<path d="M1830.92 1540.14L2210.18 884.447C2268.12 784.274 2243.11 654.742 2151.17 578.838L1492.16 34.7533C1415.19 -28.7947 1308.45 -40.0811 1223.14 6.30819L553.218 370.592C526.206 385.28 496.411 394.479 465.506 397.672L312.588 413.472C200.492 425.054 114.241 513.492 105.756 625.549L93.3632 789.214C86.7028 877.172 129.575 963.083 204.751 1012.42L631.689 1292.64C663.271 1313.37 689.781 1341.01 709.106 1373.37L846.174 1602.91C896.331 1686.9 991.41 1734.08 1087.11 1722.47L1658.67 1653.12C1731.26 1644.31 1794.75 1602.67 1830.92 1540.14Z" stroke="url(#paint3_radial)" stroke-width="3" opacity="50%">
	<animate attributeName="stroke-width" values="3;3;3;3;3;3;3;3;3;3;3;3;3;3;" dur="10s" begin="1.7s" repeatCount="indefinite" />
	<animate attributeName="opacity" values="0.5;1.0;0.5;0.5;0.5;0.5;0.5;0.5;0.5;0.5;0.5;0.5;0.5;0.5;" dur="10s" begin="1.7s" repeatCount="indefinite" />
</path>
<path d="M1864.82 1475.64L2191.41 865.737C2245.55 764.641 2215.97 636.18 2121.57 562.389L1499.49 76.1268C1420.12 14.0852 1312.66 5.04897 1228.85 53.3689L621.325 403.621C594.783 418.923 565.24 428.782 534.363 432.641L405.09 448.796C293.342 462.762 210.227 552.925 205.794 664.992L200.421 800.808C196.948 888.609 242.788 973.317 319.573 1020.99L721.277 1270.41C753.575 1290.46 781.041 1317.51 801.487 1349.41L931.494 1552.25C984.651 1635.18 1081.57 1680.36 1177 1666.7L1696.45 1592.34C1768.84 1581.98 1830.92 1538.95 1864.82 1475.64Z" stroke="url(#paint4_radial)" stroke-width="3" opacity="50%">
	<animate attributeName="stroke-width" values="3;3;3;3;3;3;3;3;3;3;3;3;3;3;" dur="10s" begin="1.6s" repeatCount="indefinite" />
	<animate attributeName="opacity" values="0.5;1.0;0.5;0.5;0.5;0.5;0.5;0.5;0.5;0.5;0.5;0.5;0.5;0.5;" dur="10s" begin="1.6s" repeatCount="indefinite" />
</path>
<path d="M1895.69 1409.62L2172.42 848.726C2222.67 746.888 2188.62 619.77 2091.91 548.192L1512.17 119.062C1430.39 58.5325 1322.16 51.7704 1239.85 102.048L694.898 434.908C668.824 450.834 639.525 461.362 608.666 465.894L503.788 481.296C392.434 497.649 312.485 589.448 312.105 701.392L311.742 808.559C311.445 896.039 360.159 979.389 438.442 1025.34L811.995 1244.63C844.977 1264 873.367 1290.43 894.905 1321.83L1015.55 1497.72C1071.67 1579.54 1170.43 1622.69 1265.59 1606.96L1731.24 1530.02C1803.43 1518.09 1864.08 1473.69 1895.69 1409.62Z" stroke="url(#paint5_radial)" stroke-width="3" opacity="50%">
	<animate attributeName="stroke-width" values="3;3;3;3;3;3;3;3;3;3;3;3;3;3;" dur="10s" begin="1.5s" repeatCount="indefinite" />
	<animate attributeName="opacity" values="0.5;1.0;0.5;0.5;0.5;0.5;0.5;0.5;0.5;0.5;0.5;0.5;0.5;0.5;" dur="10s" begin="1.5s" repeatCount="indefinite" />
</path>
<path d="M1929.77 1341.48L2154.14 830.937C2199.21 728.39 2159.45 603.399 2059.97 534.858L1523.72 165.41C1438.79 106.899 1329.51 103.166 1249.19 156.033L770.531 471.072C745.076 487.826 716.094 499.244 685.248 504.67L605.804 518.646C495.036 538.133 419.274 631.94 424.19 743.518L427.634 821.666C431.459 908.496 483.794 989.852 563.887 1033.48L908.632 1221.26C942.469 1239.69 972.021 1265.26 994.944 1295.95L1105.55 1444.04C1165.5 1524.3 1266.65 1564.71 1361.43 1546.26L1770.56 1466.63C1842.47 1452.64 1901.22 1406.46 1929.77 1341.48Z" stroke="url(#paint6_radial)" stroke-width="3" opacity="50%">
	<animate attributeName="stroke-width" values="3;3;3;3;3;3;3;3;3;3;3;3;3;3;" dur="10s" begin="1.4s" repeatCount="indefinite" />
	<animate attributeName="opacity" values="0.5;1.0;0.5;0.5;0.5;0.5;0.5;0.5;0.5;0.5;0.5;0.5;0.5;0.5;" dur="10s" begin="1.4s" repeatCount="indefinite" />
</path>
<path d="M1956.04 1269.38L2133.08 812.891C2173 709.959 2127.9 587.461 2025.98 522.024L1540.24 210.14C1452.22 153.621 1341.83 152.914 1263.47 208.366L850.056 500.936C825.211 518.519 796.53 530.828 765.681 537.147L712.268 548.09C602.152 570.648 530.514 666.277 540.577 777.28L544.979 825.835C552.769 911.77 608.446 990.944 690.112 1032.22L1002.39 1190.06C1037.01 1207.55 1067.64 1232.25 1091.85 1262.18L1189.29 1382.64C1252.91 1461.29 1356.39 1498.95 1450.79 1477.81L1802.03 1399.15C1873.65 1383.11 1930.52 1335.2 1956.04 1269.38Z" stroke="url(#paint7_radial)" stroke-width="3" opacity="50%">
	<animate attributeName="stroke-width" values="3;3;3;3;3;3;3;3;3;3;3;3;3;3;" dur="10s" begin="1.3s" repeatCount="indefinite" />
	<animate attributeName="opacity" values="0.5;1.0;0.5;0.5;0.5;0.5;0.5;0.5;0.5;0.5;0.5;0.5;0.5;0.5;" dur="10s" begin="1.3s" repeatCount="indefinite" />
</path>
<path d="M1980.28 1196.37L2112.03 794.285C2145.84 691.112 2094.41 571.845 1989.61 510.357L1554.79 255.249C1463.1 201.46 1351.58 204.563 1275.78 263.011L926.363 532.417C902.313 550.96 874.059 564.334 843.268 571.75L815.159 578.519C705.965 604.818 639.378 702.441 655.608 812.435L658.515 832.141C671.009 916.813 730.644 993.175 814.174 1031.46L1094.05 1159.75C1129.58 1176.03 1161.49 1199.57 1187.24 1228.5L1270.49 1322.01C1338.51 1398.4 1444.65 1432.5 1538.44 1408.08L1832.8 1331.42C1903.96 1312.89 1958.45 1262.99 1980.28 1196.37Z" stroke="url(#paint8_radial)" stroke-width="3" opacity="50%">
	<animate attributeName="stroke-width" values="3;3;3;3;3;3;3;3;3;3;3;3;3;3;" dur="10s" begin="1.2s" repeatCount="indefinite" />
	<animate attributeName="opacity" values="0.5;1.0;0.5;0.5;0.5;0.5;0.5;0.5;0.5;0.5;0.5;0.5;0.5;0.5;" dur="10s" begin="1.2s" repeatCount="indefinite" />
</path>
<path d="M2002.61 1120.28L2091.29 773.177C2117.55 670.424 2059.24 555.963 1951.82 499.401L1572.09 299.448C1475.9 248.792 1362.65 256.624 1289.91 318.962L1006.36 561.96C983.257 581.759 955.464 596.502 924.659 605.298L918.349 607.1C812.965 637.195 753.897 734.632 776.874 840.479C794.376 921.109 856.665 991.905 939.858 1025.72L1188.86 1126.94C1225.35 1141.77 1258.61 1163.87 1286.04 1191.5L1352.74 1258.69C1425.85 1332.35 1535.26 1362.09 1628.34 1333.62L1863.11 1261.8C1933.74 1240.2 1985.35 1187.84 2002.61 1120.28Z" stroke="url(#paint9_radial)" stroke-width="3" opacity="50%">
	<animate attributeName="stroke-width" values="3;3;3;3;3;3;3;3;3;3;3;3;3;3;" dur="10s" begin="1.1s" repeatCount="indefinite" />
	<animate attributeName="opacity" values="0.5;1.0;0.5;0.5;0.5;0.5;0.5;0.5;0.5;0.5;0.5;0.5;0.5;0.5;" dur="10s" begin="1.1s" repeatCount="indefinite" />
</path>
<path d="M2013.1 1044.57L2068.95 754.661C2088.61 652.601 2024.47 542.725 1914.9 490.794L1596.03 339.662C1495.9 292.203 1381.35 304.513 1311.59 370.23L1083.04 585.533C1063.05 604.366 1038.43 618.767 1010.72 627.847L1008.62 628.535C913.727 659.62 864.79 749.96 891.445 844.839C911.566 916.463 971.477 977.737 1048.53 1005.5L1272.79 1086.31C1310.06 1099.75 1344.48 1120.45 1373.34 1146.81L1420.34 1189.72C1497.91 1260.56 1610.04 1286.09 1702.29 1253.92L1881.07 1191.58C1951.07 1167.17 1999.97 1112.72 2013.1 1044.57Z" stroke="url(#paint10_radial)" stroke-width="3" opacity="50%">
	<animate attributeName="stroke-width" values="3;3;3;3;3;3;3;3;3;3;3;3;3;3;" dur="10s" begin="0.9s" repeatCount="indefinite" />
	<animate attributeName="opacity" values="0.5;1.0;0.5;0.5;0.5;0.5;0.5;0.5;0.5;0.5;0.5;0.5;0.5;0.5;" dur="10s" begin="0.9s" repeatCount="indefinite" />
</path>
<path d="M2020.13 964.134L2044.72 730.858C2055.29 630.697 1984.31 528.119 1872.99 482.664L1618.44 378.725C1512.73 335.559 1395.98 354.385 1330.48 425.158L1159.58 609.824C1143.13 627.597 1122.11 641.646 1097.87 651.066C1015.44 683.102 978.063 764.773 1008.44 846.498L1009.7 849.899C1032.78 912.007 1090.31 963.151 1161.13 984.526L1359.55 1044.42C1397.69 1055.93 1433.42 1074.66 1463.98 1099.17L1488.71 1118.99C1572.16 1185.9 1688.02 1205.46 1779.09 1168.01L1898.69 1118.84C1967.79 1090.43 2012.86 1033.01 2020.13 964.134Z" stroke="url(#paint11_radial)" stroke-width="3" opacity="50%">
	<animate attributeName="stroke-width" values="3;3;3;3;3;3;3;3;3;3;3;3;3;3;" dur="10s" begin="0.8s" repeatCount="indefinite" />
	<animate attributeName="opacity" values="0.5;1.0;0.5;0.5;0.5;0.5;0.5;0.5;0.5;0.5;0.5;0.5;0.5;0.5;" dur="10s" begin="0.8s" repeatCount="indefinite" />
</path>
<path d="M2019.62 879.556L2019.31 704.379C2019.15 607.38 1940.91 514.385 1828.23 477.259L1643.76 416.476C1531.38 379.449 1412.39 407.105 1352.85 484.088L1237.43 633.327C1224.61 649.905 1207.3 663.52 1186.68 673.248C1118.28 705.521 1092.72 776.792 1125.56 843.67L1129.71 852.11C1155.29 904.208 1209.78 944.834 1273.85 959.578L1445.18 999.002C1483.89 1007.91 1520.74 1023.89 1552.92 1045.73C1642.64 1106.61 1761.79 1117.94 1850.26 1074.01L1912.18 1043.27C1979.75 1009.72 2019.73 948.795 2019.62 879.556Z" stroke="url(#paint12_radial)" stroke-width="3" opacity="50%">
	<animate attributeName="stroke-width" values="3;3;3;3;3;3;3;3;3;3;3;3;3;3;" dur="10s" begin="0.7s" repeatCount="indefinite" />
	<animate attributeName="opacity" values="0.5;1.0;0.5;0.5;0.5;0.5;0.5;0.5;0.5;0.5;0.5;0.5;0.5;0.5;" dur="10s" begin="0.7s" repeatCount="indefinite" />
</path>
<path d="M2008.03 794.069L1992.46 676.354C1980.3 584.426 1895.61 503.608 1783.05 476.516L1675.08 450.531C1555.02 421.635 1433.81 461.044 1382.43 545.676L1317.4 652.807C1308.18 667.993 1294.62 681.006 1277.72 690.901C1223.51 722.632 1208.69 782.887 1242.31 834.854L1250.67 847.779C1277.76 889.643 1328.09 919.836 1384.68 928.174L1534.91 950.305C1568.61 955.271 1601.22 966.169 1630.3 982.191C1713.76 1028.17 1819.64 1028.83 1892.98 983.816L1918.58 968.105C1983.75 928.101 2017.16 863.11 2008.03 794.069Z" stroke="url(#paint13_radial)" stroke-width="3" opacity="50%">
	<animate attributeName="stroke-width" values="3;3;3;3;3;3;3;3;3;3;3;3;3;3;" dur="10s" begin="0.6s" repeatCount="indefinite" />
	<animate attributeName="opacity" values="0.5;1.0;0.5;0.5;0.5;0.5;0.5;0.5;0.5;0.5;0.5;0.5;0.5;0.5;" dur="10s" begin="0.6s" repeatCount="indefinite" />
</path>
<path d="M1991.87 739.279L1969.89 656.405C1947.18 570.748 1858.9 502.133 1748.55 484.374L1723.02 480.264C1595.7 459.773 1472.72 512.018 1430.6 604.493L1404.14 662.577C1398.04 675.967 1387.93 687.899 1374.61 697.43C1333.52 726.821 1326.63 775.86 1358.16 814.482L1370.86 830.034C1397.27 862.38 1441.56 883.641 1489.69 887.067L1616.75 896.115C1644.93 898.121 1672.53 904.936 1697.57 916.068C1772.05 949.176 1862.98 941.786 1921.61 897.86L1934.79 887.99C1985.12 850.285 2006.52 794.528 1991.87 739.279Z" stroke="url(#paint14_radial)" stroke-width="3" opacity="50%">
	<animate attributeName="stroke-width" values="3;3;3;3;3;3;3;3;3;3;3;3;3;3;" dur="10s" begin="0.5s" repeatCount="indefinite" />
	<animate attributeName="opacity" values="0.5;1.0;0.5;0.5;0.5;0.5;0.5;0.5;0.5;0.5;0.5;0.5;0.5;0.5;" dur="10s" begin="0.5s" repeatCount="indefinite" />
</path>
<path d="M1968.28 684.474L1934.23 612.337C1904.01 548.319 1827.49 504.428 1738.53 500.08C1622.75 494.422 1518.44 556.657 1496.52 644.475L1490.02 670.512C1487.17 681.899 1480.72 692.621 1471.22 701.722C1443.63 728.17 1444.02 765.585 1472.14 790.935L1490.77 807.725C1515.74 830.235 1553.02 842.502 1591.87 840.992L1694.32 837.013C1716.49 836.152 1738.54 838.963 1759 845.256C1823.42 865.075 1897.93 848.981 1940.66 806.017L1944.06 802.597C1977.84 768.628 1986.98 724.079 1968.28 684.474Z" stroke="url(#paint15_radial)" stroke-width="3" opacity="50%">
	<animate attributeName="stroke-width" values="3;3;3;3;3;3;3;3;3;3;3;3;3;3;" dur="10s" begin="0.4s" repeatCount="indefinite" />
	<animate attributeName="opacity" values="0.5;1.0;0.5;0.5;0.5;0.5;0.5;0.5;0.5;0.5;0.5;0.5;0.5;0.5;" dur="10s" begin="0.4s" repeatCount="indefinite" />
</path>
<path d="M1931.94 654.129L1907.11 601.347C1884.83 553.979 1828.22 521.513 1762.42 518.37C1677.16 514.297 1600.39 560.104 1584.14 624.749L1579.21 644.347C1577.1 652.745 1572.33 660.65 1565.33 667.362C1544.93 686.908 1545.2 714.565 1565.98 733.309L1579.53 745.533C1597.95 762.141 1625.46 771.179 1654.11 770.034L1729.67 767.014C1746.03 766.36 1762.32 768.421 1777.43 773.055C1824.91 787.621 1879.79 775.752 1911.28 744.106L1913.95 741.422C1938.93 716.325 1945.71 683.41 1931.94 654.129Z" stroke="url(#paint16_radial)" stroke-width="3" opacity="50%">
	<animate attributeName="stroke-width" values="3;3;3;3;3;3;3;3;3;3;3;3;3;3;" dur="10s" begin="0.3s" repeatCount="indefinite" />
	<animate attributeName="opacity" values="0.5;1.0;0.5;0.5;0.5;0.5;0.5;0.5;0.5;0.5;0.5;0.5;0.5;0.5;" dur="10s" begin="0.3s" repeatCount="indefinite" />
</path>
<path d="M1890.98 628.429L1875.59 595.458C1861.47 565.23 1825.34 544.523 1783.38 542.606C1729.46 540.144 1680.97 569.086 1670.56 609.94L1667.27 622.847C1665.91 628.171 1662.88 633.182 1658.43 637.438C1645.43 649.885 1645.59 667.502 1658.82 679.449L1667.19 687.011C1678.87 697.553 1696.33 703.274 1714.51 702.509L1762.43 700.492C1772.83 700.054 1783.19 701.346 1792.8 704.278C1822.87 713.454 1857.59 705.927 1877.54 685.905L1879.43 684.007C1895.34 668.035 1899.7 647.087 1890.98 628.429Z" stroke="url(#paint17_radial)" stroke-width="3" opacity="50%">
	<animate attributeName="stroke-width" values="3;3;3;3;3;3;3;3;3;3;3;3;3;3;" dur="10s" begin="0.2s" repeatCount="indefinite" />
	<animate attributeName="opacity" values="0.5;1.0;0.5;0.5;0.5;0.5;0.5;0.5;0.5;0.5;0.5;0.5;0.5;0.5;" dur="10s" begin="0.2s" repeatCount="indefinite" />
</path>
<path d="M1852.52 607.362L1844.84 591.136C1838.07 576.814 1820.94 566.993 1801.04 566.009C1775.09 564.727 1751.69 578.676 1746.79 598.358L1745.35 604.157C1744.72 606.709 1743.27 609.111 1741.14 611.151C1734.97 617.071 1735.06 625.445 1741.35 631.119L1745.55 634.904C1751.15 639.947 1759.5 642.697 1768.21 642.364L1791.16 641.484C1796.13 641.294 1801.07 641.926 1805.65 643.337C1820.09 647.786 1836.79 644.179 1846.37 634.546L1847.11 633.804C1854.67 626.199 1856.71 616.226 1852.52 607.362Z" stroke="url(#paint18_radial)" stroke-width="3" opacity="50%">
	<animate attributeName="stroke-width" values="3;3;3;3;3;3;3;3;3;3;3;3;3;3;" dur="10s" begin="0.1s" repeatCount="indefinite" />
	<animate attributeName="opacity" values="0.5;1.0;0.5;0.5;0.5;0.5;0.5;0.5;0.5;0.5;0.5;0.5;0.5;0.5;" dur="10s" begin="0.1s" repeatCount="indefinite" />
</path>
</g>
<defs>
<radialGradient id="paint0_radial" cx="0" cy="0" r="1" gradientUnits="userSpaceOnUse" gradientTransform="translate(1704.89 913.847) rotate(150.588) scale(2202.61 1894.49)">
<stop/>
<stop offset="0.302083" stop-color="#0C8C9C"/>
<stop offset="0.713542" stop-color="#9500E3"/>
<stop offset="1" stop-color="#FF00FB"/>
</radialGradient>
<radialGradient id="paint1_radial" cx="0" cy="0" r="1" gradientUnits="userSpaceOnUse" gradientTransform="translate(1691.64 934.514) rotate(151.676) scale(2327.27 1982.51)">
<stop/>
<stop offset="0.302083" stop-color="#0C8C9C"/>
<stop offset="0.713542" stop-color="#9500E3"/>
<stop offset="1" stop-color="#FF00FB"/>
</radialGradient>
<radialGradient id="paint2_radial" cx="0" cy="0" r="1" gradientUnits="userSpaceOnUse" gradientTransform="translate(1717.54 894.724) rotate(148.956) scale(2078.63 1814.21)">
<stop/>
<stop offset="0.302083" stop-color="#0C8C9C"/>
<stop offset="0.713542" stop-color="#9500E3"/>
<stop offset="1" stop-color="#FF00FB"/>
</radialGradient>
<radialGradient id="paint3_radial" cx="0" cy="0" r="1" gradientUnits="userSpaceOnUse" gradientTransform="translate(1732.98 875.668) rotate(147.669) scale(1949.96 1722.45)">
<stop/>
<stop offset="0.302083" stop-color="#0C8C9C"/>
<stop offset="0.713542" stop-color="#9500E3"/>
<stop offset="1" stop-color="#FF00FB"/>
</radialGradient>
<radialGradient id="paint4_radial" cx="0" cy="0" r="1" gradientUnits="userSpaceOnUse" gradientTransform="translate(1746.9 857.409) rotate(146.189) scale(1824.57 1634.25)">
<stop/>
<stop offset="0.302083" stop-color="#0C8C9C"/>
<stop offset="0.713542" stop-color="#9500E3"/>
<stop offset="1" stop-color="#FF00FB"/>
</radialGradient>
<radialGradient id="paint5_radial" cx="0" cy="0" r="1" gradientUnits="userSpaceOnUse" gradientTransform="translate(1761.18 839.342) rotate(144.683) scale(1696.96 1541.84)">
<stop/>
<stop offset="0.302083" stop-color="#0C8C9C"/>
<stop offset="0.713542" stop-color="#9500E3"/>
<stop offset="1" stop-color="#FF00FB"/>
</radialGradient>
<radialGradient id="paint6_radial" cx="0" cy="0" r="1" gradientUnits="userSpaceOnUse" gradientTransform="translate(1776.4 821.743) rotate(142.674) scale(1563.77 1448.29)">
<stop/>
<stop offset="0.302083" stop-color="#0C8C9C"/>
<stop offset="0.713542" stop-color="#9500E3"/>
<stop offset="1" stop-color="#FF00FB"/>
</radialGradient>
<radialGradient id="paint7_radial" cx="0" cy="0" r="1" gradientUnits="userSpaceOnUse" gradientTransform="translate(1789.17 801.731) rotate(140.663) scale(1429.44 1349.6)">
<stop/>
<stop offset="0.302083" stop-color="#0C8C9C"/>
<stop offset="0.713542" stop-color="#9500E3"/>
<stop offset="1" stop-color="#FF00FB"/>
</radialGradient>
<radialGradient id="paint8_radial" cx="0" cy="0" r="1" gradientUnits="userSpaceOnUse" gradientTransform="translate(1800.15 781.768) rotate(138.227) scale(1297.25 1252.52)">
<stop/>
<stop offset="0.302083" stop-color="#0C8C9C"/>
<stop offset="0.713542" stop-color="#9500E3"/>
<stop offset="1" stop-color="#FF00FB"/>
</radialGradient>
<radialGradient id="paint9_radial" cx="0" cy="0" r="1" gradientUnits="userSpaceOnUse" gradientTransform="translate(1810.87 760.163) rotate(135.144) scale(1162.37 1155.07)">
<stop/>
<stop offset="0.302083" stop-color="#0C8C9C"/>
<stop offset="0.713542" stop-color="#9500E3"/>
<stop offset="1" stop-color="#FF00FB"/>
</radialGradient>
<radialGradient id="paint10_radial" cx="0" cy="0" r="1" gradientUnits="userSpaceOnUse" gradientTransform="translate(1818.38 737.706) rotate(132.343) scale(1034.93 1054.08)">
<stop/>
<stop offset="0.302083" stop-color="#0C8C9C"/>
<stop offset="0.713542" stop-color="#9500E3"/>
<stop offset="1" stop-color="#FF00FB"/>
</radialGradient>
<radialGradient id="paint11_radial" cx="0" cy="0" r="1" gradientUnits="userSpaceOnUse" gradientTransform="translate(1822.79 712.833) rotate(128.256) scale(903.77 953.868)">
<stop/>
<stop offset="0.302083" stop-color="#0C8C9C"/>
<stop offset="0.713542" stop-color="#9500E3"/>
<stop offset="1" stop-color="#FF00FB"/>
</radialGradient>
<radialGradient id="paint12_radial" cx="0" cy="0" r="1" gradientUnits="userSpaceOnUse" gradientTransform="translate(1824.34 686.312) rotate(122.997) scale(773.202 850.355)">
<stop/>
<stop offset="0.302083" stop-color="#0C8C9C"/>
<stop offset="0.713542" stop-color="#9500E3"/>
<stop offset="1" stop-color="#FF00FB"/>
</radialGradient>
<radialGradient id="paint13_radial" cx="0" cy="0" r="1" gradientUnits="userSpaceOnUse" gradientTransform="translate(1822.56 659.222) rotate(116.311) scale(646.236 743.663)">
<stop/>
<stop offset="0.302083" stop-color="#0C8C9C"/>
<stop offset="0.713542" stop-color="#9500E3"/>
<stop offset="1" stop-color="#FF00FB"/>
</radialGradient>
<radialGradient id="paint14_radial" cx="0" cy="0" r="1" gradientUnits="userSpaceOnUse" gradientTransform="translate(1823.12 636.94) rotate(109.325) scale(527.722 631.459)">
<stop/>
<stop offset="0.302083" stop-color="#0C8C9C"/>
<stop offset="0.713542" stop-color="#9500E3"/>
<stop offset="1" stop-color="#FF00FB"/>
</radialGradient>
<radialGradient id="paint15_radial" cx="0" cy="0" r="1" gradientUnits="userSpaceOnUse" gradientTransform="translate(1817.23 614.037) rotate(98.6198) scale(413.756 514.282)">
<stop/>
<stop offset="0.302083" stop-color="#0C8C9C"/>
<stop offset="0.713542" stop-color="#9500E3"/>
<stop offset="1" stop-color="#FF00FB"/>
</radialGradient>
<radialGradient id="paint16_radial" cx="0" cy="0" r="1" gradientUnits="userSpaceOnUse" gradientTransform="translate(1820.66 602.4) rotate(98.723) scale(305.406 379.194)">
<stop/>
<stop offset="0.302083" stop-color="#0C8C9C"/>
<stop offset="0.713542" stop-color="#9500E3"/>
<stop offset="1" stop-color="#FF00FB"/>
</radialGradient>
<radialGradient id="paint17_radial" cx="0" cy="0" r="1" gradientUnits="userSpaceOnUse" gradientTransform="translate(1820.56 595.883) rotate(98.9184) scale(194.015 240.386)">
<stop/>
<stop offset="0.302083" stop-color="#0C8C9C"/>
<stop offset="0.713542" stop-color="#9500E3"/>
<stop offset="1" stop-color="#FF00FB"/>
</radialGradient>
<radialGradient id="paint18_radial" cx="0" cy="0" r="1" gradientUnits="userSpaceOnUse" gradientTransform="translate(1818.65 591.546) rotate(98.5695) scale(92.6734 115.25)">
<stop/>
<stop offset="0.302083" stop-color="#0C8C9C"/>
<stop offset="0.713542" stop-color="#9500E3"/>
<stop offset="1" stop-color="#FF00FB"/>
</radialGradient>
<radialGradient id="bright_radial" cx="0" cy="0" r="1" gradientUnits="userSpaceOnUse" gradientTransform="translate(1746.9 857.409) rotate(146.189) scale(1824.57 1634.25)">
<stop/>
<stop offset="0.302083" stop-color="#0C8C9C"/>
<stop offset="0.713542" stop-color="#0C8C9C"/>
<stop offset="1" stop-color="#FF00FB"/>
</radialGradient>
<clipPath id="clip0">
<rect width="3386" height="1815" fill="white"/>
</clipPath>
</defs>
</svg>
