<svg width="24" height="24" viewBox="0 0 24 24" fill="none" xmlns="http://www.w3.org/2000/svg">
<g clip-path="url(#clip0)">
<path d="M22.675 0H1.325C0.593 0 0 0.593 0 1.325V22.676C0 23.407 0.593 24 1.325 24H12.82V14.706H9.692V11.084H12.82V8.413C12.82 5.313 14.713 3.625 17.479 3.625C18.804 3.625 19.942 3.724 20.274 3.768V7.008L18.356 7.009C16.852 7.009 16.561 7.724 16.561 8.772V11.085H20.148L19.681 14.707H16.561V24H22.677C23.407 24 24 23.407 24 22.675V1.325C24 0.593 23.407 0 22.675 0V0Z" fill="#869AB8"/>
</g>
<defs>
<clipPath id="clip0">
<rect width="24" height="24" fill="white"/>
</clipPath>
</defs>
</svg>
