<svg width="24" height="24" viewBox="0 0 24 24" fill="none" xmlns="http://www.w3.org/2000/svg">
<g clip-path="url(#clip0)">
<path d="M24 4.55705C23.117 4.94905 22.168 5.21305 21.172 5.33205C22.189 4.72305 22.97 3.75805 23.337 2.60805C22.386 3.17205 21.332 3.58205 20.21 3.80305C19.313 2.84605 18.032 2.24805 16.616 2.24805C13.437 2.24805 11.101 5.21405 11.819 8.29305C7.728 8.08805 4.1 6.12805 1.671 3.14905C0.381 5.36205 1.002 8.25705 3.194 9.72305C2.388 9.69705 1.628 9.47605 0.965 9.10705C0.911 11.388 2.546 13.522 4.914 13.997C4.221 14.185 3.462 14.229 2.69 14.081C3.316 16.037 5.134 17.46 7.29 17.5C5.22 19.123 2.612 19.848 0 19.54C2.179 20.937 4.768 21.752 7.548 21.752C16.69 21.752 21.855 14.031 21.543 7.10605C22.505 6.41105 23.34 5.54405 24 4.55705Z" fill="#869AB8"/>
</g>
<defs>
<clipPath id="clip0">
<rect width="24" height="24" fill="white"/>
</clipPath>
</defs>
</svg>
