<svg xmlns="http://www.w3.org/2000/svg" xmlns:xlink="http://www.w3.org/1999/xlink" width="2800" height="2800" viewBox="0 0 2800 2800"><defs><clipPath id="b"><rect width="2800" height="2800"/></clipPath></defs><g id="a" clip-path="url(#b)"><g transform="translate(400 530)"><path d="M565.41.11q717.21-.22,1434.51,0,.22,231.83,0,463.58-717.23.22-1434.51,0-.23-231.83,0-463.58Z" fill="#02a6c2"/><path d="M.6,638.1q231.39-1.2,462.86,0,1.2,231.39,0,462.86Q232,1102.15.6,1101-.6,869.57.6,638.1Z" fill="#5fcade"/><path d="M565.77,638.1q517.67-1.1,1035.27,0,1.1,231.39,0,462.86-517.66,1.08-1035.27,0Q564.69,869.56,565.77,638.1Z" fill="#5fcade"/><path d="M566.2,1276.23q231-2.51,461.92,0,2.4,230.85.07,461.92-231,2.28-461.91-.08-2.4-230.83-.08-461.84Z" fill="#abebf4"/></g></g></svg>