<svg fill="none" height="40" viewBox="0 0 40 40" width="40" xmlns="http://www.w3.org/2000/svg"><path d="m40 20c0 11.0456-8.9544 20-20 20-11.04563 0-20-8.9544-20-20 0-11.04563 8.95437-20 20-20 11.0456 0 20 8.95437 20 20z" fill="#77d563"/><g fill="#fff"><path d="m12.7115 24.1771c-.0783-.0797-.2066-.0803-.2855-.0014l-3.31418 3.3127.21437 1.0172c.33625 1.7503 2.04361 2.9607 3.79411 2.6245l5.0781-.9758c.1376-.0264.1904-.1955.0922-.2955z"/><path d="m11.7206 23.4184c.0831-.083.0839-.2174.0016-.3011l-3.77034-3.8394c-.14829-.1509-.40219-.0177-.36219.1902l1.22484 6.3751c.03235.1681.23938.2319.36063.1111z"/><path d="m17.6791 17.1184c.0996.1012.2626.102.3632.0017l5.9335-5.9113c.14-.1395.0148-.3762-.1794-.3389l-9.945 1.9108c-.1572.0301-.2175.2234-.1052.3376z"/><path d="m29.1396 18.2572 3.8153 3.8389c.125.1257.3373.014.3045-.1602l-1.2184-6.4765c-.0267-.1418-.201-.1961-.3035-.0947l-2.5964 2.5645c-.0912.09-.0918.237-.0015.328z"/><path d="m23.9945 13.0033 4.0821 4.1756c.0975.0997.2576.1011.3568.0029l3.3027-3.269-.2083-1.2395c-.3364-1.7503-1.9864-2.90733-3.7367-2.5709l-1.4833.2679-2.31 2.2779c-.0986.0973-.1002.2561-.0033.3551z"/><path d="m12.7572 22.3018 4.1606-4.0653c.1097-.1072.1115-.283.004-.3922l-4.6394-4.7186-2.52642.4416c-1.65188.3173-2.77454 1.7684-2.61313 3.4117l5.22325 5.3188c.1071.1089.2819.1106.3911.004z"/><path d="m23.18 22.4522 4.2382-4.2025c.0713-.0707.0719-.1857.0014-.2571l-4.2235-4.2856c-.071-.0719-.1869-.0723-.2583-.0008l-4.215 4.215c-.0706.0707-.0713.185-.0011.2563l4.2004 4.2729c.0707.0721.1863.0727.2579.0018z"/><path d="m23.1758 24.198c-.0791-.081-.2089-.0818-.2891-.0019l-4.2245 4.2136c-.0794.0793-.0796.2079-.0003.2875l1.1181 1.1217 7.1-1.3667c.1616-.0311.2237-.2294.1087-.3472z"/><path d="m33.7039 24.3751-5.2803-5.3587c-.0911-.0925-.24-.0928-.3316-.0008l-4.1354 4.1569c-.0902.0906-.0906.237-.001.3282l4.5429 4.6214 2.6568-.5106c1.5708-.3017 2.5838-1.6862 2.5486-3.2364z"/><path d="m17.8007 22.1182c-.652 0-1.1806.5284-1.1806 1.1804 0 .6521.5286 1.1807 1.1806 1.1807.6521 0 1.1805-.5286 1.1805-1.1807 0-.652-.5284-1.1804-1.1805-1.1804z"/><path d="m14.4121 12.0603.9816-.2144c.1096-.0239.1906-.1172.1989-.2291l-.0141-.4478c.0266-.3539.2059-.7173.4358-.9876.27-.31769.5845-.56644.9833-.64691l2.3728-.48609c.5351-.10797 1.3006.1414 1.7173.59281.2695.29953.4181.61359.4892.79799.0361.0934.1328.1484.2314.1304l.9622-.1757c.115-.0211.1908-.1332.1652-.2474-.0569-.25342-.2309-.72998-.76-1.40811-.5672-.7639-1.9914-1.24656-3.0241-1.03812l-2.3367.47156c-1.1627.23469-2.197 1.08735-2.4748 2.27957-.1558.4754-.1607 1.1078-.1502 1.4362.0038.1144.1103.1972.2222.1727z"/></g></svg>