<svg viewBox="0 0 593.21 593.21" xmlns="http://www.w3.org/2000/svg" xmlns:xlink="http://www.w3.org/1999/xlink"><linearGradient id="a" gradientTransform="matrix(.07 0 0 -.07 -357.65 -38.39)" gradientUnits="userSpaceOnUse" x1="5686.65" x2="12487" y1="-2326.29" y2="-6979.17"><stop offset="0" stop-color="#ff3b3b"/><stop offset="1" stop-color="#ff9914"/></linearGradient><circle cx="296.6" cy="296.6" fill="url(#a)" r="296.6"/><path d="m285.86 107a75.41 75.41 0 0 0 -45.34 22.25c-9.09 9-17.7 18.24-26.91 27.33-4.61 4.73-9.27 9.33-13.93 14s-9.8 9.63-14.64 14.53-8.86 9.2-13.34 13.75c-7 7-14 14-21 21.07-5.37 5.55-10.62 11.28-15.93 16.82-3.13 3.31-6.5 6.38-9.45 9.86a83.1 83.1 0 0 0 -18.83 52.67c0 1.13 0 2.29.07 3.41a68.86 68.86 0 0 0 8.44 31.51 119.77 119.77 0 0 0 10.44 16.71c2.6 3.66 4.49 3.6 7.91.77a17 17 0 0 0 1.83-1.77c3.37-3.55 6.67-7.09 10.1-10.63 4.84-5.08 9.8-10.15 14.64-15.29s10.09-10.8 15.17-16.11c2.42-2.6 5-5 7.44-7.56 5.19-5.49 10.27-11.15 15.46-16.58s10.45-10.51 15.53-15.82 11.33-11.81 17.05-17.71 10.57-10.86 15.88-16.29c6.91-7.15 13.64-14.47 20.48-21.61 4.25-4.37 8.62-8.56 12.87-12.87 5.9-5.9 11.39-11.8 17.18-17.7s10.09-9.86 15.05-14.94q16.63-16.8 33.21-33.8a23.64 23.64 0 0 0 2-2.24c2.72-3.43 2.95-4.19-.41-6.61a105.84 105.84 0 0 0 -16.41-10.63 77.1 77.1 0 0 0 -32.67-7.26h-.56a90.26 90.26 0 0 0 -11.28.71l-.06-.06zm97.69 72.66h-.71a33.33 33.33 0 0 0 -25.44 11.81 24.63 24.63 0 0 1 -1.77 1.77l-18.06 17.71c-5.9 5.91-12.28 12.34-18.48 18.54-5.13 5.13-10.27 10.15-15.34 15.29s-10.51 10.86-16 16.23-11.33 11-17 16.53l-20.13 20.3-37.42 37.43q-24.8 24.9-49.53 49.7c-3.18 3.13-3.24 3.54 0 6.9 7.91 8 15.94 15.94 23.61 24a31.64 31.64 0 0 0 17.83 9.5 42.26 42.26 0 0 0 19.42-.65 29.56 29.56 0 0 0 12.75-6.79l19.6-18.93c4.6-4.42 9.27-8.79 13.81-13.28 9.09-9 18.06-18.06 27.15-27 7.38-7.26 14.94-14.46 22.43-21.72l30.73-29.95c9.56-9.39 19.18-18.83 28.86-28.22a6.32 6.32 0 0 1 11.14 1.25 43.17 43.17 0 0 1 7.55 24.4 44.26 44.26 0 0 1 -.23 4.46 40.72 40.72 0 0 1 -10.32 23.61c-7.09 7.62-14.64 14.82-22 22.14-5.25 5.19-10.62 10.27-15.88 15.52-6.79 6.73-13.46 13.58-20.25 20.31-1 1.12-1.94 2.3-3 3.36l-6.67 6.91c-5 5-10.09 9.86-15 14.87s-10.55 10.87-15.8 16.34c-.47.53-1 .88-1.47 1.35-5.91 5.49-11.34 11-16.95 16.53-2.65 2.6-5.19 5.25-7.79 7.85-4.48 4.55-9.09 9-13.4 13.64-2.65 2.77-2.65 4.48.48 6.67a112.39 112.39 0 0 0 16.35 10.44 82.41 82.41 0 0 0 45.62 6.49 74.59 74.59 0 0 0 41.33-18.83c8.73-7.67 16.53-16.29 24.67-24.55 5.9-5.91 11.81-12.22 18.12-18.3l17.06-17.18c5.2-5.25 10.33-10.51 15.59-15.7s11.8-11.39 17.7-17.24 11.81-11.8 17.71-18.06a136.64 136.64 0 0 0 13-15.35 83.71 83.71 0 0 0 13.41-37.12 82.31 82.31 0 0 0 0-19.84 82.94 82.94 0 0 0 -12.46-32.88 95.35 95.35 0 0 0 -16.52-19c-16.35-16.23-32.65-32.58-48.64-49.17a37.19 37.19 0 0 0 -27.65-12.34h-.22l-1.77.24z" fill="#fff" fill-rule="evenodd"/></svg>