<svg width="868" height="868" viewBox="0 0 868 868" fill="none" xmlns="http://www.w3.org/2000/svg">
<circle cx="434" cy="434" r="434" fill="#1B262D"/>
<path fill-rule="evenodd" clip-rule="evenodd" d="M234.563 184H640.697C650.387 184 659.339 189.164 664.172 197.542L782.495 402.657C788.631 413.294 786.808 426.72 778.056 435.346L452.368 756.327C441.818 766.724 424.846 766.724 414.296 756.327L89.0484 435.78C80.0927 426.954 78.4157 413.136 85.0013 402.433L211.48 196.884C216.405 188.879 225.146 184 234.563 184ZM588.257 275.577V333.129H472.567V373.032C553.82 377.296 614.782 394.81 615.234 415.802L615.231 459.563C614.779 480.556 553.82 498.069 472.567 502.333V600.259H395.746V502.333C314.492 498.069 253.531 480.555 253.078 459.563L253.081 415.802C253.533 394.81 314.492 377.296 395.746 373.032V333.129H280.055V275.577H588.257ZM434.156 472.268C520.868 472.268 593.345 457.459 611.082 437.683C596.041 420.912 541.636 407.713 472.567 404.089V445.867C460.187 446.516 447.336 446.858 434.156 446.858C420.976 446.858 408.125 446.516 395.746 445.867V404.089C326.676 407.713 272.271 420.912 257.23 437.683C274.968 457.459 347.444 472.268 434.156 472.268Z" fill="#009393"/>
</svg>
