<svg width="300" height="247" viewBox="0 0 300 247" fill="none" xmlns="http://www.w3.org/2000/svg">
<path fill-rule="evenodd" clip-rule="evenodd" d="M65.1281 0H237.375C241.485 0 245.281 2.19028 247.331 5.74363L297.514 92.7409C300.116 97.2525 299.343 102.947 295.631 106.605L157.502 242.745C153.028 247.156 145.83 247.156 141.355 242.745L3.41346 106.789C-0.384785 103.046 -1.09603 97.1852 1.69701 92.6457L55.3381 5.46451C57.4272 2.06922 61.1343 0 65.1281 0ZM215.135 38.8412V63.2514H166.069V80.1757C200.529 81.9843 226.384 89.4124 226.576 98.316L226.575 116.877C226.383 125.78 200.529 133.209 166.069 135.017V176.551H133.488V135.017C99.0273 133.209 73.1726 125.78 72.9807 116.877L72.9819 98.316C73.1736 89.4124 99.0273 81.9843 133.488 80.1757V63.2514H84.4218V38.8412H215.135ZM149.778 122.266C186.554 122.266 217.292 115.984 224.815 107.596C218.436 100.483 195.362 94.8854 166.069 93.348V111.068C160.818 111.343 155.368 111.488 149.778 111.488C144.189 111.488 138.738 111.343 133.488 111.068V93.348C104.195 94.8854 81.1207 100.483 74.7417 107.596C82.2642 115.984 113.003 122.266 149.778 122.266Z" fill="#009393"/>
</svg>
