<svg class="bob" font-family="arial" font-size="14" height="336" width="456" xmlns="http://www.w3.org/2000/svg">
<defs>
<marker id="triangle" markerHeight="8" markerWidth="8" orient="auto" refX="4" refY="2" viewBox="0 0 8 4">
<polygon fill="black" points="0,0 0,4 8,2 0,0"/>
</marker>
<marker id="clear_triangle" markerHeight="10" markerWidth="10" orient="auto" refX="1" refY="7" viewBox="0 0 20 14">
<polygon fill="none" points="2,2 2,12 18,7 2,2" stroke="black" stroke-width="2"/>
</marker>
<marker id="circle" markerHeight="5" markerWidth="5" orient="auto" refX="10" refY="10" viewBox="0 0 20 20">
<circle cx="10" cy="10" fill="black" r="8"/>
</marker>
<marker id="square" markerHeight="5" markerWidth="5" orient="auto" refX="10" refY="10" viewBox="0 0 20 20">
<rect fill="black" height="20" width="20" x="0" y="0"/>
</marker>
<marker id="open_circle" markerHeight="10" markerWidth="10" orient="auto" refX="10" refY="10" viewBox="0 0 20 20">
<circle cx="10" cy="10" fill="white" r="4" stroke="black" stroke-width="2"/>
</marker>
<marker id="big_open_circle" markerHeight="20" markerWidth="20" orient="auto" refX="20" refY="20" viewBox="0 0 40 40">
<circle cx="20" cy="20" fill="white" r="6" stroke="black" stroke-width="2"/>
</marker>
</defs>
<style type="text/css">

    line,path {
      stroke: black;
      stroke-width: 2;
      stroke-opacity: 1;
      fill-opacity: 1;
      stroke-linecap: round;
      stroke-linejoin: miter;
    }
    line.dashed {
        stroke-dasharray: 5;
    }
    circle.solid {
      fill:black;
      stroke: black;
      stroke-width: 2;
      stroke-opacity: 1;
      fill-opacity: 1;
      stroke-linecap: round;
      stroke-linejoin: miter;
    }
    circle.open {
      fill:none;
      stroke: black;
      stroke-width: 2;
      stroke-opacity: 1;
      fill-opacity: 1;
      stroke-linecap: round;
      stroke-linejoin: miter;
    }
    tspan.head{
        fill: none;
        stroke: none;
    }
    
</style>
<rect fill="white" height="336" width="456" x="0" y="0"/>
<g>
<line x1="12" x2="12" y1="60" y2="116"/>
<path d="M 12 116 A 4 4 0 0 0 16 120" fill="none"/>
<path d="M 16 56 A 4 4 0 0 0 12 60" fill="none"/>
</g>
<g>
<line x1="16" x2="80" y1="56" y2="56"/>
<path d="M 84 60 A 4 4 0 0 0 80 56" fill="none"/>
</g>
<g>
<line x1="16" x2="52" y1="120" y2="120"/>
<line x1="52" x2="52" y1="120" y2="260"/>
<line x1="52" x2="80" y1="120" y2="120"/>
<path d="M 52 260 A 4 4 0 0 0 56 264" fill="none"/>
<path d="M 80 120 A 4 4 0 0 0 84 116" fill="none"/>
</g>
<g>
<line marker-end="url(#triangle)" x1="56" x2="124" y1="264" y2="264"/>
</g>
<g>
<line x1="84" x2="84" y1="60" y2="116"/>
</g>
<g>
<line marker-end="url(#triangle)" x1="84" x2="124" y1="72" y2="72"/>
</g>
<g>
<line marker-end="url(#triangle)" x1="96" x2="92" y1="104" y2="104"/>
<line x1="96" x2="132" y1="104" y2="104"/>
</g>
<g>
<line x1="108" x2="108" y1="12" y2="64"/>
<path d="M 112 8 A 4 4 0 0 0 108 12" fill="none"/>
</g>
<g>
<line x1="108" x2="108" y1="80" y2="96"/>
</g>
<g>
<line x1="108" x2="108" y1="112" y2="256"/>
</g>
<g>
<line x1="108" x2="108" y1="272" y2="308"/>
<path d="M 108 308 A 4 4 0 0 0 112 312" fill="none"/>
</g>
<g>
<line x1="112" x2="304" y1="8" y2="8"/>
<path d="M 308 12 A 4 4 0 0 0 304 8" fill="none"/>
</g>
<g>
<line x1="112" x2="304" y1="312" y2="312"/>
<path d="M 304 312 A 4 4 0 0 0 308 308" fill="none"/>
</g>
<g>
<line x1="132" x2="132" y1="60" y2="116"/>
<path d="M 132 116 A 4 4 0 0 0 136 120" fill="none"/>
<path d="M 136 56 A 4 4 0 0 0 132 60" fill="none"/>
</g>
<g>
<line x1="132" x2="132" y1="172" y2="196"/>
<path d="M 132 196 A 4 4 0 0 0 136 200" fill="none"/>
<path d="M 136 168 A 4 4 0 0 0 132 172" fill="none"/>
</g>
<g>
<line x1="132" x2="132" y1="252" y2="276"/>
<path d="M 132 276 A 4 4 0 0 0 136 280" fill="none"/>
<path d="M 136 248 A 4 4 0 0 0 132 252" fill="none"/>
</g>
<g>
<line x1="136" x2="264" y1="56" y2="56"/>
<path d="M 268 60 A 4 4 0 0 0 264 56" fill="none"/>
</g>
<g>
<line x1="136" x2="264" y1="120" y2="120"/>
<path d="M 264 120 A 4 4 0 0 0 268 116" fill="none"/>
</g>
<g>
<line x1="136" x2="156" y1="168" y2="168"/>
<line x1="156" x2="156" y1="144" y2="168"/>
<line x1="156" x2="184" y1="168" y2="168"/>
<path d="M 188 172 A 4 4 0 0 0 184 168" fill="none"/>
</g>
<g>
<line x1="136" x2="184" y1="200" y2="200"/>
<path d="M 184 200 A 4 4 0 0 0 188 196" fill="none"/>
</g>
<g>
<line x1="136" x2="156" y1="248" y2="248"/>
<line x1="156" x2="156" y1="224" y2="248"/>
<line x1="156" x2="176" y1="248" y2="248"/>
<path d="M 180 252 A 4 4 0 0 0 176 248" fill="none"/>
</g>
<g>
<line x1="136" x2="176" y1="280" y2="280"/>
<path d="M 176 280 A 4 4 0 0 0 180 276" fill="none"/>
</g>
<g>
<line marker-end="url(#triangle)" x1="156" x2="156" y1="144" y2="132"/>
</g>
<g>
<line marker-end="url(#triangle)" x1="156" x2="156" y1="224" y2="212"/>
</g>
<g>
<line x1="180" x2="180" y1="252" y2="264"/>
<line x1="180" x2="180" y1="264" y2="276"/>
<line marker-end="url(#triangle)" x1="180" x2="204" y1="264" y2="264"/>
</g>
<g>
<line x1="188" x2="188" y1="172" y2="196"/>
</g>
<g>
<line marker-end="url(#triangle)" x1="200" x2="196" y1="184" y2="184"/>
<line x1="200" x2="220" y1="184" y2="184"/>
</g>
<g>
<line x1="212" x2="212" y1="252" y2="276"/>
<path d="M 212 276 A 4 4 0 0 0 216 280" fill="none"/>
<path d="M 216 248 A 4 4 0 0 0 212 252" fill="none"/>
</g>
<g>
<line x1="216" x2="236" y1="248" y2="248"/>
<line x1="236" x2="236" y1="224" y2="248"/>
<line x1="236" x2="256" y1="248" y2="248"/>
<path d="M 260 252 A 4 4 0 0 0 256 248" fill="none"/>
</g>
<g>
<line x1="216" x2="256" y1="280" y2="280"/>
<path d="M 256 280 A 4 4 0 0 0 260 276" fill="none"/>
</g>
<g>
<line x1="220" x2="220" y1="172" y2="196"/>
<path d="M 220 196 A 4 4 0 0 0 224 200" fill="none"/>
<path d="M 224 168 A 4 4 0 0 0 220 172" fill="none"/>
</g>
<g>
<line x1="224" x2="264" y1="168" y2="168"/>
<path d="M 268 172 A 4 4 0 0 0 264 168" fill="none"/>
</g>
<g>
<line x1="224" x2="264" y1="200" y2="200"/>
<path d="M 264 200 A 4 4 0 0 0 268 196" fill="none"/>
</g>
<g>
<line marker-end="url(#triangle)" x1="236" x2="236" y1="224" y2="212"/>
</g>
<g>
<line x1="260" x2="260" y1="252" y2="276"/>
</g>
<g>
<line x1="268" x2="268" y1="60" y2="116"/>
</g>
<g>
<line x1="268" x2="268" y1="172" y2="196"/>
</g>
<g>
<line marker-end="url(#triangle)" x1="272" x2="268" y1="264" y2="264"/>
<line marker-end="url(#triangle)" x1="272" x2="340" y1="264" y2="264"/>
</g>
<g>
<line x1="308" x2="308" y1="12" y2="256"/>
</g>
<g>
<line x1="308" x2="308" y1="272" y2="308"/>
</g>
<g>
<line x1="348" x2="348" y1="236" y2="292"/>
<path d="M 348 292 A 4 4 0 0 0 352 296" fill="none"/>
<path d="M 352 232 A 4 4 0 0 0 348 236" fill="none"/>
</g>
<g>
<line x1="352" x2="448" y1="232" y2="232"/>
<path d="M 452 236 A 4 4 0 0 0 448 232" fill="none"/>
</g>
<g>
<line x1="352" x2="448" y1="296" y2="296"/>
<path d="M 448 296 A 4 4 0 0 0 452 292" fill="none"/>
</g>
<g>
<line x1="452" x2="452" y1="236" y2="292"/>
</g>
<g>
<text x="25" y="92">
Client
</text>
</g>
<g>
<text x="129" y="28">
Fullnode
</text>
</g>
<g>
<text x="145" y="92">
JsonRpcService
</text>
</g>
<g>
<text x="145" y="188">
Bank
</text>
</g>
<g>
<text x="145" y="268">
Tpu
</text>
</g>
<g>
<text x="225" y="268">
Ncp
</text>
</g>
<g>
<text x="233" y="188">
Tvu
</text>
</g>
<g>
<text x="361" y="268">
Validators
</text>
</g>
</svg>
