<svg class="bob" font-family="arial" font-size="14" height="336" width="768" xmlns="http://www.w3.org/2000/svg">
<defs>
<marker id="triangle" markerHeight="8" markerWidth="8" orient="auto" refX="4" refY="2" viewBox="0 0 8 4">
<polygon fill="black" points="0,0 0,4 8,2 0,0"/>
</marker>
<marker id="clear_triangle" markerHeight="10" markerWidth="10" orient="auto" refX="1" refY="7" viewBox="0 0 20 14">
<polygon fill="none" points="2,2 2,12 18,7 2,2" stroke="black" stroke-width="2"/>
</marker>
<marker id="circle" markerHeight="5" markerWidth="5" orient="auto" refX="10" refY="10" viewBox="0 0 20 20">
<circle cx="10" cy="10" fill="black" r="8"/>
</marker>
<marker id="square" markerHeight="5" markerWidth="5" orient="auto" refX="10" refY="10" viewBox="0 0 20 20">
<rect fill="black" height="20" width="20" x="0" y="0"/>
</marker>
<marker id="open_circle" markerHeight="10" markerWidth="10" orient="auto" refX="10" refY="10" viewBox="0 0 20 20">
<circle cx="10" cy="10" fill="white" r="4" stroke="black" stroke-width="2"/>
</marker>
<marker id="big_open_circle" markerHeight="20" markerWidth="20" orient="auto" refX="20" refY="20" viewBox="0 0 40 40">
<circle cx="20" cy="20" fill="white" r="6" stroke="black" stroke-width="2"/>
</marker>
</defs>
<style type="text/css">

    line,path {
      stroke: black;
      stroke-width: 2;
      stroke-opacity: 1;
      fill-opacity: 1;
      stroke-linecap: round;
      stroke-linejoin: miter;
    }
    line.dashed {
        stroke-dasharray: 5;
    }
    circle.solid {
      fill:black;
      stroke: black;
      stroke-width: 2;
      stroke-opacity: 1;
      fill-opacity: 1;
      stroke-linecap: round;
      stroke-linejoin: miter;
    }
    circle.open {
      fill:none;
      stroke: black;
      stroke-width: 2;
      stroke-opacity: 1;
      fill-opacity: 1;
      stroke-linecap: round;
      stroke-linejoin: miter;
    }
    tspan.head{
        fill: none;
        stroke: none;
    }
    
</style>
<rect fill="white" height="336" width="768" x="0" y="0"/>
<g>
<line x1="12" x2="12" y1="156" y2="196"/>
<path d="M 12 196 A 4 4 0 0 0 16 200" fill="none"/>
<path d="M 16 152 A 4 4 0 0 0 12 156" fill="none"/>
</g>
<g>
<line x1="16" x2="112" y1="152" y2="152"/>
<path d="M 116 156 A 4 4 0 0 0 112 152" fill="none"/>
</g>
<g>
<line x1="16" x2="112" y1="200" y2="200"/>
<path d="M 112 200 A 4 4 0 0 0 116 196" fill="none"/>
</g>
<g>
<line x1="116" x2="116" y1="156" y2="168"/>
<line x1="116" x2="116" y1="168" y2="196"/>
<line marker-end="url(#triangle)" x1="116" x2="164" y1="168" y2="168"/>
</g>
<g>
<line x1="148" x2="148" y1="92" y2="160"/>
<path d="M 152 88 A 4 4 0 0 0 148 92" fill="none"/>
</g>
<g>
<line x1="148" x2="148" y1="176" y2="244"/>
<path d="M 148 244 A 4 4 0 0 0 152 248" fill="none"/>
</g>
<g>
<line x1="152" x2="444" y1="88" y2="88"/>
<line x1="444" x2="760" y1="88" y2="88"/>
<path d="M 764 92 A 4 4 0 0 0 760 88" fill="none"/>
</g>
<g>
<line x1="152" x2="220" y1="248" y2="248"/>
<line x1="220" x2="308" y1="248" y2="248"/>
<line x1="308" x2="444" y1="248" y2="248"/>
<line x1="444" x2="760" y1="248" y2="248"/>
<path d="M 760 248 A 4 4 0 0 0 764 244" fill="none"/>
</g>
<g>
<line x1="172" x2="172" y1="140" y2="196"/>
<path d="M 172 196 A 4 4 0 0 0 176 200" fill="none"/>
<path d="M 176 136 A 4 4 0 0 0 172 140" fill="none"/>
</g>
<g>
<line x1="176" x2="232" y1="136" y2="136"/>
<path d="M 236 140 A 4 4 0 0 0 232 136" fill="none"/>
</g>
<g>
<line x1="176" x2="232" y1="200" y2="200"/>
<path d="M 232 200 A 4 4 0 0 0 236 196" fill="none"/>
</g>
<g>
<line x1="212" x2="212" y1="300" y2="324"/>
<path d="M 212 324 A 4 4 0 0 0 216 328" fill="none"/>
<path d="M 216 296 A 4 4 0 0 0 212 300" fill="none"/>
</g>
<g>
<line x1="216" x2="312" y1="328" y2="328"/>
<path d="M 312 328 A 4 4 0 0 0 316 324" fill="none"/>
</g>
<g>
<line marker-end="url(#triangle)" x1="220" x2="220" y1="224" y2="212"/>
<line x1="220" x2="220" y1="224" y2="296"/>
<line x1="220" x2="216" y1="296" y2="296"/>
<line x1="220" x2="312" y1="296" y2="296"/>
<path d="M 316 300 A 4 4 0 0 0 312 296" fill="none"/>
</g>
<g>
<line x1="236" x2="236" y1="140" y2="196"/>
</g>
<g>
<line marker-end="url(#triangle)" x1="236" x2="260" y1="168" y2="168"/>
</g>
<g>
<line x1="268" x2="268" y1="140" y2="196"/>
<path d="M 268 196 A 4 4 0 0 0 272 200" fill="none"/>
<path d="M 272 136 A 4 4 0 0 0 268 140" fill="none"/>
</g>
<g>
<line x1="272" x2="368" y1="136" y2="136"/>
<path d="M 372 140 A 4 4 0 0 0 368 136" fill="none"/>
</g>
<g>
<line x1="272" x2="308" y1="200" y2="200"/>
<line marker-end="url(#triangle)" x1="308" x2="308" y1="200" y2="284"/>
<line x1="308" x2="368" y1="200" y2="200"/>
<path d="M 368 200 A 4 4 0 0 0 372 196" fill="none"/>
</g>
<g>
<line x1="316" x2="316" y1="300" y2="324"/>
</g>
<g>
<line x1="372" x2="372" y1="140" y2="196"/>
</g>
<g>
<line marker-end="url(#triangle)" x1="372" x2="396" y1="168" y2="168"/>
</g>
<g>
<line x1="404" x2="404" y1="12" y2="36"/>
<path d="M 404 36 A 4 4 0 0 0 408 40" fill="none"/>
<path d="M 408 8 A 4 4 0 0 0 404 12" fill="none"/>
</g>
<g>
<line x1="404" x2="404" y1="140" y2="196"/>
<path d="M 404 196 A 4 4 0 0 0 408 200" fill="none"/>
<path d="M 408 136 A 4 4 0 0 0 404 140" fill="none"/>
</g>
<g>
<line x1="408" x2="472" y1="8" y2="8"/>
<path d="M 476 12 A 4 4 0 0 0 472 8" fill="none"/>
</g>
<g>
<line x1="408" x2="472" y1="40" y2="40"/>
<path d="M 472 40 A 4 4 0 0 0 476 36" fill="none"/>
</g>
<g>
<line x1="408" x2="444" y1="136" y2="136"/>
<line x1="444" x2="444" y1="64" y2="136"/>
<line x1="444" x2="520" y1="136" y2="136"/>
<path d="M 524 140 A 4 4 0 0 0 520 136" fill="none"/>
</g>
<g>
<line x1="408" x2="444" y1="200" y2="200"/>
<line marker-end="url(#triangle)" x1="444" x2="444" y1="200" y2="284"/>
<line x1="444" x2="520" y1="200" y2="200"/>
<path d="M 520 200 A 4 4 0 0 0 524 196" fill="none"/>
</g>
<g>
<line x1="420" x2="420" y1="300" y2="324"/>
<path d="M 420 324 A 4 4 0 0 0 424 328" fill="none"/>
<path d="M 424 296 A 4 4 0 0 0 420 300" fill="none"/>
</g>
<g>
<line x1="424" x2="472" y1="296" y2="296"/>
<path d="M 476 300 A 4 4 0 0 0 472 296" fill="none"/>
</g>
<g>
<line x1="424" x2="472" y1="328" y2="328"/>
<path d="M 472 328 A 4 4 0 0 0 476 324" fill="none"/>
</g>
<g>
<line marker-end="url(#triangle)" x1="444" x2="444" y1="64" y2="52"/>
</g>
<g>
<line x1="476" x2="476" y1="12" y2="36"/>
</g>
<g>
<line x1="476" x2="476" y1="300" y2="324"/>
</g>
<g>
<line x1="524" x2="524" y1="140" y2="196"/>
</g>
<g>
<line marker-end="url(#triangle)" x1="524" x2="548" y1="168" y2="168"/>
</g>
<g>
<line x1="556" x2="556" y1="140" y2="196"/>
<path d="M 556 196 A 4 4 0 0 0 560 200" fill="none"/>
<path d="M 560 136 A 4 4 0 0 0 556 140" fill="none"/>
</g>
<g>
<line x1="560" x2="624" y1="136" y2="136"/>
<path d="M 628 140 A 4 4 0 0 0 624 136" fill="none"/>
</g>
<g>
<line x1="560" x2="624" y1="200" y2="200"/>
<path d="M 624 200 A 4 4 0 0 0 628 196" fill="none"/>
</g>
<g>
<line x1="628" x2="628" y1="140" y2="196"/>
</g>
<g>
<line marker-end="url(#triangle)" x1="628" x2="652" y1="168" y2="168"/>
</g>
<g>
<line x1="660" x2="660" y1="140" y2="196"/>
<path d="M 660 196 A 4 4 0 0 0 664 200" fill="none"/>
<path d="M 664 136 A 4 4 0 0 0 660 140" fill="none"/>
</g>
<g>
<line x1="664" x2="736" y1="136" y2="136"/>
<path d="M 740 140 A 4 4 0 0 0 736 136" fill="none"/>
</g>
<g>
<line x1="664" x2="736" y1="200" y2="200"/>
<path d="M 736 200 A 4 4 0 0 0 740 196" fill="none"/>
</g>
<g>
<line x1="740" x2="740" y1="140" y2="196"/>
</g>
<g>
<line x1="764" x2="764" y1="92" y2="244"/>
</g>
<g>
<text x="25" y="172">
Upstream
</text>
</g>
<g>
<text x="25" y="188">
Validators
</text>
</g>
<g>
<text x="169" y="108">
TVU
</text>
</g>
<g>
<text x="185" y="156">
Blob
</text>
</g>
<g>
<text x="185" y="172">
Fetch
</text>
</g>
<g>
<text x="185" y="188">
Stage
</text>
</g>
<g>
<text x="249" y="316">
NCP
</text>
</g>
<g>
<text x="281" y="156">
Retransmit
</text>
</g>
<g>
<text x="281" y="172">
Stage
</text>
</g>
<g>
<text x="417" y="28">
Leader
</text>
</g>
<g>
<text x="417" y="156">
Replicate
</text>
</g>
<g>
<text x="417" y="172">
Stage
</text>
</g>
<g>
<text x="433" y="316">
Bank
</text>
</g>
<g>
<text x="569" y="156">
Ledger
</text>
</g>
<g>
<text x="569" y="172">
Write
</text>
</g>
<g>
<text x="569" y="188">
Stage
</text>
</g>
<g>
<text x="673" y="156">
Storage
</text>
</g>
<g>
<text x="673" y="172">
Stage
</text>
</g>
</svg>
